%TF.GenerationSoftware,KiCad,Pcbnew,8.0.4+dfsg-1*%
%TF.CreationDate,2024-08-07T14:19:07+02:00*%
%TF.ProjectId,EMC_antenna,454d435f-616e-4746-956e-6e612e6b6963,rev?*%
%TF.SameCoordinates,Original*%
%TF.FileFunction,Soldermask,Top*%
%TF.FilePolarity,Negative*%
%FSLAX46Y46*%
G04 Gerber Fmt 4.6, Leading zero omitted, Abs format (unit mm)*
G04 Created by KiCad (PCBNEW 8.0.4+dfsg-1) date 2024-08-07 14:19:07*
%MOMM*%
%LPD*%
G01*
G04 APERTURE LIST*
%ADD10C,0.000000*%
%TA.AperFunction,Profile*%
%ADD11C,0.100000*%
%TD*%
G04 APERTURE END LIST*
D10*
%TO.C,AE1*%
G36*
X147458503Y-88710400D02*
G01*
X147692818Y-88790840D01*
X147910697Y-88908750D01*
X148106197Y-89060914D01*
X148273986Y-89243181D01*
X148409486Y-89450579D01*
X148509001Y-89677451D01*
X148569817Y-89917608D01*
X148590275Y-90164500D01*
X148569817Y-90411392D01*
X148509001Y-90651549D01*
X148409486Y-90878421D01*
X148273986Y-91085819D01*
X148106197Y-91268086D01*
X147910697Y-91420250D01*
X147692818Y-91538160D01*
X147458503Y-91618600D01*
X147214144Y-91659377D01*
X146966406Y-91659377D01*
X146722047Y-91618600D01*
X146487732Y-91538160D01*
X146269853Y-91420250D01*
X146074353Y-91268086D01*
X145906564Y-91085819D01*
X145771064Y-90878421D01*
X145671549Y-90651549D01*
X145610733Y-90411392D01*
X145590275Y-90164500D01*
X145610733Y-89917608D01*
X145671549Y-89677451D01*
X145771064Y-89450579D01*
X145906564Y-89243181D01*
X146074353Y-89060914D01*
X146269853Y-88908750D01*
X146487732Y-88790840D01*
X146722047Y-88710400D01*
X146966406Y-88669623D01*
X147214144Y-88669623D01*
X147458503Y-88710400D01*
G37*
G36*
X148045773Y-65395497D02*
G01*
X148943723Y-65442807D01*
X149827347Y-65513685D01*
X150671396Y-65607140D01*
X151450622Y-65722180D01*
X152017080Y-65823137D01*
X152541694Y-65925757D01*
X153014081Y-66027399D01*
X153423859Y-66125425D01*
X153760647Y-66217196D01*
X154014064Y-66300072D01*
X154106263Y-66337349D01*
X154173727Y-66371413D01*
X154215157Y-66401934D01*
X154225703Y-66415762D01*
X154229255Y-66428581D01*
X154111942Y-66853775D01*
X153792526Y-67953000D01*
X152742507Y-71507009D01*
X149801328Y-81463771D01*
X149272242Y-83349016D01*
X149174953Y-83754041D01*
X149163215Y-83890453D01*
X149166855Y-83893801D01*
X149170867Y-83896944D01*
X149175235Y-83899882D01*
X149179946Y-83902615D01*
X149184984Y-83905142D01*
X149190336Y-83907464D01*
X149195985Y-83909579D01*
X149201918Y-83911488D01*
X149214577Y-83914686D01*
X149228195Y-83917054D01*
X149242655Y-83918591D01*
X149257840Y-83919295D01*
X149273634Y-83919164D01*
X149289919Y-83918194D01*
X149306577Y-83916384D01*
X149323493Y-83913732D01*
X149340549Y-83910235D01*
X149357628Y-83905891D01*
X149374613Y-83900698D01*
X149391387Y-83894653D01*
X149425196Y-83844904D01*
X149492160Y-83711455D01*
X149718351Y-83210731D01*
X150055559Y-82427025D01*
X150489381Y-81394881D01*
X151589260Y-78723448D01*
X152902770Y-75472776D01*
X156252889Y-67113558D01*
X156633825Y-67246357D01*
X156783375Y-67303068D01*
X156963821Y-67379239D01*
X157402112Y-67581835D01*
X157918122Y-67837891D01*
X158481277Y-68131157D01*
X159061000Y-68445379D01*
X159626717Y-68764307D01*
X160147853Y-69071687D01*
X160593831Y-69351269D01*
X161101197Y-69692956D01*
X161604989Y-70052046D01*
X162101244Y-70425314D01*
X162585997Y-70809535D01*
X163055285Y-71201485D01*
X163505145Y-71597937D01*
X163931613Y-71995669D01*
X164330724Y-72391454D01*
X165141332Y-73222385D01*
X164376356Y-73929017D01*
X160201976Y-77862152D01*
X154759282Y-83034432D01*
X154021640Y-83744535D01*
X153432997Y-84323479D01*
X152983672Y-84782508D01*
X152808229Y-84970568D01*
X152663985Y-85132866D01*
X152549731Y-85270806D01*
X152464257Y-85385794D01*
X152406352Y-85479236D01*
X152374807Y-85552537D01*
X152368541Y-85582074D01*
X152368411Y-85607103D01*
X152374266Y-85627799D01*
X152385955Y-85644338D01*
X152403326Y-85656896D01*
X152426228Y-85665648D01*
X152488021Y-85672440D01*
X152514608Y-85661951D01*
X152566743Y-85631177D01*
X152742094Y-85512919D01*
X153002949Y-85325955D01*
X153338185Y-85078580D01*
X153736678Y-84779083D01*
X154187303Y-84435758D01*
X154678936Y-84056897D01*
X155200452Y-83650791D01*
X166121587Y-75136682D01*
X166602994Y-74772142D01*
X166958181Y-75202737D01*
X167195066Y-75508271D01*
X167448502Y-75868876D01*
X167715176Y-76277957D01*
X167991773Y-76728919D01*
X168274981Y-77215167D01*
X168561486Y-77730106D01*
X169131132Y-78819674D01*
X169674207Y-79944866D01*
X170164201Y-81052920D01*
X170381009Y-81584032D01*
X170574607Y-82091076D01*
X170741682Y-82567454D01*
X170878919Y-83006573D01*
X171023415Y-83508510D01*
X171078502Y-83711130D01*
X171121035Y-83885124D01*
X171150177Y-84033195D01*
X171165093Y-84158047D01*
X171166955Y-84212610D01*
X171164948Y-84262383D01*
X171158965Y-84307703D01*
X171148904Y-84348908D01*
X171134660Y-84386335D01*
X171116127Y-84420324D01*
X171093203Y-84451212D01*
X171065782Y-84479337D01*
X171033759Y-84505037D01*
X170997031Y-84528650D01*
X170955492Y-84550513D01*
X170909039Y-84570966D01*
X170800971Y-84608989D01*
X170671991Y-84645424D01*
X170347951Y-84724342D01*
X153948669Y-88623856D01*
X153915071Y-88631454D01*
X153883146Y-88639614D01*
X153852908Y-88648305D01*
X153824372Y-88657493D01*
X153797554Y-88667149D01*
X153772467Y-88677239D01*
X153749128Y-88687733D01*
X153727550Y-88698598D01*
X153707749Y-88709803D01*
X153689740Y-88721317D01*
X153673538Y-88733107D01*
X153659157Y-88745141D01*
X153646612Y-88757389D01*
X153635919Y-88769819D01*
X153627093Y-88782398D01*
X153620147Y-88795096D01*
X153615098Y-88807879D01*
X153611959Y-88820718D01*
X153610747Y-88833579D01*
X153611476Y-88846432D01*
X153614160Y-88859245D01*
X153618815Y-88871985D01*
X153625456Y-88884622D01*
X153634097Y-88897123D01*
X153644754Y-88909458D01*
X153657441Y-88921593D01*
X153672174Y-88933498D01*
X153688966Y-88945141D01*
X153707834Y-88956490D01*
X153728792Y-88967513D01*
X153751855Y-88978180D01*
X153777038Y-88988457D01*
X153986056Y-88976061D01*
X154518600Y-88915005D01*
X156411091Y-88666410D01*
X159168169Y-88281676D01*
X162503492Y-87799805D01*
X168637379Y-86913886D01*
X171371221Y-86545406D01*
X171413811Y-86546420D01*
X171453378Y-86549547D01*
X171472076Y-86551943D01*
X171490076Y-86554918D01*
X171507397Y-86558485D01*
X171524059Y-86562663D01*
X171540081Y-86567467D01*
X171555481Y-86572914D01*
X171570281Y-86579020D01*
X171584498Y-86585801D01*
X171598152Y-86593273D01*
X171611262Y-86601454D01*
X171623847Y-86610359D01*
X171635928Y-86620004D01*
X171647522Y-86630406D01*
X171658649Y-86641581D01*
X171669330Y-86653546D01*
X171679581Y-86666316D01*
X171689424Y-86679909D01*
X171698878Y-86694340D01*
X171707961Y-86709626D01*
X171716693Y-86725783D01*
X171733180Y-86760775D01*
X171748494Y-86799448D01*
X171762790Y-86841931D01*
X171776220Y-86888355D01*
X171804342Y-87054451D01*
X171827584Y-87316853D01*
X171859925Y-88078261D01*
X171874241Y-89067951D01*
X171871532Y-90181291D01*
X171852796Y-91313651D01*
X171819032Y-92360402D01*
X171771239Y-93216913D01*
X171742394Y-93541131D01*
X171710416Y-93778553D01*
X171620069Y-94247680D01*
X171506512Y-94773936D01*
X171378746Y-95322229D01*
X171245768Y-95857466D01*
X171116579Y-96344555D01*
X171000177Y-96748403D01*
X170905562Y-97033919D01*
X170869237Y-97121335D01*
X170841733Y-97166008D01*
X170829705Y-97173598D01*
X170810914Y-97178555D01*
X170783939Y-97180473D01*
X170747357Y-97178948D01*
X170699746Y-97173576D01*
X170639683Y-97163952D01*
X170476513Y-97130329D01*
X170246468Y-97074843D01*
X169938168Y-96994258D01*
X169540236Y-96885335D01*
X169041291Y-96744840D01*
X168429954Y-96569535D01*
X167694847Y-96356183D01*
X165807805Y-95802393D01*
X163289132Y-95057578D01*
X160047796Y-94095844D01*
X157483797Y-93341236D01*
X155374163Y-92733218D01*
X153937298Y-92333829D01*
X153539406Y-92231758D01*
X153391609Y-92205109D01*
X153388299Y-92208715D01*
X153385195Y-92212703D01*
X153382297Y-92217056D01*
X153379606Y-92221761D01*
X153377121Y-92226801D01*
X153374842Y-92232164D01*
X153372770Y-92237833D01*
X153370904Y-92243794D01*
X153367795Y-92256532D01*
X153365515Y-92270261D01*
X153364065Y-92284861D01*
X153363448Y-92300214D01*
X153363663Y-92316203D01*
X153364713Y-92332708D01*
X153366599Y-92349611D01*
X153369322Y-92366794D01*
X153372883Y-92384138D01*
X153377284Y-92401525D01*
X153382526Y-92418837D01*
X153388610Y-92435955D01*
X153435082Y-92468690D01*
X153558788Y-92531820D01*
X154021956Y-92742618D01*
X154746211Y-93055057D01*
X155699648Y-93455847D01*
X158166462Y-94469309D01*
X161167173Y-95676670D01*
X166806498Y-97933635D01*
X169530515Y-99040411D01*
X170178472Y-99328123D01*
X169817884Y-100181433D01*
X169628573Y-100612177D01*
X169422726Y-101048090D01*
X169201278Y-101487771D01*
X168965165Y-101929817D01*
X168715321Y-102372827D01*
X168452682Y-102815400D01*
X168178184Y-103256134D01*
X167892761Y-103693628D01*
X167597349Y-104126481D01*
X167292883Y-104553290D01*
X166980299Y-104972655D01*
X166660531Y-105383174D01*
X166334516Y-105783445D01*
X166003188Y-106172067D01*
X165667483Y-106547639D01*
X165328336Y-106908758D01*
X164143598Y-108138273D01*
X162580495Y-106539160D01*
X161616812Y-105541862D01*
X160148415Y-104008560D01*
X156496068Y-100169912D01*
X154726147Y-98317755D01*
X153249358Y-96801000D01*
X152220039Y-95776166D01*
X151921411Y-95497132D01*
X151834544Y-95424520D01*
X151792526Y-95399773D01*
X151773964Y-95400434D01*
X151755922Y-95402375D01*
X151738494Y-95405530D01*
X151721774Y-95409834D01*
X151705854Y-95415221D01*
X151690828Y-95421626D01*
X151676790Y-95428983D01*
X151663833Y-95437228D01*
X151652050Y-95446294D01*
X151641536Y-95456116D01*
X151636783Y-95461291D01*
X151632382Y-95466630D01*
X151628345Y-95472125D01*
X151624684Y-95477769D01*
X151621409Y-95483552D01*
X151618533Y-95489468D01*
X151616068Y-95495507D01*
X151614024Y-95501661D01*
X151612415Y-95507923D01*
X151611251Y-95514284D01*
X151610543Y-95520737D01*
X151610305Y-95527271D01*
X151612466Y-95536563D01*
X151618878Y-95551195D01*
X151644031Y-95595906D01*
X151684918Y-95660259D01*
X151740690Y-95743107D01*
X151893505Y-95959704D01*
X152095699Y-96236530D01*
X152340493Y-96564414D01*
X152621110Y-96934188D01*
X152930772Y-97336684D01*
X153262702Y-97762732D01*
X160455923Y-106959396D01*
X161941076Y-108883945D01*
X162400907Y-109517767D01*
X162405932Y-109550209D01*
X162398607Y-109588474D01*
X162379245Y-109632354D01*
X162348161Y-109681643D01*
X162305670Y-109736133D01*
X162252085Y-109795618D01*
X162112894Y-109928746D01*
X161933101Y-110079369D01*
X161715223Y-110245834D01*
X161461774Y-110426484D01*
X161175269Y-110619665D01*
X160858222Y-110823722D01*
X160513149Y-111036999D01*
X160142564Y-111257841D01*
X159748982Y-111484592D01*
X159334919Y-111715599D01*
X158902888Y-111949204D01*
X158455405Y-112183754D01*
X157994985Y-112417593D01*
X157421801Y-112685998D01*
X156733360Y-112980393D01*
X155981258Y-113281792D01*
X155217092Y-113571207D01*
X154492459Y-113829652D01*
X153858957Y-114038139D01*
X153368182Y-114177681D01*
X153192441Y-114215665D01*
X153071731Y-114229292D01*
X153048794Y-114228632D01*
X153025903Y-114226407D01*
X153003201Y-114222696D01*
X152980832Y-114217577D01*
X152958940Y-114211130D01*
X152937670Y-114203432D01*
X152917165Y-114194563D01*
X152897569Y-114184601D01*
X152879027Y-114173625D01*
X152861682Y-114161714D01*
X152845678Y-114148946D01*
X152831160Y-114135400D01*
X152818272Y-114121154D01*
X152807157Y-114106289D01*
X152797960Y-114090881D01*
X152794125Y-114082999D01*
X152790824Y-114075010D01*
X148617286Y-96828140D01*
X148617041Y-96825241D01*
X148616315Y-96822379D01*
X148615120Y-96819556D01*
X148613467Y-96816778D01*
X148611369Y-96814048D01*
X148608838Y-96811369D01*
X148605885Y-96808745D01*
X148602523Y-96806179D01*
X148598763Y-96803675D01*
X148594618Y-96801237D01*
X148590100Y-96798869D01*
X148585220Y-96796573D01*
X148579991Y-96794355D01*
X148574425Y-96792216D01*
X148568533Y-96790161D01*
X148562328Y-96788194D01*
X148549025Y-96784537D01*
X148534613Y-96781273D01*
X148519187Y-96778432D01*
X148502844Y-96776043D01*
X148485679Y-96774134D01*
X148467788Y-96772734D01*
X148449267Y-96771873D01*
X148430213Y-96771580D01*
X148420626Y-96771865D01*
X148411162Y-96772712D01*
X148401833Y-96774106D01*
X148392651Y-96776034D01*
X148383629Y-96778482D01*
X148374777Y-96781434D01*
X148366109Y-96784879D01*
X148357636Y-96788801D01*
X148349369Y-96793186D01*
X148341322Y-96798021D01*
X148333506Y-96803291D01*
X148325932Y-96808984D01*
X148318613Y-96815083D01*
X148311561Y-96821577D01*
X148304787Y-96828450D01*
X148298304Y-96835688D01*
X148292123Y-96843278D01*
X148286257Y-96851206D01*
X148280718Y-96859458D01*
X148275517Y-96868019D01*
X148270666Y-96876876D01*
X148266177Y-96886015D01*
X148262062Y-96895421D01*
X148258334Y-96905081D01*
X148255004Y-96914981D01*
X148252084Y-96925107D01*
X148249586Y-96935444D01*
X148247521Y-96945980D01*
X148245903Y-96956699D01*
X148244742Y-96967588D01*
X148244052Y-96978632D01*
X148243842Y-96989819D01*
X148342026Y-97762946D01*
X148608990Y-99706663D01*
X149486083Y-105932181D01*
X150350337Y-112106186D01*
X150603440Y-113994145D01*
X150684753Y-114699186D01*
X150674646Y-114704155D01*
X150653565Y-114710170D01*
X150622101Y-114717148D01*
X150580842Y-114725008D01*
X150471293Y-114743048D01*
X150329630Y-114763637D01*
X150160564Y-114786119D01*
X149968806Y-114809843D01*
X149759066Y-114834153D01*
X149536056Y-114858397D01*
X149008315Y-114903344D01*
X148421740Y-114934589D01*
X147793471Y-114952204D01*
X147140647Y-114956257D01*
X146480407Y-114946820D01*
X145829891Y-114923963D01*
X145206238Y-114887756D01*
X144626586Y-114838270D01*
X144626403Y-114838408D01*
X144165810Y-114783990D01*
X143629129Y-114708151D01*
X143046051Y-114616175D01*
X142446264Y-114513349D01*
X141859456Y-114404955D01*
X141315317Y-114296281D01*
X140843535Y-114192609D01*
X140473800Y-114099226D01*
X140409766Y-114080622D01*
X140351591Y-114062257D01*
X140299117Y-114043997D01*
X140252185Y-114025709D01*
X140210637Y-114007262D01*
X140174315Y-113988523D01*
X140143060Y-113969358D01*
X140116714Y-113949636D01*
X140105332Y-113939524D01*
X140095118Y-113929223D01*
X140086052Y-113918716D01*
X140078114Y-113907987D01*
X140071285Y-113897020D01*
X140065544Y-113885796D01*
X140060872Y-113874301D01*
X140057249Y-113862517D01*
X140054655Y-113850428D01*
X140053070Y-113838017D01*
X140052475Y-113825267D01*
X140052850Y-113812163D01*
X140056430Y-113784824D01*
X140063651Y-113755865D01*
X140825309Y-111113310D01*
X141533635Y-108681475D01*
X142256278Y-106249640D01*
X143391110Y-102447452D01*
X144297830Y-99339055D01*
X144888410Y-97231119D01*
X145037638Y-96648160D01*
X145074821Y-96430317D01*
X145071357Y-96427143D01*
X145067520Y-96424170D01*
X145063323Y-96421400D01*
X145058780Y-96418832D01*
X145053907Y-96416467D01*
X145048718Y-96414304D01*
X145043226Y-96412343D01*
X145037447Y-96410585D01*
X145025084Y-96407675D01*
X145011745Y-96405576D01*
X144997544Y-96404287D01*
X144982597Y-96403810D01*
X144967019Y-96404143D01*
X144950927Y-96405288D01*
X144934435Y-96407245D01*
X144917658Y-96410014D01*
X144900713Y-96413595D01*
X144883715Y-96417990D01*
X144866779Y-96423197D01*
X144850021Y-96429218D01*
X144818507Y-96473235D01*
X144758275Y-96589879D01*
X144557955Y-97026044D01*
X144261647Y-97707696D01*
X143881941Y-98604818D01*
X142922685Y-100925403D01*
X141780891Y-103747664D01*
X139584754Y-109219398D01*
X138447951Y-111991708D01*
X138154436Y-112652290D01*
X137978918Y-112982068D01*
X137872453Y-113095728D01*
X137786095Y-113107954D01*
X137692529Y-113091580D01*
X137547736Y-113044888D01*
X137357652Y-112970905D01*
X137128209Y-112872659D01*
X136574985Y-112615486D01*
X135935536Y-112297587D01*
X135257332Y-111943181D01*
X134587846Y-111576485D01*
X133974549Y-111221717D01*
X133703806Y-111056375D01*
X133464913Y-110903097D01*
X132985370Y-110573048D01*
X132465120Y-110192641D01*
X131924059Y-109778071D01*
X131382084Y-109345534D01*
X130859092Y-108911225D01*
X130374980Y-108491340D01*
X129949645Y-108102072D01*
X129602982Y-107759619D01*
X129108216Y-107243528D01*
X130382264Y-105967100D01*
X131294306Y-105077874D01*
X132835767Y-103600288D01*
X134791288Y-101739907D01*
X136945511Y-99702292D01*
X138996565Y-97755559D01*
X140671170Y-96142618D01*
X141796872Y-95031243D01*
X142099993Y-94716071D01*
X142177189Y-94627790D01*
X142201217Y-94589207D01*
X142199250Y-94582834D01*
X142196810Y-94576582D01*
X142193910Y-94570458D01*
X142190566Y-94564467D01*
X142186792Y-94558618D01*
X142182602Y-94552917D01*
X142178011Y-94547372D01*
X142173034Y-94541989D01*
X142167684Y-94536776D01*
X142161977Y-94531739D01*
X142155926Y-94526885D01*
X142149547Y-94522222D01*
X142142854Y-94517756D01*
X142135861Y-94513495D01*
X142128583Y-94509445D01*
X142121034Y-94505613D01*
X142113229Y-94502008D01*
X142105182Y-94498634D01*
X142096908Y-94495501D01*
X142088422Y-94492614D01*
X142079737Y-94489980D01*
X142070868Y-94487607D01*
X142061830Y-94485502D01*
X142052638Y-94483672D01*
X142043305Y-94482123D01*
X142033846Y-94480862D01*
X142024276Y-94479898D01*
X142014610Y-94479236D01*
X142004861Y-94478884D01*
X141995044Y-94478848D01*
X141985174Y-94479136D01*
X141975265Y-94479756D01*
X141925672Y-94504888D01*
X141818631Y-94575579D01*
X141444446Y-94844280D01*
X140877209Y-95267157D01*
X140141417Y-95825507D01*
X138262154Y-97273820D01*
X136002632Y-99039602D01*
X131542064Y-102538975D01*
X128934564Y-104570608D01*
X127646684Y-105557028D01*
X127398454Y-105248556D01*
X127103078Y-104859081D01*
X126763972Y-104374614D01*
X126398297Y-103822787D01*
X126023218Y-103231231D01*
X125655897Y-102627577D01*
X125313497Y-102039457D01*
X125013180Y-101494503D01*
X124772111Y-101020346D01*
X124492557Y-100399737D01*
X124198603Y-99684219D01*
X123907076Y-98922382D01*
X123634805Y-98162822D01*
X123398617Y-97454130D01*
X123215340Y-96844901D01*
X123101802Y-96383727D01*
X123076444Y-96223846D01*
X123074830Y-96119202D01*
X123077865Y-96090160D01*
X123079369Y-96063357D01*
X123081243Y-96038273D01*
X123085388Y-96014389D01*
X123088907Y-96002735D01*
X123093706Y-95991186D01*
X123100025Y-95979677D01*
X123108099Y-95968143D01*
X123118168Y-95956520D01*
X123130468Y-95944743D01*
X123145237Y-95932746D01*
X123162714Y-95920466D01*
X123183135Y-95907836D01*
X123206739Y-95894792D01*
X123233763Y-95881269D01*
X123264444Y-95867202D01*
X123337732Y-95837177D01*
X123428502Y-95804199D01*
X123538657Y-95767746D01*
X123670099Y-95727301D01*
X123824728Y-95682344D01*
X124004446Y-95632356D01*
X124211155Y-95576818D01*
X124446756Y-95515209D01*
X124713151Y-95447012D01*
X125012241Y-95371706D01*
X125716111Y-95197693D01*
X126573580Y-94989016D01*
X127599858Y-94741521D01*
X128810157Y-94451054D01*
X131843666Y-93724587D01*
X137039763Y-92478305D01*
X139592282Y-91848152D01*
X140169730Y-91687567D01*
X140437320Y-91589146D01*
X140491486Y-91553677D01*
X140512066Y-91522265D01*
X140510978Y-91456303D01*
X140510601Y-91447045D01*
X140509481Y-91437955D01*
X140507632Y-91429042D01*
X140505070Y-91420314D01*
X140501807Y-91411779D01*
X140497861Y-91403446D01*
X140493244Y-91395322D01*
X140487972Y-91387416D01*
X140482060Y-91379735D01*
X140475523Y-91372289D01*
X140468374Y-91365086D01*
X140460630Y-91358133D01*
X140452303Y-91351440D01*
X140443411Y-91345013D01*
X140433966Y-91338862D01*
X140423984Y-91332994D01*
X140413479Y-91327418D01*
X140402467Y-91322143D01*
X140390962Y-91317175D01*
X140378978Y-91312525D01*
X140366531Y-91308199D01*
X140353635Y-91304206D01*
X140340305Y-91300554D01*
X140326556Y-91297252D01*
X140312402Y-91294307D01*
X140297858Y-91291728D01*
X140282939Y-91289524D01*
X140267659Y-91287701D01*
X140252034Y-91286270D01*
X140236078Y-91285237D01*
X140219805Y-91284611D01*
X140203231Y-91284401D01*
X140012150Y-91303327D01*
X139584018Y-91357571D01*
X138125554Y-91556796D01*
X136045734Y-91851648D01*
X133562455Y-92211701D01*
X124449885Y-93532178D01*
X122964053Y-93724469D01*
X122682459Y-93746139D01*
X122591730Y-93734352D01*
X122566533Y-93697514D01*
X122542380Y-93639151D01*
X122497312Y-93462236D01*
X122456738Y-93212384D01*
X122420872Y-92898370D01*
X122364119Y-92112958D01*
X122328764Y-91176209D01*
X122317205Y-90215555D01*
X141940564Y-90215555D01*
X141962482Y-90623120D01*
X142017435Y-91027042D01*
X142104290Y-91425160D01*
X142221908Y-91815312D01*
X142369156Y-92195336D01*
X142544896Y-92563072D01*
X142747994Y-92916357D01*
X142977314Y-93253029D01*
X143231719Y-93570927D01*
X143510074Y-93867890D01*
X143811243Y-94141756D01*
X144134091Y-94390363D01*
X144477481Y-94611549D01*
X144656525Y-94711185D01*
X144840278Y-94803154D01*
X145093433Y-94915929D01*
X145347975Y-95015369D01*
X145603728Y-95101465D01*
X145860517Y-95174209D01*
X146118165Y-95233592D01*
X146376498Y-95279606D01*
X146635340Y-95312242D01*
X146894515Y-95331492D01*
X147153849Y-95337347D01*
X147413165Y-95329798D01*
X147672288Y-95308838D01*
X147931043Y-95274458D01*
X148189254Y-95226649D01*
X148446746Y-95165402D01*
X148703343Y-95090710D01*
X148958869Y-95002564D01*
X149277013Y-94871921D01*
X149580403Y-94722881D01*
X149868830Y-94556412D01*
X150142087Y-94373482D01*
X150399966Y-94175058D01*
X150642257Y-93962108D01*
X150868754Y-93735599D01*
X151079247Y-93496501D01*
X151273528Y-93245780D01*
X151451390Y-92984404D01*
X151612624Y-92713341D01*
X151757022Y-92433559D01*
X151884375Y-92146026D01*
X151994475Y-91851709D01*
X152087115Y-91551576D01*
X152162086Y-91246595D01*
X152219179Y-90937735D01*
X152258187Y-90625962D01*
X152278901Y-90312244D01*
X152281114Y-89997549D01*
X152264616Y-89682846D01*
X152229199Y-89369101D01*
X152174657Y-89057283D01*
X152100779Y-88748359D01*
X152007358Y-88443298D01*
X151894186Y-88143066D01*
X151761055Y-87848632D01*
X151607756Y-87560964D01*
X151434081Y-87281029D01*
X151239822Y-87009796D01*
X151024770Y-86748231D01*
X150788719Y-86497303D01*
X150501556Y-86231272D01*
X150203204Y-85992213D01*
X149894863Y-85779729D01*
X149577732Y-85593426D01*
X149253011Y-85432906D01*
X148921900Y-85297774D01*
X148585599Y-85187633D01*
X148245307Y-85102089D01*
X147902224Y-85040744D01*
X147557550Y-85003203D01*
X147212484Y-84989070D01*
X146868227Y-84997948D01*
X146525977Y-85029442D01*
X146186936Y-85083156D01*
X145852301Y-85158694D01*
X145523274Y-85255660D01*
X145201053Y-85373657D01*
X144886839Y-85512290D01*
X144581832Y-85671163D01*
X144287230Y-85849879D01*
X144004234Y-86048043D01*
X143734044Y-86265259D01*
X143477859Y-86501131D01*
X143236879Y-86755262D01*
X143012303Y-87027258D01*
X142805332Y-87316720D01*
X142617165Y-87623255D01*
X142449001Y-87946465D01*
X142302042Y-88285955D01*
X142177485Y-88641329D01*
X142076532Y-89012191D01*
X142000381Y-89398144D01*
X141972115Y-89602106D01*
X141952819Y-89806509D01*
X141940564Y-90215555D01*
X122317205Y-90215555D01*
X122316517Y-90158328D01*
X122329087Y-89129522D01*
X122368184Y-88159998D01*
X122398214Y-87719406D01*
X122435518Y-87319962D01*
X122501038Y-86789403D01*
X122584877Y-86217606D01*
X122681934Y-85631129D01*
X122787106Y-85056530D01*
X122895292Y-84520369D01*
X123001390Y-84049203D01*
X123100298Y-83669591D01*
X123145461Y-83522418D01*
X123186914Y-83408093D01*
X123321763Y-83076702D01*
X124464982Y-83387837D01*
X125317247Y-83629969D01*
X126792665Y-84059240D01*
X130783638Y-85236553D01*
X138864122Y-87616110D01*
X140400938Y-88039184D01*
X140734495Y-88113710D01*
X140850913Y-88117718D01*
X140854158Y-88114175D01*
X140857198Y-88110260D01*
X140860033Y-88105986D01*
X140862664Y-88101369D01*
X140865089Y-88096422D01*
X140867310Y-88091161D01*
X140869326Y-88085600D01*
X140871137Y-88079754D01*
X140874144Y-88067261D01*
X140876330Y-88053800D01*
X140877695Y-88039487D01*
X140878237Y-88024438D01*
X140877957Y-88008767D01*
X140876854Y-87992593D01*
X140874926Y-87976030D01*
X140872175Y-87959194D01*
X140868598Y-87942203D01*
X140864196Y-87925171D01*
X140858968Y-87908214D01*
X140852912Y-87891449D01*
X140803797Y-87857979D01*
X140672331Y-87792009D01*
X140179350Y-87569637D01*
X139407962Y-87238467D01*
X138392162Y-86812633D01*
X135763301Y-85733512D01*
X132564721Y-84445347D01*
X126710467Y-82097389D01*
X124185289Y-81065042D01*
X124175188Y-81057640D01*
X124166373Y-81048674D01*
X124158862Y-81038091D01*
X124152669Y-81025839D01*
X124147812Y-81011866D01*
X124144306Y-80996118D01*
X124142168Y-80978544D01*
X124141414Y-80959092D01*
X124142061Y-80937708D01*
X124144124Y-80914342D01*
X124147620Y-80888939D01*
X124152565Y-80861449D01*
X124158976Y-80831819D01*
X124166868Y-80799996D01*
X124176258Y-80765929D01*
X124187162Y-80729564D01*
X124213577Y-80649733D01*
X124246244Y-80560086D01*
X124285293Y-80460203D01*
X124330853Y-80349666D01*
X124383055Y-80228057D01*
X124442029Y-80094957D01*
X124507904Y-79949946D01*
X124580812Y-79792607D01*
X124798664Y-79338128D01*
X125025683Y-78887331D01*
X125261576Y-78440653D01*
X125506051Y-77998529D01*
X125758815Y-77561394D01*
X126019576Y-77129683D01*
X126288042Y-76703833D01*
X126563920Y-76284278D01*
X126846918Y-75871453D01*
X127136744Y-75465796D01*
X127433105Y-75067739D01*
X127735709Y-74677720D01*
X128044264Y-74296174D01*
X128358477Y-73923535D01*
X128678056Y-73560240D01*
X129002709Y-73206724D01*
X129992806Y-72151876D01*
X130315049Y-72396110D01*
X130364916Y-72439099D01*
X130446821Y-72516415D01*
X130699345Y-72766370D01*
X131057828Y-73130659D01*
X131507476Y-73593962D01*
X132621095Y-74756335D01*
X133921852Y-76130941D01*
X137648240Y-80080415D01*
X140278932Y-82843393D01*
X141865480Y-84473575D01*
X142283309Y-84880648D01*
X142459434Y-85024658D01*
X142501428Y-85033706D01*
X142537726Y-85037686D01*
X142553673Y-85037677D01*
X142568117Y-85036282D01*
X142581030Y-85033460D01*
X142592387Y-85029173D01*
X142602161Y-85023380D01*
X142610326Y-85016042D01*
X142616854Y-85007120D01*
X142621720Y-84996572D01*
X142624898Y-84984360D01*
X142626359Y-84970443D01*
X142626079Y-84954782D01*
X142624030Y-84937338D01*
X142614522Y-84896938D01*
X142597621Y-84848925D01*
X142573116Y-84792981D01*
X142540796Y-84728787D01*
X142500448Y-84656026D01*
X142451860Y-84574379D01*
X142394821Y-84483528D01*
X142329117Y-84383155D01*
X142254538Y-84272941D01*
X142170871Y-84152569D01*
X142077904Y-84021720D01*
X141975426Y-83880076D01*
X141741086Y-83563129D01*
X141466155Y-83199183D01*
X141148937Y-82785692D01*
X140787737Y-82320111D01*
X140380858Y-81799893D01*
X139926605Y-81222493D01*
X136191091Y-76472210D01*
X133664320Y-73227067D01*
X132238714Y-71347575D01*
X131905230Y-70876358D01*
X131806694Y-70694246D01*
X131810192Y-70687086D01*
X131816549Y-70677929D01*
X131837541Y-70653862D01*
X131869076Y-70622518D01*
X131910558Y-70584372D01*
X131961392Y-70539898D01*
X132020983Y-70489572D01*
X132164053Y-70373258D01*
X132335006Y-70239226D01*
X132529080Y-70091271D01*
X132741511Y-69933189D01*
X132967537Y-69768776D01*
X133355426Y-69502182D01*
X133787415Y-69227537D01*
X134257160Y-68947726D01*
X134758319Y-68665635D01*
X135829497Y-68106163D01*
X136950196Y-67572212D01*
X138069664Y-67086877D01*
X138613076Y-66869657D01*
X139137148Y-66673250D01*
X139635536Y-66500543D01*
X140101896Y-66354422D01*
X140529883Y-66237775D01*
X140913154Y-66153488D01*
X140986239Y-66140289D01*
X141051847Y-66129649D01*
X141110538Y-66121767D01*
X141162876Y-66116841D01*
X141209421Y-66115069D01*
X141250737Y-66116649D01*
X141269610Y-66118759D01*
X141287386Y-66121780D01*
X141304135Y-66125739D01*
X141319929Y-66130660D01*
X141334836Y-66136568D01*
X141348928Y-66143487D01*
X141362274Y-66151443D01*
X141374945Y-66160459D01*
X141387012Y-66170562D01*
X141398544Y-66181775D01*
X141409611Y-66194124D01*
X141420285Y-66207632D01*
X141440730Y-66238230D01*
X141460442Y-66273765D01*
X141479984Y-66314437D01*
X141499915Y-66360443D01*
X141565547Y-66592521D01*
X141706065Y-67143554D01*
X142176781Y-69058566D01*
X142842111Y-71817632D01*
X143632102Y-75132905D01*
X145067825Y-81137282D01*
X145697494Y-83667187D01*
X145700531Y-83669855D01*
X145703896Y-83672122D01*
X145707576Y-83673995D01*
X145711558Y-83675479D01*
X145715830Y-83676580D01*
X145720380Y-83677302D01*
X145725194Y-83677652D01*
X145730260Y-83677635D01*
X145735565Y-83677257D01*
X145741097Y-83676522D01*
X145746844Y-83675437D01*
X145752791Y-83674007D01*
X145758927Y-83672237D01*
X145765240Y-83670134D01*
X145771716Y-83667702D01*
X145778343Y-83664947D01*
X145791998Y-83658490D01*
X145806106Y-83650807D01*
X145820564Y-83641943D01*
X145835271Y-83631940D01*
X145850128Y-83620845D01*
X145865031Y-83608699D01*
X145879881Y-83595549D01*
X145894576Y-83581436D01*
X145903266Y-83565060D01*
X145909533Y-83535437D01*
X145914596Y-83434884D01*
X145909360Y-83276652D01*
X145893418Y-83057614D01*
X145827787Y-82424614D01*
X145714449Y-81510874D01*
X145550149Y-80291385D01*
X145331631Y-78741137D01*
X145055642Y-76835118D01*
X144718925Y-74548318D01*
X143795208Y-68261861D01*
X143423858Y-65633837D01*
X143433206Y-65630743D01*
X143456236Y-65626216D01*
X143540488Y-65613214D01*
X143670906Y-65595538D01*
X143841781Y-65573892D01*
X144282068Y-65521520D01*
X144815681Y-65461746D01*
X145518451Y-65404878D01*
X146307888Y-65375541D01*
X147158745Y-65372744D01*
X148045773Y-65395497D01*
G37*
%TD*%
D11*
%TO.C,AE1*%
X122095379Y-90333310D02*
X122114329Y-91353790D01*
X122100009Y-89302550D02*
X122095379Y-90333310D01*
X122111829Y-88805440D02*
X122100009Y-89302550D01*
X122114329Y-91353790D02*
X122131979Y-91838060D01*
X122130359Y-88332300D02*
X122111829Y-88805440D01*
X122131979Y-91838060D02*
X122154719Y-92293220D01*
X122154719Y-92293220D02*
X122182279Y-92710430D01*
X122155849Y-87891980D02*
X122130359Y-88332300D01*
X122182279Y-92710430D02*
X122214399Y-93080830D01*
X122188569Y-87493320D02*
X122155849Y-87891980D01*
X122214399Y-93080830D02*
X122250809Y-93395580D01*
X122250809Y-93395580D02*
X122291239Y-93645840D01*
X122291239Y-93645840D02*
X122335419Y-93822750D01*
X122335419Y-93822750D02*
X122383079Y-93917470D01*
X122383079Y-93917470D02*
X122422899Y-93944020D01*
X122385429Y-86002490D02*
X122188569Y-87493320D01*
X122422899Y-93944020D02*
X122486889Y-93960610D01*
X122486889Y-93960610D02*
X122583389Y-93966670D01*
X122583389Y-93966670D02*
X122720739Y-93961650D01*
X122660269Y-84538050D02*
X122385429Y-86002490D01*
X122720739Y-93961650D02*
X122907289Y-93944980D01*
X122733699Y-84210590D02*
X122660269Y-84538050D01*
X122773069Y-95952880D02*
X122790889Y-96069090D01*
X122773789Y-95800560D02*
X122773069Y-95952880D01*
X122790889Y-96069090D02*
X122821709Y-96219580D01*
X122807019Y-83907810D02*
X122733699Y-84210590D01*
X122818669Y-95717040D02*
X122773789Y-95800560D01*
X122821709Y-96219580D02*
X122866169Y-96410060D01*
X122866169Y-96410060D02*
X122868866Y-96420901D01*
X122868056Y-96417643D02*
X122988694Y-96902205D01*
X122868866Y-96420901D02*
X122924919Y-96646200D01*
X122874779Y-95695870D02*
X122818669Y-95717040D01*
X122879249Y-83634310D02*
X122807019Y-83907810D01*
X122907289Y-93944980D02*
X123151369Y-93916110D01*
X122924919Y-96646200D02*
X122868056Y-96417643D01*
X122949369Y-83394690D02*
X122879249Y-83634310D01*
X122988694Y-96902205D02*
X123264986Y-97861919D01*
X123016409Y-83193560D02*
X122949369Y-83394690D01*
X123018759Y-95654110D02*
X122874779Y-95695870D01*
X123079349Y-83035520D02*
X123016409Y-83193560D01*
X123137219Y-82925170D02*
X123079349Y-83035520D01*
X123151369Y-93916110D02*
X123461339Y-93874480D01*
X123188999Y-82867120D02*
X123137219Y-82925170D01*
X123233759Y-82866930D02*
X123188999Y-82867120D01*
X123246049Y-95592900D02*
X123018759Y-95654110D01*
X123264986Y-97861919D02*
X123580788Y-98809367D01*
X123338759Y-82885700D02*
X123233759Y-82866930D01*
X123461339Y-93874480D02*
X123845519Y-93819510D01*
X123505599Y-82923880D02*
X123338759Y-82885700D01*
X123552099Y-95513340D02*
X123246049Y-95592900D01*
X123580788Y-98809367D02*
X123935558Y-99742923D01*
X123735859Y-82981930D02*
X123505599Y-82923880D01*
X123832769Y-81004400D02*
X123834159Y-81094330D01*
X123834159Y-81094330D02*
X123861029Y-81152880D01*
X123845519Y-93819510D02*
X128832059Y-93093680D01*
X123860599Y-80873080D02*
X123832769Y-81004400D01*
X123861029Y-81152880D02*
X123913589Y-81180890D01*
X123913589Y-81180890D02*
X124050429Y-81242160D01*
X123921339Y-80690320D02*
X123860599Y-80873080D01*
X123932329Y-95416550D02*
X123552099Y-95513340D01*
X123935558Y-99742923D02*
X124328687Y-100660985D01*
X124018699Y-80446110D02*
X123921339Y-80690320D01*
X124031139Y-83060300D02*
X123735859Y-82981930D01*
X124050429Y-81242160D02*
X124267189Y-81334920D01*
X124156409Y-80130430D02*
X124018699Y-80446110D01*
X124241559Y-79942650D02*
X124156409Y-80130430D01*
X124267189Y-81334920D02*
X124559489Y-81457410D01*
X124328687Y-100660985D02*
X124759501Y-101561977D01*
X124338179Y-79733240D02*
X124241559Y-79942650D01*
X124382199Y-95303660D02*
X123932329Y-95416550D01*
X124393029Y-83159450D02*
X124031139Y-83060300D01*
X124446739Y-79500950D02*
X124338179Y-79733240D01*
X124559489Y-81457410D02*
X124922989Y-81607850D01*
X124567709Y-79244520D02*
X124446739Y-79500950D01*
X124759501Y-101561977D02*
X124991125Y-102004362D01*
X124823129Y-83279840D02*
X124393029Y-83159450D01*
X124897149Y-95175780D02*
X124382199Y-95303660D01*
X124922989Y-81607850D02*
X125353309Y-81784470D01*
X124989179Y-78401930D02*
X124567709Y-79244520D01*
X124991125Y-102004362D02*
X125710199Y-103236910D01*
X125323039Y-83421920D02*
X124823129Y-83279840D01*
X125353309Y-81784470D02*
X125846099Y-81985520D01*
X125452219Y-77579790D02*
X124989179Y-78401930D01*
X125472619Y-95034030D02*
X124897149Y-95175780D01*
X125710199Y-103236910D02*
X126525399Y-104462800D01*
X125713479Y-77152630D02*
X125452219Y-77579790D01*
X125846099Y-81985520D02*
X126396979Y-82209210D01*
X125894339Y-83586140D02*
X125323039Y-83421920D01*
X126002119Y-76702080D02*
X125713479Y-77152630D01*
X126104049Y-94879530D02*
X125472619Y-95034030D01*
X126323799Y-76218620D02*
X126002119Y-76702080D01*
X126396979Y-82209210D02*
X127001599Y-82453780D01*
X126525399Y-104462800D02*
X126721029Y-104735390D01*
X126538619Y-83772970D02*
X125894339Y-83586140D01*
X126684179Y-75692770D02*
X126323799Y-76218620D01*
X126721029Y-104735390D02*
X126907199Y-104985650D01*
X126786889Y-94713400D02*
X126104049Y-94879530D01*
X126907199Y-104985650D02*
X127080819Y-105209220D01*
X127001599Y-82453780D02*
X127655579Y-82717470D01*
X127015619Y-75222850D02*
X126684179Y-75692770D01*
X127080819Y-105209220D02*
X127238799Y-105401710D01*
X127238799Y-105401710D02*
X127378039Y-105558740D01*
X127257489Y-83982860D02*
X126538619Y-83772970D01*
X127333179Y-74789810D02*
X127015619Y-75222850D01*
X127378039Y-105558740D02*
X127495449Y-105675930D01*
X127495449Y-105675930D02*
X127587929Y-105748900D01*
X127516579Y-94536760D02*
X126786889Y-94713400D01*
X127587929Y-105748900D02*
X127652399Y-105773270D01*
X127642679Y-74386610D02*
X127333179Y-74789810D01*
X127652399Y-105773270D02*
X127705089Y-105743270D01*
X127655579Y-82717470D02*
X128354579Y-82998500D01*
X127705089Y-105743270D02*
X127829649Y-105656100D01*
X127829649Y-105656100D02*
X128022329Y-105514690D01*
X127949959Y-74006220D02*
X127642679Y-74386610D01*
X128022329Y-105514690D02*
X128279339Y-105321950D01*
X128052539Y-84216260D02*
X127257489Y-83982860D01*
X128279339Y-105321950D02*
X128596919Y-105080810D01*
X128288559Y-94350720D02*
X127516579Y-94536760D01*
X128354579Y-82998500D02*
X129094219Y-83295110D01*
X128581189Y-73285750D02*
X127949959Y-74006220D01*
X128596919Y-105080810D02*
X128971289Y-104794200D01*
X128832059Y-93093680D02*
X136409369Y-91988280D01*
X128845649Y-107134590D02*
X128852049Y-107175370D01*
X128852049Y-107175370D02*
X128881799Y-107236120D01*
X128881799Y-107236120D02*
X128933229Y-107315070D01*
X128882209Y-107088780D02*
X128845649Y-107134590D01*
X128925359Y-84473630D02*
X128052539Y-84216260D01*
X128933229Y-107315070D02*
X129004669Y-107410480D01*
X128971289Y-104794200D02*
X129398689Y-104465040D01*
X128984289Y-106981430D02*
X128882209Y-107088780D01*
X129004669Y-107410480D02*
X129200889Y-107643660D01*
X129094219Y-83295110D02*
X129870139Y-83605520D01*
X129098269Y-94156410D02*
X128288559Y-94350720D01*
X129148509Y-106815750D02*
X128984289Y-106981430D01*
X129200889Y-107643660D02*
X129457099Y-107921650D01*
X129273539Y-72572170D02*
X128581189Y-73285750D01*
X129371519Y-106595000D02*
X129148509Y-106815750D01*
X129398689Y-104465040D02*
X129875329Y-104096250D01*
X129452559Y-72397720D02*
X129273539Y-72572170D01*
X129457099Y-107921650D02*
X130096079Y-108555970D01*
X129604889Y-72254500D02*
X129452559Y-72397720D01*
X129649939Y-106322410D02*
X129371519Y-106595000D01*
X129733059Y-72140570D02*
X129604889Y-72254500D01*
X129839589Y-72054030D02*
X129733059Y-72140570D01*
X129870139Y-83605520D02*
X130677979Y-83927980D01*
X129875329Y-104096250D02*
X130397459Y-103690760D01*
X129877539Y-84755430D02*
X128925359Y-84473630D01*
X129927029Y-71992930D02*
X129839589Y-72054030D01*
X129941149Y-93954940D02*
X129098269Y-94156410D01*
X129980409Y-106001200D02*
X129649939Y-106322410D01*
X129997879Y-71955360D02*
X129927029Y-71992930D01*
X130054689Y-71939390D02*
X129997879Y-71955360D01*
X130096079Y-108555970D02*
X130814759Y-109201280D01*
X130099979Y-71943090D02*
X130054689Y-71939390D01*
X130142919Y-71961880D02*
X130099979Y-71943090D01*
X130200269Y-71999010D02*
X130142919Y-71961880D01*
X130279619Y-72062360D02*
X130200269Y-71999010D01*
X130359579Y-105634610D02*
X129980409Y-106001200D01*
X130388559Y-72159770D02*
X130279619Y-72062360D01*
X130397459Y-103690760D02*
X130961299Y-103251480D01*
X130534669Y-72299110D02*
X130388559Y-72159770D01*
X130677979Y-83927980D02*
X131513369Y-84260700D01*
X130725539Y-72488230D02*
X130534669Y-72299110D01*
X130784059Y-105225880D02*
X130359579Y-105634610D01*
X130812649Y-93747430D02*
X129941149Y-93954940D01*
X130814759Y-109201280D02*
X131529799Y-109783300D01*
X130910679Y-85062100D02*
X129877539Y-84755430D01*
X130961299Y-103251480D02*
X131563069Y-102781360D01*
X130968759Y-72734990D02*
X130725539Y-72488230D01*
X131250509Y-104778240D02*
X130784059Y-105225880D01*
X131271909Y-73047260D02*
X130968759Y-72734990D01*
X131448339Y-73230410D02*
X131271909Y-73047260D01*
X131467199Y-70735160D02*
X131497219Y-70787790D01*
X131491589Y-70670750D02*
X131467199Y-70735160D01*
X131497219Y-70787790D02*
X131584459Y-70912240D01*
X131513369Y-84260700D02*
X132371959Y-84601930D01*
X131529799Y-109783300D02*
X132285159Y-110351720D01*
X131563069Y-102781360D02*
X132198999Y-102283300D01*
X131564629Y-70578360D02*
X131491589Y-70670750D01*
X131584459Y-70912240D02*
X131725999Y-71104730D01*
X131642589Y-73432880D02*
X131448339Y-73230410D01*
X131681929Y-70461060D02*
X131564629Y-70578360D01*
X131708209Y-93535010D02*
X130812649Y-93747430D01*
X131725999Y-71104730D02*
X131918889Y-71361490D01*
X131755539Y-104294930D02*
X131250509Y-104778240D01*
X131839119Y-70321960D02*
X131681929Y-70461060D01*
X131855619Y-73655660D02*
X131642589Y-73432880D01*
X131918889Y-71361490D02*
X132160229Y-71678760D01*
X132026379Y-85394120D02*
X130910679Y-85062100D01*
X132031789Y-70164130D02*
X131839119Y-70321960D01*
X132088379Y-73899730D02*
X131855619Y-73655660D01*
X132160229Y-71678760D02*
X132447079Y-72052770D01*
X132198999Y-102283300D02*
X132865329Y-101760230D01*
X132255579Y-69990680D02*
X132031789Y-70164130D01*
X132285159Y-110351720D02*
X133069759Y-110899640D01*
X132295809Y-103779170D02*
X131755539Y-104294930D01*
X132341809Y-74166060D02*
X132088379Y-73899730D01*
X132371959Y-84601930D02*
X133229969Y-84942740D01*
X132447079Y-72052770D02*
X132776509Y-72479750D01*
X132506089Y-69804690D02*
X132255579Y-69990680D01*
X132602899Y-93322990D02*
X131708209Y-93535010D01*
X132616859Y-74455650D02*
X132341809Y-74166060D01*
X132776509Y-72479750D02*
X133145609Y-72955940D01*
X132778939Y-69609250D02*
X132506089Y-69804690D01*
X132865329Y-101760230D02*
X133558279Y-101215080D01*
X132867949Y-103234200D02*
X132295809Y-103779170D01*
X132914489Y-74769470D02*
X132616859Y-74455650D01*
X132915089Y-85658720D02*
X132026379Y-85394120D01*
X133069759Y-110899640D02*
X133872509Y-111420140D01*
X133145609Y-72955940D02*
X133551439Y-73477560D01*
X133229969Y-84942740D02*
X134063679Y-85274230D01*
X133235629Y-75108500D02*
X132914489Y-74769470D01*
X133468589Y-102663260D02*
X132867949Y-103234200D01*
X133471839Y-93116700D02*
X132602899Y-93322990D01*
X133551439Y-73477560D02*
X133991069Y-74040850D01*
X133558279Y-101215080D02*
X134274079Y-100650770D01*
X133581249Y-75473730D02*
X133235629Y-75108500D01*
X133779119Y-85915670D02*
X132915089Y-85658720D01*
X133872509Y-111420140D02*
X134682349Y-111906290D01*
X133952279Y-75866150D02*
X133581249Y-75473730D01*
X133991069Y-74040850D02*
X134461589Y-74642040D01*
X134006019Y-68794830D02*
X132778939Y-69609250D01*
X134063679Y-85274230D02*
X134868799Y-85594670D01*
X134094359Y-102069580D02*
X133468589Y-102663260D01*
X134274079Y-100650770D02*
X135008949Y-100070230D01*
X134310559Y-92917200D02*
X133471839Y-93116700D01*
X134349669Y-76286720D02*
X133952279Y-75866150D01*
X134461589Y-74642040D02*
X134960059Y-75277350D01*
X134613989Y-86163640D02*
X133779119Y-85915670D01*
X134682349Y-111906290D02*
X135488179Y-112351200D01*
X134741909Y-101456390D02*
X134094359Y-102069580D01*
X134774379Y-76736440D02*
X134349669Y-76286720D01*
X134868799Y-85594670D02*
X135640999Y-85902340D01*
X134960059Y-75277350D02*
X135483559Y-75943040D01*
X135008949Y-100070230D02*
X135742349Y-99490440D01*
X135114579Y-92725560D02*
X134310559Y-92917200D01*
X135227349Y-77216290D02*
X134774379Y-76736440D01*
X135239709Y-68076500D02*
X134006019Y-68794830D01*
X135407859Y-100826930D02*
X134741909Y-101456390D01*
X135415199Y-86401320D02*
X134613989Y-86163640D01*
X135483559Y-75943040D02*
X136029159Y-76635310D01*
X135488179Y-112351200D02*
X136278939Y-112747930D01*
X135632349Y-67876790D02*
X135239709Y-68076500D01*
X135640999Y-85902340D02*
X136375979Y-86195510D01*
X135709529Y-77727250D02*
X135227349Y-77216290D01*
X135742349Y-99490440D02*
X136453789Y-98928350D01*
X135879449Y-92542880D02*
X135114579Y-92725560D01*
X136029159Y-76635310D02*
X136593929Y-77350420D01*
X136061109Y-67672730D02*
X135632349Y-67876790D01*
X136074389Y-100197440D02*
X135407859Y-100826930D01*
X136178269Y-86627380D02*
X135415199Y-86401320D01*
X136221869Y-78270300D02*
X135709529Y-77727250D01*
X136278939Y-112747930D02*
X137043539Y-113089580D01*
X136375979Y-86195510D02*
X137069439Y-86472450D01*
X136409369Y-91988280D02*
X137205189Y-91872550D01*
X136453789Y-98928350D02*
X137139669Y-98386800D01*
X136518189Y-67467050D02*
X136061109Y-67672730D01*
X136593929Y-77350420D02*
X137174959Y-78084580D01*
X136600669Y-92370230D02*
X135879449Y-92542880D01*
X136723599Y-99584160D02*
X136074389Y-100197440D01*
X136765319Y-78846420D02*
X136221869Y-78270300D01*
X136898729Y-86840490D02*
X136178269Y-86627380D01*
X136995759Y-67262470D02*
X136518189Y-67467050D01*
X137043539Y-113089580D02*
X137271589Y-113183140D01*
X137069439Y-86472450D02*
X137717069Y-86731440D01*
X137139669Y-98386800D02*
X137796349Y-97868660D01*
X137174959Y-78084580D02*
X137753989Y-78815990D01*
X137205189Y-91872550D02*
X137950179Y-91765480D01*
X137271589Y-113183140D02*
X137462429Y-113257800D01*
X137273799Y-92208680D02*
X136600669Y-92370230D01*
X137352089Y-98990320D02*
X136723599Y-99584160D01*
X137462429Y-113257800D02*
X137619859Y-113314630D01*
X137572079Y-87039350D02*
X136898729Y-86840490D01*
X137619859Y-113314630D02*
X137747689Y-113354680D01*
X137717069Y-86731440D02*
X138314559Y-86970750D01*
X137747689Y-113354680D02*
X137929789Y-113388760D01*
X137753989Y-78815990D02*
X138312919Y-79523020D01*
X137796349Y-97868660D02*
X138420209Y-97376760D01*
X137848459Y-79994330D02*
X136765319Y-78846420D01*
X137894349Y-92059320D02*
X137273799Y-92208680D01*
X137929789Y-113388760D02*
X138039189Y-113368570D01*
X137950179Y-91765480D02*
X138627849Y-91669340D01*
X137956419Y-98419170D02*
X137352089Y-98990320D01*
X137981159Y-66867610D02*
X136995759Y-67262470D01*
X138039189Y-113368570D02*
X138069279Y-113328350D01*
X138069279Y-113328350D02*
X138122719Y-113226900D01*
X138122719Y-113226900D02*
X138199899Y-113063330D01*
X138193849Y-87222630D02*
X137572079Y-87039350D01*
X138199899Y-113063330D02*
X138301169Y-112836720D01*
X138301169Y-112836720D02*
X138426919Y-112546190D01*
X138312919Y-79523020D02*
X138849019Y-80202160D01*
X138314559Y-86970750D02*
X138857609Y-87188650D01*
X138420209Y-97376760D02*
X139007619Y-96913960D01*
X138426919Y-112546190D02*
X138577509Y-112190820D01*
X138457839Y-91923220D02*
X137894349Y-92059320D01*
X138533189Y-97873940D02*
X137956419Y-98419170D01*
X138577509Y-112190820D02*
X138753309Y-111769710D01*
X138627849Y-91669340D02*
X139221719Y-91586410D01*
X138753309Y-111769710D02*
X138954689Y-111281970D01*
X138759539Y-87389020D02*
X138193849Y-87222630D01*
X138849019Y-80202160D02*
X139359549Y-80849920D01*
X138857609Y-87188650D02*
X139341899Y-87383430D01*
X138873919Y-81080260D02*
X137848459Y-79994330D01*
X138954689Y-111281970D02*
X139182029Y-110726690D01*
X138954809Y-66510020D02*
X137981159Y-66867610D01*
X138959819Y-91801460D02*
X138457839Y-91923220D01*
X139007619Y-96913960D02*
X139554959Y-96483100D01*
X139078959Y-97357870D02*
X138533189Y-97873940D01*
X139182029Y-110726690D02*
X139435689Y-110102960D01*
X139221719Y-91586410D02*
X139482079Y-91550610D01*
X139264669Y-87537180D02*
X138759539Y-87389020D01*
X139341899Y-87383430D02*
X139763129Y-87553340D01*
X139357679Y-81592210D02*
X138873919Y-81080260D01*
X139359549Y-80849920D02*
X139841799Y-81462810D01*
X139395809Y-91695120D02*
X138959819Y-91801460D01*
X139417689Y-66352050D02*
X138954809Y-66510020D01*
X139435689Y-110102960D02*
X139716049Y-109409890D01*
X139482079Y-91550610D02*
X139715299Y-91518970D01*
X139554959Y-96483100D02*
X140058599Y-96087040D01*
X139590319Y-96874190D02*
X139078959Y-97357870D01*
X139704769Y-87665800D02*
X139264669Y-87537180D01*
X139715299Y-91518970D02*
X139919329Y-91491780D01*
X139716049Y-109409890D02*
X140023479Y-108646580D01*
X139761339Y-91605270D02*
X139395809Y-91695120D01*
X139763129Y-87553340D02*
X140116999Y-87696670D01*
X139805709Y-113989320D02*
X139807929Y-114033630D01*
X139807929Y-114033630D02*
X139842089Y-114082930D01*
X139818189Y-82079360D02*
X139357679Y-81592210D01*
X139820389Y-113892800D02*
X139805709Y-113989320D01*
X139841799Y-81462810D02*
X140293019Y-82037320D01*
X139842089Y-114082930D02*
X139903859Y-114128160D01*
X139852899Y-113740740D02*
X139820389Y-113892800D01*
X139854199Y-66211610D02*
X139417689Y-66352050D01*
X139903859Y-114128160D02*
X140018209Y-114176020D01*
X139904209Y-113529820D02*
X139852899Y-113740740D01*
X139919329Y-91491780D02*
X140092099Y-91469310D01*
X139975249Y-113256710D02*
X139904209Y-113529820D01*
X140018209Y-114176020D02*
X140210149Y-114233220D01*
X140023479Y-108646580D02*
X140358339Y-107812120D01*
X140051929Y-91533000D02*
X139761339Y-91605270D01*
X140058599Y-96087040D02*
X140514929Y-95728620D01*
X140063849Y-96426150D02*
X139590319Y-96874190D01*
X140066979Y-112918110D02*
X139975249Y-113256710D01*
X140075329Y-87773560D02*
X139704769Y-87665800D01*
X140092099Y-91469310D02*
X140231549Y-91451850D01*
X140116999Y-87696670D02*
X140399199Y-87811680D01*
X140180339Y-112510670D02*
X140066979Y-112918110D01*
X140210149Y-114233220D02*
X140343019Y-114267410D01*
X140231549Y-91451850D02*
X140335629Y-91439690D01*
X140252529Y-82538590D02*
X139818189Y-82079360D01*
X140256519Y-66091430D02*
X139854199Y-66211610D01*
X140263119Y-91479380D02*
X140051929Y-91533000D01*
X140293019Y-82037320D02*
X140710489Y-82569970D01*
X140316279Y-112031090D02*
X140180339Y-112510670D01*
X140335629Y-91439690D02*
X140402259Y-91433110D01*
X140343019Y-114267410D02*
X140504649Y-114306450D01*
X140358339Y-107812120D02*
X140721009Y-106905600D01*
X140371889Y-87859140D02*
X140075329Y-87773560D01*
X140390429Y-91445490D02*
X140263119Y-91479380D01*
X140399199Y-87811680D02*
X140605409Y-87896660D01*
X140402259Y-91433110D02*
X140429399Y-91432400D01*
X140429399Y-91432400D02*
X140390429Y-91445490D01*
X140475759Y-111476040D02*
X140316279Y-112031090D01*
X140496129Y-96016970D02*
X140063849Y-96426150D01*
X140504649Y-114306450D02*
X140698169Y-114351170D01*
X140514929Y-95728620D02*
X140920299Y-95410700D01*
X140589959Y-87921220D02*
X140371889Y-87859140D01*
X140605409Y-87896660D02*
X140731339Y-87949870D01*
X140616829Y-65994260D02*
X140256519Y-66091430D01*
X140657749Y-82966800D02*
X140252529Y-82538590D01*
X140659719Y-110842190D02*
X140475759Y-111476040D01*
X140698169Y-114351170D02*
X140926709Y-114402410D01*
X140710489Y-82569970D02*
X141091479Y-83057260D01*
X140721009Y-106905600D02*
X141111859Y-105926140D01*
X140725049Y-87958470D02*
X140589959Y-87921220D01*
X140731339Y-87949870D02*
X140772669Y-87969590D01*
X140772669Y-87969590D02*
X140725049Y-87958470D01*
X140869109Y-110126230D02*
X140659719Y-110842190D01*
X140883739Y-95649910D02*
X140496129Y-96016970D01*
X140920299Y-95410700D02*
X141271099Y-95136110D01*
X140926709Y-114402410D02*
X141193379Y-114461010D01*
X140927339Y-65922820D02*
X140616829Y-65994260D01*
X141030919Y-83360880D02*
X140657749Y-82966800D01*
X141091479Y-83057260D02*
X141433259Y-83495700D01*
X141104869Y-109324830D02*
X140869109Y-110126230D01*
X141111859Y-105926140D02*
X141531259Y-104872820D01*
X141180219Y-65879860D02*
X140927339Y-65922820D01*
X141193379Y-114461010D02*
X141501319Y-114527810D01*
X141223239Y-95328180D02*
X140883739Y-95649910D01*
X141271099Y-95136110D02*
X141563709Y-94907710D01*
X141367659Y-65868100D02*
X141180219Y-65879860D01*
X141367969Y-108434670D02*
X141104869Y-109324830D01*
X141369089Y-83717730D02*
X141030919Y-83360880D01*
X141433259Y-83495700D02*
X141733099Y-83881770D01*
X141481849Y-65890290D02*
X141367659Y-65868100D01*
X141501319Y-114527810D02*
X141853639Y-114603640D01*
X141511239Y-95055040D02*
X141223239Y-95328180D01*
X141531259Y-104872820D02*
X141872529Y-104015290D01*
X141558999Y-65968640D02*
X141481849Y-65890290D01*
X141563709Y-94907710D02*
X141794489Y-94728360D01*
X141635909Y-66128630D02*
X141558999Y-65968640D01*
X141659339Y-107452420D02*
X141367969Y-108434670D01*
X141669329Y-84034240D02*
X141369089Y-83717730D01*
X141675979Y-66243690D02*
X141635909Y-66128630D01*
X141718029Y-66384510D02*
X141675979Y-66243690D01*
X141733099Y-83881770D02*
X141988279Y-84212000D01*
X141744299Y-94833720D02*
X141511239Y-95055040D01*
X141762749Y-66552860D02*
X141718029Y-66384510D01*
X141794489Y-94728360D02*
X141959829Y-94600890D01*
X141810819Y-66750540D02*
X141762749Y-66552860D01*
X141815919Y-106925730D02*
X141659339Y-107452420D01*
X141853639Y-114603640D02*
X142253459Y-114689340D01*
X141872529Y-104015290D02*
X142204479Y-103182040D01*
X141910869Y-67176270D02*
X141810819Y-66750540D01*
X141918999Y-94667450D02*
X141744299Y-94833720D01*
X141928689Y-84307310D02*
X141669329Y-84034240D01*
X141959829Y-94600890D02*
X142056089Y-94528170D01*
X141979929Y-106374770D02*
X141815919Y-106925730D01*
X141988279Y-84212000D02*
X142196059Y-84482890D01*
X142021609Y-67646380D02*
X141910869Y-67176270D01*
X142031929Y-94559470D02*
X141918999Y-94667450D01*
X142056089Y-94528170D02*
X142079659Y-94513030D01*
X142079659Y-94513030D02*
X142031929Y-94559470D01*
X142142129Y-68157050D02*
X142021609Y-67646380D01*
X142144239Y-84533830D02*
X141928689Y-84307310D01*
X142151479Y-105799130D02*
X141979929Y-106374770D01*
X142196059Y-84482890D02*
X142353709Y-84690930D01*
X142204479Y-103182040D02*
X142525359Y-102377380D01*
X142253459Y-114689340D02*
X142985449Y-114829960D01*
X142271529Y-68704490D02*
X142142129Y-68157050D01*
X142313029Y-84710700D02*
X142144239Y-84533830D01*
X142330699Y-105198390D02*
X142151479Y-105799130D01*
X142353709Y-84690930D02*
X142458499Y-84832640D01*
X142408889Y-69284900D02*
X142271529Y-68704490D01*
X142432129Y-84834810D02*
X142313029Y-84710700D01*
X142458499Y-84832640D02*
X142507709Y-84904520D01*
X142498599Y-84903060D02*
X142432129Y-84834810D01*
X142507709Y-84904520D02*
X142498599Y-84903060D01*
X142525359Y-102377380D02*
X142833449Y-101605610D01*
X142553309Y-69894490D02*
X142408889Y-69284900D01*
X142595039Y-104312190D02*
X142330699Y-105198390D01*
X142703889Y-70529450D02*
X142553309Y-69894490D01*
X142833449Y-101605610D02*
X143127019Y-100871040D01*
X142851729Y-103450600D02*
X142595039Y-104312190D01*
X142859719Y-71185990D02*
X142703889Y-70529450D01*
X142985449Y-114829960D02*
X143752839Y-114946710D01*
X143099449Y-102618100D02*
X142851729Y-103450600D01*
X143127019Y-100871040D02*
X143404349Y-100177970D01*
X143193659Y-65707800D02*
X143206949Y-65849730D01*
X143198199Y-65595200D02*
X143193659Y-65707800D01*
X143206949Y-65849730D02*
X143218159Y-65926550D01*
X143218159Y-65926550D02*
X143242209Y-66089570D01*
X143220619Y-65511610D02*
X143198199Y-65595200D01*
X143242209Y-66089570D02*
X143278399Y-66334190D01*
X143260969Y-65456710D02*
X143220619Y-65511610D01*
X143278399Y-66334190D02*
X143326059Y-66655790D01*
X143326059Y-66655790D02*
X143384509Y-67049770D01*
X143328059Y-65429680D02*
X143260969Y-65456710D01*
X143336879Y-101819160D02*
X143099449Y-102618100D01*
X143384509Y-67049770D02*
X143453049Y-67511510D01*
X143404349Y-100177970D02*
X143663689Y-99530710D01*
X143453049Y-67511510D02*
X143530999Y-68036400D01*
X143466519Y-65400410D02*
X143328059Y-65429680D01*
X143517379Y-73951940D02*
X142859719Y-71185990D01*
X143530999Y-68036400D02*
X143617679Y-68619840D01*
X143562709Y-101058240D02*
X143336879Y-101819160D01*
X143617679Y-68619840D02*
X143712399Y-69257220D01*
X143663689Y-99530710D02*
X143903329Y-98933550D01*
X143676389Y-65368890D02*
X143466519Y-65400410D01*
X143712399Y-69257220D02*
X143814479Y-69943910D01*
X143752839Y-114946710D02*
X144547699Y-115039070D01*
X143775609Y-100339820D02*
X143562709Y-101058240D01*
X143814479Y-69943910D02*
X143923229Y-70675320D01*
X143903329Y-98933550D02*
X144121529Y-98390810D01*
X143923229Y-70675320D02*
X144037959Y-71446840D01*
X143957759Y-65335120D02*
X143676389Y-65368890D01*
X143974269Y-99668370D02*
X143775609Y-100339820D01*
X144037959Y-71446840D02*
X144157999Y-72253840D01*
X144121529Y-98390810D02*
X144316569Y-97906790D01*
X144157369Y-99048370D02*
X143974269Y-99668370D01*
X144157999Y-72253840D02*
X144282649Y-73091730D01*
X144186489Y-76759210D02*
X143517379Y-73951940D01*
X144282649Y-73091730D02*
X144411229Y-73955900D01*
X144310689Y-65299090D02*
X143957759Y-65335120D01*
X144316569Y-97906790D02*
X144486719Y-97485790D01*
X144323579Y-98484270D02*
X144157369Y-99048370D01*
X144411229Y-73955900D02*
X144543069Y-74841720D01*
X144471589Y-97980570D02*
X144323579Y-98484270D01*
X144486719Y-97485790D02*
X144630239Y-97132120D01*
X144507209Y-78102370D02*
X144186489Y-76759210D01*
X144543069Y-74841720D02*
X144674579Y-75726020D01*
X144547699Y-115039070D02*
X145362059Y-115106510D01*
X144600079Y-97541710D02*
X144471589Y-97980570D01*
X144630239Y-97132120D02*
X144745419Y-96850080D01*
X144674579Y-75726020D02*
X144802219Y-76585700D01*
X144707729Y-97172190D02*
X144600079Y-97541710D01*
X144735229Y-65260790D02*
X144310689Y-65299090D01*
X144745419Y-96850080D02*
X144830509Y-96643980D01*
X144793219Y-96876470D02*
X144707729Y-97172190D01*
X144802219Y-76585700D02*
X144925339Y-77416310D01*
X144809049Y-79364700D02*
X144507209Y-78102370D01*
X144830509Y-96643980D02*
X144883799Y-96518120D01*
X144855229Y-96659020D02*
X144793219Y-96876470D01*
X144883799Y-96518120D02*
X144903539Y-96476810D01*
X144892439Y-96524310D02*
X144855229Y-96659020D01*
X144903539Y-96476810D02*
X144892439Y-96524310D01*
X144925339Y-77416310D02*
X145043279Y-78213380D01*
X144950609Y-79956060D02*
X144809049Y-79364700D01*
X145043279Y-78213380D02*
X145155399Y-78972460D01*
X145084729Y-80515810D02*
X144950609Y-79956060D01*
X145155399Y-78972460D02*
X145261029Y-79689080D01*
X145210509Y-81040150D02*
X145084729Y-80515810D01*
X145231469Y-65220210D02*
X144735229Y-65260790D01*
X145261029Y-79689080D02*
X145359539Y-80358800D01*
X145327029Y-81525300D02*
X145210509Y-81040150D01*
X145359539Y-80358800D02*
X145450249Y-80977140D01*
X145362059Y-115106510D02*
X146187979Y-115148500D01*
X145433379Y-81967440D02*
X145327029Y-81525300D01*
X145450249Y-80977140D02*
X145532519Y-81539640D01*
X145528669Y-82362790D02*
X145433379Y-81967440D01*
X145532519Y-81539640D02*
X145605699Y-82041860D01*
X145605699Y-82041860D02*
X145669129Y-82479330D01*
X145611989Y-82707540D02*
X145528669Y-82362790D01*
X145669129Y-82479330D02*
X145722159Y-82847590D01*
X145682419Y-82997890D02*
X145611989Y-82707540D01*
X145722159Y-82847590D02*
X145764129Y-83142180D01*
X145739059Y-83230050D02*
X145682419Y-82997890D01*
X145764129Y-83142180D02*
X145794399Y-83358650D01*
X145781009Y-83400210D02*
X145739059Y-83230050D01*
X145794399Y-83358650D02*
X145812309Y-83492530D01*
X145799459Y-65177360D02*
X145231469Y-65220210D01*
X145807359Y-83504580D02*
X145781009Y-83400210D01*
X145812309Y-83492530D02*
X145817199Y-83539360D01*
X145817199Y-83539360D02*
X145807359Y-83504580D01*
X145932949Y-65170580D02*
X145799459Y-65177360D01*
X146107629Y-65166350D02*
X145932949Y-65170580D01*
X146187979Y-115148500D02*
X147017489Y-115164500D01*
X146318129Y-65164500D02*
X146107629Y-65166350D01*
X146559079Y-65164900D02*
X146318129Y-65164500D01*
X147017489Y-115164500D02*
X147842659Y-115153990D01*
X147110839Y-65171830D02*
X146559079Y-65164900D01*
X147719939Y-65185930D02*
X147110839Y-65171830D01*
X147842659Y-115153990D02*
X148655509Y-115116430D01*
X148343429Y-65206030D02*
X147719939Y-65185930D01*
X148369839Y-96819350D02*
X148382929Y-96858320D01*
X148374309Y-96872040D02*
X148369839Y-96819350D01*
X148382929Y-96858320D02*
X148416839Y-96985550D01*
X148391869Y-97013750D02*
X148374309Y-96872040D01*
X148416839Y-96985550D02*
X148470499Y-97196570D01*
X148421889Y-97239890D02*
X148391869Y-97013750D01*
X148463699Y-97545860D02*
X148421889Y-97239890D01*
X148470499Y-97196570D02*
X148542829Y-97486920D01*
X148516649Y-97927080D02*
X148463699Y-97545860D01*
X148542829Y-97486920D02*
X148632749Y-97852130D01*
X148580079Y-98378960D02*
X148516649Y-97927080D01*
X148632749Y-97852130D02*
X148739189Y-98287730D01*
X148653339Y-98896900D02*
X148580079Y-98378960D01*
X148655509Y-115116430D02*
X148989679Y-115094860D01*
X148735779Y-99476310D02*
X148653339Y-98896900D01*
X148739189Y-98287730D02*
X148861049Y-98789250D01*
X148826739Y-100112600D02*
X148735779Y-99476310D01*
X148861049Y-98789250D02*
X148997279Y-99352230D01*
X148925559Y-100801190D02*
X148826739Y-100112600D01*
X148938349Y-65230920D02*
X148343429Y-65206030D01*
X148989679Y-115094860D02*
X149287739Y-115074970D01*
X148997279Y-99352230D02*
X149146779Y-99972200D01*
X149031589Y-101537470D02*
X148925559Y-100801190D01*
X149144179Y-102316870D02*
X149031589Y-101537470D01*
X149146779Y-99972200D02*
X149308469Y-100644700D01*
X149211669Y-65244800D02*
X148938349Y-65230920D01*
X149262669Y-103134780D02*
X149144179Y-102316870D01*
X149287739Y-115074970D02*
X149551819Y-115056440D01*
X149288099Y-83842680D02*
X149298569Y-83797270D01*
X149298569Y-83797270D02*
X149333929Y-83668690D01*
X149307849Y-83801390D02*
X149288099Y-83842680D01*
X149308469Y-100644700D02*
X149481289Y-101365250D01*
X149333929Y-83668690D02*
X149392929Y-83461200D01*
X149361109Y-83675590D02*
X149307849Y-83801390D01*
X149386409Y-103986630D02*
X149262669Y-103134780D01*
X149392929Y-83461200D02*
X149474309Y-83179070D01*
X149446179Y-83469580D02*
X149361109Y-83675590D01*
X149461729Y-65259420D02*
X149211669Y-65244800D01*
X149474309Y-83179070D02*
X149576809Y-82826560D01*
X149481289Y-101365250D02*
X149664139Y-102129390D01*
X149514729Y-104867810D02*
X149386409Y-103986630D01*
X149551819Y-115056440D02*
X149784089Y-115038970D01*
X149561309Y-83187660D02*
X149446179Y-83469580D01*
X149576809Y-82826560D02*
X149699189Y-82407940D01*
X149646999Y-105773730D02*
X149514729Y-104867810D01*
X149664139Y-102129390D02*
X149855949Y-102932650D01*
X149683169Y-65274650D02*
X149461729Y-65259420D01*
X149699189Y-82407940D02*
X149840179Y-81927470D01*
X149704779Y-82834140D02*
X149561309Y-83187660D01*
X149784089Y-115038970D02*
X149986699Y-115022250D01*
X149811679Y-106902510D02*
X149646999Y-105773730D01*
X149840179Y-81927470D02*
X149998519Y-81389420D01*
X149855949Y-102932650D02*
X150055639Y-103770570D01*
X149870609Y-65290330D02*
X149683169Y-65274650D01*
X149874859Y-82413320D02*
X149704779Y-82834140D01*
X149963729Y-107949460D02*
X149811679Y-106902510D01*
X149986699Y-115022250D02*
X150161799Y-115005970D01*
X149998519Y-81389420D02*
X150172959Y-80798060D01*
X150055639Y-103770570D02*
X150262139Y-104638670D01*
X150069819Y-81929500D02*
X149874859Y-82413320D01*
X150103349Y-108915980D02*
X149963729Y-107949460D01*
X150161799Y-115005970D02*
X150311549Y-114989820D01*
X150172959Y-80798060D02*
X150362249Y-80157640D01*
X150230729Y-109803480D02*
X150103349Y-108915980D01*
X150262139Y-104638670D02*
X150474359Y-105532490D01*
X150287939Y-81386980D02*
X150069819Y-81929500D01*
X150311549Y-114989820D02*
X150438089Y-114973500D01*
X150346049Y-110613350D02*
X150230729Y-109803480D01*
X150362249Y-80157640D02*
X150565119Y-79472430D01*
X150438089Y-114973500D02*
X150630189Y-114939100D01*
X150449509Y-111347000D02*
X150346049Y-110613350D01*
X150474359Y-105532490D02*
X150686989Y-106427190D01*
X150527489Y-80790070D02*
X150287939Y-81386980D01*
X150541299Y-112005830D02*
X150449509Y-111347000D01*
X150565119Y-79472430D02*
X150780319Y-78746700D01*
X150621599Y-112591240D02*
X150541299Y-112005830D01*
X150630189Y-114939100D02*
X150755319Y-114900330D01*
X150686989Y-106427190D02*
X150894709Y-107297860D01*
X150690619Y-113104640D02*
X150621599Y-112591240D01*
X150748529Y-113547420D02*
X150690619Y-113104640D01*
X150755319Y-114900330D02*
X150830709Y-114854710D01*
X150780319Y-78746700D02*
X151006589Y-77984720D01*
X150786729Y-80143070D02*
X150527489Y-80790070D01*
X150795539Y-113921000D02*
X150748529Y-113547420D01*
X150830709Y-114854710D02*
X150873579Y-114799800D01*
X150831819Y-114226760D02*
X150795539Y-113921000D01*
X150857579Y-114466130D02*
X150831819Y-114226760D01*
X150872989Y-114640480D02*
X150857579Y-114466130D01*
X150873579Y-114799800D02*
X150878259Y-114751240D01*
X150878259Y-114751240D02*
X150872989Y-114640480D01*
X150894709Y-107297860D02*
X151096389Y-108139940D01*
X151006589Y-77984720D02*
X151242679Y-77190740D01*
X151063939Y-79450280D02*
X150786729Y-80143070D01*
X151096389Y-108139940D02*
X151290909Y-108948890D01*
X151228309Y-65468780D02*
X149870609Y-65290330D01*
X151242679Y-77190740D02*
X151487329Y-76369040D01*
X151290909Y-108948890D02*
X151477159Y-109720150D01*
X151357399Y-78716010D02*
X151063939Y-79450280D01*
X151477159Y-109720150D02*
X151653999Y-110449160D01*
X151487329Y-76369040D02*
X151739269Y-75523870D01*
X151653999Y-110449160D02*
X151820329Y-111131380D01*
X151665359Y-77944560D02*
X151357399Y-78716010D01*
X151739269Y-75523870D02*
X152238969Y-73848360D01*
X151748889Y-95483440D02*
X151764819Y-95492650D01*
X151764819Y-95492650D02*
X151840719Y-95571360D01*
X151791439Y-95547770D02*
X151748889Y-95483440D01*
X151820329Y-111131380D02*
X151975029Y-111762240D01*
X151840719Y-95571360D02*
X151974129Y-95710930D01*
X151889779Y-95682190D02*
X151791439Y-95547770D01*
X151974129Y-95710930D02*
X152161819Y-95907960D01*
X151975029Y-111762240D02*
X152116959Y-112337200D01*
X151986119Y-77140230D02*
X151665359Y-77944560D01*
X152041219Y-95883250D02*
X151889779Y-95682190D01*
X152116959Y-112337200D02*
X152245019Y-112851710D01*
X152161819Y-95907960D02*
X152400549Y-96159030D01*
X152238969Y-73848360D02*
X152710199Y-72267640D01*
X152243049Y-96147480D02*
X152041219Y-95883250D01*
X152245019Y-112851710D02*
X152358069Y-113301200D01*
X152317919Y-76307320D02*
X151986119Y-77140230D01*
X152358069Y-113301200D02*
X152455009Y-113681120D01*
X152400549Y-96159030D02*
X152687089Y-96460720D01*
X152424679Y-85511220D02*
X152433899Y-85495310D01*
X152433899Y-85495310D02*
X152512679Y-85419480D01*
X152455009Y-113681120D02*
X152534709Y-113986930D01*
X152489069Y-85468710D02*
X152424679Y-85511220D01*
X152492589Y-96471420D02*
X152243049Y-96147480D01*
X152512679Y-85419480D02*
X152652389Y-85286200D01*
X152534709Y-113986930D02*
X152596059Y-114214060D01*
X152596059Y-114214060D02*
X152637919Y-114357970D01*
X152623619Y-85370470D02*
X152489069Y-85468710D01*
X152637919Y-114357970D02*
X152659179Y-114414100D01*
X152637969Y-65729550D02*
X151228309Y-65468780D01*
X152652389Y-85286200D02*
X152849609Y-85098700D01*
X152659059Y-75450140D02*
X152317919Y-76307320D01*
X152659179Y-114414100D02*
X152745819Y-114458600D01*
X152687089Y-96460720D02*
X153018209Y-96809640D01*
X152710199Y-72267640D02*
X152931809Y-71524030D01*
X152745819Y-114458600D02*
X152909259Y-114456140D01*
X152787139Y-96851630D02*
X152492589Y-96471420D01*
X152824869Y-85219180D02*
X152623619Y-85370470D01*
X152849609Y-85098700D02*
X153100919Y-84860200D01*
X152909259Y-114456140D02*
X153035509Y-114435280D01*
X152931809Y-71524030D02*
X153142299Y-70817570D01*
X152962009Y-65799920D02*
X152637969Y-65729550D01*
X153000609Y-74592400D02*
X152659059Y-75450140D01*
X153018209Y-96809640D02*
X153390679Y-97202370D01*
X153035509Y-114435280D02*
X153199839Y-114400260D01*
X153089359Y-85017540D02*
X152824869Y-85219180D01*
X153100919Y-84860200D02*
X153402909Y-84573930D01*
X153124009Y-97284650D02*
X152787139Y-96851630D01*
X153142299Y-70817570D02*
X153340329Y-70152730D01*
X153199839Y-114400260D02*
X153408539Y-114350260D01*
X153264949Y-65870330D02*
X152962009Y-65799920D01*
X153333639Y-73757830D02*
X153000609Y-74592400D01*
X153340329Y-70152730D02*
X153524579Y-69533990D01*
X153390679Y-97202370D02*
X153801259Y-97635500D01*
X153402909Y-84573930D02*
X153752159Y-84243130D01*
X153408539Y-114350260D02*
X153667899Y-114284480D01*
X153413619Y-84768240D02*
X153089359Y-85017540D01*
X153416009Y-92352940D02*
X153463149Y-92364340D01*
X153457649Y-92372350D02*
X153416009Y-92352940D01*
X153463149Y-92364340D02*
X153597409Y-92401840D01*
X153500509Y-97767010D02*
X153124009Y-97284650D01*
X153524579Y-69533990D02*
X153693709Y-68965850D01*
X153541949Y-65939740D02*
X153264949Y-65870330D01*
X153583879Y-92425270D02*
X153457649Y-92372350D01*
X153597409Y-92401840D02*
X153814319Y-92464130D01*
X153656369Y-72950810D02*
X153333639Y-73757830D01*
X153667899Y-114284480D02*
X154911959Y-113919870D01*
X153693709Y-68965850D02*
X153846389Y-68452780D01*
X153722629Y-88882340D02*
X153757459Y-88872500D01*
X153752159Y-84243130D02*
X154145269Y-83871020D01*
X153757459Y-88872500D02*
X153861979Y-88846170D01*
X153771049Y-88877200D02*
X153722629Y-88882340D01*
X153788119Y-66007120D02*
X153541949Y-65939740D01*
X153790379Y-92509960D02*
X153583879Y-92425270D01*
X153794199Y-84473980D02*
X153413619Y-84768240D01*
X153801259Y-97635500D02*
X154246729Y-98105610D01*
X153814319Y-92464130D02*
X154109419Y-92549870D01*
X153846389Y-68452780D02*
X153981269Y-67999260D01*
X153861979Y-88846170D02*
X154032369Y-88804250D01*
X153909569Y-88858600D02*
X153771049Y-88877200D01*
X153913929Y-98295270D02*
X153500509Y-97767010D01*
X153967039Y-72175680D02*
X153656369Y-72950810D01*
X153981269Y-67999260D02*
X154097029Y-67609770D01*
X153998609Y-66071470D02*
X153788119Y-66007120D01*
X154032369Y-88804250D02*
X154264829Y-88747640D01*
X154072849Y-92624700D02*
X153790379Y-92509960D01*
X154097029Y-67609770D02*
X154192319Y-67288810D01*
X154109419Y-92549870D02*
X154478239Y-92657750D01*
X154133589Y-88827200D02*
X153909569Y-88858600D01*
X154145269Y-83871020D02*
X154578819Y-83460840D01*
X154168539Y-66131740D02*
X153998609Y-66071470D01*
X154192319Y-67288810D02*
X154265829Y-67040840D01*
X154227629Y-84137430D02*
X153794199Y-84473980D01*
X154246729Y-98105610D02*
X154723839Y-98609300D01*
X154263869Y-71436810D02*
X153967039Y-72175680D01*
X154264829Y-88747640D02*
X154555569Y-88677260D01*
X154265829Y-67040840D02*
X154316199Y-66870350D01*
X154293059Y-66186930D02*
X154168539Y-66131740D01*
X154316199Y-66870350D02*
X154342119Y-66781830D01*
X154342119Y-66781830D02*
X154403719Y-66550060D01*
X154361599Y-98865960D02*
X153913929Y-98295270D01*
X154367279Y-66236000D02*
X154293059Y-66186930D01*
X154403719Y-66550060D02*
X154427629Y-66399560D01*
X154415079Y-66303740D02*
X154367279Y-66236000D01*
X154426979Y-92767760D02*
X154072849Y-92624700D01*
X154427629Y-66399560D02*
X154415079Y-66303740D01*
X154438489Y-88783690D02*
X154133589Y-88827200D01*
X154478239Y-92657750D02*
X154916319Y-92786460D01*
X154545089Y-70738550D02*
X154263869Y-71436810D01*
X154555569Y-88677260D02*
X154900759Y-88594000D01*
X154578819Y-83460840D02*
X155049389Y-83015810D01*
X154710459Y-83761300D02*
X154227629Y-84137430D01*
X154723839Y-98609300D02*
X155229359Y-99143160D01*
X154808949Y-70085270D02*
X154545089Y-70738550D01*
X154819639Y-88728730D02*
X154438489Y-88783690D01*
X154840799Y-99475630D02*
X154361599Y-98865960D01*
X154848459Y-92937430D02*
X154426979Y-92767760D01*
X154900759Y-88594000D02*
X155296619Y-88498770D01*
X154911959Y-113919870D02*
X156172259Y-113461090D01*
X154916319Y-92786460D02*
X155419199Y-92934660D01*
X155049389Y-83015810D02*
X155553569Y-82539160D01*
X155053659Y-69481320D02*
X154808949Y-70085270D01*
X155229359Y-99143160D02*
X155760069Y-99703770D01*
X155239229Y-83348280D02*
X154710459Y-83761300D01*
X155272449Y-88663020D02*
X154819639Y-88728730D01*
X155277469Y-68931060D02*
X155053659Y-69481320D01*
X155296619Y-88498770D02*
X155739329Y-88392490D01*
X155332979Y-93131970D02*
X154848459Y-92937430D01*
X155348859Y-100120820D02*
X154840799Y-99475630D01*
X155419199Y-92934660D02*
X155982399Y-93101040D01*
X155478589Y-68438850D02*
X155277469Y-68931060D01*
X155553569Y-82539160D02*
X156087939Y-82034120D01*
X155655259Y-68009050D02*
X155478589Y-68438850D01*
X155739329Y-88392490D02*
X156225089Y-88276050D01*
X155760069Y-99703770D02*
X156884109Y-100891610D01*
X155792279Y-88587210D02*
X155272449Y-88663020D01*
X155805709Y-67646010D02*
X155655259Y-68009050D01*
X155810469Y-82901050D02*
X155239229Y-83348280D01*
X155876239Y-93349660D02*
X155332979Y-93131970D01*
X155883059Y-100798070D02*
X155348859Y-100120820D01*
X155928179Y-67354100D02*
X155805709Y-67646010D01*
X155982399Y-93101040D02*
X156601469Y-93284280D01*
X156020879Y-67137680D02*
X155928179Y-67354100D01*
X156082059Y-67001100D02*
X156020879Y-67137680D01*
X156087939Y-82034120D02*
X156649099Y-81503930D01*
X156109949Y-66948720D02*
X156082059Y-67001100D01*
X156172259Y-113461090D02*
X156816159Y-113193320D01*
X156183269Y-66925510D02*
X156109949Y-66948720D01*
X156225089Y-88276050D02*
X156750089Y-88150370D01*
X156308609Y-66937080D02*
X156183269Y-66925510D01*
X156374529Y-88502000D02*
X155792279Y-88587210D01*
X156420729Y-82422310D02*
X155810469Y-82901050D01*
X156440729Y-101503930D02*
X155883059Y-100798070D01*
X156473929Y-93588780D02*
X155876239Y-93349660D01*
X156489369Y-66984760D02*
X156308609Y-66937080D01*
X156601469Y-93284280D02*
X157271949Y-93483060D01*
X156649099Y-81503930D02*
X157838089Y-80380980D01*
X156728979Y-67069860D02*
X156489369Y-66984760D01*
X156750089Y-88150370D02*
X157310539Y-88016340D01*
X156816159Y-113193320D02*
X157473299Y-112898350D01*
X156884109Y-100891610D02*
X158070089Y-102145540D01*
X157014579Y-88408050D02*
X156374529Y-88502000D01*
X157019169Y-102234950D02*
X156440729Y-101503930D01*
X157030829Y-67193680D02*
X156728979Y-67069860D01*
X157066549Y-81914750D02*
X156420729Y-82422310D01*
X157121729Y-93847600D02*
X156473929Y-93588780D01*
X157271949Y-93483060D02*
X157989359Y-93696060D01*
X157310539Y-88016340D02*
X157902609Y-87874880D01*
X157398319Y-67357560D02*
X157030829Y-67193680D01*
X157473299Y-112898350D02*
X158146749Y-112574940D01*
X157599949Y-102969120D02*
X157019169Y-102234950D01*
X157707809Y-88306050D02*
X157014579Y-88408050D01*
X157744459Y-81381060D02*
X157066549Y-81914750D01*
X157815339Y-94124390D02*
X157121729Y-93847600D01*
X157834879Y-67562790D02*
X157398319Y-67357560D01*
X157838089Y-80380980D02*
X159093239Y-79196150D01*
X157902609Y-87874880D02*
X159166449Y-87573280D01*
X157989359Y-93696060D02*
X158749239Y-93921950D01*
X158070089Y-102145540D02*
X158667469Y-102776920D01*
X158146749Y-112574940D02*
X158839569Y-112221880D01*
X158164479Y-103684250D02*
X157599949Y-102969120D01*
X158343889Y-67810690D02*
X157834879Y-67562790D01*
X158449609Y-88196660D02*
X157707809Y-88306050D01*
X158451009Y-80823930D02*
X157744459Y-81381060D01*
X158550449Y-94417430D02*
X157815339Y-94124390D01*
X158667469Y-102776920D02*
X159249239Y-103391020D01*
X158709849Y-104376560D02*
X158164479Y-103684250D01*
X158749239Y-93921950D02*
X159547119Y-94159420D01*
X158839569Y-112221880D02*
X159574119Y-111823980D01*
X159093239Y-79196150D02*
X159725229Y-78599350D01*
X159166449Y-87573280D02*
X160511159Y-87252810D01*
X159169079Y-68243330D02*
X158343889Y-67810690D01*
X159182729Y-80246050D02*
X158451009Y-80823930D01*
X159233119Y-105042290D02*
X158709849Y-104376560D01*
X159235359Y-88080570D02*
X158449609Y-88196660D01*
X159249239Y-103391020D02*
X159812339Y-103984670D01*
X159322749Y-94725000D02*
X158550449Y-94417430D01*
X159547119Y-94159420D02*
X160378549Y-94407150D01*
X159574119Y-111823980D02*
X160281319Y-111415910D01*
X159725229Y-78599350D02*
X160339929Y-78018140D01*
X159731379Y-105677670D02*
X159233119Y-105042290D01*
X159812339Y-103984670D02*
X160353709Y-104554640D01*
X159917609Y-79665840D02*
X159182729Y-80246050D01*
X160002469Y-68729310D02*
X159169079Y-68243330D01*
X160060439Y-87958460D02*
X159235359Y-88080570D01*
X160127939Y-95045360D02*
X159322749Y-94725000D01*
X160201689Y-106278920D02*
X159731379Y-105677670D01*
X160281319Y-111415910D02*
X160939279Y-111012530D01*
X160339929Y-78018140D02*
X160934149Y-77455590D01*
X160353709Y-104554640D02*
X160870289Y-105097760D01*
X160378549Y-94407150D02*
X161239059Y-94663820D01*
X160511159Y-87252810D02*
X163321469Y-86584270D01*
X160633429Y-79101850D02*
X159917609Y-79665840D01*
X160641139Y-106842290D02*
X160201689Y-106278920D01*
X160834949Y-69262020D02*
X160002469Y-68729310D01*
X160870289Y-105097760D02*
X161359009Y-105610820D01*
X160920249Y-87830990D02*
X160060439Y-87958460D01*
X160934149Y-77455590D02*
X161504679Y-76914740D01*
X160939279Y-111012530D02*
X161526109Y-110628690D01*
X160961699Y-95376810D02*
X160127939Y-95045360D01*
X161046789Y-107364000D02*
X160641139Y-106842290D01*
X161239059Y-94663820D02*
X162124179Y-94928110D01*
X161326419Y-78557010D02*
X160633429Y-79101850D01*
X161359009Y-105610820D02*
X161816819Y-106090620D01*
X161415729Y-107840280D02*
X161046789Y-107364000D01*
X161504679Y-76914740D02*
X162048319Y-76398660D01*
X161526109Y-110628690D02*
X161786019Y-110448740D01*
X161657409Y-69834860D02*
X160834949Y-69262020D01*
X161745019Y-108267370D02*
X161415729Y-107840280D01*
X161786019Y-110448740D02*
X162019939Y-110279240D01*
X161810159Y-87698850D02*
X160920249Y-87830990D01*
X161816819Y-106090620D02*
X162240659Y-106533960D01*
X161819729Y-95717600D02*
X160961699Y-95376810D01*
X161992789Y-78034240D02*
X161326419Y-78557010D01*
X162019939Y-110279240D02*
X162225129Y-110122050D01*
X162031749Y-108641500D02*
X161745019Y-108267370D01*
X162048319Y-76398660D02*
X162561879Y-75910410D01*
X162124179Y-94928110D02*
X163229719Y-95258010D01*
X162225129Y-110122050D02*
X162398869Y-109979030D01*
X162240659Y-106533960D02*
X162627459Y-106937640D01*
X162272979Y-108958890D02*
X162031749Y-108641500D01*
X162398869Y-109979030D02*
X162538409Y-109852040D01*
X162460749Y-70441230D02*
X161657409Y-69834860D01*
X162465799Y-109215780D02*
X162272979Y-108958890D01*
X162538409Y-109852040D02*
X162641009Y-109742920D01*
X162561879Y-75910410D02*
X163042139Y-75453040D01*
X162607269Y-109408400D02*
X162465799Y-109215780D01*
X162627459Y-106937640D02*
X162974159Y-107298470D01*
X162628779Y-77536470D02*
X161992789Y-78034240D01*
X162641009Y-109742920D02*
X162703949Y-109653540D01*
X162678299Y-96058820D02*
X161819729Y-95717600D01*
X162694469Y-109532980D02*
X162607269Y-109408400D01*
X162703949Y-109653540D02*
X162724479Y-109585760D01*
X162724479Y-109585760D02*
X162694469Y-109532980D01*
X162725559Y-87562710D02*
X161810159Y-87698850D01*
X162974159Y-107298470D02*
X163277699Y-107613240D01*
X163042139Y-75453040D02*
X163485909Y-75029620D01*
X163229719Y-95258010D02*
X164254499Y-95563030D01*
X163230619Y-77066610D02*
X162628779Y-77536470D01*
X163235869Y-71074510D02*
X162460749Y-70441230D01*
X163277699Y-107613240D02*
X163535019Y-107878760D01*
X163321469Y-86584270D02*
X166090009Y-85927270D01*
X163404709Y-87461690D02*
X162725559Y-87562710D01*
X163485909Y-75029620D02*
X163889979Y-74643190D01*
X163513679Y-96391520D02*
X162678299Y-96058820D01*
X163535019Y-107878760D02*
X163743059Y-108091830D01*
X163743059Y-108091830D02*
X163898759Y-108249260D01*
X163794539Y-76627590D02*
X163230619Y-77066610D01*
X163889979Y-74643190D02*
X164251159Y-74296830D01*
X163898759Y-108249260D02*
X163999049Y-108347830D01*
X163973659Y-71728120D02*
X163235869Y-71074510D01*
X163999049Y-108347830D02*
X164040879Y-108384360D01*
X164040879Y-108384360D02*
X164078449Y-108382380D01*
X164050389Y-87365780D02*
X163404709Y-87461690D01*
X164078449Y-108382380D02*
X164136409Y-108355960D01*
X164136409Y-108355960D02*
X164214119Y-108305580D01*
X164214119Y-108305580D02*
X164310979Y-108231750D01*
X164251159Y-74296830D02*
X164566239Y-73993580D01*
X164254499Y-95563030D02*
X165199969Y-95843600D01*
X164310979Y-108231750D02*
X164426359Y-108134970D01*
X164316749Y-76222330D02*
X163794539Y-76627590D01*
X164321479Y-96713940D02*
X163513679Y-96391520D01*
X164426359Y-108134970D02*
X164559629Y-108015740D01*
X164559629Y-108015740D02*
X164710179Y-107874560D01*
X164566239Y-73993580D02*
X164832019Y-73736510D01*
X164663389Y-87274860D02*
X164050389Y-87365780D01*
X164665019Y-72395440D02*
X163973659Y-71728120D01*
X164710179Y-107874560D02*
X164877389Y-107711920D01*
X164793499Y-75853750D02*
X164316749Y-76222330D01*
X164827809Y-72562490D02*
X164665019Y-72395440D01*
X164832019Y-73736510D02*
X165045299Y-73528670D01*
X164877389Y-107711920D02*
X165545359Y-107021230D01*
X164969129Y-72712890D02*
X164827809Y-72562490D01*
X165045299Y-73528670D02*
X165202869Y-73373120D01*
X165088469Y-72846040D02*
X164969129Y-72712890D01*
X165097359Y-97024300D02*
X164321479Y-96713940D01*
X165185349Y-72961300D02*
X165088469Y-72846040D01*
X165199969Y-95843600D02*
X166067559Y-96100130D01*
X165202869Y-73373120D02*
X165301539Y-73272930D01*
X165220999Y-75524770D02*
X164793499Y-75853750D01*
X165244509Y-87188840D02*
X164663389Y-87274860D01*
X165259249Y-73058060D02*
X165185349Y-72961300D01*
X165301539Y-73272930D02*
X165338099Y-73231140D01*
X165309669Y-73135710D02*
X165259249Y-73058060D01*
X165336119Y-73193600D02*
X165309669Y-73135710D01*
X165338099Y-73231140D02*
X165336119Y-73193600D01*
X165545359Y-107021230D02*
X166199599Y-106284160D01*
X165595489Y-75238320D02*
X165220999Y-75524770D01*
X165794539Y-87107610D02*
X165244509Y-87188840D01*
X165836949Y-97320850D02*
X165097359Y-97024300D01*
X165913189Y-74997320D02*
X165595489Y-75238320D01*
X166067559Y-96100130D02*
X166858709Y-96333010D01*
X166090009Y-85927270D02*
X166747089Y-85771620D01*
X166170329Y-74804700D02*
X165913189Y-74997320D01*
X166199599Y-106284160D02*
X166833499Y-105509790D01*
X166314279Y-87031050D02*
X165794539Y-87107610D01*
X166363139Y-74663360D02*
X166170329Y-74804700D01*
X166487839Y-74576240D02*
X166363139Y-74663360D01*
X166535879Y-97601800D02*
X165836949Y-97320850D01*
X166540669Y-74546260D02*
X166487839Y-74576240D01*
X166637829Y-74581040D02*
X166540669Y-74546260D01*
X166747089Y-85771620D02*
X167382529Y-85621220D01*
X166768309Y-74685890D02*
X166637829Y-74581040D01*
X166804529Y-86959060D02*
X166314279Y-87031050D01*
X166833499Y-105509790D02*
X167440449Y-104707230D01*
X166858709Y-96333010D02*
X167574839Y-96542670D01*
X166928489Y-74854940D02*
X166768309Y-74685890D01*
X167114699Y-75082290D02*
X166928489Y-74854940D01*
X167189799Y-97865400D02*
X166535879Y-97601800D01*
X167266089Y-86891520D02*
X166804529Y-86959060D01*
X167323309Y-75362070D02*
X167114699Y-75082290D01*
X167382529Y-85621220D02*
X167992529Y-85476980D01*
X167440449Y-104707230D02*
X168013849Y-103885560D01*
X167550679Y-75688400D02*
X167323309Y-75362070D01*
X167574839Y-96542670D02*
X168217389Y-96729520D01*
X167699749Y-86828340D02*
X167266089Y-86891520D01*
X167793159Y-76055390D02*
X167550679Y-75688400D01*
X167794329Y-98109880D02*
X167189799Y-97865400D01*
X167992529Y-85476980D02*
X168573279Y-85339800D01*
X168013849Y-103885560D02*
X168547069Y-103053890D01*
X168047099Y-76457160D02*
X167793159Y-76055390D01*
X168106309Y-86769400D02*
X167699749Y-86828340D01*
X168217389Y-96729520D02*
X168787799Y-96893960D01*
X168345129Y-98333460D02*
X167794329Y-98109880D01*
X168486569Y-86714590D02*
X168106309Y-86769400D01*
X168547069Y-103053890D02*
X169033519Y-102221320D01*
X168573279Y-85339800D02*
X169120989Y-85210600D01*
X168574809Y-77341530D02*
X168047099Y-76457160D01*
X168787799Y-96893960D02*
X169287499Y-97036410D01*
X168837809Y-98534390D02*
X168345129Y-98333460D01*
X168841319Y-86663800D02*
X168486569Y-86714590D01*
X169033519Y-102221320D02*
X169466579Y-101396920D01*
X169104659Y-78294450D02*
X168574809Y-77341530D01*
X169120989Y-85210600D02*
X169631839Y-85090270D01*
X169268029Y-98710890D02*
X168837809Y-98534390D01*
X169287499Y-97036410D02*
X169717929Y-97157290D01*
X169466579Y-101396920D02*
X169714729Y-100888400D01*
X169477489Y-86573870D02*
X168841319Y-86663800D01*
X169607499Y-79268870D02*
X169104659Y-78294450D01*
X169631419Y-98861200D02*
X169268029Y-98710890D01*
X169631839Y-85090270D02*
X170102029Y-84979720D01*
X169714729Y-100888400D02*
X169920159Y-100452270D01*
X169717929Y-97157290D02*
X170080509Y-97256990D01*
X169920159Y-100452270D02*
X170084189Y-100085130D01*
X169923609Y-98983550D02*
X169631419Y-98861200D01*
X170021209Y-86498730D02*
X169477489Y-86573870D01*
X170054179Y-80217740D02*
X169607499Y-79268870D01*
X170080509Y-97256990D02*
X170376689Y-97335930D01*
X170084189Y-100085130D02*
X170208129Y-99783570D01*
X170102029Y-84979720D02*
X170527759Y-84879860D01*
X170140249Y-99076160D02*
X169923609Y-98983550D01*
X170208129Y-99783570D02*
X170293309Y-99544200D01*
X170276959Y-99137280D02*
X170140249Y-99076160D01*
X170293309Y-99544200D02*
X170341039Y-99363610D01*
X170329389Y-99165140D02*
X170276959Y-99137280D01*
X170341039Y-99363610D02*
X170352629Y-99238390D01*
X170352629Y-99238390D02*
X170329389Y-99165140D01*
X170376689Y-97335930D02*
X170607889Y-97394530D01*
X170478839Y-86437520D02*
X170021209Y-86498730D01*
X170527759Y-84879860D02*
X170725629Y-84831840D01*
X170602549Y-81574490D02*
X170054179Y-80217740D01*
X170607889Y-97394530D02*
X170775549Y-97433200D01*
X170725629Y-84831840D02*
X170894149Y-84787160D01*
X170775549Y-97433200D02*
X170881119Y-97452340D01*
X170856759Y-86389370D02*
X170478839Y-86437520D01*
X170881119Y-97452340D02*
X170926009Y-97452370D01*
X170894149Y-84787160D02*
X171035099Y-84745150D01*
X170926009Y-97452370D02*
X170975779Y-97392460D01*
X170975779Y-97392460D02*
X171034689Y-97272760D01*
X171034689Y-97272760D02*
X171101259Y-97099540D01*
X171035099Y-84745150D02*
X171150279Y-84705120D01*
X171060409Y-82919860D02*
X170602549Y-81574490D01*
X171101259Y-97099540D02*
X171174039Y-96879060D01*
X171150279Y-84705120D02*
X171310419Y-84628290D01*
X171151479Y-83224390D02*
X171060409Y-82919860D01*
X171161349Y-86353410D02*
X170856759Y-86389370D01*
X171174039Y-96879060D02*
X171251589Y-96617580D01*
X171230729Y-83508180D02*
X171151479Y-83224390D01*
X171251589Y-96617580D02*
X171332429Y-96321360D01*
X171296919Y-83767230D02*
X171230729Y-83508180D01*
X171310419Y-84628290D02*
X171388839Y-84551210D01*
X171332429Y-96321360D02*
X171415119Y-95996660D01*
X171348819Y-83997530D02*
X171296919Y-83767230D01*
X171385199Y-84195090D02*
X171348819Y-83997530D01*
X171388839Y-84551210D02*
X171406439Y-84475930D01*
X171398989Y-86328770D02*
X171161349Y-86353410D01*
X171404809Y-84355890D02*
X171385199Y-84195090D01*
X171406439Y-84475930D02*
X171404809Y-84355890D01*
X171415119Y-95996660D02*
X171498199Y-95649750D01*
X171498199Y-95649750D02*
X171659689Y-94914340D01*
X171576059Y-86314580D02*
X171398989Y-86328770D01*
X171659689Y-94914340D02*
X171805249Y-94165210D01*
X171698919Y-86309980D02*
X171576059Y-86314580D01*
X171773949Y-86314100D02*
X171698919Y-86309980D01*
X171805249Y-94165210D02*
X171923239Y-93452470D01*
X171807539Y-86326060D02*
X171773949Y-86314100D01*
X171855169Y-86422200D02*
X171807539Y-86326060D01*
X171899329Y-86601990D02*
X171855169Y-86422200D01*
X171923239Y-93452470D02*
X172001999Y-92826210D01*
X171939759Y-86856370D02*
X171899329Y-86601990D01*
X171976179Y-87176290D02*
X171939759Y-86856370D01*
X172001999Y-92826210D02*
X172034809Y-92427150D01*
X172008319Y-87552660D02*
X171976179Y-87176290D01*
X172034809Y-92427150D02*
X172060359Y-91984820D01*
X172035909Y-87976430D02*
X172008319Y-87552660D01*
X172058689Y-88438530D02*
X172035909Y-87976430D01*
X172060359Y-91984820D02*
X172078919Y-91508280D01*
X172076369Y-88929890D02*
X172058689Y-88438530D01*
X172078919Y-91508280D02*
X172090769Y-91006610D01*
X172090769Y-91006610D02*
X172095379Y-89964130D01*
X172095379Y-89964130D02*
X172076369Y-88929890D01*
%TD*%
M02*
