%TF.GenerationSoftware,KiCad,Pcbnew,8.0.4+dfsg-1*%
%TF.CreationDate,2024-08-07T14:19:07+02:00*%
%TF.ProjectId,EMC_antenna,454d435f-616e-4746-956e-6e612e6b6963,rev?*%
%TF.SameCoordinates,Original*%
%TF.FileFunction,Legend,Top*%
%TF.FilePolarity,Positive*%
%FSLAX46Y46*%
G04 Gerber Fmt 4.6, Leading zero omitted, Abs format (unit mm)*
G04 Created by KiCad (PCBNEW 8.0.4+dfsg-1) date 2024-08-07 14:19:07*
%MOMM*%
%LPD*%
G01*
G04 APERTURE LIST*
%ADD10C,0.150000*%
%ADD11C,0.200000*%
%TA.AperFunction,Profile*%
%ADD12C,0.100000*%
%TD*%
G04 APERTURE END LIST*
D10*
X141608712Y-117643604D02*
X142084902Y-117643604D01*
X141513474Y-117929319D02*
X141846807Y-116929319D01*
X141846807Y-116929319D02*
X142180140Y-117929319D01*
X142513474Y-117405509D02*
X142846807Y-117405509D01*
X142989664Y-117929319D02*
X142513474Y-117929319D01*
X142513474Y-117929319D02*
X142513474Y-116929319D01*
X142513474Y-116929319D02*
X142989664Y-116929319D01*
X143942045Y-117929319D02*
X143370617Y-117929319D01*
X143656331Y-117929319D02*
X143656331Y-116929319D01*
X143656331Y-116929319D02*
X143561093Y-117072176D01*
X143561093Y-117072176D02*
X143465855Y-117167414D01*
X143465855Y-117167414D02*
X143370617Y-117215033D01*
D11*
%TO.C,AE1*%
X142885379Y-88394500D02*
X142871941Y-88479847D01*
X142890392Y-88872238D02*
X142908306Y-88959196D01*
X142903819Y-88313834D02*
X142890784Y-88366907D01*
X142950511Y-89084064D02*
X142968143Y-89125634D01*
X142963608Y-88134078D02*
X142936790Y-88201513D01*
X142968143Y-89125634D02*
X143088293Y-89349794D01*
X143062643Y-87938804D02*
X143021088Y-88011451D01*
X143088293Y-89349794D02*
X143257413Y-89573724D01*
X143257413Y-89573724D02*
X143471053Y-89792284D01*
X143471053Y-89792284D02*
X143724753Y-90000324D01*
X143584605Y-92264422D02*
X143551661Y-92395412D01*
X143609713Y-93105614D02*
X143693323Y-93237483D01*
X143693323Y-93237483D02*
X143709993Y-93263774D01*
X143707703Y-91934104D02*
X143658179Y-92044440D01*
X143709993Y-93263774D02*
X143848573Y-93410754D01*
X143724753Y-90000324D02*
X143848583Y-90087354D01*
X143794557Y-87340470D02*
X143794551Y-87340455D01*
X143842059Y-87321978D02*
X143794551Y-87340455D01*
X143848573Y-93410754D02*
X144022193Y-93543604D01*
X143848583Y-90087354D02*
X143990798Y-90181939D01*
X143849673Y-92158864D02*
X143873303Y-92100426D01*
X143984931Y-91452718D02*
X143914724Y-91557360D01*
X143990798Y-90181939D02*
X143985383Y-90175494D01*
X144022193Y-93543604D02*
X144227546Y-93659380D01*
X144053037Y-91360262D02*
X143997786Y-91433612D01*
X144057879Y-90218109D02*
X144097633Y-90241904D01*
X144097633Y-90241904D02*
X144135823Y-90263574D01*
X144135823Y-90263574D02*
X144265923Y-90329784D01*
X144174123Y-91210164D02*
X144053037Y-91360262D01*
X144229051Y-87230658D02*
X144176947Y-87238066D01*
X144265923Y-90329784D02*
X144413103Y-90401078D01*
X144296663Y-90117484D02*
X144049412Y-89982738D01*
X144404351Y-90394338D02*
X144525323Y-90445024D01*
X144490753Y-90207114D02*
X144296663Y-90117484D01*
X144525323Y-90445024D02*
X144586463Y-90469194D01*
X144557255Y-90234688D02*
X144490753Y-90207114D01*
X144586463Y-90469194D02*
X144821753Y-90548454D01*
X144690143Y-87448994D02*
X144859320Y-87479711D01*
X144712510Y-90942156D02*
X144775223Y-90889664D01*
X144775223Y-90889664D02*
X144972093Y-90731674D01*
X144821753Y-90548454D02*
X144860243Y-90560774D01*
X144860243Y-90560774D02*
X144876253Y-90566764D01*
X144864153Y-90576824D02*
X144834942Y-90599011D01*
X144876253Y-90566764D02*
X144864153Y-90576824D01*
X144972093Y-90731674D02*
X145084636Y-90648933D01*
X144979943Y-90371384D02*
X144886767Y-90347581D01*
X144993209Y-87290328D02*
X144886927Y-87264162D01*
X145075944Y-90395177D02*
X144979943Y-90371384D01*
X145101260Y-87543990D02*
X145173337Y-87571449D01*
X145286524Y-90298528D02*
X145286993Y-90409364D01*
X145286993Y-90409364D02*
X145280573Y-90431983D01*
X145306978Y-87402645D02*
X145229825Y-87368857D01*
X145330756Y-90671444D02*
X145339043Y-90703084D01*
X145339043Y-90703084D02*
X145369205Y-90808073D01*
X145359393Y-89712424D02*
X145333935Y-89815676D01*
X145385717Y-90855919D02*
X145408711Y-90913874D01*
X145495363Y-89963944D02*
X145558027Y-89696114D01*
X145558027Y-89696114D02*
X145573523Y-89629884D01*
X145559593Y-93758594D02*
X145586118Y-93747972D01*
X145573523Y-89629884D02*
X145704993Y-89334914D01*
X145586118Y-93747972D02*
X145700376Y-93696700D01*
X145704993Y-89334914D02*
X145885433Y-89086604D01*
X145885433Y-89086604D02*
X146110514Y-88892483D01*
X145899976Y-93343799D02*
X145826879Y-93405501D01*
X146185841Y-88398565D02*
X146229483Y-88461874D01*
X146193294Y-88096503D02*
X146194933Y-88109094D01*
X146193294Y-88096503D02*
X146214901Y-88098626D01*
X146214901Y-88098626D02*
X146212213Y-88125964D01*
X146216343Y-88026894D02*
X146215073Y-88096874D01*
X146229483Y-88461874D02*
X146232773Y-88504174D01*
X146232773Y-88504174D02*
X146239933Y-88580864D01*
X146239933Y-88580864D02*
X146243793Y-88615254D01*
X146243793Y-88615254D02*
X146191280Y-88641853D01*
X146297480Y-92894096D02*
X146266861Y-92936366D01*
X146306123Y-87168724D02*
X146263612Y-87414755D01*
X146343813Y-86994164D02*
X146306123Y-87168724D01*
X146362443Y-86920124D02*
X146343813Y-86994164D01*
X146384343Y-86835504D02*
X146362443Y-86920124D01*
X146402883Y-88457024D02*
X146397289Y-88361138D01*
X146407083Y-88512294D02*
X146402883Y-88457024D01*
X146410953Y-88537714D02*
X146407083Y-88512294D01*
X146412203Y-86734942D02*
X146384343Y-86835504D01*
X146415564Y-88543846D02*
X146410953Y-88537714D01*
X146438796Y-87475547D02*
X146450553Y-87398764D01*
X146450553Y-87398764D02*
X146484773Y-87213674D01*
X146484773Y-87213674D02*
X146536473Y-86996814D01*
X146535233Y-88506914D02*
X146421850Y-88542937D01*
X146536473Y-86996814D02*
X146561753Y-86898974D01*
X146561753Y-86898974D02*
X146576843Y-86846094D01*
X146572436Y-88495909D02*
X146535233Y-88506914D01*
X146576843Y-86846094D02*
X146637618Y-86654642D01*
X146679223Y-92676254D02*
X146756813Y-92528006D01*
X146710973Y-92126724D02*
X146630946Y-92304831D01*
X146731363Y-92078454D02*
X146710973Y-92126724D01*
X146736963Y-85949604D02*
X146682683Y-86045221D01*
X146753521Y-92026021D02*
X146731363Y-92078454D01*
X146756813Y-92528006D02*
X146786683Y-92470934D01*
X146786683Y-92470934D02*
X146871356Y-92293747D01*
X146793382Y-85862356D02*
X146736963Y-85949604D01*
X146850762Y-88436174D02*
X146766654Y-88448934D01*
X146896427Y-92380017D02*
X146909903Y-92447134D01*
X146909903Y-92447134D02*
X146923083Y-92510614D01*
X146923083Y-92510614D02*
X146955130Y-92652689D01*
X146981813Y-92748614D02*
X147014611Y-92860937D01*
X147024423Y-91965844D02*
X147048513Y-91965787D01*
X147024423Y-91985064D02*
X147024423Y-91965844D01*
X147040853Y-92111284D02*
X147026660Y-92016900D01*
X147061788Y-92246044D02*
X147040853Y-92111284D01*
X147084260Y-93044857D02*
X147106013Y-93095027D01*
X147105493Y-92477511D02*
X147104193Y-92465624D01*
X147128363Y-92563494D02*
X147105493Y-92477511D01*
X147146583Y-92632254D02*
X147128363Y-92563494D01*
X147157553Y-92669274D02*
X147146583Y-92632254D01*
X147174068Y-92717465D02*
X147157553Y-92669274D01*
X147227333Y-92872884D02*
X147174068Y-92717465D01*
X147306233Y-85643364D02*
X147475634Y-85546161D01*
X147383803Y-93198627D02*
X147387683Y-93202014D01*
X147391733Y-85594304D02*
X147478149Y-85554632D01*
X147433789Y-93278127D02*
X147442893Y-93291044D01*
X147442893Y-93291044D02*
X147383803Y-93198627D01*
X147463093Y-88438554D02*
X147391335Y-88427518D01*
X147512613Y-93389974D02*
X147433789Y-93278127D01*
X147521593Y-88448784D02*
X147463093Y-88438554D01*
X147572103Y-88459644D02*
X147521593Y-88448784D01*
X147673133Y-88485764D02*
X147583982Y-88462715D01*
X147690690Y-91818110D02*
X147771853Y-91784218D01*
X147716343Y-93904404D02*
X147745694Y-93926519D01*
X147769523Y-93944474D02*
X147832643Y-93989464D01*
X147832643Y-93989464D02*
X147907684Y-94039004D01*
X147990131Y-91664322D02*
X148067543Y-91612524D01*
X148067543Y-91612524D02*
X148173002Y-91535808D01*
X148137893Y-94158093D02*
X148170293Y-94171344D01*
X148170293Y-94171344D02*
X148219043Y-94189224D01*
X148339683Y-88836504D02*
X148269283Y-88782889D01*
X148354953Y-88818444D02*
X148339683Y-88836504D01*
X148355333Y-91371114D02*
X148466218Y-91245733D01*
X148424440Y-88728968D02*
X148354953Y-88818444D01*
X148466218Y-91245733D02*
X148472133Y-91239044D01*
X148472133Y-91239044D02*
X148540175Y-91144523D01*
X148476715Y-89321367D02*
X148606553Y-89576354D01*
X148523033Y-89015484D02*
X148509223Y-88995654D01*
X148540175Y-91144523D02*
X148538513Y-91145164D01*
X148558537Y-89059657D02*
X148523033Y-89015484D01*
X148588991Y-91066696D02*
X148591833Y-91080054D01*
X148591833Y-91080054D02*
X148593013Y-91112154D01*
X148593013Y-91112154D02*
X148594783Y-91151344D01*
X148593391Y-88952164D02*
X148800376Y-88866601D01*
X148594783Y-91151344D02*
X148604984Y-91160644D01*
X148606553Y-89576354D02*
X148680963Y-89864754D01*
X148680963Y-89864754D02*
X148697633Y-90171674D01*
X148691713Y-90970204D02*
X148654884Y-90966365D01*
X148697633Y-90171674D02*
X148654322Y-90482269D01*
X148738402Y-90796955D02*
X148756457Y-90754835D01*
X148744070Y-88648213D02*
X148754063Y-88630114D01*
X148751273Y-88247674D02*
X148599556Y-88490983D01*
X148754063Y-88630114D02*
X148780283Y-88588674D01*
X148773813Y-90973044D02*
X148691713Y-90970204D01*
X148774063Y-88207994D02*
X148751273Y-88247674D01*
X148780283Y-88588674D02*
X148858473Y-88464904D01*
X148838196Y-90490937D02*
X148868871Y-90353142D01*
X148843036Y-88614457D02*
X148746206Y-88648756D01*
X148858473Y-88464904D02*
X148911626Y-88375123D01*
X148861513Y-88042674D02*
X148774063Y-88207994D01*
X148940845Y-87873234D02*
X148861513Y-88042674D01*
X148954423Y-87837754D02*
X148923181Y-87909558D01*
X148963956Y-87814170D02*
X148954423Y-87837754D01*
X148970586Y-90982566D02*
X148773813Y-90973044D01*
X149013643Y-88191552D02*
X149108323Y-87977924D01*
X149023713Y-94014184D02*
X148877474Y-94045188D01*
X149067120Y-94002746D02*
X149023713Y-94014184D01*
X149087482Y-88766023D02*
X149132713Y-88752554D01*
X149092843Y-88532824D02*
X149039700Y-88549233D01*
X149108323Y-87977924D02*
X149148071Y-87878927D01*
X149119424Y-91218194D02*
X149144603Y-91215304D01*
X149132713Y-88752554D02*
X149262993Y-88718434D01*
X149144603Y-91215304D02*
X149213780Y-91216233D01*
X149161963Y-88514664D02*
X149092843Y-88532824D01*
X149165713Y-86232564D02*
X149145463Y-86184954D01*
X149196533Y-86311874D02*
X149165713Y-86232564D01*
X149228553Y-86407094D02*
X149169619Y-86231839D01*
X149236465Y-88496132D02*
X149161963Y-88514664D01*
X149262993Y-88718434D02*
X149306863Y-88708154D01*
X149285493Y-91365634D02*
X149120120Y-91219856D01*
X149306863Y-88708154D02*
X149354713Y-88697434D01*
X149354713Y-88697434D02*
X149494293Y-88670794D01*
X149375549Y-91452531D02*
X149285493Y-91365634D01*
X149467905Y-91555958D02*
X149376565Y-91454300D01*
X149494293Y-88670794D02*
X149757450Y-88636620D01*
X149605943Y-88427754D02*
X149523529Y-88439823D01*
X149617613Y-91751534D02*
X149437067Y-91510257D01*
X149714920Y-91899813D02*
X149617613Y-91751534D01*
X149730643Y-93798484D02*
X149766755Y-93750791D01*
X149776188Y-90971598D02*
X149605977Y-90982862D01*
X149787863Y-93722914D02*
X149845450Y-93635690D01*
X149861388Y-92196019D02*
X149813170Y-92084386D01*
X150007403Y-90934464D02*
X149920624Y-90948703D01*
X150060583Y-90924914D02*
X150007403Y-90934464D01*
X150226518Y-91117430D02*
X150267953Y-91108024D01*
X150267953Y-91108024D02*
X150311813Y-91097924D01*
X150283913Y-90876304D02*
X150060583Y-90924914D01*
X150302513Y-88638414D02*
X150422381Y-88654462D01*
X150311813Y-91097924D02*
X150399972Y-91076795D01*
X150325113Y-90866234D02*
X150283913Y-90876304D01*
X150446083Y-90833184D02*
X150325113Y-90866234D01*
X150469986Y-91056569D02*
X150507201Y-91045441D01*
X150504563Y-90815294D02*
X150446083Y-90833184D01*
X150581577Y-90791494D02*
X150504563Y-90815294D01*
X150602943Y-88464684D02*
X150366313Y-88425193D01*
X150671783Y-90760274D02*
X150660173Y-90765554D01*
X150695169Y-88711214D02*
X150719936Y-88718501D01*
X150761133Y-90727774D02*
X150671783Y-90760274D01*
X150785053Y-90718164D02*
X150761133Y-90727774D01*
X150818273Y-90940488D02*
X150851523Y-90928824D01*
X150821343Y-88522104D02*
X150602943Y-88464684D01*
X150851523Y-90928824D02*
X150996509Y-90868262D01*
X150904102Y-90669138D02*
X150785053Y-90718164D01*
X150910571Y-88782447D02*
X150969328Y-88807069D01*
X151021023Y-88597134D02*
X150821343Y-88522104D01*
X151201493Y-88689494D02*
X151021023Y-88597134D01*
X151362233Y-88798884D02*
X151201493Y-88689494D01*
X151409783Y-90364254D02*
X151283540Y-90464576D01*
X151502763Y-88925004D02*
X151362233Y-88798884D01*
X151514813Y-90256024D02*
X151409783Y-90364254D01*
X151535103Y-89262864D02*
X151613820Y-89412064D01*
X151596202Y-90142775D02*
X151514813Y-90256024D01*
X151612553Y-89409664D02*
X151660016Y-89534662D01*
X151613820Y-89412064D02*
X151612553Y-89409664D01*
X151622573Y-89067554D02*
X151502763Y-88925004D01*
X151651493Y-90027424D02*
X151596202Y-90142775D01*
X151660016Y-89534662D02*
X151661073Y-89535544D01*
X151721153Y-89226244D02*
X151638972Y-89093953D01*
X142885379Y-88394500D02*
G75*
G02*
X142890784Y-88366907I373544J-58845D01*
G01*
X142890392Y-88872238D02*
G75*
G02*
X142871941Y-88479847I975146J242483D01*
G01*
X142903819Y-88313834D02*
G75*
G02*
X142936790Y-88201513I823152J-180631D01*
G01*
X142950511Y-89084064D02*
G75*
G02*
X142908306Y-88959196I806851J342280D01*
G01*
X142963608Y-88134078D02*
G75*
G02*
X143021088Y-88011451I943256J-367356D01*
G01*
X143040532Y-87977458D02*
G75*
G02*
X143427293Y-87544054I1134907J-623497D01*
G01*
X143046103Y-88813584D02*
G75*
G02*
X143046193Y-88506824I806735J153143D01*
G01*
X143046193Y-88506824D02*
G75*
G02*
X143148613Y-88186844I1216379J-212960D01*
G01*
X143105263Y-89017204D02*
G75*
G02*
X143046103Y-88813584I1158561J447014D01*
G01*
X143148613Y-88186844D02*
G75*
G02*
X143600913Y-87688864I1111715J-555342D01*
G01*
X143197923Y-89196734D02*
G75*
G02*
X143105263Y-89017204I879555J567638D01*
G01*
X143368413Y-89424454D02*
G75*
G02*
X143197923Y-89196734I1319478J1165552D01*
G01*
X143427293Y-87544054D02*
G75*
G02*
X143794557Y-87340470I930956J-1246375D01*
G01*
X143546343Y-92929524D02*
G75*
G02*
X143551661Y-92395412I1237844J254758D01*
G01*
X143584605Y-92264422D02*
G75*
G02*
X143658179Y-92044440I1473868J-370648D01*
G01*
X143600913Y-87688864D02*
G75*
G02*
X144123863Y-87473534I838628J-1294007D01*
G01*
X143692070Y-91968933D02*
G75*
G02*
X143914724Y-91557360I2659433J-1172696D01*
G01*
X143693323Y-93237483D02*
G75*
G02*
X143546343Y-92929524I616700J483387D01*
G01*
X143753893Y-92830584D02*
G75*
G02*
X143753973Y-92528614I852875J150759D01*
G01*
X143753973Y-92528614D02*
G75*
G02*
X143873303Y-92100426I1682175J-238077D01*
G01*
X143754303Y-89779434D02*
G75*
G02*
X143368413Y-89424454I1721270J2258385D01*
G01*
X143842059Y-87321978D02*
G75*
G02*
X143937763Y-87290154I278592J-677989D01*
G01*
X143879578Y-92084910D02*
G75*
G02*
X144398643Y-91257104I2666065J-1095082D01*
G01*
X143937383Y-90146414D02*
G75*
G02*
X143990798Y-90181939I-25825J-96750D01*
G01*
X143937763Y-87290154D02*
G75*
G02*
X144176947Y-87238066I573249J-2057112D01*
G01*
X143971223Y-93251724D02*
G75*
G02*
X143753893Y-92830584I580314J566119D01*
G01*
X143984931Y-91452718D02*
G75*
G02*
X143997786Y-91433612I275578J-171538D01*
G01*
X144010119Y-91413463D02*
G75*
G02*
X144834941Y-90599010I3189400J-2405117D01*
G01*
X144033523Y-90204584D02*
G75*
G02*
X143985383Y-90175494I25667J96853D01*
G01*
X144033523Y-90204584D02*
G75*
G02*
X144057879Y-90218109I-11306J-49053D01*
G01*
X144049412Y-89982738D02*
G75*
G02*
X143754303Y-89779434I1357061J2285700D01*
G01*
X144123863Y-87473534D02*
G75*
G02*
X144339203Y-87441514I336253J-1521250D01*
G01*
X144229051Y-87230658D02*
G75*
G02*
X144650273Y-87226244I226180J-1483566D01*
G01*
X144339203Y-87441514D02*
G75*
G02*
X144859320Y-87479711I140390J-1648591D01*
G01*
X144378703Y-90384414D02*
G75*
G02*
X144404351Y-90394338I-10494J-65226D01*
G01*
X144398643Y-91257104D02*
G75*
G02*
X144712510Y-90942156I1897646J-1577264D01*
G01*
X144549243Y-93784874D02*
G75*
G02*
X144227546Y-93659380I648979J2138696D01*
G01*
X144650273Y-87226244D02*
G75*
G02*
X144886927Y-87264162I-185681J-1916334D01*
G01*
X144724703Y-90297234D02*
G75*
G02*
X144557255Y-90234688I629420J1940500D01*
G01*
X144732683Y-93827714D02*
G75*
G02*
X144549243Y-93784874I252610J1495834D01*
G01*
X144793843Y-93664444D02*
G75*
G02*
X143971223Y-93251724I222224J1469100D01*
G01*
X144886767Y-90347581D02*
G75*
G02*
X144724703Y-90297234I451724J1740084D01*
G01*
X144924075Y-87491469D02*
G75*
G02*
X145101260Y-87543990I-256766J-1191362D01*
G01*
X144993209Y-87290328D02*
G75*
G02*
X145229825Y-87368857I-355435J-1466701D01*
G01*
X145001213Y-93682944D02*
G75*
G02*
X144793843Y-93664444I24435J1445375D01*
G01*
X145084636Y-90648933D02*
G75*
G02*
X145168083Y-90632804I59720J-85044D01*
G01*
X145173337Y-87571449D02*
G75*
G02*
X145509143Y-87740164I-695753J-1803356D01*
G01*
X145208573Y-93842914D02*
G75*
G02*
X144732683Y-93827714I-186893J1605977D01*
G01*
X145280573Y-90431983D02*
G75*
G02*
X145075944Y-90395177I89217J1083253D01*
G01*
X145286524Y-90298528D02*
G75*
G02*
X145290623Y-90096184I1863415J63468D01*
G01*
X145290623Y-90096184D02*
G75*
G02*
X145333935Y-89815676I2147316J-187956D01*
G01*
X145302693Y-90656754D02*
G75*
G02*
X145168083Y-90632804I118643J1057090D01*
G01*
X145302693Y-90656754D02*
G75*
G02*
X145330756Y-90671444I2771J-28856D01*
G01*
X145306978Y-87402645D02*
G75*
G02*
X145461153Y-87479234I-662504J-1527104D01*
G01*
X145328223Y-93649224D02*
G75*
G02*
X145001213Y-93682944I-294815J1256557D01*
G01*
X145342634Y-89780394D02*
G75*
G02*
X145570284Y-89225825I1756045J-396846D01*
G01*
X145385717Y-90855919D02*
G75*
G02*
X145369205Y-90808073I517414J205336D01*
G01*
X145447863Y-93795304D02*
G75*
G02*
X145208573Y-93842914I-405916J1415008D01*
G01*
X145461153Y-87479234D02*
G75*
G02*
X145942353Y-87835044I-1166316J-2080628D01*
G01*
X145490163Y-90381764D02*
G75*
G02*
X145558027Y-89696114I1586049J189200D01*
G01*
X145509143Y-87740164D02*
G75*
G02*
X146185841Y-88398565I-1277373J-1989824D01*
G01*
X145552723Y-91186574D02*
G75*
G02*
X145408711Y-90913874I1183904J799592D01*
G01*
X145570283Y-89225824D02*
G75*
G02*
X146191280Y-88641853I1369090J-833725D01*
G01*
X145599919Y-93742445D02*
G75*
G02*
X145447863Y-93795304I-492042J1170292D01*
G01*
X145729593Y-93473774D02*
G75*
G02*
X145328223Y-93649224I-697470J1048751D01*
G01*
X145769063Y-91447864D02*
G75*
G02*
X145552723Y-91186574I1184870J1201242D01*
G01*
X145782753Y-91128864D02*
G75*
G02*
X145490163Y-90381764I1256137J922790D01*
G01*
X145826879Y-93405501D02*
G75*
G02*
X145729593Y-93473774I-571687J711178D01*
G01*
X145942353Y-87835044D02*
G75*
G02*
X146194933Y-88109094I-1916804J-2020057D01*
G01*
X145984903Y-93520284D02*
G75*
G02*
X145700376Y-93696700I-1127301J1500478D01*
G01*
X146035423Y-91387534D02*
G75*
G02*
X145782753Y-91128864I876365J1108777D01*
G01*
X146102973Y-93143694D02*
G75*
G02*
X145899976Y-93343799I-973658J784711D01*
G01*
X146102973Y-93143694D02*
G75*
G02*
X146132463Y-93108264I364264J-273206D01*
G01*
X146110514Y-88892483D02*
G75*
G02*
X146937143Y-88623554I938315J-1479272D01*
G01*
X146212213Y-88125964D02*
G75*
G02*
X146193295Y-88096503I9182J26701D01*
G01*
X146216343Y-88026894D02*
G75*
G02*
X146263613Y-87414755I4579036J-45706D01*
G01*
X146227543Y-91776264D02*
G75*
G02*
X145769063Y-91447864I790157J1587382D01*
G01*
X146266861Y-92936366D02*
G75*
G02*
X146132463Y-93108264I-1306800J883230D01*
G01*
X146314033Y-91817734D02*
G75*
G02*
X146227543Y-91776264I44653J204055D01*
G01*
X146314033Y-91817734D02*
G75*
G02*
X146342553Y-91828844I-12233J-73563D01*
G01*
X146397289Y-88361138D02*
G75*
G02*
X146438796Y-87475547I4217930J246078D01*
G01*
X146403523Y-93096704D02*
G75*
G02*
X145984903Y-93520284I-1815160J1375256D01*
G01*
X146406423Y-92727434D02*
G75*
G02*
X146297480Y-92894096I-593312J268896D01*
G01*
X146406423Y-92727434D02*
G75*
G02*
X146427233Y-92692004I203055J-95439D01*
G01*
X146412203Y-86734942D02*
G75*
G02*
X146508810Y-86446763I2025576J-518758D01*
G01*
X146444843Y-92661884D02*
G75*
G02*
X146427233Y-92692004I-60254J15020D01*
G01*
X146444843Y-92661884D02*
G75*
G02*
X146464513Y-92625904I75347J-17825D01*
G01*
X146466743Y-88528674D02*
G75*
G02*
X146421850Y-88542937I-71611J147616D01*
G01*
X146521233Y-86412374D02*
G75*
G02*
X146508813Y-86446764I-366596J112959D01*
G01*
X146521233Y-86412374D02*
G75*
G02*
X146682679Y-86045219I2121346J-713726D01*
G01*
X146572436Y-88495909D02*
G75*
G02*
X146766654Y-88448934I462298J-1486383D01*
G01*
X146630946Y-92304831D02*
G75*
G02*
X146464513Y-92625904I-3618930J1672253D01*
G01*
X146637618Y-86654642D02*
G75*
G02*
X146936459Y-86020982I2619861J-848258D01*
G01*
X146756813Y-92528006D02*
G75*
G02*
X146403523Y-93096704I-3062687J1508536D01*
G01*
X146759893Y-91947404D02*
G75*
G02*
X146342553Y-91828844I238805J1634424D01*
G01*
X146759893Y-91947404D02*
G75*
G02*
X146779833Y-91958664I3399J-17266D01*
G01*
X146779833Y-91958664D02*
G75*
G02*
X146753521Y-92026021I-170307J27710D01*
G01*
X146793382Y-85862356D02*
G75*
G02*
X147303584Y-85390156I1155067J-736294D01*
G01*
X146850762Y-88436174D02*
G75*
G02*
X147047033Y-88416254I240818J-1395885D01*
G01*
X146884003Y-92304344D02*
G75*
G02*
X146871356Y-92293747I8351J22811D01*
G01*
X146884003Y-92304344D02*
G75*
G02*
X146891403Y-92342974I-127420J-44432D01*
G01*
X146896427Y-92380017D02*
G75*
G02*
X146891403Y-92342974I170612J42002D01*
G01*
X146902133Y-91751974D02*
G75*
G02*
X146035423Y-91387534I193962J1674103D01*
G01*
X146936463Y-86020984D02*
G75*
G02*
X147475634Y-85546161I1111136J-718186D01*
G01*
X146937143Y-88623554D02*
G75*
G02*
X147245093Y-88623224I155819J-1720889D01*
G01*
X146981813Y-92748614D02*
G75*
G02*
X146955128Y-92652690I1833766J561814D01*
G01*
X147014611Y-92860937D02*
G75*
G02*
X146992622Y-92785634I497168J186037D01*
G01*
X147026660Y-92016900D02*
G75*
G02*
X147024418Y-91969212I338319J39800D01*
G01*
X147030083Y-92897934D02*
G75*
G02*
X147035053Y-92916704I-34386J-19148D01*
G01*
X147039453Y-92931324D02*
G75*
G02*
X147035053Y-92916704I17239J13160D01*
G01*
X147039453Y-92931324D02*
G75*
G02*
X147051043Y-92960164I-60648J-41122D01*
G01*
X147047033Y-88416254D02*
G75*
G02*
X147391335Y-88427519I119656J-1610106D01*
G01*
X147061953Y-92989244D02*
G75*
G02*
X147051042Y-92960164I85096J48514D01*
G01*
X147061953Y-92989244D02*
G75*
G02*
X147069663Y-93007774I-53935J-33310D01*
G01*
X147084260Y-93044857D02*
G75*
G02*
X147069667Y-93007773I293119J136757D01*
G01*
X147099003Y-92439564D02*
G75*
G02*
X147061789Y-92246044I1406776J370864D01*
G01*
X147099003Y-92439564D02*
G75*
G02*
X147104193Y-92465624I-81454J-29769D01*
G01*
X147109273Y-92491724D02*
G75*
G02*
X147105493Y-92477511I79166J28664D01*
G01*
X147203773Y-93293694D02*
G75*
G02*
X147106017Y-93095025I2145706J1179194D01*
G01*
X147245093Y-88623224D02*
G75*
G02*
X147894533Y-88810654I-152566J-1747498D01*
G01*
X147287633Y-91744064D02*
G75*
G02*
X146902133Y-91751974I-220448J1345924D01*
G01*
X147303583Y-85390154D02*
G75*
G02*
X147697053Y-85276054I529506J-1090496D01*
G01*
X147304343Y-93047444D02*
G75*
G02*
X147174068Y-92717465I1862946J926194D01*
G01*
X147383803Y-93198627D02*
G75*
G02*
X147401969Y-93227010I-31824J-40373D01*
G01*
X147387683Y-93202014D02*
G75*
G02*
X147304345Y-93047443I1328496J816014D01*
G01*
X147393973Y-91918444D02*
G75*
G02*
X147048513Y-91965787I-360540J1346771D01*
G01*
X147446283Y-93645104D02*
G75*
G02*
X147203772Y-93293694I1463786J1269554D01*
G01*
X147472933Y-85558554D02*
G75*
G02*
X147675783Y-85501691I327946J-779646D01*
G01*
X147478149Y-85554632D02*
G75*
G02*
X147453096Y-85566151I-32570J37832D01*
G01*
X147583982Y-88462715D02*
G75*
G02*
X148269284Y-88782888I-410423J-1771975D01*
G01*
X147675783Y-85501694D02*
G75*
G02*
X148016082Y-85498129I181696J-1100406D01*
G01*
X147690690Y-91818110D02*
G75*
G02*
X147393973Y-91918444I-763452J1768845D01*
G01*
X147697053Y-85276054D02*
G75*
G02*
X147954673Y-85275564I130776J-1034446D01*
G01*
X147745694Y-93926519D02*
G75*
G02*
X147446283Y-93645104I1023485J1388919D01*
G01*
X147891133Y-93759354D02*
G75*
G02*
X147433789Y-93278127I1066076J1471104D01*
G01*
X147894533Y-88810654D02*
G75*
G02*
X148476714Y-89321368I-707324J-1393486D01*
G01*
X147907684Y-94039004D02*
G75*
G02*
X147861892Y-94008776I440695J717404D01*
G01*
X147951113Y-91687524D02*
G75*
G02*
X147771849Y-91784210I-662834J1014424D01*
G01*
X147951113Y-91687524D02*
G75*
G02*
X147990133Y-91664329I58966J-54776D01*
G01*
X147954673Y-85275564D02*
G75*
G02*
X148361716Y-85380877I-146894J-1407036D01*
G01*
X148016083Y-85498124D02*
G75*
G02*
X148452103Y-85645255I-162644J-1201626D01*
G01*
X148137893Y-94158093D02*
G75*
G02*
X147936712Y-94056055I525986J1286393D01*
G01*
X148203983Y-91281244D02*
G75*
G02*
X147287633Y-91744064I-1212488J1262076D01*
G01*
X148361713Y-85380884D02*
G75*
G02*
X148955553Y-85859674I-639464J-1400786D01*
G01*
X148424440Y-88728968D02*
G75*
G02*
X148481606Y-88654927I423039J-267532D01*
G01*
X148452103Y-85645254D02*
G75*
G02*
X148618213Y-85758014I-460324J-856846D01*
G01*
X148466218Y-91245733D02*
G75*
G02*
X148173002Y-91535808I-1434798J1157101D01*
G01*
X148509223Y-88995654D02*
G75*
G02*
X148599064Y-88951152I99456J-87846D01*
G01*
X148534523Y-91152374D02*
G75*
G02*
X148540187Y-91144569I7556J474D01*
G01*
X148553133Y-94044944D02*
G75*
G02*
X147891127Y-93759362I269946J1535844D01*
G01*
X148558537Y-89059657D02*
G75*
G02*
X148869753Y-89744434I-1182708J-950623D01*
G01*
X148560033Y-88545674D02*
G75*
G02*
X148481603Y-88654924I-478554J260774D01*
G01*
X148560033Y-88545674D02*
G75*
G02*
X148582634Y-88530667I21346J-7626D01*
G01*
X148577423Y-91083884D02*
G75*
G02*
X148538514Y-91145166I-98244J19384D01*
G01*
X148577423Y-91083884D02*
G75*
G02*
X148589007Y-91066733I18956J-316D01*
G01*
X148593023Y-88515374D02*
G75*
G02*
X148582634Y-88530733I-10744J-3926D01*
G01*
X148599556Y-88490983D02*
G75*
G02*
X148634885Y-88434356I147223J-52517D01*
G01*
X148604984Y-91160644D02*
G75*
G02*
X148767171Y-91247186I-193805J-558456D01*
G01*
X148618213Y-85758014D02*
G75*
G02*
X148801995Y-85945950I-953434J-1116186D01*
G01*
X148652223Y-88927844D02*
G75*
G02*
X148593390Y-88952159I-80044J110344D01*
G01*
X148654322Y-90482269D02*
G75*
G02*
X148203983Y-91281244I-1607488J379651D01*
G01*
X148654884Y-90966365D02*
G75*
G02*
X148663773Y-90944234I16895J6065D01*
G01*
X148738402Y-90796955D02*
G75*
G02*
X148663748Y-90944177I-597523J210455D01*
G01*
X148767173Y-91247184D02*
G75*
G02*
X149350831Y-91746318I-1286794J-2095516D01*
G01*
X148782293Y-88635974D02*
G75*
G02*
X148746195Y-88648810I-28714J23574D01*
G01*
X148802003Y-85945944D02*
G75*
G02*
X149034629Y-86359482I-1206624J-950956D01*
G01*
X148838196Y-90490937D02*
G75*
G02*
X148756458Y-90754835I-1297877J257387D01*
G01*
X148869753Y-89744434D02*
G75*
G02*
X148868869Y-90353142I-1603684J-302026D01*
G01*
X148877474Y-94045188D02*
G75*
G02*
X148553131Y-94044953I-161495J933988D01*
G01*
X148877493Y-88602014D02*
G75*
G02*
X148843037Y-88614461I-130814J308214D01*
G01*
X148877493Y-88602014D02*
G75*
G02*
X149039700Y-88549235I485186J-1215486D01*
G01*
X148901413Y-88392374D02*
G75*
G02*
X148911636Y-88375134I31666J-7126D01*
G01*
X148907993Y-88823724D02*
G75*
G02*
X148800377Y-88866604I-429614J921724D01*
G01*
X148907993Y-88823724D02*
G75*
G02*
X148925343Y-88818867I18586J-32976D01*
G01*
X148923181Y-87909558D02*
G75*
G02*
X148940824Y-87873216I82798J-17742D01*
G01*
X148942693Y-88813804D02*
G75*
G02*
X148925344Y-88818884I-18614J31404D01*
G01*
X148942693Y-88813804D02*
G75*
G02*
X149087480Y-88766015I284786J-619596D01*
G01*
X148955553Y-85859674D02*
G75*
G02*
X149145461Y-86184955I-1203174J-920526D01*
G01*
X149013643Y-88191552D02*
G75*
G02*
X148911297Y-88375416I-1476664J701552D01*
G01*
X149034623Y-86359484D02*
G75*
G02*
X149086380Y-86528735I-1525744J-559116D01*
G01*
X149058273Y-94218284D02*
G75*
G02*
X148219040Y-94189231I-374694J1312184D01*
G01*
X149066073Y-87504564D02*
G75*
G02*
X148963956Y-87814170I-2267068J576101D01*
G01*
X149086383Y-86528734D02*
G75*
G02*
X149130913Y-86769394I-2078738J-509085D01*
G01*
X149130683Y-87152854D02*
G75*
G02*
X149066073Y-87504564I-2474174J272722D01*
G01*
X149130913Y-86769394D02*
G75*
G02*
X149130683Y-87152854I-1507814J-190826D01*
G01*
X149163453Y-91258054D02*
G75*
G02*
X149120131Y-91219851I19126J65354D01*
G01*
X149169619Y-86231839D02*
G75*
G02*
X149306673Y-86795824I-2155891J-822548D01*
G01*
X149236465Y-88496132D02*
G75*
G02*
X149488870Y-88444897I672114J-2663768D01*
G01*
X149241653Y-87575944D02*
G75*
G02*
X149148071Y-87878927I-2151862J498699D01*
G01*
X149245413Y-94152454D02*
G75*
G02*
X149058275Y-94218292I-570834J1323654D01*
G01*
X149257663Y-93930714D02*
G75*
G02*
X149067119Y-94002743I-441284J879314D01*
G01*
X149303613Y-87213674D02*
G75*
G02*
X149241653Y-87575944I-3120714J347310D01*
G01*
X149306673Y-86795824D02*
G75*
G02*
X149303613Y-87213674I-1784944J-195866D01*
G01*
X149379963Y-91780724D02*
G75*
G02*
X149350821Y-91746326I354916J330224D01*
G01*
X149379963Y-91780724D02*
G75*
G02*
X149482269Y-91920881I-691784J-612376D01*
G01*
X149390603Y-93859604D02*
G75*
G02*
X149257661Y-93930710I-701924J1152504D01*
G01*
X149390603Y-93859604D02*
G75*
G02*
X149419425Y-93843228I159576J-247296D01*
G01*
X149409363Y-91490804D02*
G75*
G02*
X149376546Y-91454311I72616J98304D01*
G01*
X149482263Y-91920884D02*
G75*
G02*
X149696585Y-92312243I-1891684J-1290316D01*
G01*
X149496973Y-91590314D02*
G75*
G02*
X149437060Y-91510261I337606J315114D01*
G01*
X149512903Y-94003684D02*
G75*
G02*
X149245413Y-94152454I-943624J1381784D01*
G01*
X149523529Y-88439823D02*
G75*
G02*
X150002093Y-88405238I433850J-2674977D01*
G01*
X149593743Y-93688254D02*
G75*
G02*
X149419431Y-93843237I-486764J371954D01*
G01*
X149605977Y-90982862D02*
G75*
G02*
X148970586Y-90982569I-315898J3896362D01*
G01*
X149696583Y-92312244D02*
G75*
G02*
X149762931Y-92497365I-1321704J-578156D01*
G01*
X149727453Y-91922294D02*
G75*
G02*
X149714918Y-91899813I32926J33094D01*
G01*
X149727453Y-91922294D02*
G75*
G02*
X149813175Y-92084384I-1249674J-764606D01*
G01*
X149757450Y-88636620D02*
G75*
G02*
X150345505Y-88644173I265129J-2253780D01*
G01*
X149762933Y-92497364D02*
G75*
G02*
X149833392Y-92983964I-1776234J-505596D01*
G01*
X149765473Y-91194024D02*
G75*
G02*
X149213780Y-91216238I-432194J3871924D01*
G01*
X149766755Y-93750791D02*
G75*
G02*
X149512911Y-94003695I-877276J626691D01*
G01*
X149815293Y-93216664D02*
G75*
G02*
X149593741Y-93688252I-940274J153904D01*
G01*
X149821303Y-93672264D02*
G75*
G02*
X149845443Y-93635680I62276J-14836D01*
G01*
X149833393Y-92983964D02*
G75*
G02*
X149815293Y-93216664I-1352714J-11836D01*
G01*
X149861388Y-92196019D02*
G75*
G02*
X150004690Y-93106434I-1648609J-725981D01*
G01*
X149877123Y-90959214D02*
G75*
G02*
X149776188Y-90971586I-100944J405614D01*
G01*
X149877123Y-90959214D02*
G75*
G02*
X149920623Y-90948700I128056J-434586D01*
G01*
X149980353Y-93264274D02*
G75*
G02*
X149838944Y-93641225I-1086514J192594D01*
G01*
X150002093Y-88405234D02*
G75*
G02*
X150366313Y-88425194I21386J-2942766D01*
G01*
X150004693Y-93106434D02*
G75*
G02*
X149980351Y-93264274I-1798914J196634D01*
G01*
X150226518Y-91117430D02*
G75*
G02*
X149765474Y-91194029I-855839J3725430D01*
G01*
X150422381Y-88654462D02*
G75*
G02*
X150573694Y-88681661I-297002J-2086738D01*
G01*
X150469986Y-91056569D02*
G75*
G02*
X150399972Y-91076793I-400607J1255569D01*
G01*
X150573693Y-88681664D02*
G75*
G02*
X150695170Y-88711210I-217014J-1156736D01*
G01*
X150626593Y-90774954D02*
G75*
G02*
X150581579Y-90791507I-60614J95354D01*
G01*
X150626593Y-90774954D02*
G75*
G02*
X150641302Y-90770544I13186J-17246D01*
G01*
X150657373Y-90997484D02*
G75*
G02*
X150507199Y-91045432I-300294J681384D01*
G01*
X150657373Y-90997484D02*
G75*
G02*
X150676993Y-90992658I19606J-37416D01*
G01*
X150660173Y-90765554D02*
G75*
G02*
X150641303Y-90770545I-19394J35154D01*
G01*
X150671783Y-90760274D02*
G75*
G02*
X150709282Y-90746631I133696J-309126D01*
G01*
X150690683Y-90987354D02*
G75*
G02*
X150676992Y-90992670I-11704J9854D01*
G01*
X150690683Y-90987354D02*
G75*
G02*
X150703370Y-90982099I11096J-8846D01*
G01*
X150719936Y-88718501D02*
G75*
G02*
X150910569Y-88782452I-313157J-1249599D01*
G01*
X150738953Y-90968864D02*
G75*
G02*
X150703375Y-90982089I-45474J67864D01*
G01*
X150738953Y-90968864D02*
G75*
G02*
X150776022Y-90955634I46426J-71536D01*
G01*
X150791963Y-90951434D02*
G75*
G02*
X150776021Y-90955670I-13884J20134D01*
G01*
X150791963Y-90951434D02*
G75*
G02*
X150818275Y-90940498I41016J-61566D01*
G01*
X150969328Y-88807069D02*
G75*
G02*
X151264944Y-88979052I-509449J-1215731D01*
G01*
X151264943Y-88979054D02*
G75*
G02*
X151480880Y-89186176I-654564J-898546D01*
G01*
X151283540Y-90464576D02*
G75*
G02*
X150904099Y-90669132I-1170961J1717876D01*
G01*
X151435093Y-90615044D02*
G75*
G02*
X150996505Y-90868253I-1351114J1833844D01*
G01*
X151480883Y-89186174D02*
G75*
G02*
X151613826Y-89412061I-797504J-621426D01*
G01*
X151637073Y-90421434D02*
G75*
G02*
X151435097Y-90615049I-898394J735034D01*
G01*
X151638972Y-89093953D02*
G75*
G02*
X151864422Y-89789414I-985193J-703647D01*
G01*
X151660016Y-89534662D02*
G75*
G02*
X151655704Y-89523429I9163J9962D01*
G01*
X151661073Y-89535544D02*
G75*
G02*
X151666330Y-89551464I-11594J-12656D01*
G01*
X151671143Y-89576284D02*
G75*
G02*
X151666388Y-89551474I62736J24884D01*
G01*
X151671143Y-89576284D02*
G75*
G02*
X151692336Y-89835131I-557264J-175916D01*
G01*
X151692353Y-89835134D02*
G75*
G02*
X151586846Y-90162273I-727774J54134D01*
G01*
X151820363Y-90088244D02*
G75*
G02*
X151637075Y-90421436I-933384J296444D01*
G01*
X151864433Y-89789414D02*
G75*
G02*
X151820356Y-90088242I-1064954J4414D01*
G01*
%TD*%
D12*
%TO.C,AE1*%
X122095379Y-90333310D02*
X122114329Y-91353790D01*
X122100009Y-89302550D02*
X122095379Y-90333310D01*
X122111829Y-88805440D02*
X122100009Y-89302550D01*
X122114329Y-91353790D02*
X122131979Y-91838060D01*
X122130359Y-88332300D02*
X122111829Y-88805440D01*
X122131979Y-91838060D02*
X122154719Y-92293220D01*
X122154719Y-92293220D02*
X122182279Y-92710430D01*
X122155849Y-87891980D02*
X122130359Y-88332300D01*
X122182279Y-92710430D02*
X122214399Y-93080830D01*
X122188569Y-87493320D02*
X122155849Y-87891980D01*
X122214399Y-93080830D02*
X122250809Y-93395580D01*
X122250809Y-93395580D02*
X122291239Y-93645840D01*
X122291239Y-93645840D02*
X122335419Y-93822750D01*
X122335419Y-93822750D02*
X122383079Y-93917470D01*
X122383079Y-93917470D02*
X122422899Y-93944020D01*
X122385429Y-86002490D02*
X122188569Y-87493320D01*
X122422899Y-93944020D02*
X122486889Y-93960610D01*
X122486889Y-93960610D02*
X122583389Y-93966670D01*
X122583389Y-93966670D02*
X122720739Y-93961650D01*
X122660269Y-84538050D02*
X122385429Y-86002490D01*
X122720739Y-93961650D02*
X122907289Y-93944980D01*
X122733699Y-84210590D02*
X122660269Y-84538050D01*
X122773069Y-95952880D02*
X122790889Y-96069090D01*
X122773789Y-95800560D02*
X122773069Y-95952880D01*
X122790889Y-96069090D02*
X122821709Y-96219580D01*
X122807019Y-83907810D02*
X122733699Y-84210590D01*
X122818669Y-95717040D02*
X122773789Y-95800560D01*
X122821709Y-96219580D02*
X122866169Y-96410060D01*
X122866169Y-96410060D02*
X122868866Y-96420901D01*
X122868056Y-96417643D02*
X122988694Y-96902205D01*
X122868866Y-96420901D02*
X122924919Y-96646200D01*
X122874779Y-95695870D02*
X122818669Y-95717040D01*
X122879249Y-83634310D02*
X122807019Y-83907810D01*
X122907289Y-93944980D02*
X123151369Y-93916110D01*
X122924919Y-96646200D02*
X122868056Y-96417643D01*
X122949369Y-83394690D02*
X122879249Y-83634310D01*
X122988694Y-96902205D02*
X123264986Y-97861919D01*
X123016409Y-83193560D02*
X122949369Y-83394690D01*
X123018759Y-95654110D02*
X122874779Y-95695870D01*
X123079349Y-83035520D02*
X123016409Y-83193560D01*
X123137219Y-82925170D02*
X123079349Y-83035520D01*
X123151369Y-93916110D02*
X123461339Y-93874480D01*
X123188999Y-82867120D02*
X123137219Y-82925170D01*
X123233759Y-82866930D02*
X123188999Y-82867120D01*
X123246049Y-95592900D02*
X123018759Y-95654110D01*
X123264986Y-97861919D02*
X123580788Y-98809367D01*
X123338759Y-82885700D02*
X123233759Y-82866930D01*
X123461339Y-93874480D02*
X123845519Y-93819510D01*
X123505599Y-82923880D02*
X123338759Y-82885700D01*
X123552099Y-95513340D02*
X123246049Y-95592900D01*
X123580788Y-98809367D02*
X123935558Y-99742923D01*
X123735859Y-82981930D02*
X123505599Y-82923880D01*
X123832769Y-81004400D02*
X123834159Y-81094330D01*
X123834159Y-81094330D02*
X123861029Y-81152880D01*
X123845519Y-93819510D02*
X128832059Y-93093680D01*
X123860599Y-80873080D02*
X123832769Y-81004400D01*
X123861029Y-81152880D02*
X123913589Y-81180890D01*
X123913589Y-81180890D02*
X124050429Y-81242160D01*
X123921339Y-80690320D02*
X123860599Y-80873080D01*
X123932329Y-95416550D02*
X123552099Y-95513340D01*
X123935558Y-99742923D02*
X124328687Y-100660985D01*
X124018699Y-80446110D02*
X123921339Y-80690320D01*
X124031139Y-83060300D02*
X123735859Y-82981930D01*
X124050429Y-81242160D02*
X124267189Y-81334920D01*
X124156409Y-80130430D02*
X124018699Y-80446110D01*
X124241559Y-79942650D02*
X124156409Y-80130430D01*
X124267189Y-81334920D02*
X124559489Y-81457410D01*
X124328687Y-100660985D02*
X124759501Y-101561977D01*
X124338179Y-79733240D02*
X124241559Y-79942650D01*
X124382199Y-95303660D02*
X123932329Y-95416550D01*
X124393029Y-83159450D02*
X124031139Y-83060300D01*
X124446739Y-79500950D02*
X124338179Y-79733240D01*
X124559489Y-81457410D02*
X124922989Y-81607850D01*
X124567709Y-79244520D02*
X124446739Y-79500950D01*
X124759501Y-101561977D02*
X124991125Y-102004362D01*
X124823129Y-83279840D02*
X124393029Y-83159450D01*
X124897149Y-95175780D02*
X124382199Y-95303660D01*
X124922989Y-81607850D02*
X125353309Y-81784470D01*
X124989179Y-78401930D02*
X124567709Y-79244520D01*
X124991125Y-102004362D02*
X125710199Y-103236910D01*
X125323039Y-83421920D02*
X124823129Y-83279840D01*
X125353309Y-81784470D02*
X125846099Y-81985520D01*
X125452219Y-77579790D02*
X124989179Y-78401930D01*
X125472619Y-95034030D02*
X124897149Y-95175780D01*
X125710199Y-103236910D02*
X126525399Y-104462800D01*
X125713479Y-77152630D02*
X125452219Y-77579790D01*
X125846099Y-81985520D02*
X126396979Y-82209210D01*
X125894339Y-83586140D02*
X125323039Y-83421920D01*
X126002119Y-76702080D02*
X125713479Y-77152630D01*
X126104049Y-94879530D02*
X125472619Y-95034030D01*
X126323799Y-76218620D02*
X126002119Y-76702080D01*
X126396979Y-82209210D02*
X127001599Y-82453780D01*
X126525399Y-104462800D02*
X126721029Y-104735390D01*
X126538619Y-83772970D02*
X125894339Y-83586140D01*
X126684179Y-75692770D02*
X126323799Y-76218620D01*
X126721029Y-104735390D02*
X126907199Y-104985650D01*
X126786889Y-94713400D02*
X126104049Y-94879530D01*
X126907199Y-104985650D02*
X127080819Y-105209220D01*
X127001599Y-82453780D02*
X127655579Y-82717470D01*
X127015619Y-75222850D02*
X126684179Y-75692770D01*
X127080819Y-105209220D02*
X127238799Y-105401710D01*
X127238799Y-105401710D02*
X127378039Y-105558740D01*
X127257489Y-83982860D02*
X126538619Y-83772970D01*
X127333179Y-74789810D02*
X127015619Y-75222850D01*
X127378039Y-105558740D02*
X127495449Y-105675930D01*
X127495449Y-105675930D02*
X127587929Y-105748900D01*
X127516579Y-94536760D02*
X126786889Y-94713400D01*
X127587929Y-105748900D02*
X127652399Y-105773270D01*
X127642679Y-74386610D02*
X127333179Y-74789810D01*
X127652399Y-105773270D02*
X127705089Y-105743270D01*
X127655579Y-82717470D02*
X128354579Y-82998500D01*
X127705089Y-105743270D02*
X127829649Y-105656100D01*
X127829649Y-105656100D02*
X128022329Y-105514690D01*
X127949959Y-74006220D02*
X127642679Y-74386610D01*
X128022329Y-105514690D02*
X128279339Y-105321950D01*
X128052539Y-84216260D02*
X127257489Y-83982860D01*
X128279339Y-105321950D02*
X128596919Y-105080810D01*
X128288559Y-94350720D02*
X127516579Y-94536760D01*
X128354579Y-82998500D02*
X129094219Y-83295110D01*
X128581189Y-73285750D02*
X127949959Y-74006220D01*
X128596919Y-105080810D02*
X128971289Y-104794200D01*
X128832059Y-93093680D02*
X136409369Y-91988280D01*
X128845649Y-107134590D02*
X128852049Y-107175370D01*
X128852049Y-107175370D02*
X128881799Y-107236120D01*
X128881799Y-107236120D02*
X128933229Y-107315070D01*
X128882209Y-107088780D02*
X128845649Y-107134590D01*
X128925359Y-84473630D02*
X128052539Y-84216260D01*
X128933229Y-107315070D02*
X129004669Y-107410480D01*
X128971289Y-104794200D02*
X129398689Y-104465040D01*
X128984289Y-106981430D02*
X128882209Y-107088780D01*
X129004669Y-107410480D02*
X129200889Y-107643660D01*
X129094219Y-83295110D02*
X129870139Y-83605520D01*
X129098269Y-94156410D02*
X128288559Y-94350720D01*
X129148509Y-106815750D02*
X128984289Y-106981430D01*
X129200889Y-107643660D02*
X129457099Y-107921650D01*
X129273539Y-72572170D02*
X128581189Y-73285750D01*
X129371519Y-106595000D02*
X129148509Y-106815750D01*
X129398689Y-104465040D02*
X129875329Y-104096250D01*
X129452559Y-72397720D02*
X129273539Y-72572170D01*
X129457099Y-107921650D02*
X130096079Y-108555970D01*
X129604889Y-72254500D02*
X129452559Y-72397720D01*
X129649939Y-106322410D02*
X129371519Y-106595000D01*
X129733059Y-72140570D02*
X129604889Y-72254500D01*
X129839589Y-72054030D02*
X129733059Y-72140570D01*
X129870139Y-83605520D02*
X130677979Y-83927980D01*
X129875329Y-104096250D02*
X130397459Y-103690760D01*
X129877539Y-84755430D02*
X128925359Y-84473630D01*
X129927029Y-71992930D02*
X129839589Y-72054030D01*
X129941149Y-93954940D02*
X129098269Y-94156410D01*
X129980409Y-106001200D02*
X129649939Y-106322410D01*
X129997879Y-71955360D02*
X129927029Y-71992930D01*
X130054689Y-71939390D02*
X129997879Y-71955360D01*
X130096079Y-108555970D02*
X130814759Y-109201280D01*
X130099979Y-71943090D02*
X130054689Y-71939390D01*
X130142919Y-71961880D02*
X130099979Y-71943090D01*
X130200269Y-71999010D02*
X130142919Y-71961880D01*
X130279619Y-72062360D02*
X130200269Y-71999010D01*
X130359579Y-105634610D02*
X129980409Y-106001200D01*
X130388559Y-72159770D02*
X130279619Y-72062360D01*
X130397459Y-103690760D02*
X130961299Y-103251480D01*
X130534669Y-72299110D02*
X130388559Y-72159770D01*
X130677979Y-83927980D02*
X131513369Y-84260700D01*
X130725539Y-72488230D02*
X130534669Y-72299110D01*
X130784059Y-105225880D02*
X130359579Y-105634610D01*
X130812649Y-93747430D02*
X129941149Y-93954940D01*
X130814759Y-109201280D02*
X131529799Y-109783300D01*
X130910679Y-85062100D02*
X129877539Y-84755430D01*
X130961299Y-103251480D02*
X131563069Y-102781360D01*
X130968759Y-72734990D02*
X130725539Y-72488230D01*
X131250509Y-104778240D02*
X130784059Y-105225880D01*
X131271909Y-73047260D02*
X130968759Y-72734990D01*
X131448339Y-73230410D02*
X131271909Y-73047260D01*
X131467199Y-70735160D02*
X131497219Y-70787790D01*
X131491589Y-70670750D02*
X131467199Y-70735160D01*
X131497219Y-70787790D02*
X131584459Y-70912240D01*
X131513369Y-84260700D02*
X132371959Y-84601930D01*
X131529799Y-109783300D02*
X132285159Y-110351720D01*
X131563069Y-102781360D02*
X132198999Y-102283300D01*
X131564629Y-70578360D02*
X131491589Y-70670750D01*
X131584459Y-70912240D02*
X131725999Y-71104730D01*
X131642589Y-73432880D02*
X131448339Y-73230410D01*
X131681929Y-70461060D02*
X131564629Y-70578360D01*
X131708209Y-93535010D02*
X130812649Y-93747430D01*
X131725999Y-71104730D02*
X131918889Y-71361490D01*
X131755539Y-104294930D02*
X131250509Y-104778240D01*
X131839119Y-70321960D02*
X131681929Y-70461060D01*
X131855619Y-73655660D02*
X131642589Y-73432880D01*
X131918889Y-71361490D02*
X132160229Y-71678760D01*
X132026379Y-85394120D02*
X130910679Y-85062100D01*
X132031789Y-70164130D02*
X131839119Y-70321960D01*
X132088379Y-73899730D02*
X131855619Y-73655660D01*
X132160229Y-71678760D02*
X132447079Y-72052770D01*
X132198999Y-102283300D02*
X132865329Y-101760230D01*
X132255579Y-69990680D02*
X132031789Y-70164130D01*
X132285159Y-110351720D02*
X133069759Y-110899640D01*
X132295809Y-103779170D02*
X131755539Y-104294930D01*
X132341809Y-74166060D02*
X132088379Y-73899730D01*
X132371959Y-84601930D02*
X133229969Y-84942740D01*
X132447079Y-72052770D02*
X132776509Y-72479750D01*
X132506089Y-69804690D02*
X132255579Y-69990680D01*
X132602899Y-93322990D02*
X131708209Y-93535010D01*
X132616859Y-74455650D02*
X132341809Y-74166060D01*
X132776509Y-72479750D02*
X133145609Y-72955940D01*
X132778939Y-69609250D02*
X132506089Y-69804690D01*
X132865329Y-101760230D02*
X133558279Y-101215080D01*
X132867949Y-103234200D02*
X132295809Y-103779170D01*
X132914489Y-74769470D02*
X132616859Y-74455650D01*
X132915089Y-85658720D02*
X132026379Y-85394120D01*
X133069759Y-110899640D02*
X133872509Y-111420140D01*
X133145609Y-72955940D02*
X133551439Y-73477560D01*
X133229969Y-84942740D02*
X134063679Y-85274230D01*
X133235629Y-75108500D02*
X132914489Y-74769470D01*
X133468589Y-102663260D02*
X132867949Y-103234200D01*
X133471839Y-93116700D02*
X132602899Y-93322990D01*
X133551439Y-73477560D02*
X133991069Y-74040850D01*
X133558279Y-101215080D02*
X134274079Y-100650770D01*
X133581249Y-75473730D02*
X133235629Y-75108500D01*
X133779119Y-85915670D02*
X132915089Y-85658720D01*
X133872509Y-111420140D02*
X134682349Y-111906290D01*
X133952279Y-75866150D02*
X133581249Y-75473730D01*
X133991069Y-74040850D02*
X134461589Y-74642040D01*
X134006019Y-68794830D02*
X132778939Y-69609250D01*
X134063679Y-85274230D02*
X134868799Y-85594670D01*
X134094359Y-102069580D02*
X133468589Y-102663260D01*
X134274079Y-100650770D02*
X135008949Y-100070230D01*
X134310559Y-92917200D02*
X133471839Y-93116700D01*
X134349669Y-76286720D02*
X133952279Y-75866150D01*
X134461589Y-74642040D02*
X134960059Y-75277350D01*
X134613989Y-86163640D02*
X133779119Y-85915670D01*
X134682349Y-111906290D02*
X135488179Y-112351200D01*
X134741909Y-101456390D02*
X134094359Y-102069580D01*
X134774379Y-76736440D02*
X134349669Y-76286720D01*
X134868799Y-85594670D02*
X135640999Y-85902340D01*
X134960059Y-75277350D02*
X135483559Y-75943040D01*
X135008949Y-100070230D02*
X135742349Y-99490440D01*
X135114579Y-92725560D02*
X134310559Y-92917200D01*
X135227349Y-77216290D02*
X134774379Y-76736440D01*
X135239709Y-68076500D02*
X134006019Y-68794830D01*
X135407859Y-100826930D02*
X134741909Y-101456390D01*
X135415199Y-86401320D02*
X134613989Y-86163640D01*
X135483559Y-75943040D02*
X136029159Y-76635310D01*
X135488179Y-112351200D02*
X136278939Y-112747930D01*
X135632349Y-67876790D02*
X135239709Y-68076500D01*
X135640999Y-85902340D02*
X136375979Y-86195510D01*
X135709529Y-77727250D02*
X135227349Y-77216290D01*
X135742349Y-99490440D02*
X136453789Y-98928350D01*
X135879449Y-92542880D02*
X135114579Y-92725560D01*
X136029159Y-76635310D02*
X136593929Y-77350420D01*
X136061109Y-67672730D02*
X135632349Y-67876790D01*
X136074389Y-100197440D02*
X135407859Y-100826930D01*
X136178269Y-86627380D02*
X135415199Y-86401320D01*
X136221869Y-78270300D02*
X135709529Y-77727250D01*
X136278939Y-112747930D02*
X137043539Y-113089580D01*
X136375979Y-86195510D02*
X137069439Y-86472450D01*
X136409369Y-91988280D02*
X137205189Y-91872550D01*
X136453789Y-98928350D02*
X137139669Y-98386800D01*
X136518189Y-67467050D02*
X136061109Y-67672730D01*
X136593929Y-77350420D02*
X137174959Y-78084580D01*
X136600669Y-92370230D02*
X135879449Y-92542880D01*
X136723599Y-99584160D02*
X136074389Y-100197440D01*
X136765319Y-78846420D02*
X136221869Y-78270300D01*
X136898729Y-86840490D02*
X136178269Y-86627380D01*
X136995759Y-67262470D02*
X136518189Y-67467050D01*
X137043539Y-113089580D02*
X137271589Y-113183140D01*
X137069439Y-86472450D02*
X137717069Y-86731440D01*
X137139669Y-98386800D02*
X137796349Y-97868660D01*
X137174959Y-78084580D02*
X137753989Y-78815990D01*
X137205189Y-91872550D02*
X137950179Y-91765480D01*
X137271589Y-113183140D02*
X137462429Y-113257800D01*
X137273799Y-92208680D02*
X136600669Y-92370230D01*
X137352089Y-98990320D02*
X136723599Y-99584160D01*
X137462429Y-113257800D02*
X137619859Y-113314630D01*
X137572079Y-87039350D02*
X136898729Y-86840490D01*
X137619859Y-113314630D02*
X137747689Y-113354680D01*
X137717069Y-86731440D02*
X138314559Y-86970750D01*
X137747689Y-113354680D02*
X137929789Y-113388760D01*
X137753989Y-78815990D02*
X138312919Y-79523020D01*
X137796349Y-97868660D02*
X138420209Y-97376760D01*
X137848459Y-79994330D02*
X136765319Y-78846420D01*
X137894349Y-92059320D02*
X137273799Y-92208680D01*
X137929789Y-113388760D02*
X138039189Y-113368570D01*
X137950179Y-91765480D02*
X138627849Y-91669340D01*
X137956419Y-98419170D02*
X137352089Y-98990320D01*
X137981159Y-66867610D02*
X136995759Y-67262470D01*
X138039189Y-113368570D02*
X138069279Y-113328350D01*
X138069279Y-113328350D02*
X138122719Y-113226900D01*
X138122719Y-113226900D02*
X138199899Y-113063330D01*
X138193849Y-87222630D02*
X137572079Y-87039350D01*
X138199899Y-113063330D02*
X138301169Y-112836720D01*
X138301169Y-112836720D02*
X138426919Y-112546190D01*
X138312919Y-79523020D02*
X138849019Y-80202160D01*
X138314559Y-86970750D02*
X138857609Y-87188650D01*
X138420209Y-97376760D02*
X139007619Y-96913960D01*
X138426919Y-112546190D02*
X138577509Y-112190820D01*
X138457839Y-91923220D02*
X137894349Y-92059320D01*
X138533189Y-97873940D02*
X137956419Y-98419170D01*
X138577509Y-112190820D02*
X138753309Y-111769710D01*
X138627849Y-91669340D02*
X139221719Y-91586410D01*
X138753309Y-111769710D02*
X138954689Y-111281970D01*
X138759539Y-87389020D02*
X138193849Y-87222630D01*
X138849019Y-80202160D02*
X139359549Y-80849920D01*
X138857609Y-87188650D02*
X139341899Y-87383430D01*
X138873919Y-81080260D02*
X137848459Y-79994330D01*
X138954689Y-111281970D02*
X139182029Y-110726690D01*
X138954809Y-66510020D02*
X137981159Y-66867610D01*
X138959819Y-91801460D02*
X138457839Y-91923220D01*
X139007619Y-96913960D02*
X139554959Y-96483100D01*
X139078959Y-97357870D02*
X138533189Y-97873940D01*
X139182029Y-110726690D02*
X139435689Y-110102960D01*
X139221719Y-91586410D02*
X139482079Y-91550610D01*
X139264669Y-87537180D02*
X138759539Y-87389020D01*
X139341899Y-87383430D02*
X139763129Y-87553340D01*
X139357679Y-81592210D02*
X138873919Y-81080260D01*
X139359549Y-80849920D02*
X139841799Y-81462810D01*
X139395809Y-91695120D02*
X138959819Y-91801460D01*
X139417689Y-66352050D02*
X138954809Y-66510020D01*
X139435689Y-110102960D02*
X139716049Y-109409890D01*
X139482079Y-91550610D02*
X139715299Y-91518970D01*
X139554959Y-96483100D02*
X140058599Y-96087040D01*
X139590319Y-96874190D02*
X139078959Y-97357870D01*
X139704769Y-87665800D02*
X139264669Y-87537180D01*
X139715299Y-91518970D02*
X139919329Y-91491780D01*
X139716049Y-109409890D02*
X140023479Y-108646580D01*
X139761339Y-91605270D02*
X139395809Y-91695120D01*
X139763129Y-87553340D02*
X140116999Y-87696670D01*
X139805709Y-113989320D02*
X139807929Y-114033630D01*
X139807929Y-114033630D02*
X139842089Y-114082930D01*
X139818189Y-82079360D02*
X139357679Y-81592210D01*
X139820389Y-113892800D02*
X139805709Y-113989320D01*
X139841799Y-81462810D02*
X140293019Y-82037320D01*
X139842089Y-114082930D02*
X139903859Y-114128160D01*
X139852899Y-113740740D02*
X139820389Y-113892800D01*
X139854199Y-66211610D02*
X139417689Y-66352050D01*
X139903859Y-114128160D02*
X140018209Y-114176020D01*
X139904209Y-113529820D02*
X139852899Y-113740740D01*
X139919329Y-91491780D02*
X140092099Y-91469310D01*
X139975249Y-113256710D02*
X139904209Y-113529820D01*
X140018209Y-114176020D02*
X140210149Y-114233220D01*
X140023479Y-108646580D02*
X140358339Y-107812120D01*
X140051929Y-91533000D02*
X139761339Y-91605270D01*
X140058599Y-96087040D02*
X140514929Y-95728620D01*
X140063849Y-96426150D02*
X139590319Y-96874190D01*
X140066979Y-112918110D02*
X139975249Y-113256710D01*
X140075329Y-87773560D02*
X139704769Y-87665800D01*
X140092099Y-91469310D02*
X140231549Y-91451850D01*
X140116999Y-87696670D02*
X140399199Y-87811680D01*
X140180339Y-112510670D02*
X140066979Y-112918110D01*
X140210149Y-114233220D02*
X140343019Y-114267410D01*
X140231549Y-91451850D02*
X140335629Y-91439690D01*
X140252529Y-82538590D02*
X139818189Y-82079360D01*
X140256519Y-66091430D02*
X139854199Y-66211610D01*
X140263119Y-91479380D02*
X140051929Y-91533000D01*
X140293019Y-82037320D02*
X140710489Y-82569970D01*
X140316279Y-112031090D02*
X140180339Y-112510670D01*
X140335629Y-91439690D02*
X140402259Y-91433110D01*
X140343019Y-114267410D02*
X140504649Y-114306450D01*
X140358339Y-107812120D02*
X140721009Y-106905600D01*
X140371889Y-87859140D02*
X140075329Y-87773560D01*
X140390429Y-91445490D02*
X140263119Y-91479380D01*
X140399199Y-87811680D02*
X140605409Y-87896660D01*
X140402259Y-91433110D02*
X140429399Y-91432400D01*
X140429399Y-91432400D02*
X140390429Y-91445490D01*
X140475759Y-111476040D02*
X140316279Y-112031090D01*
X140496129Y-96016970D02*
X140063849Y-96426150D01*
X140504649Y-114306450D02*
X140698169Y-114351170D01*
X140514929Y-95728620D02*
X140920299Y-95410700D01*
X140589959Y-87921220D02*
X140371889Y-87859140D01*
X140605409Y-87896660D02*
X140731339Y-87949870D01*
X140616829Y-65994260D02*
X140256519Y-66091430D01*
X140657749Y-82966800D02*
X140252529Y-82538590D01*
X140659719Y-110842190D02*
X140475759Y-111476040D01*
X140698169Y-114351170D02*
X140926709Y-114402410D01*
X140710489Y-82569970D02*
X141091479Y-83057260D01*
X140721009Y-106905600D02*
X141111859Y-105926140D01*
X140725049Y-87958470D02*
X140589959Y-87921220D01*
X140731339Y-87949870D02*
X140772669Y-87969590D01*
X140772669Y-87969590D02*
X140725049Y-87958470D01*
X140869109Y-110126230D02*
X140659719Y-110842190D01*
X140883739Y-95649910D02*
X140496129Y-96016970D01*
X140920299Y-95410700D02*
X141271099Y-95136110D01*
X140926709Y-114402410D02*
X141193379Y-114461010D01*
X140927339Y-65922820D02*
X140616829Y-65994260D01*
X141030919Y-83360880D02*
X140657749Y-82966800D01*
X141091479Y-83057260D02*
X141433259Y-83495700D01*
X141104869Y-109324830D02*
X140869109Y-110126230D01*
X141111859Y-105926140D02*
X141531259Y-104872820D01*
X141180219Y-65879860D02*
X140927339Y-65922820D01*
X141193379Y-114461010D02*
X141501319Y-114527810D01*
X141223239Y-95328180D02*
X140883739Y-95649910D01*
X141271099Y-95136110D02*
X141563709Y-94907710D01*
X141367659Y-65868100D02*
X141180219Y-65879860D01*
X141367969Y-108434670D02*
X141104869Y-109324830D01*
X141369089Y-83717730D02*
X141030919Y-83360880D01*
X141433259Y-83495700D02*
X141733099Y-83881770D01*
X141481849Y-65890290D02*
X141367659Y-65868100D01*
X141501319Y-114527810D02*
X141853639Y-114603640D01*
X141511239Y-95055040D02*
X141223239Y-95328180D01*
X141531259Y-104872820D02*
X141872529Y-104015290D01*
X141558999Y-65968640D02*
X141481849Y-65890290D01*
X141563709Y-94907710D02*
X141794489Y-94728360D01*
X141635909Y-66128630D02*
X141558999Y-65968640D01*
X141659339Y-107452420D02*
X141367969Y-108434670D01*
X141669329Y-84034240D02*
X141369089Y-83717730D01*
X141675979Y-66243690D02*
X141635909Y-66128630D01*
X141718029Y-66384510D02*
X141675979Y-66243690D01*
X141733099Y-83881770D02*
X141988279Y-84212000D01*
X141744299Y-94833720D02*
X141511239Y-95055040D01*
X141762749Y-66552860D02*
X141718029Y-66384510D01*
X141794489Y-94728360D02*
X141959829Y-94600890D01*
X141810819Y-66750540D02*
X141762749Y-66552860D01*
X141815919Y-106925730D02*
X141659339Y-107452420D01*
X141853639Y-114603640D02*
X142253459Y-114689340D01*
X141872529Y-104015290D02*
X142204479Y-103182040D01*
X141910869Y-67176270D02*
X141810819Y-66750540D01*
X141918999Y-94667450D02*
X141744299Y-94833720D01*
X141928689Y-84307310D02*
X141669329Y-84034240D01*
X141959829Y-94600890D02*
X142056089Y-94528170D01*
X141979929Y-106374770D02*
X141815919Y-106925730D01*
X141988279Y-84212000D02*
X142196059Y-84482890D01*
X142021609Y-67646380D02*
X141910869Y-67176270D01*
X142031929Y-94559470D02*
X141918999Y-94667450D01*
X142056089Y-94528170D02*
X142079659Y-94513030D01*
X142079659Y-94513030D02*
X142031929Y-94559470D01*
X142142129Y-68157050D02*
X142021609Y-67646380D01*
X142144239Y-84533830D02*
X141928689Y-84307310D01*
X142151479Y-105799130D02*
X141979929Y-106374770D01*
X142196059Y-84482890D02*
X142353709Y-84690930D01*
X142204479Y-103182040D02*
X142525359Y-102377380D01*
X142253459Y-114689340D02*
X142985449Y-114829960D01*
X142271529Y-68704490D02*
X142142129Y-68157050D01*
X142313029Y-84710700D02*
X142144239Y-84533830D01*
X142330699Y-105198390D02*
X142151479Y-105799130D01*
X142353709Y-84690930D02*
X142458499Y-84832640D01*
X142408889Y-69284900D02*
X142271529Y-68704490D01*
X142432129Y-84834810D02*
X142313029Y-84710700D01*
X142458499Y-84832640D02*
X142507709Y-84904520D01*
X142498599Y-84903060D02*
X142432129Y-84834810D01*
X142507709Y-84904520D02*
X142498599Y-84903060D01*
X142525359Y-102377380D02*
X142833449Y-101605610D01*
X142553309Y-69894490D02*
X142408889Y-69284900D01*
X142595039Y-104312190D02*
X142330699Y-105198390D01*
X142703889Y-70529450D02*
X142553309Y-69894490D01*
X142833449Y-101605610D02*
X143127019Y-100871040D01*
X142851729Y-103450600D02*
X142595039Y-104312190D01*
X142859719Y-71185990D02*
X142703889Y-70529450D01*
X142985449Y-114829960D02*
X143752839Y-114946710D01*
X143099449Y-102618100D02*
X142851729Y-103450600D01*
X143127019Y-100871040D02*
X143404349Y-100177970D01*
X143193659Y-65707800D02*
X143206949Y-65849730D01*
X143198199Y-65595200D02*
X143193659Y-65707800D01*
X143206949Y-65849730D02*
X143218159Y-65926550D01*
X143218159Y-65926550D02*
X143242209Y-66089570D01*
X143220619Y-65511610D02*
X143198199Y-65595200D01*
X143242209Y-66089570D02*
X143278399Y-66334190D01*
X143260969Y-65456710D02*
X143220619Y-65511610D01*
X143278399Y-66334190D02*
X143326059Y-66655790D01*
X143326059Y-66655790D02*
X143384509Y-67049770D01*
X143328059Y-65429680D02*
X143260969Y-65456710D01*
X143336879Y-101819160D02*
X143099449Y-102618100D01*
X143384509Y-67049770D02*
X143453049Y-67511510D01*
X143404349Y-100177970D02*
X143663689Y-99530710D01*
X143453049Y-67511510D02*
X143530999Y-68036400D01*
X143466519Y-65400410D02*
X143328059Y-65429680D01*
X143517379Y-73951940D02*
X142859719Y-71185990D01*
X143530999Y-68036400D02*
X143617679Y-68619840D01*
X143562709Y-101058240D02*
X143336879Y-101819160D01*
X143617679Y-68619840D02*
X143712399Y-69257220D01*
X143663689Y-99530710D02*
X143903329Y-98933550D01*
X143676389Y-65368890D02*
X143466519Y-65400410D01*
X143712399Y-69257220D02*
X143814479Y-69943910D01*
X143752839Y-114946710D02*
X144547699Y-115039070D01*
X143775609Y-100339820D02*
X143562709Y-101058240D01*
X143814479Y-69943910D02*
X143923229Y-70675320D01*
X143903329Y-98933550D02*
X144121529Y-98390810D01*
X143923229Y-70675320D02*
X144037959Y-71446840D01*
X143957759Y-65335120D02*
X143676389Y-65368890D01*
X143974269Y-99668370D02*
X143775609Y-100339820D01*
X144037959Y-71446840D02*
X144157999Y-72253840D01*
X144121529Y-98390810D02*
X144316569Y-97906790D01*
X144157369Y-99048370D02*
X143974269Y-99668370D01*
X144157999Y-72253840D02*
X144282649Y-73091730D01*
X144186489Y-76759210D02*
X143517379Y-73951940D01*
X144282649Y-73091730D02*
X144411229Y-73955900D01*
X144310689Y-65299090D02*
X143957759Y-65335120D01*
X144316569Y-97906790D02*
X144486719Y-97485790D01*
X144323579Y-98484270D02*
X144157369Y-99048370D01*
X144411229Y-73955900D02*
X144543069Y-74841720D01*
X144471589Y-97980570D02*
X144323579Y-98484270D01*
X144486719Y-97485790D02*
X144630239Y-97132120D01*
X144507209Y-78102370D02*
X144186489Y-76759210D01*
X144543069Y-74841720D02*
X144674579Y-75726020D01*
X144547699Y-115039070D02*
X145362059Y-115106510D01*
X144600079Y-97541710D02*
X144471589Y-97980570D01*
X144630239Y-97132120D02*
X144745419Y-96850080D01*
X144674579Y-75726020D02*
X144802219Y-76585700D01*
X144707729Y-97172190D02*
X144600079Y-97541710D01*
X144735229Y-65260790D02*
X144310689Y-65299090D01*
X144745419Y-96850080D02*
X144830509Y-96643980D01*
X144793219Y-96876470D02*
X144707729Y-97172190D01*
X144802219Y-76585700D02*
X144925339Y-77416310D01*
X144809049Y-79364700D02*
X144507209Y-78102370D01*
X144830509Y-96643980D02*
X144883799Y-96518120D01*
X144855229Y-96659020D02*
X144793219Y-96876470D01*
X144883799Y-96518120D02*
X144903539Y-96476810D01*
X144892439Y-96524310D02*
X144855229Y-96659020D01*
X144903539Y-96476810D02*
X144892439Y-96524310D01*
X144925339Y-77416310D02*
X145043279Y-78213380D01*
X144950609Y-79956060D02*
X144809049Y-79364700D01*
X145043279Y-78213380D02*
X145155399Y-78972460D01*
X145084729Y-80515810D02*
X144950609Y-79956060D01*
X145155399Y-78972460D02*
X145261029Y-79689080D01*
X145210509Y-81040150D02*
X145084729Y-80515810D01*
X145231469Y-65220210D02*
X144735229Y-65260790D01*
X145261029Y-79689080D02*
X145359539Y-80358800D01*
X145327029Y-81525300D02*
X145210509Y-81040150D01*
X145359539Y-80358800D02*
X145450249Y-80977140D01*
X145362059Y-115106510D02*
X146187979Y-115148500D01*
X145433379Y-81967440D02*
X145327029Y-81525300D01*
X145450249Y-80977140D02*
X145532519Y-81539640D01*
X145528669Y-82362790D02*
X145433379Y-81967440D01*
X145532519Y-81539640D02*
X145605699Y-82041860D01*
X145605699Y-82041860D02*
X145669129Y-82479330D01*
X145611989Y-82707540D02*
X145528669Y-82362790D01*
X145669129Y-82479330D02*
X145722159Y-82847590D01*
X145682419Y-82997890D02*
X145611989Y-82707540D01*
X145722159Y-82847590D02*
X145764129Y-83142180D01*
X145739059Y-83230050D02*
X145682419Y-82997890D01*
X145764129Y-83142180D02*
X145794399Y-83358650D01*
X145781009Y-83400210D02*
X145739059Y-83230050D01*
X145794399Y-83358650D02*
X145812309Y-83492530D01*
X145799459Y-65177360D02*
X145231469Y-65220210D01*
X145807359Y-83504580D02*
X145781009Y-83400210D01*
X145812309Y-83492530D02*
X145817199Y-83539360D01*
X145817199Y-83539360D02*
X145807359Y-83504580D01*
X145932949Y-65170580D02*
X145799459Y-65177360D01*
X146107629Y-65166350D02*
X145932949Y-65170580D01*
X146187979Y-115148500D02*
X147017489Y-115164500D01*
X146318129Y-65164500D02*
X146107629Y-65166350D01*
X146559079Y-65164900D02*
X146318129Y-65164500D01*
X147017489Y-115164500D02*
X147842659Y-115153990D01*
X147110839Y-65171830D02*
X146559079Y-65164900D01*
X147719939Y-65185930D02*
X147110839Y-65171830D01*
X147842659Y-115153990D02*
X148655509Y-115116430D01*
X148343429Y-65206030D02*
X147719939Y-65185930D01*
X148369839Y-96819350D02*
X148382929Y-96858320D01*
X148374309Y-96872040D02*
X148369839Y-96819350D01*
X148382929Y-96858320D02*
X148416839Y-96985550D01*
X148391869Y-97013750D02*
X148374309Y-96872040D01*
X148416839Y-96985550D02*
X148470499Y-97196570D01*
X148421889Y-97239890D02*
X148391869Y-97013750D01*
X148463699Y-97545860D02*
X148421889Y-97239890D01*
X148470499Y-97196570D02*
X148542829Y-97486920D01*
X148516649Y-97927080D02*
X148463699Y-97545860D01*
X148542829Y-97486920D02*
X148632749Y-97852130D01*
X148580079Y-98378960D02*
X148516649Y-97927080D01*
X148632749Y-97852130D02*
X148739189Y-98287730D01*
X148653339Y-98896900D02*
X148580079Y-98378960D01*
X148655509Y-115116430D02*
X148989679Y-115094860D01*
X148735779Y-99476310D02*
X148653339Y-98896900D01*
X148739189Y-98287730D02*
X148861049Y-98789250D01*
X148826739Y-100112600D02*
X148735779Y-99476310D01*
X148861049Y-98789250D02*
X148997279Y-99352230D01*
X148925559Y-100801190D02*
X148826739Y-100112600D01*
X148938349Y-65230920D02*
X148343429Y-65206030D01*
X148989679Y-115094860D02*
X149287739Y-115074970D01*
X148997279Y-99352230D02*
X149146779Y-99972200D01*
X149031589Y-101537470D02*
X148925559Y-100801190D01*
X149144179Y-102316870D02*
X149031589Y-101537470D01*
X149146779Y-99972200D02*
X149308469Y-100644700D01*
X149211669Y-65244800D02*
X148938349Y-65230920D01*
X149262669Y-103134780D02*
X149144179Y-102316870D01*
X149287739Y-115074970D02*
X149551819Y-115056440D01*
X149288099Y-83842680D02*
X149298569Y-83797270D01*
X149298569Y-83797270D02*
X149333929Y-83668690D01*
X149307849Y-83801390D02*
X149288099Y-83842680D01*
X149308469Y-100644700D02*
X149481289Y-101365250D01*
X149333929Y-83668690D02*
X149392929Y-83461200D01*
X149361109Y-83675590D02*
X149307849Y-83801390D01*
X149386409Y-103986630D02*
X149262669Y-103134780D01*
X149392929Y-83461200D02*
X149474309Y-83179070D01*
X149446179Y-83469580D02*
X149361109Y-83675590D01*
X149461729Y-65259420D02*
X149211669Y-65244800D01*
X149474309Y-83179070D02*
X149576809Y-82826560D01*
X149481289Y-101365250D02*
X149664139Y-102129390D01*
X149514729Y-104867810D02*
X149386409Y-103986630D01*
X149551819Y-115056440D02*
X149784089Y-115038970D01*
X149561309Y-83187660D02*
X149446179Y-83469580D01*
X149576809Y-82826560D02*
X149699189Y-82407940D01*
X149646999Y-105773730D02*
X149514729Y-104867810D01*
X149664139Y-102129390D02*
X149855949Y-102932650D01*
X149683169Y-65274650D02*
X149461729Y-65259420D01*
X149699189Y-82407940D02*
X149840179Y-81927470D01*
X149704779Y-82834140D02*
X149561309Y-83187660D01*
X149784089Y-115038970D02*
X149986699Y-115022250D01*
X149811679Y-106902510D02*
X149646999Y-105773730D01*
X149840179Y-81927470D02*
X149998519Y-81389420D01*
X149855949Y-102932650D02*
X150055639Y-103770570D01*
X149870609Y-65290330D02*
X149683169Y-65274650D01*
X149874859Y-82413320D02*
X149704779Y-82834140D01*
X149963729Y-107949460D02*
X149811679Y-106902510D01*
X149986699Y-115022250D02*
X150161799Y-115005970D01*
X149998519Y-81389420D02*
X150172959Y-80798060D01*
X150055639Y-103770570D02*
X150262139Y-104638670D01*
X150069819Y-81929500D02*
X149874859Y-82413320D01*
X150103349Y-108915980D02*
X149963729Y-107949460D01*
X150161799Y-115005970D02*
X150311549Y-114989820D01*
X150172959Y-80798060D02*
X150362249Y-80157640D01*
X150230729Y-109803480D02*
X150103349Y-108915980D01*
X150262139Y-104638670D02*
X150474359Y-105532490D01*
X150287939Y-81386980D02*
X150069819Y-81929500D01*
X150311549Y-114989820D02*
X150438089Y-114973500D01*
X150346049Y-110613350D02*
X150230729Y-109803480D01*
X150362249Y-80157640D02*
X150565119Y-79472430D01*
X150438089Y-114973500D02*
X150630189Y-114939100D01*
X150449509Y-111347000D02*
X150346049Y-110613350D01*
X150474359Y-105532490D02*
X150686989Y-106427190D01*
X150527489Y-80790070D02*
X150287939Y-81386980D01*
X150541299Y-112005830D02*
X150449509Y-111347000D01*
X150565119Y-79472430D02*
X150780319Y-78746700D01*
X150621599Y-112591240D02*
X150541299Y-112005830D01*
X150630189Y-114939100D02*
X150755319Y-114900330D01*
X150686989Y-106427190D02*
X150894709Y-107297860D01*
X150690619Y-113104640D02*
X150621599Y-112591240D01*
X150748529Y-113547420D02*
X150690619Y-113104640D01*
X150755319Y-114900330D02*
X150830709Y-114854710D01*
X150780319Y-78746700D02*
X151006589Y-77984720D01*
X150786729Y-80143070D02*
X150527489Y-80790070D01*
X150795539Y-113921000D02*
X150748529Y-113547420D01*
X150830709Y-114854710D02*
X150873579Y-114799800D01*
X150831819Y-114226760D02*
X150795539Y-113921000D01*
X150857579Y-114466130D02*
X150831819Y-114226760D01*
X150872989Y-114640480D02*
X150857579Y-114466130D01*
X150873579Y-114799800D02*
X150878259Y-114751240D01*
X150878259Y-114751240D02*
X150872989Y-114640480D01*
X150894709Y-107297860D02*
X151096389Y-108139940D01*
X151006589Y-77984720D02*
X151242679Y-77190740D01*
X151063939Y-79450280D02*
X150786729Y-80143070D01*
X151096389Y-108139940D02*
X151290909Y-108948890D01*
X151228309Y-65468780D02*
X149870609Y-65290330D01*
X151242679Y-77190740D02*
X151487329Y-76369040D01*
X151290909Y-108948890D02*
X151477159Y-109720150D01*
X151357399Y-78716010D02*
X151063939Y-79450280D01*
X151477159Y-109720150D02*
X151653999Y-110449160D01*
X151487329Y-76369040D02*
X151739269Y-75523870D01*
X151653999Y-110449160D02*
X151820329Y-111131380D01*
X151665359Y-77944560D02*
X151357399Y-78716010D01*
X151739269Y-75523870D02*
X152238969Y-73848360D01*
X151748889Y-95483440D02*
X151764819Y-95492650D01*
X151764819Y-95492650D02*
X151840719Y-95571360D01*
X151791439Y-95547770D02*
X151748889Y-95483440D01*
X151820329Y-111131380D02*
X151975029Y-111762240D01*
X151840719Y-95571360D02*
X151974129Y-95710930D01*
X151889779Y-95682190D02*
X151791439Y-95547770D01*
X151974129Y-95710930D02*
X152161819Y-95907960D01*
X151975029Y-111762240D02*
X152116959Y-112337200D01*
X151986119Y-77140230D02*
X151665359Y-77944560D01*
X152041219Y-95883250D02*
X151889779Y-95682190D01*
X152116959Y-112337200D02*
X152245019Y-112851710D01*
X152161819Y-95907960D02*
X152400549Y-96159030D01*
X152238969Y-73848360D02*
X152710199Y-72267640D01*
X152243049Y-96147480D02*
X152041219Y-95883250D01*
X152245019Y-112851710D02*
X152358069Y-113301200D01*
X152317919Y-76307320D02*
X151986119Y-77140230D01*
X152358069Y-113301200D02*
X152455009Y-113681120D01*
X152400549Y-96159030D02*
X152687089Y-96460720D01*
X152424679Y-85511220D02*
X152433899Y-85495310D01*
X152433899Y-85495310D02*
X152512679Y-85419480D01*
X152455009Y-113681120D02*
X152534709Y-113986930D01*
X152489069Y-85468710D02*
X152424679Y-85511220D01*
X152492589Y-96471420D02*
X152243049Y-96147480D01*
X152512679Y-85419480D02*
X152652389Y-85286200D01*
X152534709Y-113986930D02*
X152596059Y-114214060D01*
X152596059Y-114214060D02*
X152637919Y-114357970D01*
X152623619Y-85370470D02*
X152489069Y-85468710D01*
X152637919Y-114357970D02*
X152659179Y-114414100D01*
X152637969Y-65729550D02*
X151228309Y-65468780D01*
X152652389Y-85286200D02*
X152849609Y-85098700D01*
X152659059Y-75450140D02*
X152317919Y-76307320D01*
X152659179Y-114414100D02*
X152745819Y-114458600D01*
X152687089Y-96460720D02*
X153018209Y-96809640D01*
X152710199Y-72267640D02*
X152931809Y-71524030D01*
X152745819Y-114458600D02*
X152909259Y-114456140D01*
X152787139Y-96851630D02*
X152492589Y-96471420D01*
X152824869Y-85219180D02*
X152623619Y-85370470D01*
X152849609Y-85098700D02*
X153100919Y-84860200D01*
X152909259Y-114456140D02*
X153035509Y-114435280D01*
X152931809Y-71524030D02*
X153142299Y-70817570D01*
X152962009Y-65799920D02*
X152637969Y-65729550D01*
X153000609Y-74592400D02*
X152659059Y-75450140D01*
X153018209Y-96809640D02*
X153390679Y-97202370D01*
X153035509Y-114435280D02*
X153199839Y-114400260D01*
X153089359Y-85017540D02*
X152824869Y-85219180D01*
X153100919Y-84860200D02*
X153402909Y-84573930D01*
X153124009Y-97284650D02*
X152787139Y-96851630D01*
X153142299Y-70817570D02*
X153340329Y-70152730D01*
X153199839Y-114400260D02*
X153408539Y-114350260D01*
X153264949Y-65870330D02*
X152962009Y-65799920D01*
X153333639Y-73757830D02*
X153000609Y-74592400D01*
X153340329Y-70152730D02*
X153524579Y-69533990D01*
X153390679Y-97202370D02*
X153801259Y-97635500D01*
X153402909Y-84573930D02*
X153752159Y-84243130D01*
X153408539Y-114350260D02*
X153667899Y-114284480D01*
X153413619Y-84768240D02*
X153089359Y-85017540D01*
X153416009Y-92352940D02*
X153463149Y-92364340D01*
X153457649Y-92372350D02*
X153416009Y-92352940D01*
X153463149Y-92364340D02*
X153597409Y-92401840D01*
X153500509Y-97767010D02*
X153124009Y-97284650D01*
X153524579Y-69533990D02*
X153693709Y-68965850D01*
X153541949Y-65939740D02*
X153264949Y-65870330D01*
X153583879Y-92425270D02*
X153457649Y-92372350D01*
X153597409Y-92401840D02*
X153814319Y-92464130D01*
X153656369Y-72950810D02*
X153333639Y-73757830D01*
X153667899Y-114284480D02*
X154911959Y-113919870D01*
X153693709Y-68965850D02*
X153846389Y-68452780D01*
X153722629Y-88882340D02*
X153757459Y-88872500D01*
X153752159Y-84243130D02*
X154145269Y-83871020D01*
X153757459Y-88872500D02*
X153861979Y-88846170D01*
X153771049Y-88877200D02*
X153722629Y-88882340D01*
X153788119Y-66007120D02*
X153541949Y-65939740D01*
X153790379Y-92509960D02*
X153583879Y-92425270D01*
X153794199Y-84473980D02*
X153413619Y-84768240D01*
X153801259Y-97635500D02*
X154246729Y-98105610D01*
X153814319Y-92464130D02*
X154109419Y-92549870D01*
X153846389Y-68452780D02*
X153981269Y-67999260D01*
X153861979Y-88846170D02*
X154032369Y-88804250D01*
X153909569Y-88858600D02*
X153771049Y-88877200D01*
X153913929Y-98295270D02*
X153500509Y-97767010D01*
X153967039Y-72175680D02*
X153656369Y-72950810D01*
X153981269Y-67999260D02*
X154097029Y-67609770D01*
X153998609Y-66071470D02*
X153788119Y-66007120D01*
X154032369Y-88804250D02*
X154264829Y-88747640D01*
X154072849Y-92624700D02*
X153790379Y-92509960D01*
X154097029Y-67609770D02*
X154192319Y-67288810D01*
X154109419Y-92549870D02*
X154478239Y-92657750D01*
X154133589Y-88827200D02*
X153909569Y-88858600D01*
X154145269Y-83871020D02*
X154578819Y-83460840D01*
X154168539Y-66131740D02*
X153998609Y-66071470D01*
X154192319Y-67288810D02*
X154265829Y-67040840D01*
X154227629Y-84137430D02*
X153794199Y-84473980D01*
X154246729Y-98105610D02*
X154723839Y-98609300D01*
X154263869Y-71436810D02*
X153967039Y-72175680D01*
X154264829Y-88747640D02*
X154555569Y-88677260D01*
X154265829Y-67040840D02*
X154316199Y-66870350D01*
X154293059Y-66186930D02*
X154168539Y-66131740D01*
X154316199Y-66870350D02*
X154342119Y-66781830D01*
X154342119Y-66781830D02*
X154403719Y-66550060D01*
X154361599Y-98865960D02*
X153913929Y-98295270D01*
X154367279Y-66236000D02*
X154293059Y-66186930D01*
X154403719Y-66550060D02*
X154427629Y-66399560D01*
X154415079Y-66303740D02*
X154367279Y-66236000D01*
X154426979Y-92767760D02*
X154072849Y-92624700D01*
X154427629Y-66399560D02*
X154415079Y-66303740D01*
X154438489Y-88783690D02*
X154133589Y-88827200D01*
X154478239Y-92657750D02*
X154916319Y-92786460D01*
X154545089Y-70738550D02*
X154263869Y-71436810D01*
X154555569Y-88677260D02*
X154900759Y-88594000D01*
X154578819Y-83460840D02*
X155049389Y-83015810D01*
X154710459Y-83761300D02*
X154227629Y-84137430D01*
X154723839Y-98609300D02*
X155229359Y-99143160D01*
X154808949Y-70085270D02*
X154545089Y-70738550D01*
X154819639Y-88728730D02*
X154438489Y-88783690D01*
X154840799Y-99475630D02*
X154361599Y-98865960D01*
X154848459Y-92937430D02*
X154426979Y-92767760D01*
X154900759Y-88594000D02*
X155296619Y-88498770D01*
X154911959Y-113919870D02*
X156172259Y-113461090D01*
X154916319Y-92786460D02*
X155419199Y-92934660D01*
X155049389Y-83015810D02*
X155553569Y-82539160D01*
X155053659Y-69481320D02*
X154808949Y-70085270D01*
X155229359Y-99143160D02*
X155760069Y-99703770D01*
X155239229Y-83348280D02*
X154710459Y-83761300D01*
X155272449Y-88663020D02*
X154819639Y-88728730D01*
X155277469Y-68931060D02*
X155053659Y-69481320D01*
X155296619Y-88498770D02*
X155739329Y-88392490D01*
X155332979Y-93131970D02*
X154848459Y-92937430D01*
X155348859Y-100120820D02*
X154840799Y-99475630D01*
X155419199Y-92934660D02*
X155982399Y-93101040D01*
X155478589Y-68438850D02*
X155277469Y-68931060D01*
X155553569Y-82539160D02*
X156087939Y-82034120D01*
X155655259Y-68009050D02*
X155478589Y-68438850D01*
X155739329Y-88392490D02*
X156225089Y-88276050D01*
X155760069Y-99703770D02*
X156884109Y-100891610D01*
X155792279Y-88587210D02*
X155272449Y-88663020D01*
X155805709Y-67646010D02*
X155655259Y-68009050D01*
X155810469Y-82901050D02*
X155239229Y-83348280D01*
X155876239Y-93349660D02*
X155332979Y-93131970D01*
X155883059Y-100798070D02*
X155348859Y-100120820D01*
X155928179Y-67354100D02*
X155805709Y-67646010D01*
X155982399Y-93101040D02*
X156601469Y-93284280D01*
X156020879Y-67137680D02*
X155928179Y-67354100D01*
X156082059Y-67001100D02*
X156020879Y-67137680D01*
X156087939Y-82034120D02*
X156649099Y-81503930D01*
X156109949Y-66948720D02*
X156082059Y-67001100D01*
X156172259Y-113461090D02*
X156816159Y-113193320D01*
X156183269Y-66925510D02*
X156109949Y-66948720D01*
X156225089Y-88276050D02*
X156750089Y-88150370D01*
X156308609Y-66937080D02*
X156183269Y-66925510D01*
X156374529Y-88502000D02*
X155792279Y-88587210D01*
X156420729Y-82422310D02*
X155810469Y-82901050D01*
X156440729Y-101503930D02*
X155883059Y-100798070D01*
X156473929Y-93588780D02*
X155876239Y-93349660D01*
X156489369Y-66984760D02*
X156308609Y-66937080D01*
X156601469Y-93284280D02*
X157271949Y-93483060D01*
X156649099Y-81503930D02*
X157838089Y-80380980D01*
X156728979Y-67069860D02*
X156489369Y-66984760D01*
X156750089Y-88150370D02*
X157310539Y-88016340D01*
X156816159Y-113193320D02*
X157473299Y-112898350D01*
X156884109Y-100891610D02*
X158070089Y-102145540D01*
X157014579Y-88408050D02*
X156374529Y-88502000D01*
X157019169Y-102234950D02*
X156440729Y-101503930D01*
X157030829Y-67193680D02*
X156728979Y-67069860D01*
X157066549Y-81914750D02*
X156420729Y-82422310D01*
X157121729Y-93847600D02*
X156473929Y-93588780D01*
X157271949Y-93483060D02*
X157989359Y-93696060D01*
X157310539Y-88016340D02*
X157902609Y-87874880D01*
X157398319Y-67357560D02*
X157030829Y-67193680D01*
X157473299Y-112898350D02*
X158146749Y-112574940D01*
X157599949Y-102969120D02*
X157019169Y-102234950D01*
X157707809Y-88306050D02*
X157014579Y-88408050D01*
X157744459Y-81381060D02*
X157066549Y-81914750D01*
X157815339Y-94124390D02*
X157121729Y-93847600D01*
X157834879Y-67562790D02*
X157398319Y-67357560D01*
X157838089Y-80380980D02*
X159093239Y-79196150D01*
X157902609Y-87874880D02*
X159166449Y-87573280D01*
X157989359Y-93696060D02*
X158749239Y-93921950D01*
X158070089Y-102145540D02*
X158667469Y-102776920D01*
X158146749Y-112574940D02*
X158839569Y-112221880D01*
X158164479Y-103684250D02*
X157599949Y-102969120D01*
X158343889Y-67810690D02*
X157834879Y-67562790D01*
X158449609Y-88196660D02*
X157707809Y-88306050D01*
X158451009Y-80823930D02*
X157744459Y-81381060D01*
X158550449Y-94417430D02*
X157815339Y-94124390D01*
X158667469Y-102776920D02*
X159249239Y-103391020D01*
X158709849Y-104376560D02*
X158164479Y-103684250D01*
X158749239Y-93921950D02*
X159547119Y-94159420D01*
X158839569Y-112221880D02*
X159574119Y-111823980D01*
X159093239Y-79196150D02*
X159725229Y-78599350D01*
X159166449Y-87573280D02*
X160511159Y-87252810D01*
X159169079Y-68243330D02*
X158343889Y-67810690D01*
X159182729Y-80246050D02*
X158451009Y-80823930D01*
X159233119Y-105042290D02*
X158709849Y-104376560D01*
X159235359Y-88080570D02*
X158449609Y-88196660D01*
X159249239Y-103391020D02*
X159812339Y-103984670D01*
X159322749Y-94725000D02*
X158550449Y-94417430D01*
X159547119Y-94159420D02*
X160378549Y-94407150D01*
X159574119Y-111823980D02*
X160281319Y-111415910D01*
X159725229Y-78599350D02*
X160339929Y-78018140D01*
X159731379Y-105677670D02*
X159233119Y-105042290D01*
X159812339Y-103984670D02*
X160353709Y-104554640D01*
X159917609Y-79665840D02*
X159182729Y-80246050D01*
X160002469Y-68729310D02*
X159169079Y-68243330D01*
X160060439Y-87958460D02*
X159235359Y-88080570D01*
X160127939Y-95045360D02*
X159322749Y-94725000D01*
X160201689Y-106278920D02*
X159731379Y-105677670D01*
X160281319Y-111415910D02*
X160939279Y-111012530D01*
X160339929Y-78018140D02*
X160934149Y-77455590D01*
X160353709Y-104554640D02*
X160870289Y-105097760D01*
X160378549Y-94407150D02*
X161239059Y-94663820D01*
X160511159Y-87252810D02*
X163321469Y-86584270D01*
X160633429Y-79101850D02*
X159917609Y-79665840D01*
X160641139Y-106842290D02*
X160201689Y-106278920D01*
X160834949Y-69262020D02*
X160002469Y-68729310D01*
X160870289Y-105097760D02*
X161359009Y-105610820D01*
X160920249Y-87830990D02*
X160060439Y-87958460D01*
X160934149Y-77455590D02*
X161504679Y-76914740D01*
X160939279Y-111012530D02*
X161526109Y-110628690D01*
X160961699Y-95376810D02*
X160127939Y-95045360D01*
X161046789Y-107364000D02*
X160641139Y-106842290D01*
X161239059Y-94663820D02*
X162124179Y-94928110D01*
X161326419Y-78557010D02*
X160633429Y-79101850D01*
X161359009Y-105610820D02*
X161816819Y-106090620D01*
X161415729Y-107840280D02*
X161046789Y-107364000D01*
X161504679Y-76914740D02*
X162048319Y-76398660D01*
X161526109Y-110628690D02*
X161786019Y-110448740D01*
X161657409Y-69834860D02*
X160834949Y-69262020D01*
X161745019Y-108267370D02*
X161415729Y-107840280D01*
X161786019Y-110448740D02*
X162019939Y-110279240D01*
X161810159Y-87698850D02*
X160920249Y-87830990D01*
X161816819Y-106090620D02*
X162240659Y-106533960D01*
X161819729Y-95717600D02*
X160961699Y-95376810D01*
X161992789Y-78034240D02*
X161326419Y-78557010D01*
X162019939Y-110279240D02*
X162225129Y-110122050D01*
X162031749Y-108641500D02*
X161745019Y-108267370D01*
X162048319Y-76398660D02*
X162561879Y-75910410D01*
X162124179Y-94928110D02*
X163229719Y-95258010D01*
X162225129Y-110122050D02*
X162398869Y-109979030D01*
X162240659Y-106533960D02*
X162627459Y-106937640D01*
X162272979Y-108958890D02*
X162031749Y-108641500D01*
X162398869Y-109979030D02*
X162538409Y-109852040D01*
X162460749Y-70441230D02*
X161657409Y-69834860D01*
X162465799Y-109215780D02*
X162272979Y-108958890D01*
X162538409Y-109852040D02*
X162641009Y-109742920D01*
X162561879Y-75910410D02*
X163042139Y-75453040D01*
X162607269Y-109408400D02*
X162465799Y-109215780D01*
X162627459Y-106937640D02*
X162974159Y-107298470D01*
X162628779Y-77536470D02*
X161992789Y-78034240D01*
X162641009Y-109742920D02*
X162703949Y-109653540D01*
X162678299Y-96058820D02*
X161819729Y-95717600D01*
X162694469Y-109532980D02*
X162607269Y-109408400D01*
X162703949Y-109653540D02*
X162724479Y-109585760D01*
X162724479Y-109585760D02*
X162694469Y-109532980D01*
X162725559Y-87562710D02*
X161810159Y-87698850D01*
X162974159Y-107298470D02*
X163277699Y-107613240D01*
X163042139Y-75453040D02*
X163485909Y-75029620D01*
X163229719Y-95258010D02*
X164254499Y-95563030D01*
X163230619Y-77066610D02*
X162628779Y-77536470D01*
X163235869Y-71074510D02*
X162460749Y-70441230D01*
X163277699Y-107613240D02*
X163535019Y-107878760D01*
X163321469Y-86584270D02*
X166090009Y-85927270D01*
X163404709Y-87461690D02*
X162725559Y-87562710D01*
X163485909Y-75029620D02*
X163889979Y-74643190D01*
X163513679Y-96391520D02*
X162678299Y-96058820D01*
X163535019Y-107878760D02*
X163743059Y-108091830D01*
X163743059Y-108091830D02*
X163898759Y-108249260D01*
X163794539Y-76627590D02*
X163230619Y-77066610D01*
X163889979Y-74643190D02*
X164251159Y-74296830D01*
X163898759Y-108249260D02*
X163999049Y-108347830D01*
X163973659Y-71728120D02*
X163235869Y-71074510D01*
X163999049Y-108347830D02*
X164040879Y-108384360D01*
X164040879Y-108384360D02*
X164078449Y-108382380D01*
X164050389Y-87365780D02*
X163404709Y-87461690D01*
X164078449Y-108382380D02*
X164136409Y-108355960D01*
X164136409Y-108355960D02*
X164214119Y-108305580D01*
X164214119Y-108305580D02*
X164310979Y-108231750D01*
X164251159Y-74296830D02*
X164566239Y-73993580D01*
X164254499Y-95563030D02*
X165199969Y-95843600D01*
X164310979Y-108231750D02*
X164426359Y-108134970D01*
X164316749Y-76222330D02*
X163794539Y-76627590D01*
X164321479Y-96713940D02*
X163513679Y-96391520D01*
X164426359Y-108134970D02*
X164559629Y-108015740D01*
X164559629Y-108015740D02*
X164710179Y-107874560D01*
X164566239Y-73993580D02*
X164832019Y-73736510D01*
X164663389Y-87274860D02*
X164050389Y-87365780D01*
X164665019Y-72395440D02*
X163973659Y-71728120D01*
X164710179Y-107874560D02*
X164877389Y-107711920D01*
X164793499Y-75853750D02*
X164316749Y-76222330D01*
X164827809Y-72562490D02*
X164665019Y-72395440D01*
X164832019Y-73736510D02*
X165045299Y-73528670D01*
X164877389Y-107711920D02*
X165545359Y-107021230D01*
X164969129Y-72712890D02*
X164827809Y-72562490D01*
X165045299Y-73528670D02*
X165202869Y-73373120D01*
X165088469Y-72846040D02*
X164969129Y-72712890D01*
X165097359Y-97024300D02*
X164321479Y-96713940D01*
X165185349Y-72961300D02*
X165088469Y-72846040D01*
X165199969Y-95843600D02*
X166067559Y-96100130D01*
X165202869Y-73373120D02*
X165301539Y-73272930D01*
X165220999Y-75524770D02*
X164793499Y-75853750D01*
X165244509Y-87188840D02*
X164663389Y-87274860D01*
X165259249Y-73058060D02*
X165185349Y-72961300D01*
X165301539Y-73272930D02*
X165338099Y-73231140D01*
X165309669Y-73135710D02*
X165259249Y-73058060D01*
X165336119Y-73193600D02*
X165309669Y-73135710D01*
X165338099Y-73231140D02*
X165336119Y-73193600D01*
X165545359Y-107021230D02*
X166199599Y-106284160D01*
X165595489Y-75238320D02*
X165220999Y-75524770D01*
X165794539Y-87107610D02*
X165244509Y-87188840D01*
X165836949Y-97320850D02*
X165097359Y-97024300D01*
X165913189Y-74997320D02*
X165595489Y-75238320D01*
X166067559Y-96100130D02*
X166858709Y-96333010D01*
X166090009Y-85927270D02*
X166747089Y-85771620D01*
X166170329Y-74804700D02*
X165913189Y-74997320D01*
X166199599Y-106284160D02*
X166833499Y-105509790D01*
X166314279Y-87031050D02*
X165794539Y-87107610D01*
X166363139Y-74663360D02*
X166170329Y-74804700D01*
X166487839Y-74576240D02*
X166363139Y-74663360D01*
X166535879Y-97601800D02*
X165836949Y-97320850D01*
X166540669Y-74546260D02*
X166487839Y-74576240D01*
X166637829Y-74581040D02*
X166540669Y-74546260D01*
X166747089Y-85771620D02*
X167382529Y-85621220D01*
X166768309Y-74685890D02*
X166637829Y-74581040D01*
X166804529Y-86959060D02*
X166314279Y-87031050D01*
X166833499Y-105509790D02*
X167440449Y-104707230D01*
X166858709Y-96333010D02*
X167574839Y-96542670D01*
X166928489Y-74854940D02*
X166768309Y-74685890D01*
X167114699Y-75082290D02*
X166928489Y-74854940D01*
X167189799Y-97865400D02*
X166535879Y-97601800D01*
X167266089Y-86891520D02*
X166804529Y-86959060D01*
X167323309Y-75362070D02*
X167114699Y-75082290D01*
X167382529Y-85621220D02*
X167992529Y-85476980D01*
X167440449Y-104707230D02*
X168013849Y-103885560D01*
X167550679Y-75688400D02*
X167323309Y-75362070D01*
X167574839Y-96542670D02*
X168217389Y-96729520D01*
X167699749Y-86828340D02*
X167266089Y-86891520D01*
X167793159Y-76055390D02*
X167550679Y-75688400D01*
X167794329Y-98109880D02*
X167189799Y-97865400D01*
X167992529Y-85476980D02*
X168573279Y-85339800D01*
X168013849Y-103885560D02*
X168547069Y-103053890D01*
X168047099Y-76457160D02*
X167793159Y-76055390D01*
X168106309Y-86769400D02*
X167699749Y-86828340D01*
X168217389Y-96729520D02*
X168787799Y-96893960D01*
X168345129Y-98333460D02*
X167794329Y-98109880D01*
X168486569Y-86714590D02*
X168106309Y-86769400D01*
X168547069Y-103053890D02*
X169033519Y-102221320D01*
X168573279Y-85339800D02*
X169120989Y-85210600D01*
X168574809Y-77341530D02*
X168047099Y-76457160D01*
X168787799Y-96893960D02*
X169287499Y-97036410D01*
X168837809Y-98534390D02*
X168345129Y-98333460D01*
X168841319Y-86663800D02*
X168486569Y-86714590D01*
X169033519Y-102221320D02*
X169466579Y-101396920D01*
X169104659Y-78294450D02*
X168574809Y-77341530D01*
X169120989Y-85210600D02*
X169631839Y-85090270D01*
X169268029Y-98710890D02*
X168837809Y-98534390D01*
X169287499Y-97036410D02*
X169717929Y-97157290D01*
X169466579Y-101396920D02*
X169714729Y-100888400D01*
X169477489Y-86573870D02*
X168841319Y-86663800D01*
X169607499Y-79268870D02*
X169104659Y-78294450D01*
X169631419Y-98861200D02*
X169268029Y-98710890D01*
X169631839Y-85090270D02*
X170102029Y-84979720D01*
X169714729Y-100888400D02*
X169920159Y-100452270D01*
X169717929Y-97157290D02*
X170080509Y-97256990D01*
X169920159Y-100452270D02*
X170084189Y-100085130D01*
X169923609Y-98983550D02*
X169631419Y-98861200D01*
X170021209Y-86498730D02*
X169477489Y-86573870D01*
X170054179Y-80217740D02*
X169607499Y-79268870D01*
X170080509Y-97256990D02*
X170376689Y-97335930D01*
X170084189Y-100085130D02*
X170208129Y-99783570D01*
X170102029Y-84979720D02*
X170527759Y-84879860D01*
X170140249Y-99076160D02*
X169923609Y-98983550D01*
X170208129Y-99783570D02*
X170293309Y-99544200D01*
X170276959Y-99137280D02*
X170140249Y-99076160D01*
X170293309Y-99544200D02*
X170341039Y-99363610D01*
X170329389Y-99165140D02*
X170276959Y-99137280D01*
X170341039Y-99363610D02*
X170352629Y-99238390D01*
X170352629Y-99238390D02*
X170329389Y-99165140D01*
X170376689Y-97335930D02*
X170607889Y-97394530D01*
X170478839Y-86437520D02*
X170021209Y-86498730D01*
X170527759Y-84879860D02*
X170725629Y-84831840D01*
X170602549Y-81574490D02*
X170054179Y-80217740D01*
X170607889Y-97394530D02*
X170775549Y-97433200D01*
X170725629Y-84831840D02*
X170894149Y-84787160D01*
X170775549Y-97433200D02*
X170881119Y-97452340D01*
X170856759Y-86389370D02*
X170478839Y-86437520D01*
X170881119Y-97452340D02*
X170926009Y-97452370D01*
X170894149Y-84787160D02*
X171035099Y-84745150D01*
X170926009Y-97452370D02*
X170975779Y-97392460D01*
X170975779Y-97392460D02*
X171034689Y-97272760D01*
X171034689Y-97272760D02*
X171101259Y-97099540D01*
X171035099Y-84745150D02*
X171150279Y-84705120D01*
X171060409Y-82919860D02*
X170602549Y-81574490D01*
X171101259Y-97099540D02*
X171174039Y-96879060D01*
X171150279Y-84705120D02*
X171310419Y-84628290D01*
X171151479Y-83224390D02*
X171060409Y-82919860D01*
X171161349Y-86353410D02*
X170856759Y-86389370D01*
X171174039Y-96879060D02*
X171251589Y-96617580D01*
X171230729Y-83508180D02*
X171151479Y-83224390D01*
X171251589Y-96617580D02*
X171332429Y-96321360D01*
X171296919Y-83767230D02*
X171230729Y-83508180D01*
X171310419Y-84628290D02*
X171388839Y-84551210D01*
X171332429Y-96321360D02*
X171415119Y-95996660D01*
X171348819Y-83997530D02*
X171296919Y-83767230D01*
X171385199Y-84195090D02*
X171348819Y-83997530D01*
X171388839Y-84551210D02*
X171406439Y-84475930D01*
X171398989Y-86328770D02*
X171161349Y-86353410D01*
X171404809Y-84355890D02*
X171385199Y-84195090D01*
X171406439Y-84475930D02*
X171404809Y-84355890D01*
X171415119Y-95996660D02*
X171498199Y-95649750D01*
X171498199Y-95649750D02*
X171659689Y-94914340D01*
X171576059Y-86314580D02*
X171398989Y-86328770D01*
X171659689Y-94914340D02*
X171805249Y-94165210D01*
X171698919Y-86309980D02*
X171576059Y-86314580D01*
X171773949Y-86314100D02*
X171698919Y-86309980D01*
X171805249Y-94165210D02*
X171923239Y-93452470D01*
X171807539Y-86326060D02*
X171773949Y-86314100D01*
X171855169Y-86422200D02*
X171807539Y-86326060D01*
X171899329Y-86601990D02*
X171855169Y-86422200D01*
X171923239Y-93452470D02*
X172001999Y-92826210D01*
X171939759Y-86856370D02*
X171899329Y-86601990D01*
X171976179Y-87176290D02*
X171939759Y-86856370D01*
X172001999Y-92826210D02*
X172034809Y-92427150D01*
X172008319Y-87552660D02*
X171976179Y-87176290D01*
X172034809Y-92427150D02*
X172060359Y-91984820D01*
X172035909Y-87976430D02*
X172008319Y-87552660D01*
X172058689Y-88438530D02*
X172035909Y-87976430D01*
X172060359Y-91984820D02*
X172078919Y-91508280D01*
X172076369Y-88929890D02*
X172058689Y-88438530D01*
X172078919Y-91508280D02*
X172090769Y-91006610D01*
X172090769Y-91006610D02*
X172095379Y-89964130D01*
X172095379Y-89964130D02*
X172076369Y-88929890D01*
%TD*%
M02*
