%TF.GenerationSoftware,KiCad,Pcbnew,8.0.4+dfsg-1*%
%TF.CreationDate,2024-08-07T14:19:11+02:00*%
%TF.ProjectId,EMC_antenna,454d435f-616e-4746-956e-6e612e6b6963,rev?*%
%TF.SameCoordinates,Original*%
%TF.FileFunction,Drillmap*%
%TF.FilePolarity,Positive*%
%FSLAX45Y45*%
G04 Gerber Fmt 4.5, Leading zero omitted, Abs format (unit mm)*
G04 Created by KiCad (PCBNEW 8.0.4+dfsg-1) date 2024-08-07 14:19:11*
%MOMM*%
%LPD*%
G01*
G04 APERTURE LIST*
%ADD10C,0.100000*%
%ADD11C,0.200000*%
G04 APERTURE END LIST*
D10*
X12209538Y-9033331D02*
X12211433Y-9135379D01*
X12210001Y-8930255D02*
X12209538Y-9033331D01*
X12211183Y-8880544D02*
X12210001Y-8930255D01*
X12211433Y-9135379D02*
X12213198Y-9183806D01*
X12213036Y-8833230D02*
X12211183Y-8880544D01*
X12213198Y-9183806D02*
X12215472Y-9229322D01*
X12215472Y-9229322D02*
X12218228Y-9271043D01*
X12215585Y-8789198D02*
X12213036Y-8833230D01*
X12218228Y-9271043D02*
X12221440Y-9308083D01*
X12218857Y-8749332D02*
X12215585Y-8789198D01*
X12221440Y-9308083D02*
X12225081Y-9339558D01*
X12225081Y-9339558D02*
X12229124Y-9364584D01*
X12229124Y-9364584D02*
X12233542Y-9382275D01*
X12233542Y-9382275D02*
X12238308Y-9391747D01*
X12238308Y-9391747D02*
X12242290Y-9394402D01*
X12238543Y-8600249D02*
X12218857Y-8749332D01*
X12242290Y-9394402D02*
X12248689Y-9396061D01*
X12248689Y-9396061D02*
X12258339Y-9396667D01*
X12258339Y-9396667D02*
X12272074Y-9396165D01*
X12266027Y-8453805D02*
X12238543Y-8600249D01*
X12272074Y-9396165D02*
X12290729Y-9394498D01*
X12273370Y-8421059D02*
X12266027Y-8453805D01*
X12277307Y-9595288D02*
X12279089Y-9606909D01*
X12277379Y-9580056D02*
X12277307Y-9595288D01*
X12279089Y-9606909D02*
X12282171Y-9621958D01*
X12280702Y-8390781D02*
X12273370Y-8421059D01*
X12281867Y-9571704D02*
X12277379Y-9580056D01*
X12282171Y-9621958D02*
X12286617Y-9641006D01*
X12286617Y-9641006D02*
X12286887Y-9642090D01*
X12286806Y-9641764D02*
X12298869Y-9690221D01*
X12286887Y-9642090D02*
X12292492Y-9664620D01*
X12287478Y-9569587D02*
X12281867Y-9571704D01*
X12287925Y-8363431D02*
X12280702Y-8390781D01*
X12290729Y-9394498D02*
X12315137Y-9391611D01*
X12292492Y-9664620D02*
X12286806Y-9641764D01*
X12294937Y-8339469D02*
X12287925Y-8363431D01*
X12298869Y-9690221D02*
X12326499Y-9786192D01*
X12301641Y-8319356D02*
X12294937Y-8339469D01*
X12301876Y-9565411D02*
X12287478Y-9569587D01*
X12307935Y-8303552D02*
X12301641Y-8319356D01*
X12313722Y-8292517D02*
X12307935Y-8303552D01*
X12315137Y-9391611D02*
X12346134Y-9387448D01*
X12318900Y-8286712D02*
X12313722Y-8292517D01*
X12323376Y-8286693D02*
X12318900Y-8286712D01*
X12324605Y-9559290D02*
X12301876Y-9565411D01*
X12326499Y-9786192D02*
X12358079Y-9880937D01*
X12333876Y-8288570D02*
X12323376Y-8286693D01*
X12346134Y-9387448D02*
X12384552Y-9381951D01*
X12350560Y-8292388D02*
X12333876Y-8288570D01*
X12355210Y-9551334D02*
X12324605Y-9559290D01*
X12358079Y-9880937D02*
X12393556Y-9974292D01*
X12373586Y-8298193D02*
X12350560Y-8292388D01*
X12383277Y-8100440D02*
X12383416Y-8109433D01*
X12383416Y-8109433D02*
X12386103Y-8115288D01*
X12384552Y-9381951D02*
X12883206Y-9309368D01*
X12386060Y-8087308D02*
X12383277Y-8100440D01*
X12386103Y-8115288D02*
X12391359Y-8118089D01*
X12391359Y-8118089D02*
X12405043Y-8124216D01*
X12392134Y-8069032D02*
X12386060Y-8087308D01*
X12393233Y-9541655D02*
X12355210Y-9551334D01*
X12393556Y-9974292D02*
X12432869Y-10066099D01*
X12401870Y-8044611D02*
X12392134Y-8069032D01*
X12403114Y-8306030D02*
X12373586Y-8298193D01*
X12405043Y-8124216D02*
X12426719Y-8133492D01*
X12415641Y-8013043D02*
X12401870Y-8044611D01*
X12424156Y-7994265D02*
X12415641Y-8013043D01*
X12426719Y-8133492D02*
X12455949Y-8145741D01*
X12432869Y-10066099D02*
X12475950Y-10156198D01*
X12433818Y-7973324D02*
X12424156Y-7994265D01*
X12438220Y-9530366D02*
X12393233Y-9541655D01*
X12439303Y-8315945D02*
X12403114Y-8306030D01*
X12444674Y-7950095D02*
X12433818Y-7973324D01*
X12455949Y-8145741D02*
X12492299Y-8160785D01*
X12456771Y-7924452D02*
X12444674Y-7950095D01*
X12475950Y-10156198D02*
X12499112Y-10200436D01*
X12482313Y-8327984D02*
X12439303Y-8315945D01*
X12489715Y-9517578D02*
X12438220Y-9530366D01*
X12492299Y-8160785D02*
X12535331Y-8178447D01*
X12498918Y-7840193D02*
X12456771Y-7924452D01*
X12499112Y-10200436D02*
X12571020Y-10323691D01*
X12532304Y-8342192D02*
X12482313Y-8327984D01*
X12535331Y-8178447D02*
X12584610Y-8198552D01*
X12545222Y-7757979D02*
X12498918Y-7840193D01*
X12547262Y-9503403D02*
X12489715Y-9517578D01*
X12571020Y-10323691D02*
X12652540Y-10446280D01*
X12571348Y-7715263D02*
X12545222Y-7757979D01*
X12584610Y-8198552D02*
X12639698Y-8220921D01*
X12589434Y-8358614D02*
X12532304Y-8342192D01*
X12600212Y-7670208D02*
X12571348Y-7715263D01*
X12610405Y-9487953D02*
X12547262Y-9503403D01*
X12632380Y-7621862D02*
X12600212Y-7670208D01*
X12639698Y-8220921D02*
X12700160Y-8245378D01*
X12652540Y-10446280D02*
X12672103Y-10473539D01*
X12653862Y-8377297D02*
X12589434Y-8358614D01*
X12668418Y-7569277D02*
X12632380Y-7621862D01*
X12672103Y-10473539D02*
X12690720Y-10498565D01*
X12678689Y-9471340D02*
X12610405Y-9487953D01*
X12690720Y-10498565D02*
X12708082Y-10520922D01*
X12700160Y-8245378D02*
X12765558Y-8271747D01*
X12701562Y-7522285D02*
X12668418Y-7569277D01*
X12708082Y-10520922D02*
X12723880Y-10540171D01*
X12723880Y-10540171D02*
X12737804Y-10555874D01*
X12725749Y-8398286D02*
X12653862Y-8377297D01*
X12733318Y-7478981D02*
X12701562Y-7522285D01*
X12737804Y-10555874D02*
X12749545Y-10567593D01*
X12749545Y-10567593D02*
X12758793Y-10574890D01*
X12751658Y-9453676D02*
X12678689Y-9471340D01*
X12758793Y-10574890D02*
X12765240Y-10577327D01*
X12764268Y-7438661D02*
X12733318Y-7478981D01*
X12765240Y-10577327D02*
X12770509Y-10574327D01*
X12765558Y-8271747D02*
X12835458Y-8299850D01*
X12770509Y-10574327D02*
X12782965Y-10565610D01*
X12782965Y-10565610D02*
X12802233Y-10551469D01*
X12794996Y-7400622D02*
X12764268Y-7438661D01*
X12802233Y-10551469D02*
X12827934Y-10532195D01*
X12805254Y-8421626D02*
X12725749Y-8398286D01*
X12827934Y-10532195D02*
X12859692Y-10508081D01*
X12828856Y-9435072D02*
X12751658Y-9453676D01*
X12835458Y-8299850D02*
X12909422Y-8329511D01*
X12858119Y-7328575D02*
X12794996Y-7400622D01*
X12859692Y-10508081D02*
X12897129Y-10479420D01*
X12883206Y-9309368D02*
X13640937Y-9198828D01*
X12884565Y-10713459D02*
X12885205Y-10717537D01*
X12885205Y-10717537D02*
X12888180Y-10723612D01*
X12888180Y-10723612D02*
X12893323Y-10731507D01*
X12888221Y-10708878D02*
X12884565Y-10713459D01*
X12892536Y-8447363D02*
X12805254Y-8421626D01*
X12893323Y-10731507D02*
X12900467Y-10741048D01*
X12897129Y-10479420D02*
X12939869Y-10446504D01*
X12898429Y-10698143D02*
X12888221Y-10708878D01*
X12900467Y-10741048D02*
X12920089Y-10764366D01*
X12909422Y-8329511D02*
X12987014Y-8360552D01*
X12909827Y-9415641D02*
X12828856Y-9435072D01*
X12914851Y-10681575D02*
X12898429Y-10698143D01*
X12920089Y-10764366D02*
X12945710Y-10792165D01*
X12927354Y-7257217D02*
X12858119Y-7328575D01*
X12937152Y-10659500D02*
X12914851Y-10681575D01*
X12939869Y-10446504D02*
X12987533Y-10409625D01*
X12945256Y-7239772D02*
X12927354Y-7257217D01*
X12945710Y-10792165D02*
X13009608Y-10855597D01*
X12960489Y-7225450D02*
X12945256Y-7239772D01*
X12964994Y-10632241D02*
X12937152Y-10659500D01*
X12973306Y-7214057D02*
X12960489Y-7225450D01*
X12983959Y-7205403D02*
X12973306Y-7214057D01*
X12987014Y-8360552D02*
X13067798Y-8392798D01*
X12987533Y-10409625D02*
X13039746Y-10369076D01*
X12987754Y-8475543D02*
X12892536Y-8447363D01*
X12992703Y-7199293D02*
X12983959Y-7205403D01*
X12994115Y-9395494D02*
X12909827Y-9415641D01*
X12998041Y-10600120D02*
X12964994Y-10632241D01*
X12999788Y-7195536D02*
X12992703Y-7199293D01*
X13005469Y-7193939D02*
X12999788Y-7195536D01*
X13009608Y-10855597D02*
X13081476Y-10920128D01*
X13009998Y-7194309D02*
X13005469Y-7193939D01*
X13014292Y-7196188D02*
X13009998Y-7194309D01*
X13020027Y-7199901D02*
X13014292Y-7196188D01*
X13027962Y-7206236D02*
X13020027Y-7199901D01*
X13035958Y-10563461D02*
X12998041Y-10600120D01*
X13038856Y-7215977D02*
X13027962Y-7206236D01*
X13039746Y-10369076D02*
X13096130Y-10325148D01*
X13053467Y-7229911D02*
X13038856Y-7215977D01*
X13067798Y-8392798D02*
X13151337Y-8426070D01*
X13072554Y-7248823D02*
X13053467Y-7229911D01*
X13078406Y-10522588D02*
X13035958Y-10563461D01*
X13081265Y-9374743D02*
X12994115Y-9395494D01*
X13081476Y-10920128D02*
X13152980Y-10978330D01*
X13091068Y-8506210D02*
X12987754Y-8475543D01*
X13096130Y-10325148D02*
X13156307Y-10278136D01*
X13096876Y-7273499D02*
X13072554Y-7248823D01*
X13125051Y-10477824D02*
X13078406Y-10522588D01*
X13127191Y-7304726D02*
X13096876Y-7273499D01*
X13144834Y-7323041D02*
X13127191Y-7304726D01*
X13146720Y-7073516D02*
X13149722Y-7078779D01*
X13149159Y-7067075D02*
X13146720Y-7073516D01*
X13149722Y-7078779D02*
X13158446Y-7091224D01*
X13151337Y-8426070D02*
X13237196Y-8460193D01*
X13152980Y-10978330D02*
X13228516Y-11035172D01*
X13156307Y-10278136D02*
X13219900Y-10228330D01*
X13156463Y-7057836D02*
X13149159Y-7067075D01*
X13158446Y-7091224D02*
X13172600Y-7110473D01*
X13164259Y-7343288D02*
X13144834Y-7323041D01*
X13168193Y-7046106D02*
X13156463Y-7057836D01*
X13170821Y-9353501D02*
X13081265Y-9374743D01*
X13172600Y-7110473D02*
X13191889Y-7136149D01*
X13175554Y-10429493D02*
X13125051Y-10477824D01*
X13183912Y-7032196D02*
X13168193Y-7046106D01*
X13185562Y-7365566D02*
X13164259Y-7343288D01*
X13191889Y-7136149D02*
X13216023Y-7167876D01*
X13202638Y-8539412D02*
X13091068Y-8506210D01*
X13203179Y-7016413D02*
X13183912Y-7032196D01*
X13208838Y-7389973D02*
X13185562Y-7365566D01*
X13216023Y-7167876D02*
X13244708Y-7205277D01*
X13219900Y-10228330D02*
X13286533Y-10176023D01*
X13225558Y-6999068D02*
X13203179Y-7016413D01*
X13228516Y-11035172D02*
X13306976Y-11089964D01*
X13229581Y-10377917D02*
X13175554Y-10429493D01*
X13234181Y-7416606D02*
X13208838Y-7389973D01*
X13237196Y-8460193D02*
X13322997Y-8494274D01*
X13244708Y-7205277D02*
X13277651Y-7247975D01*
X13250609Y-6980469D02*
X13225558Y-6999068D01*
X13260290Y-9332299D02*
X13170821Y-9353501D01*
X13261686Y-7445565D02*
X13234181Y-7416606D01*
X13277651Y-7247975D02*
X13314561Y-7295594D01*
X13277894Y-6960925D02*
X13250609Y-6980469D01*
X13286533Y-10176023D02*
X13355828Y-10121508D01*
X13286795Y-10323420D02*
X13229581Y-10377917D01*
X13291449Y-7476947D02*
X13261686Y-7445565D01*
X13291509Y-8565872D02*
X13202638Y-8539412D01*
X13306976Y-11089964D02*
X13387251Y-11142014D01*
X13314561Y-7295594D02*
X13355144Y-7347756D01*
X13322997Y-8494274D02*
X13406368Y-8527423D01*
X13323563Y-7510850D02*
X13291449Y-7476947D01*
X13346859Y-10266326D02*
X13286795Y-10323420D01*
X13347184Y-9311670D02*
X13260290Y-9332299D01*
X13355144Y-7347756D02*
X13399107Y-7404085D01*
X13355828Y-10121508D02*
X13427408Y-10065077D01*
X13358125Y-7547373D02*
X13323563Y-7510850D01*
X13377912Y-8591567D02*
X13291509Y-8565872D01*
X13387251Y-11142014D02*
X13468235Y-11190629D01*
X13395228Y-7586615D02*
X13358125Y-7547373D01*
X13399107Y-7404085D02*
X13446159Y-7464204D01*
X13400602Y-6879483D02*
X13277894Y-6960925D01*
X13406368Y-8527423D02*
X13486880Y-8559467D01*
X13409436Y-10206958D02*
X13346859Y-10266326D01*
X13427408Y-10065077D02*
X13500895Y-10007023D01*
X13431056Y-9291720D02*
X13347184Y-9311670D01*
X13434967Y-7628672D02*
X13395228Y-7586615D01*
X13446159Y-7464204D02*
X13496006Y-7527735D01*
X13461399Y-8616364D02*
X13377912Y-8591567D01*
X13468235Y-11190629D02*
X13548818Y-11235120D01*
X13474191Y-10145639D02*
X13409436Y-10206958D01*
X13477438Y-7673644D02*
X13434967Y-7628672D01*
X13486880Y-8559467D02*
X13564100Y-8590234D01*
X13496006Y-7527735D02*
X13548356Y-7594304D01*
X13500895Y-10007023D02*
X13574235Y-9949044D01*
X13511458Y-9272556D02*
X13431056Y-9291720D01*
X13522735Y-7721629D02*
X13477438Y-7673644D01*
X13523971Y-6807650D02*
X13400602Y-6879483D01*
X13540786Y-10082693D02*
X13474191Y-10145639D01*
X13541520Y-8640132D02*
X13461399Y-8616364D01*
X13548356Y-7594304D02*
X13602916Y-7663531D01*
X13548818Y-11235120D02*
X13627894Y-11274793D01*
X13563235Y-6787679D02*
X13523971Y-6807650D01*
X13564100Y-8590234D02*
X13637598Y-8619551D01*
X13570953Y-7772725D02*
X13522735Y-7721629D01*
X13574235Y-9949044D02*
X13645379Y-9892835D01*
X13587945Y-9254288D02*
X13511458Y-9272556D01*
X13602916Y-7663531D02*
X13659393Y-7735042D01*
X13606111Y-6767273D02*
X13563235Y-6787679D01*
X13607439Y-10019744D02*
X13540786Y-10082693D01*
X13617827Y-8662738D02*
X13541520Y-8640132D01*
X13622187Y-7827030D02*
X13570953Y-7772725D01*
X13627894Y-11274793D02*
X13704354Y-11308958D01*
X13637598Y-8619551D02*
X13706944Y-8647245D01*
X13640937Y-9198828D02*
X13720519Y-9187255D01*
X13645379Y-9892835D02*
X13713967Y-9838680D01*
X13651819Y-6746705D02*
X13606111Y-6767273D01*
X13659393Y-7735042D02*
X13717496Y-7808458D01*
X13660067Y-9237023D02*
X13587945Y-9254288D01*
X13672360Y-9958416D02*
X13607439Y-10019744D01*
X13676532Y-7884642D02*
X13622187Y-7827030D01*
X13689873Y-8684049D02*
X13617827Y-8662738D01*
X13699576Y-6726247D02*
X13651819Y-6746705D01*
X13704354Y-11308958D02*
X13727159Y-11318314D01*
X13706944Y-8647245D02*
X13771707Y-8673144D01*
X13713967Y-9838680D02*
X13779635Y-9786866D01*
X13717496Y-7808458D02*
X13775399Y-7881599D01*
X13720519Y-9187255D02*
X13795018Y-9176548D01*
X13727159Y-11318314D02*
X13746243Y-11325780D01*
X13727380Y-9220868D02*
X13660067Y-9237023D01*
X13735209Y-9899032D02*
X13672360Y-9958416D01*
X13746243Y-11325780D02*
X13761986Y-11331463D01*
X13757208Y-8703935D02*
X13689873Y-8684049D01*
X13761986Y-11331463D02*
X13774769Y-11335468D01*
X13771707Y-8673144D02*
X13831456Y-8697075D01*
X13774769Y-11335468D02*
X13792979Y-11338876D01*
X13775399Y-7881599D02*
X13831292Y-7952302D01*
X13779635Y-9786866D02*
X13842021Y-9737676D01*
X13784846Y-7999433D02*
X13676532Y-7884642D01*
X13789435Y-9205932D02*
X13727380Y-9220868D01*
X13792979Y-11338876D02*
X13803919Y-11336857D01*
X13795018Y-9176548D02*
X13862785Y-9166934D01*
X13795642Y-9841917D02*
X13735209Y-9899032D01*
X13798116Y-6686761D02*
X13699576Y-6726247D01*
X13803919Y-11336857D02*
X13806928Y-11332835D01*
X13806928Y-11332835D02*
X13812272Y-11322690D01*
X13812272Y-11322690D02*
X13819990Y-11306333D01*
X13819385Y-8722263D02*
X13757208Y-8703935D01*
X13819990Y-11306333D02*
X13830117Y-11283672D01*
X13830117Y-11283672D02*
X13842692Y-11254619D01*
X13831292Y-7952302D02*
X13884902Y-8020216D01*
X13831456Y-8697075D02*
X13885761Y-8718865D01*
X13842021Y-9737676D02*
X13900762Y-9691396D01*
X13842692Y-11254619D02*
X13857751Y-11219082D01*
X13845784Y-9192322D02*
X13789435Y-9205932D01*
X13853319Y-9787394D02*
X13795642Y-9841917D01*
X13857751Y-11219082D02*
X13875331Y-11176971D01*
X13862785Y-9166934D02*
X13922172Y-9158641D01*
X13875331Y-11176971D02*
X13895469Y-11128197D01*
X13875954Y-8738902D02*
X13819385Y-8722263D01*
X13884902Y-8020216D02*
X13935955Y-8084992D01*
X13885761Y-8718865D02*
X13934190Y-8738343D01*
X13887392Y-8108026D02*
X13784846Y-7999433D01*
X13895469Y-11128197D02*
X13918203Y-11072669D01*
X13895481Y-6651002D02*
X13798116Y-6686761D01*
X13895982Y-9180146D02*
X13845784Y-9192322D01*
X13900762Y-9691396D02*
X13955496Y-9648310D01*
X13907896Y-9735787D02*
X13853319Y-9787394D01*
X13918203Y-11072669D02*
X13943569Y-11010296D01*
X13922172Y-9158641D02*
X13948208Y-9155061D01*
X13926467Y-8753718D02*
X13875954Y-8738902D01*
X13934190Y-8738343D02*
X13976313Y-8755334D01*
X13935768Y-8159221D02*
X13887392Y-8108026D01*
X13935955Y-8084992D02*
X13984180Y-8146281D01*
X13939581Y-9169512D02*
X13895982Y-9180146D01*
X13941769Y-6635205D02*
X13895481Y-6651002D01*
X13943569Y-11010296D02*
X13971605Y-10940989D01*
X13948208Y-9155061D02*
X13971530Y-9151897D01*
X13955496Y-9648310D02*
X14005860Y-9608704D01*
X13959032Y-9687419D02*
X13907896Y-9735787D01*
X13970477Y-8766580D02*
X13926467Y-8753718D01*
X13971530Y-9151897D02*
X13991933Y-9149178D01*
X13971605Y-10940989D02*
X14002348Y-10864658D01*
X13976134Y-9160527D02*
X13939581Y-9169512D01*
X13976313Y-8755334D02*
X14011700Y-8769667D01*
X13980571Y-11398932D02*
X13980793Y-11403363D01*
X13980793Y-11403363D02*
X13984209Y-11408293D01*
X13981819Y-8207936D02*
X13935768Y-8159221D01*
X13982039Y-11389280D02*
X13980571Y-11398932D01*
X13984180Y-8146281D02*
X14029302Y-8203732D01*
X13984209Y-11408293D02*
X13990386Y-11412816D01*
X13985290Y-11374074D02*
X13982039Y-11389280D01*
X13985420Y-6621161D02*
X13941769Y-6635205D01*
X13990386Y-11412816D02*
X14001821Y-11417602D01*
X13990421Y-11352982D02*
X13985290Y-11374074D01*
X13991933Y-9149178D02*
X14009210Y-9146931D01*
X13997525Y-11325671D02*
X13990421Y-11352982D01*
X14001821Y-11417602D02*
X14021015Y-11423322D01*
X14002348Y-10864658D02*
X14035834Y-10781212D01*
X14005193Y-9153300D02*
X13976134Y-9160527D01*
X14005860Y-9608704D02*
X14051493Y-9572862D01*
X14006385Y-9642615D02*
X13959032Y-9687419D01*
X14006698Y-11291811D02*
X13997525Y-11325671D01*
X14007533Y-8777356D02*
X13970477Y-8766580D01*
X14009210Y-9146931D02*
X14023155Y-9145185D01*
X14011700Y-8769667D02*
X14039920Y-8781168D01*
X14018034Y-11251067D02*
X14006698Y-11291811D01*
X14021015Y-11423322D02*
X14034302Y-11426741D01*
X14023155Y-9145185D02*
X14033563Y-9143969D01*
X14025253Y-8253859D02*
X13981819Y-8207936D01*
X14025652Y-6609143D02*
X13985420Y-6621161D01*
X14026312Y-9147938D02*
X14005193Y-9153300D01*
X14029302Y-8203732D02*
X14071049Y-8256997D01*
X14031628Y-11203109D02*
X14018034Y-11251067D01*
X14033563Y-9143969D02*
X14040226Y-9143311D01*
X14034302Y-11426741D02*
X14050465Y-11430645D01*
X14035834Y-10781212D02*
X14072101Y-10690560D01*
X14037189Y-8785914D02*
X14007533Y-8777356D01*
X14039043Y-9144549D02*
X14026312Y-9147938D01*
X14039920Y-8781168D02*
X14060541Y-8789666D01*
X14040226Y-9143311D02*
X14042940Y-9143240D01*
X14042940Y-9143240D02*
X14039043Y-9144549D01*
X14047576Y-11147604D02*
X14031628Y-11203109D01*
X14049613Y-9601697D02*
X14006385Y-9642615D01*
X14050465Y-11430645D02*
X14069817Y-11435117D01*
X14051493Y-9572862D02*
X14092030Y-9541070D01*
X14058996Y-8792122D02*
X14037189Y-8785914D01*
X14060541Y-8789666D02*
X14073134Y-8794987D01*
X14061683Y-6599426D02*
X14025652Y-6609143D01*
X14065775Y-8296680D02*
X14025253Y-8253859D01*
X14065972Y-11084219D02*
X14047576Y-11147604D01*
X14069817Y-11435117D02*
X14092671Y-11440241D01*
X14071049Y-8256997D02*
X14109148Y-8305726D01*
X14072101Y-10690560D02*
X14111186Y-10592614D01*
X14072505Y-8795847D02*
X14058996Y-8792122D01*
X14073134Y-8794987D02*
X14077267Y-8796959D01*
X14077267Y-8796959D02*
X14072505Y-8795847D01*
X14086911Y-11012623D02*
X14065972Y-11084219D01*
X14088374Y-9564991D02*
X14049613Y-9601697D01*
X14092030Y-9541070D02*
X14127110Y-9513611D01*
X14092671Y-11440241D02*
X14119338Y-11446101D01*
X14092734Y-6592282D02*
X14061683Y-6599426D01*
X14103092Y-8336088D02*
X14065775Y-8296680D01*
X14109148Y-8305726D02*
X14143326Y-8349570D01*
X14110487Y-10932483D02*
X14086911Y-11012623D01*
X14111186Y-10592614D02*
X14153126Y-10487282D01*
X14118022Y-6587986D02*
X14092734Y-6592282D01*
X14119338Y-11446101D02*
X14150132Y-11452781D01*
X14122324Y-9532818D02*
X14088374Y-9564991D01*
X14127110Y-9513611D02*
X14156371Y-9490771D01*
X14136766Y-6586810D02*
X14118022Y-6587986D01*
X14136797Y-10843467D02*
X14110487Y-10932483D01*
X14136909Y-8371773D02*
X14103092Y-8336088D01*
X14143326Y-8349570D02*
X14173310Y-8388177D01*
X14148185Y-6589029D02*
X14136766Y-6586810D01*
X14150132Y-11452781D02*
X14185364Y-11460364D01*
X14151124Y-9505504D02*
X14122324Y-9532818D01*
X14153126Y-10487282D02*
X14187253Y-10401529D01*
X14155900Y-6596864D02*
X14148185Y-6589029D01*
X14156371Y-9490771D02*
X14179449Y-9472836D01*
X14163591Y-6612863D02*
X14155900Y-6596864D01*
X14165934Y-10745242D02*
X14136797Y-10843467D01*
X14166933Y-8403424D02*
X14136909Y-8371773D01*
X14167598Y-6624369D02*
X14163591Y-6612863D01*
X14171803Y-6638451D02*
X14167598Y-6624369D01*
X14173310Y-8388177D02*
X14198828Y-8421200D01*
X14174430Y-9483372D02*
X14151124Y-9505504D01*
X14176275Y-6655286D02*
X14171803Y-6638451D01*
X14179449Y-9472836D02*
X14195983Y-9460089D01*
X14181082Y-6675054D02*
X14176275Y-6655286D01*
X14181592Y-10692573D02*
X14165934Y-10745242D01*
X14185364Y-11460364D02*
X14225346Y-11468934D01*
X14187253Y-10401529D02*
X14220448Y-10318204D01*
X14191087Y-6717627D02*
X14181082Y-6675054D01*
X14191900Y-9466745D02*
X14174430Y-9483372D01*
X14192869Y-8430731D02*
X14166933Y-8403424D01*
X14195983Y-9460089D02*
X14205609Y-9452817D01*
X14197993Y-10637477D02*
X14181592Y-10692573D01*
X14198828Y-8421200D02*
X14219606Y-8448289D01*
X14202161Y-6764638D02*
X14191087Y-6717627D01*
X14203193Y-9455947D02*
X14191900Y-9466745D01*
X14205609Y-9452817D02*
X14207966Y-9451303D01*
X14207966Y-9451303D02*
X14203193Y-9455947D01*
X14214213Y-6815705D02*
X14202161Y-6764638D01*
X14214424Y-8453383D02*
X14192869Y-8430731D01*
X14215148Y-10579913D02*
X14197993Y-10637477D01*
X14219606Y-8448289D02*
X14235371Y-8469093D01*
X14220448Y-10318204D02*
X14252536Y-10237738D01*
X14225346Y-11468934D02*
X14298545Y-11482996D01*
X14227153Y-6870449D02*
X14214213Y-6815705D01*
X14231303Y-8471070D02*
X14214424Y-8453383D01*
X14233070Y-10519839D02*
X14215148Y-10579913D01*
X14235371Y-8469093D02*
X14245850Y-8483264D01*
X14240889Y-6928490D02*
X14227153Y-6870449D01*
X14243213Y-8483481D02*
X14231303Y-8471070D01*
X14245850Y-8483264D02*
X14250771Y-8490452D01*
X14249860Y-8490306D02*
X14243213Y-8483481D01*
X14250771Y-8490452D02*
X14249860Y-8490306D01*
X14252536Y-10237738D02*
X14283345Y-10160561D01*
X14255331Y-6989449D02*
X14240889Y-6928490D01*
X14259504Y-10431219D02*
X14233070Y-10519839D01*
X14270389Y-7052945D02*
X14255331Y-6989449D01*
X14283345Y-10160561D02*
X14312702Y-10087104D01*
X14285173Y-10345060D02*
X14259504Y-10431219D01*
X14285972Y-7118599D02*
X14270389Y-7052945D01*
X14298545Y-11482996D02*
X14375284Y-11494671D01*
X14309945Y-10261810D02*
X14285173Y-10345060D01*
X14312702Y-10087104D02*
X14340435Y-10017797D01*
X14319366Y-6570780D02*
X14320695Y-6584973D01*
X14319820Y-6559520D02*
X14319366Y-6570780D01*
X14320695Y-6584973D02*
X14321816Y-6592655D01*
X14321816Y-6592655D02*
X14324221Y-6608957D01*
X14322062Y-6551161D02*
X14319820Y-6559520D01*
X14324221Y-6608957D02*
X14327840Y-6633419D01*
X14326097Y-6545671D02*
X14322062Y-6551161D01*
X14327840Y-6633419D02*
X14332606Y-6665579D01*
X14332606Y-6665579D02*
X14338451Y-6704977D01*
X14332806Y-6542968D02*
X14326097Y-6545671D01*
X14333688Y-10181916D02*
X14309945Y-10261810D01*
X14338451Y-6704977D02*
X14345305Y-6751151D01*
X14340435Y-10017797D02*
X14366369Y-9953071D01*
X14345305Y-6751151D02*
X14353100Y-6803640D01*
X14346652Y-6540041D02*
X14332806Y-6542968D01*
X14351738Y-7395194D02*
X14285972Y-7118599D01*
X14353100Y-6803640D02*
X14361768Y-6861984D01*
X14356271Y-10105824D02*
X14333688Y-10181916D01*
X14361768Y-6861984D02*
X14371240Y-6925722D01*
X14366369Y-9953071D02*
X14390333Y-9893355D01*
X14367639Y-6536889D02*
X14346652Y-6540041D01*
X14371240Y-6925722D02*
X14381448Y-6994391D01*
X14375284Y-11494671D02*
X14454770Y-11503907D01*
X14377561Y-10033982D02*
X14356271Y-10105824D01*
X14381448Y-6994391D02*
X14392323Y-7067532D01*
X14390333Y-9893355D02*
X14412153Y-9839081D01*
X14392323Y-7067532D02*
X14403796Y-7144684D01*
X14395776Y-6533512D02*
X14367639Y-6536889D01*
X14397427Y-9966837D02*
X14377561Y-10033982D01*
X14403796Y-7144684D02*
X14415800Y-7225384D01*
X14412153Y-9839081D02*
X14431657Y-9790679D01*
X14415737Y-9904837D02*
X14397427Y-9966837D01*
X14415800Y-7225384D02*
X14428265Y-7309173D01*
X14418649Y-7675921D02*
X14351738Y-7395194D01*
X14428265Y-7309173D02*
X14441123Y-7395590D01*
X14431069Y-6529909D02*
X14395776Y-6533512D01*
X14431657Y-9790679D02*
X14448672Y-9748579D01*
X14432358Y-9848427D02*
X14415737Y-9904837D01*
X14441123Y-7395590D02*
X14454307Y-7484172D01*
X14447159Y-9798057D02*
X14432358Y-9848427D01*
X14448672Y-9748579D02*
X14463024Y-9713212D01*
X14450721Y-7810237D02*
X14418649Y-7675921D01*
X14454307Y-7484172D02*
X14467458Y-7572602D01*
X14454770Y-11503907D02*
X14536206Y-11510651D01*
X14460008Y-9754171D02*
X14447159Y-9798057D01*
X14463024Y-9713212D02*
X14474542Y-9685008D01*
X14467458Y-7572602D02*
X14480222Y-7658570D01*
X14470773Y-9717219D02*
X14460008Y-9754171D01*
X14473523Y-6526079D02*
X14431069Y-6529909D01*
X14474542Y-9685008D02*
X14483051Y-9664398D01*
X14479322Y-9687647D02*
X14470773Y-9717219D01*
X14480222Y-7658570D02*
X14492534Y-7741631D01*
X14480905Y-7936470D02*
X14450721Y-7810237D01*
X14483051Y-9664398D02*
X14488380Y-9651812D01*
X14485523Y-9665902D02*
X14479322Y-9687647D01*
X14488380Y-9651812D02*
X14490354Y-9647681D01*
X14489244Y-9652431D02*
X14485523Y-9665902D01*
X14490354Y-9647681D02*
X14489244Y-9652431D01*
X14492534Y-7741631D02*
X14504328Y-7821338D01*
X14495061Y-7995606D02*
X14480905Y-7936470D01*
X14504328Y-7821338D02*
X14515540Y-7897246D01*
X14508473Y-8051581D02*
X14495061Y-7995606D01*
X14515540Y-7897246D02*
X14526103Y-7968908D01*
X14521051Y-8104015D02*
X14508473Y-8051581D01*
X14523147Y-6522021D02*
X14473523Y-6526079D01*
X14526103Y-7968908D02*
X14535954Y-8035880D01*
X14532703Y-8152530D02*
X14521051Y-8104015D01*
X14535954Y-8035880D02*
X14545025Y-8097714D01*
X14536206Y-11510651D02*
X14618798Y-11514850D01*
X14543338Y-8196744D02*
X14532703Y-8152530D01*
X14545025Y-8097714D02*
X14553252Y-8153964D01*
X14552867Y-8236279D02*
X14543338Y-8196744D01*
X14553252Y-8153964D02*
X14560570Y-8204186D01*
X14560570Y-8204186D02*
X14566913Y-8247933D01*
X14561199Y-8270754D02*
X14552867Y-8236279D01*
X14566913Y-8247933D02*
X14572216Y-8284759D01*
X14568242Y-8299789D02*
X14561199Y-8270754D01*
X14572216Y-8284759D02*
X14576413Y-8314218D01*
X14573906Y-8323005D02*
X14568242Y-8299789D01*
X14576413Y-8314218D02*
X14579440Y-8335865D01*
X14578101Y-8340021D02*
X14573906Y-8323005D01*
X14579440Y-8335865D02*
X14581231Y-8349253D01*
X14579946Y-6517736D02*
X14523147Y-6522021D01*
X14580736Y-8350458D02*
X14578101Y-8340021D01*
X14581231Y-8349253D02*
X14581720Y-8353936D01*
X14581720Y-8353936D02*
X14580736Y-8350458D01*
X14593295Y-6517058D02*
X14579946Y-6517736D01*
X14610763Y-6516635D02*
X14593295Y-6517058D01*
X14618798Y-11514850D02*
X14701749Y-11516450D01*
X14631813Y-6516450D02*
X14610763Y-6516635D01*
X14655908Y-6516490D02*
X14631813Y-6516450D01*
X14701749Y-11516450D02*
X14784266Y-11515399D01*
X14711084Y-6517183D02*
X14655908Y-6516490D01*
X14771994Y-6518593D02*
X14711084Y-6517183D01*
X14784266Y-11515399D02*
X14865551Y-11511643D01*
X14834343Y-6520603D02*
X14771994Y-6518593D01*
X14836984Y-9681935D02*
X14838293Y-9685832D01*
X14837431Y-9687204D02*
X14836984Y-9681935D01*
X14838293Y-9685832D02*
X14841684Y-9698555D01*
X14839187Y-9701375D02*
X14837431Y-9687204D01*
X14841684Y-9698555D02*
X14847050Y-9719657D01*
X14842189Y-9723989D02*
X14839187Y-9701375D01*
X14846370Y-9754586D02*
X14842189Y-9723989D01*
X14847050Y-9719657D02*
X14854283Y-9748692D01*
X14851665Y-9792708D02*
X14846370Y-9754586D01*
X14854283Y-9748692D02*
X14863275Y-9785213D01*
X14858008Y-9837896D02*
X14851665Y-9792708D01*
X14863275Y-9785213D02*
X14873919Y-9828773D01*
X14865334Y-9889690D02*
X14858008Y-9837896D01*
X14865551Y-11511643D02*
X14898968Y-11509486D01*
X14873578Y-9947631D02*
X14865334Y-9889690D01*
X14873919Y-9828773D02*
X14886105Y-9878925D01*
X14882674Y-10011260D02*
X14873578Y-9947631D01*
X14886105Y-9878925D02*
X14899728Y-9935223D01*
X14892556Y-10080119D02*
X14882674Y-10011260D01*
X14893835Y-6523092D02*
X14834343Y-6520603D01*
X14898968Y-11509486D02*
X14928774Y-11507497D01*
X14899728Y-9935223D02*
X14914678Y-9997220D01*
X14903159Y-10153747D02*
X14892556Y-10080119D01*
X14914418Y-10231687D02*
X14903159Y-10153747D01*
X14914678Y-9997220D02*
X14930847Y-10064470D01*
X14921167Y-6524480D02*
X14893835Y-6523092D01*
X14926267Y-10313478D02*
X14914418Y-10231687D01*
X14928774Y-11507497D02*
X14955182Y-11505644D01*
X14928810Y-8384268D02*
X14929857Y-8379727D01*
X14929857Y-8379727D02*
X14933393Y-8366869D01*
X14930785Y-8380139D02*
X14928810Y-8384268D01*
X14930847Y-10064470D02*
X14948129Y-10136525D01*
X14933393Y-8366869D02*
X14939293Y-8346120D01*
X14936111Y-8367559D02*
X14930785Y-8380139D01*
X14938641Y-10398663D02*
X14926267Y-10313478D01*
X14939293Y-8346120D02*
X14947431Y-8317907D01*
X14944618Y-8346958D02*
X14936111Y-8367559D01*
X14946173Y-6525942D02*
X14921167Y-6524480D01*
X14947431Y-8317907D02*
X14957681Y-8282656D01*
X14948129Y-10136525D02*
X14966414Y-10212939D01*
X14951473Y-10486781D02*
X14938641Y-10398663D01*
X14955182Y-11505644D02*
X14978409Y-11503897D01*
X14956131Y-8318766D02*
X14944618Y-8346958D01*
X14957681Y-8282656D02*
X14969919Y-8240794D01*
X14964700Y-10577373D02*
X14951473Y-10486781D01*
X14966414Y-10212939D02*
X14985595Y-10293265D01*
X14968317Y-6527465D02*
X14946173Y-6525942D01*
X14969919Y-8240794D02*
X14984018Y-8192747D01*
X14970478Y-8283414D02*
X14956131Y-8318766D01*
X14978409Y-11503897D02*
X14998670Y-11502225D01*
X14981168Y-10690251D02*
X14964700Y-10577373D01*
X14984018Y-8192747D02*
X14999852Y-8138942D01*
X14985595Y-10293265D02*
X15005564Y-10377057D01*
X14987061Y-6529033D02*
X14968317Y-6527465D01*
X14987486Y-8241332D02*
X14970478Y-8283414D01*
X14996373Y-10794946D02*
X14981168Y-10690251D01*
X14998670Y-11502225D02*
X15016180Y-11500597D01*
X14999852Y-8138942D02*
X15017296Y-8079806D01*
X15005564Y-10377057D02*
X15026214Y-10463867D01*
X15006982Y-8192950D02*
X14987486Y-8241332D01*
X15010335Y-10891598D02*
X14996373Y-10794946D01*
X15016180Y-11500597D02*
X15031155Y-11498982D01*
X15017296Y-8079806D02*
X15036225Y-8015764D01*
X15023073Y-10980348D02*
X15010335Y-10891598D01*
X15026214Y-10463867D02*
X15047436Y-10553249D01*
X15028794Y-8138698D02*
X15006982Y-8192950D01*
X15031155Y-11498982D02*
X15043809Y-11497350D01*
X15034605Y-11061335D02*
X15023073Y-10980348D01*
X15036225Y-8015764D02*
X15056512Y-7947243D01*
X15043809Y-11497350D02*
X15063019Y-11493910D01*
X15044951Y-11134700D02*
X15034605Y-11061335D01*
X15047436Y-10553249D02*
X15068699Y-10642719D01*
X15052749Y-8079007D02*
X15028794Y-8138698D01*
X15054130Y-11200583D02*
X15044951Y-11134700D01*
X15056512Y-7947243D02*
X15078032Y-7874670D01*
X15062160Y-11259124D02*
X15054130Y-11200583D01*
X15063019Y-11493910D02*
X15075532Y-11490033D01*
X15068699Y-10642719D02*
X15089471Y-10729786D01*
X15069062Y-11310464D02*
X15062160Y-11259124D01*
X15074853Y-11354742D02*
X15069062Y-11310464D01*
X15075532Y-11490033D02*
X15083071Y-11485471D01*
X15078032Y-7874670D02*
X15100659Y-7798472D01*
X15078673Y-8014307D02*
X15052749Y-8079007D01*
X15079554Y-11392100D02*
X15074853Y-11354742D01*
X15083071Y-11485471D02*
X15087358Y-11479980D01*
X15083182Y-11422676D02*
X15079554Y-11392100D01*
X15085758Y-11446613D02*
X15083182Y-11422676D01*
X15087299Y-11464048D02*
X15085758Y-11446613D01*
X15087358Y-11479980D02*
X15087826Y-11475124D01*
X15087826Y-11475124D02*
X15087299Y-11464048D01*
X15089471Y-10729786D02*
X15109639Y-10813994D01*
X15100659Y-7798472D02*
X15124268Y-7719074D01*
X15106394Y-7945028D02*
X15078673Y-8014307D01*
X15109639Y-10813994D02*
X15129091Y-10894889D01*
X15122831Y-6546878D02*
X14987061Y-6529033D01*
X15124268Y-7719074D02*
X15148733Y-7636904D01*
X15129091Y-10894889D02*
X15147716Y-10972015D01*
X15135740Y-7871601D02*
X15106394Y-7945028D01*
X15147716Y-10972015D02*
X15165400Y-11044916D01*
X15148733Y-7636904D02*
X15173927Y-7552387D01*
X15165400Y-11044916D02*
X15182033Y-11113138D01*
X15166536Y-7794456D02*
X15135740Y-7871601D01*
X15173927Y-7552387D02*
X15223897Y-7384836D01*
X15174889Y-9548344D02*
X15176482Y-9549265D01*
X15176482Y-9549265D02*
X15184072Y-9557136D01*
X15179144Y-9554777D02*
X15174889Y-9548344D01*
X15182033Y-11113138D02*
X15197503Y-11176224D01*
X15184072Y-9557136D02*
X15197413Y-9571093D01*
X15188978Y-9568219D02*
X15179144Y-9554777D01*
X15197413Y-9571093D02*
X15216182Y-9590796D01*
X15197503Y-11176224D02*
X15211696Y-11233720D01*
X15198612Y-7714023D02*
X15166536Y-7794456D01*
X15204122Y-9588325D02*
X15188978Y-9568219D01*
X15211696Y-11233720D02*
X15224502Y-11285171D01*
X15216182Y-9590796D02*
X15240055Y-9615903D01*
X15223897Y-7384836D02*
X15271020Y-7226764D01*
X15224305Y-9614748D02*
X15204122Y-9588325D01*
X15224502Y-11285171D02*
X15235807Y-11330120D01*
X15231792Y-7630732D02*
X15198612Y-7714023D01*
X15235807Y-11330120D02*
X15245501Y-11368112D01*
X15240055Y-9615903D02*
X15268709Y-9646072D01*
X15242468Y-8551122D02*
X15243390Y-8549531D01*
X15243390Y-8549531D02*
X15251268Y-8541948D01*
X15245501Y-11368112D02*
X15253471Y-11398693D01*
X15248907Y-8546871D02*
X15242468Y-8551122D01*
X15249259Y-9647142D02*
X15224305Y-9614748D01*
X15251268Y-8541948D02*
X15265239Y-8528620D01*
X15253471Y-11398693D02*
X15259606Y-11421406D01*
X15259606Y-11421406D02*
X15263792Y-11435797D01*
X15262362Y-8537047D02*
X15248907Y-8546871D01*
X15263792Y-11435797D02*
X15265918Y-11441410D01*
X15263797Y-6572955D02*
X15122831Y-6546878D01*
X15265239Y-8528620D02*
X15284961Y-8509870D01*
X15265906Y-7545014D02*
X15231792Y-7630732D01*
X15265918Y-11441410D02*
X15274582Y-11445860D01*
X15268709Y-9646072D02*
X15301821Y-9680964D01*
X15271020Y-7226764D02*
X15293181Y-7152403D01*
X15274582Y-11445860D02*
X15290926Y-11445614D01*
X15278714Y-9685163D02*
X15249259Y-9647142D01*
X15282487Y-8521918D02*
X15262362Y-8537047D01*
X15284961Y-8509870D02*
X15310092Y-8486020D01*
X15290926Y-11445614D02*
X15303551Y-11443528D01*
X15293181Y-7152403D02*
X15314230Y-7081757D01*
X15296201Y-6579992D02*
X15263797Y-6572955D01*
X15300061Y-7459240D02*
X15265906Y-7545014D01*
X15301821Y-9680964D02*
X15339068Y-9720237D01*
X15303551Y-11443528D02*
X15319984Y-11440026D01*
X15308936Y-8501754D02*
X15282487Y-8521918D01*
X15310092Y-8486020D02*
X15340291Y-8457393D01*
X15312401Y-9728465D02*
X15278714Y-9685163D01*
X15314230Y-7081757D02*
X15334033Y-7015273D01*
X15319984Y-11440026D02*
X15340854Y-11435026D01*
X15326495Y-6587033D02*
X15296201Y-6579992D01*
X15333364Y-7375783D02*
X15300061Y-7459240D01*
X15334033Y-7015273D02*
X15352458Y-6953399D01*
X15339068Y-9720237D02*
X15380126Y-9763550D01*
X15340291Y-8457393D02*
X15375216Y-8424313D01*
X15340854Y-11435026D02*
X15366790Y-11428448D01*
X15341362Y-8476824D02*
X15308936Y-8501754D01*
X15341601Y-9235294D02*
X15346315Y-9236434D01*
X15345765Y-9237235D02*
X15341601Y-9235294D01*
X15346315Y-9236434D02*
X15359741Y-9240184D01*
X15350051Y-9776701D02*
X15312401Y-9728465D01*
X15352458Y-6953399D02*
X15369371Y-6896585D01*
X15354195Y-6593974D02*
X15326495Y-6587033D01*
X15358388Y-9242527D02*
X15345765Y-9237235D01*
X15359741Y-9240184D02*
X15381432Y-9246413D01*
X15365637Y-7295081D02*
X15333364Y-7375783D01*
X15366790Y-11428448D02*
X15491196Y-11391987D01*
X15369371Y-6896585D02*
X15384639Y-6845278D01*
X15372263Y-8888234D02*
X15375746Y-8887250D01*
X15375216Y-8424313D02*
X15414527Y-8387102D01*
X15375746Y-8887250D02*
X15386198Y-8884617D01*
X15377105Y-8887720D02*
X15372263Y-8888234D01*
X15378812Y-6600712D02*
X15354195Y-6593974D01*
X15379038Y-9250996D02*
X15358388Y-9242527D01*
X15379420Y-8447398D02*
X15341362Y-8476824D01*
X15380126Y-9763550D02*
X15424673Y-9810561D01*
X15381432Y-9246413D02*
X15410942Y-9254987D01*
X15384639Y-6845278D02*
X15398127Y-6799926D01*
X15386198Y-8884617D02*
X15403237Y-8880425D01*
X15390957Y-8885860D02*
X15377105Y-8887720D01*
X15391393Y-9829527D02*
X15350051Y-9776701D01*
X15396704Y-7217568D02*
X15365637Y-7295081D01*
X15398127Y-6799926D02*
X15409703Y-6760977D01*
X15399861Y-6607147D02*
X15378812Y-6600712D01*
X15403237Y-8880425D02*
X15426483Y-8874764D01*
X15407285Y-9262470D02*
X15379038Y-9250996D01*
X15409703Y-6760977D02*
X15419232Y-6728881D01*
X15410942Y-9254987D02*
X15447824Y-9265775D01*
X15413359Y-8882720D02*
X15390957Y-8885860D01*
X15414527Y-8387102D02*
X15457882Y-8346084D01*
X15416854Y-6613174D02*
X15399861Y-6607147D01*
X15419232Y-6728881D02*
X15426583Y-6704084D01*
X15422763Y-8413743D02*
X15379420Y-8447398D01*
X15424673Y-9810561D02*
X15472384Y-9860930D01*
X15426387Y-7143681D02*
X15396704Y-7217568D01*
X15426483Y-8874764D02*
X15455557Y-8867726D01*
X15426583Y-6704084D02*
X15431620Y-6687035D01*
X15429306Y-6618693D02*
X15416854Y-6613174D01*
X15431620Y-6687035D02*
X15434212Y-6678183D01*
X15434212Y-6678183D02*
X15440372Y-6655006D01*
X15436160Y-9886596D02*
X15391393Y-9829527D01*
X15436728Y-6623600D02*
X15429306Y-6618693D01*
X15440372Y-6655006D02*
X15442763Y-6639956D01*
X15441508Y-6630374D02*
X15436728Y-6623600D01*
X15442698Y-9276776D02*
X15407285Y-9262470D01*
X15442763Y-6639956D02*
X15441508Y-6630374D01*
X15443849Y-8878369D02*
X15413359Y-8882720D01*
X15447824Y-9265775D02*
X15491632Y-9278646D01*
X15454509Y-7073855D02*
X15426387Y-7143681D01*
X15455557Y-8867726D02*
X15490076Y-8859400D01*
X15457882Y-8346084D02*
X15504939Y-8301581D01*
X15471046Y-8376130D02*
X15422763Y-8413743D01*
X15472384Y-9860930D02*
X15522936Y-9914316D01*
X15480895Y-7008527D02*
X15454509Y-7073855D01*
X15481964Y-8872873D02*
X15443849Y-8878369D01*
X15484080Y-9947563D02*
X15436160Y-9886596D01*
X15484846Y-9293743D02*
X15442698Y-9276776D01*
X15490076Y-8859400D02*
X15529662Y-8849877D01*
X15491196Y-11391987D02*
X15617226Y-11346109D01*
X15491632Y-9278646D02*
X15541920Y-9293466D01*
X15504939Y-8301581D02*
X15555357Y-8253916D01*
X15505366Y-6948132D02*
X15480895Y-7008527D01*
X15522936Y-9914316D02*
X15576007Y-9970377D01*
X15523923Y-8334828D02*
X15471046Y-8376130D01*
X15527245Y-8866302D02*
X15481964Y-8872873D01*
X15527747Y-6893106D02*
X15505366Y-6948132D01*
X15529662Y-8849877D02*
X15573933Y-8839249D01*
X15533298Y-9313197D02*
X15484846Y-9293743D01*
X15534886Y-10012082D02*
X15484080Y-9947563D01*
X15541920Y-9293466D02*
X15598240Y-9310104D01*
X15547859Y-6843885D02*
X15527747Y-6893106D01*
X15555357Y-8253916D02*
X15608794Y-8203412D01*
X15565526Y-6800905D02*
X15547859Y-6843885D01*
X15573933Y-8839249D02*
X15622509Y-8827605D01*
X15576007Y-9970377D02*
X15688411Y-10089161D01*
X15579228Y-8858721D02*
X15527245Y-8866302D01*
X15580571Y-6764601D02*
X15565526Y-6800905D01*
X15581047Y-8290105D02*
X15523923Y-8334828D01*
X15587624Y-9334966D02*
X15533298Y-9313197D01*
X15588306Y-10079807D02*
X15534886Y-10012082D01*
X15592818Y-6735410D02*
X15580571Y-6764601D01*
X15598240Y-9310104D02*
X15660147Y-9328428D01*
X15602088Y-6713768D02*
X15592818Y-6735410D01*
X15608206Y-6700110D02*
X15602088Y-6713768D01*
X15608794Y-8203412D02*
X15664910Y-8150393D01*
X15610995Y-6694872D02*
X15608206Y-6700110D01*
X15617226Y-11346109D02*
X15681616Y-11319332D01*
X15618327Y-6692551D02*
X15610995Y-6694872D01*
X15622509Y-8827605D02*
X15675009Y-8815037D01*
X15630861Y-6693708D02*
X15618327Y-6692551D01*
X15637453Y-8850200D02*
X15579228Y-8858721D01*
X15642073Y-8242231D02*
X15581047Y-8290105D01*
X15644073Y-10150393D02*
X15588306Y-10079807D01*
X15647393Y-9358878D02*
X15587624Y-9334966D01*
X15648937Y-6698476D02*
X15630861Y-6693708D01*
X15660147Y-9328428D02*
X15727195Y-9348306D01*
X15664910Y-8150393D02*
X15783809Y-8038098D01*
X15672898Y-6706986D02*
X15648937Y-6698476D01*
X15675009Y-8815037D02*
X15731054Y-8801634D01*
X15681616Y-11319332D02*
X15747330Y-11289835D01*
X15688411Y-10089161D02*
X15807009Y-10214554D01*
X15701458Y-8840805D02*
X15637453Y-8850200D01*
X15701917Y-10223495D02*
X15644073Y-10150393D01*
X15703083Y-6719368D02*
X15672898Y-6706986D01*
X15706655Y-8191475D02*
X15642073Y-8242231D01*
X15712173Y-9384760D02*
X15647393Y-9358878D01*
X15727195Y-9348306D02*
X15798936Y-9369606D01*
X15731054Y-8801634D02*
X15790261Y-8787488D01*
X15739832Y-6735756D02*
X15703083Y-6719368D01*
X15747330Y-11289835D02*
X15814675Y-11257494D01*
X15759995Y-10296912D02*
X15701917Y-10223495D01*
X15770781Y-8830605D02*
X15701458Y-8840805D01*
X15774446Y-8138106D02*
X15706655Y-8191475D01*
X15781534Y-9412439D02*
X15712173Y-9384760D01*
X15783488Y-6756279D02*
X15739832Y-6735756D01*
X15783809Y-8038098D02*
X15909324Y-7919615D01*
X15790261Y-8787488D02*
X15916645Y-8757328D01*
X15798936Y-9369606D02*
X15874924Y-9392195D01*
X15807009Y-10214554D02*
X15866747Y-10277692D01*
X15814675Y-11257494D02*
X15883957Y-11222188D01*
X15816448Y-10368425D02*
X15759995Y-10296912D01*
X15834389Y-6781069D02*
X15783488Y-6756279D01*
X15844961Y-8819666D02*
X15770781Y-8830605D01*
X15845101Y-8082393D02*
X15774446Y-8138106D01*
X15855045Y-9441743D02*
X15781534Y-9412439D01*
X15866747Y-10277692D02*
X15924924Y-10339102D01*
X15870985Y-10437656D02*
X15816448Y-10368425D01*
X15874924Y-9392195D02*
X15954712Y-9415942D01*
X15883957Y-11222188D02*
X15957412Y-11182398D01*
X15909324Y-7919615D02*
X15972523Y-7859935D01*
X15916645Y-8757328D02*
X16051116Y-8725281D01*
X15916908Y-6824333D02*
X15834389Y-6781069D01*
X15918273Y-8024605D02*
X15845101Y-8082393D01*
X15923312Y-10504229D02*
X15870985Y-10437656D01*
X15923536Y-8808057D02*
X15844961Y-8819666D01*
X15924924Y-10339102D02*
X15981234Y-10398467D01*
X15932275Y-9472500D02*
X15855045Y-9441743D01*
X15954712Y-9415942D02*
X16037855Y-9440715D01*
X15957412Y-11182398D02*
X16028132Y-11141591D01*
X15972523Y-7859935D02*
X16033993Y-7801814D01*
X15973138Y-10567767D02*
X15923312Y-10504229D01*
X15981234Y-10398467D02*
X16035371Y-10455464D01*
X15991761Y-7966584D02*
X15918273Y-8024605D01*
X16000247Y-6872931D02*
X15916908Y-6824333D01*
X16006044Y-8795846D02*
X15923536Y-8808057D01*
X16012794Y-9504536D02*
X15932275Y-9472500D01*
X16020169Y-10627892D02*
X15973138Y-10567767D01*
X16028132Y-11141591D02*
X16093928Y-11101253D01*
X16033993Y-7801814D02*
X16093415Y-7745559D01*
X16035371Y-10455464D02*
X16087029Y-10509776D01*
X16037855Y-9440715D02*
X16123906Y-9466382D01*
X16051116Y-8725281D02*
X16332147Y-8658427D01*
X16063343Y-7910185D02*
X15991761Y-7966584D01*
X16064114Y-10684229D02*
X16020169Y-10627892D01*
X16083495Y-6926202D02*
X16000247Y-6872931D01*
X16087029Y-10509776D02*
X16135901Y-10561082D01*
X16092025Y-8783099D02*
X16006044Y-8795846D01*
X16093415Y-7745559D02*
X16150468Y-7691474D01*
X16093928Y-11101253D02*
X16152611Y-11062869D01*
X16096170Y-9537681D02*
X16012794Y-9504536D01*
X16104679Y-10736400D02*
X16064114Y-10684229D01*
X16123906Y-9466382D02*
X16212418Y-9492811D01*
X16132642Y-7855701D02*
X16063343Y-7910185D01*
X16135901Y-10561082D02*
X16181682Y-10609062D01*
X16141573Y-10784028D02*
X16104679Y-10736400D01*
X16150468Y-7691474D02*
X16204832Y-7639866D01*
X16152611Y-11062869D02*
X16178602Y-11044874D01*
X16165741Y-6983486D02*
X16083495Y-6926202D01*
X16174502Y-10826737D02*
X16141573Y-10784028D01*
X16178602Y-11044874D02*
X16201994Y-11027924D01*
X16181016Y-8769885D02*
X16092025Y-8783099D01*
X16181682Y-10609062D02*
X16224066Y-10653396D01*
X16181973Y-9571760D02*
X16096170Y-9537681D01*
X16199279Y-7803424D02*
X16132642Y-7855701D01*
X16201994Y-11027924D02*
X16222513Y-11012205D01*
X16203175Y-10864150D02*
X16174502Y-10826737D01*
X16204832Y-7639866D02*
X16256188Y-7591041D01*
X16212418Y-9492811D02*
X16322972Y-9525801D01*
X16222513Y-11012205D02*
X16239887Y-10997903D01*
X16224066Y-10653396D02*
X16262746Y-10693764D01*
X16227298Y-10895889D02*
X16203175Y-10864150D01*
X16239887Y-10997903D02*
X16253841Y-10985204D01*
X16246075Y-7044123D02*
X16165741Y-6983486D01*
X16246580Y-10921578D02*
X16227298Y-10895889D01*
X16253841Y-10985204D02*
X16264101Y-10974292D01*
X16256188Y-7591041D02*
X16304214Y-7545304D01*
X16260727Y-10940840D02*
X16246580Y-10921578D01*
X16262746Y-10693764D02*
X16297416Y-10729847D01*
X16262878Y-7753647D02*
X16199279Y-7803424D01*
X16264101Y-10974292D02*
X16270395Y-10965354D01*
X16267830Y-9605882D02*
X16181973Y-9571760D01*
X16269447Y-10953298D02*
X16260727Y-10940840D01*
X16270395Y-10965354D02*
X16272448Y-10958576D01*
X16272448Y-10958576D02*
X16269447Y-10953298D01*
X16272556Y-8756271D02*
X16181016Y-8769885D01*
X16297416Y-10729847D02*
X16327770Y-10761324D01*
X16304214Y-7545304D02*
X16348591Y-7502962D01*
X16322972Y-9525801D02*
X16425450Y-9556303D01*
X16323062Y-7706661D02*
X16262878Y-7753647D01*
X16323587Y-7107451D02*
X16246075Y-7044123D01*
X16327770Y-10761324D02*
X16353502Y-10787876D01*
X16332147Y-8658427D02*
X16609001Y-8592727D01*
X16340471Y-8746169D02*
X16272556Y-8756271D01*
X16348591Y-7502962D02*
X16388998Y-7464319D01*
X16351368Y-9639152D02*
X16267830Y-9605882D01*
X16353502Y-10787876D02*
X16374306Y-10809183D01*
X16374306Y-10809183D02*
X16389876Y-10824926D01*
X16379454Y-7662759D02*
X16323062Y-7706661D01*
X16388998Y-7464319D02*
X16425116Y-7429683D01*
X16389876Y-10824926D02*
X16399905Y-10834783D01*
X16397366Y-7172812D02*
X16323587Y-7107451D01*
X16399905Y-10834783D02*
X16404088Y-10838436D01*
X16404088Y-10838436D02*
X16407845Y-10838238D01*
X16405039Y-8736578D02*
X16340471Y-8746169D01*
X16407845Y-10838238D02*
X16413641Y-10835596D01*
X16413641Y-10835596D02*
X16421412Y-10830558D01*
X16421412Y-10830558D02*
X16431098Y-10823175D01*
X16425116Y-7429683D02*
X16456624Y-7399358D01*
X16425450Y-9556303D02*
X16519997Y-9584360D01*
X16431098Y-10823175D02*
X16442636Y-10813497D01*
X16431675Y-7622233D02*
X16379454Y-7662759D01*
X16432148Y-9671394D02*
X16351368Y-9639152D01*
X16442636Y-10813497D02*
X16455963Y-10801574D01*
X16455963Y-10801574D02*
X16471018Y-10787456D01*
X16456624Y-7399358D02*
X16483202Y-7373651D01*
X16466339Y-8727486D02*
X16405039Y-8736578D01*
X16466502Y-7239544D02*
X16397366Y-7172812D01*
X16471018Y-10787456D02*
X16487739Y-10771192D01*
X16479350Y-7585375D02*
X16431675Y-7622233D01*
X16482781Y-7256249D02*
X16466502Y-7239544D01*
X16483202Y-7373651D02*
X16504530Y-7352867D01*
X16487739Y-10771192D02*
X16554536Y-10702123D01*
X16496913Y-7271289D02*
X16482781Y-7256249D01*
X16504530Y-7352867D02*
X16520287Y-7337312D01*
X16508847Y-7284604D02*
X16496913Y-7271289D01*
X16509736Y-9702430D02*
X16432148Y-9671394D01*
X16518535Y-7296130D02*
X16508847Y-7284604D01*
X16519997Y-9584360D02*
X16606756Y-9610013D01*
X16520287Y-7337312D02*
X16530154Y-7327293D01*
X16522100Y-7552477D02*
X16479350Y-7585375D01*
X16524451Y-8718884D02*
X16466339Y-8727486D01*
X16525925Y-7305806D02*
X16518535Y-7296130D01*
X16530154Y-7327293D02*
X16533810Y-7323114D01*
X16530967Y-7313571D02*
X16525925Y-7305806D01*
X16533612Y-7319360D02*
X16530967Y-7313571D01*
X16533810Y-7323114D02*
X16533612Y-7319360D01*
X16554536Y-10702123D02*
X16619960Y-10628416D01*
X16559549Y-7523832D02*
X16522100Y-7552477D01*
X16579454Y-8710761D02*
X16524451Y-8718884D01*
X16583695Y-9732085D02*
X16509736Y-9702430D01*
X16591319Y-7499732D02*
X16559549Y-7523832D01*
X16606756Y-9610013D02*
X16685871Y-9633301D01*
X16609001Y-8592727D02*
X16674709Y-8577162D01*
X16617033Y-7480470D02*
X16591319Y-7499732D01*
X16619960Y-10628416D02*
X16683350Y-10550979D01*
X16631428Y-8703105D02*
X16579454Y-8710761D01*
X16636314Y-7466336D02*
X16617033Y-7480470D01*
X16648784Y-7457624D02*
X16636314Y-7466336D01*
X16653588Y-9760180D02*
X16583695Y-9732085D01*
X16654067Y-7454626D02*
X16648784Y-7457624D01*
X16663783Y-7458104D02*
X16654067Y-7454626D01*
X16674709Y-8577162D02*
X16738253Y-8562122D01*
X16676831Y-7468589D02*
X16663783Y-7458104D01*
X16680453Y-8695906D02*
X16631428Y-8703105D01*
X16683350Y-10550979D02*
X16744045Y-10470723D01*
X16685871Y-9633301D02*
X16757484Y-9654267D01*
X16692849Y-7485494D02*
X16676831Y-7468589D01*
X16711470Y-7508229D02*
X16692849Y-7485494D01*
X16718980Y-9786540D02*
X16653588Y-9760180D01*
X16726609Y-8689152D02*
X16680453Y-8695906D01*
X16732331Y-7536207D02*
X16711470Y-7508229D01*
X16738253Y-8562122D02*
X16799253Y-8547698D01*
X16744045Y-10470723D02*
X16801385Y-10388556D01*
X16755068Y-7568840D02*
X16732331Y-7536207D01*
X16757484Y-9654267D02*
X16821739Y-9672952D01*
X16769975Y-8682834D02*
X16726609Y-8689152D01*
X16779316Y-7605539D02*
X16755068Y-7568840D01*
X16779433Y-9810988D02*
X16718980Y-9786540D01*
X16799253Y-8547698D02*
X16857328Y-8533980D01*
X16801385Y-10388556D02*
X16854707Y-10305389D01*
X16804710Y-7645716D02*
X16779316Y-7605539D01*
X16810631Y-8676940D02*
X16769975Y-8682834D01*
X16821739Y-9672952D02*
X16878780Y-9689396D01*
X16834513Y-9833346D02*
X16779433Y-9810988D01*
X16848657Y-8671459D02*
X16810631Y-8676940D01*
X16854707Y-10305389D02*
X16903352Y-10222132D01*
X16857328Y-8533980D02*
X16912099Y-8521060D01*
X16857481Y-7734153D02*
X16804710Y-7645716D01*
X16878780Y-9689396D02*
X16928750Y-9703641D01*
X16883781Y-9853439D02*
X16834513Y-9833346D01*
X16884132Y-8666380D02*
X16848657Y-8671459D01*
X16903352Y-10222132D02*
X16946658Y-10139692D01*
X16910466Y-7829445D02*
X16857481Y-7734153D01*
X16912099Y-8521060D02*
X16963184Y-8509027D01*
X16926803Y-9871089D02*
X16883781Y-9853439D01*
X16928750Y-9703641D02*
X16971793Y-9715729D01*
X16946658Y-10139692D02*
X16971473Y-10088840D01*
X16947749Y-8657387D02*
X16884132Y-8666380D01*
X16960750Y-7926887D02*
X16910466Y-7829445D01*
X16963142Y-9886120D02*
X16926803Y-9871089D01*
X16963184Y-8509027D02*
X17010203Y-8497972D01*
X16971473Y-10088840D02*
X16992016Y-10045227D01*
X16971793Y-9715729D02*
X17008051Y-9725699D01*
X16992016Y-10045227D02*
X17008419Y-10008513D01*
X16992361Y-9898355D02*
X16963142Y-9886120D01*
X17002121Y-8649873D02*
X16947749Y-8657387D01*
X17005418Y-8021774D02*
X16960750Y-7926887D01*
X17008051Y-9725699D02*
X17037669Y-9733593D01*
X17008419Y-10008513D02*
X17020813Y-9978357D01*
X17010203Y-8497972D02*
X17052776Y-8487986D01*
X17014025Y-9907616D02*
X16992361Y-9898355D01*
X17020813Y-9978357D02*
X17029331Y-9954420D01*
X17027696Y-9913728D02*
X17014025Y-9907616D01*
X17029331Y-9954420D02*
X17034104Y-9936361D01*
X17032939Y-9916514D02*
X17027696Y-9913728D01*
X17034104Y-9936361D02*
X17035263Y-9923839D01*
X17035263Y-9923839D02*
X17032939Y-9916514D01*
X17037669Y-9733593D02*
X17060789Y-9739453D01*
X17047884Y-8643752D02*
X17002121Y-8649873D01*
X17052776Y-8487986D02*
X17072563Y-8483184D01*
X17060255Y-8157449D02*
X17005418Y-8021774D01*
X17060789Y-9739453D02*
X17077555Y-9743320D01*
X17072563Y-8483184D02*
X17089415Y-8478716D01*
X17077555Y-9743320D02*
X17088112Y-9745234D01*
X17085676Y-8638937D02*
X17047884Y-8643752D01*
X17088112Y-9745234D02*
X17092601Y-9745237D01*
X17089415Y-8478716D02*
X17103510Y-8474515D01*
X17092601Y-9745237D02*
X17097578Y-9739246D01*
X17097578Y-9739246D02*
X17103469Y-9727276D01*
X17103469Y-9727276D02*
X17110126Y-9709954D01*
X17103510Y-8474515D02*
X17115028Y-8470512D01*
X17106041Y-8291986D02*
X17060255Y-8157449D01*
X17110126Y-9709954D02*
X17117404Y-9687906D01*
X17115028Y-8470512D02*
X17131042Y-8462829D01*
X17115148Y-8322439D02*
X17106041Y-8291986D01*
X17116135Y-8635341D02*
X17085676Y-8638937D01*
X17117404Y-9687906D02*
X17125159Y-9661758D01*
X17123073Y-8350818D02*
X17115148Y-8322439D01*
X17125159Y-9661758D02*
X17133243Y-9632136D01*
X17129692Y-8376723D02*
X17123073Y-8350818D01*
X17131042Y-8462829D02*
X17138884Y-8455121D01*
X17133243Y-9632136D02*
X17141512Y-9599666D01*
X17134882Y-8399753D02*
X17129692Y-8376723D01*
X17138520Y-8419509D02*
X17134882Y-8399753D01*
X17138884Y-8455121D02*
X17140644Y-8447593D01*
X17139899Y-8632877D02*
X17116135Y-8635341D01*
X17140481Y-8435589D02*
X17138520Y-8419509D01*
X17140644Y-8447593D02*
X17140481Y-8435589D01*
X17141512Y-9599666D02*
X17149820Y-9564975D01*
X17149820Y-9564975D02*
X17165969Y-9491434D01*
X17157606Y-8631458D02*
X17139899Y-8632877D01*
X17165969Y-9491434D02*
X17180525Y-9416521D01*
X17169892Y-8630998D02*
X17157606Y-8631458D01*
X17177395Y-8631410D02*
X17169892Y-8630998D01*
X17180525Y-9416521D02*
X17192324Y-9345247D01*
X17180754Y-8632606D02*
X17177395Y-8631410D01*
X17185517Y-8642220D02*
X17180754Y-8632606D01*
X17189933Y-8660199D02*
X17185517Y-8642220D01*
X17192324Y-9345247D02*
X17200200Y-9282621D01*
X17193976Y-8685637D02*
X17189933Y-8660199D01*
X17197618Y-8717629D02*
X17193976Y-8685637D01*
X17200200Y-9282621D02*
X17203481Y-9242715D01*
X17200832Y-8755266D02*
X17197618Y-8717629D01*
X17203481Y-9242715D02*
X17206036Y-9198482D01*
X17203591Y-8797643D02*
X17200832Y-8755266D01*
X17205869Y-8843853D02*
X17203591Y-8797643D01*
X17206036Y-9198482D02*
X17207892Y-9150828D01*
X17207637Y-8892989D02*
X17205869Y-8843853D01*
X17207892Y-9150828D02*
X17209077Y-9100661D01*
X17209077Y-9100661D02*
X17209538Y-8996413D01*
X17209538Y-8996413D02*
X17207637Y-8892989D01*
D11*
X12465315Y-11832934D02*
X12465315Y-11632934D01*
X12465315Y-11632934D02*
X12512934Y-11632934D01*
X12512934Y-11632934D02*
X12541505Y-11642458D01*
X12541505Y-11642458D02*
X12560553Y-11661505D01*
X12560553Y-11661505D02*
X12570077Y-11680553D01*
X12570077Y-11680553D02*
X12579600Y-11718648D01*
X12579600Y-11718648D02*
X12579600Y-11747219D01*
X12579600Y-11747219D02*
X12570077Y-11785315D01*
X12570077Y-11785315D02*
X12560553Y-11804362D01*
X12560553Y-11804362D02*
X12541505Y-11823410D01*
X12541505Y-11823410D02*
X12512934Y-11832934D01*
X12512934Y-11832934D02*
X12465315Y-11832934D01*
X12665315Y-11832934D02*
X12665315Y-11699600D01*
X12665315Y-11737696D02*
X12674838Y-11718648D01*
X12674838Y-11718648D02*
X12684362Y-11709124D01*
X12684362Y-11709124D02*
X12703410Y-11699600D01*
X12703410Y-11699600D02*
X12722458Y-11699600D01*
X12789124Y-11832934D02*
X12789124Y-11699600D01*
X12789124Y-11632934D02*
X12779600Y-11642458D01*
X12779600Y-11642458D02*
X12789124Y-11651981D01*
X12789124Y-11651981D02*
X12798648Y-11642458D01*
X12798648Y-11642458D02*
X12789124Y-11632934D01*
X12789124Y-11632934D02*
X12789124Y-11651981D01*
X12912934Y-11832934D02*
X12893886Y-11823410D01*
X12893886Y-11823410D02*
X12884362Y-11804362D01*
X12884362Y-11804362D02*
X12884362Y-11632934D01*
X13017696Y-11832934D02*
X12998648Y-11823410D01*
X12998648Y-11823410D02*
X12989124Y-11804362D01*
X12989124Y-11804362D02*
X12989124Y-11632934D01*
X13246267Y-11832934D02*
X13246267Y-11632934D01*
X13246267Y-11632934D02*
X13312934Y-11775791D01*
X13312934Y-11775791D02*
X13379600Y-11632934D01*
X13379600Y-11632934D02*
X13379600Y-11832934D01*
X13560553Y-11832934D02*
X13560553Y-11728172D01*
X13560553Y-11728172D02*
X13551029Y-11709124D01*
X13551029Y-11709124D02*
X13531981Y-11699600D01*
X13531981Y-11699600D02*
X13493886Y-11699600D01*
X13493886Y-11699600D02*
X13474838Y-11709124D01*
X13560553Y-11823410D02*
X13541505Y-11832934D01*
X13541505Y-11832934D02*
X13493886Y-11832934D01*
X13493886Y-11832934D02*
X13474838Y-11823410D01*
X13474838Y-11823410D02*
X13465315Y-11804362D01*
X13465315Y-11804362D02*
X13465315Y-11785315D01*
X13465315Y-11785315D02*
X13474838Y-11766267D01*
X13474838Y-11766267D02*
X13493886Y-11756743D01*
X13493886Y-11756743D02*
X13541505Y-11756743D01*
X13541505Y-11756743D02*
X13560553Y-11747219D01*
X13655791Y-11699600D02*
X13655791Y-11899600D01*
X13655791Y-11709124D02*
X13674838Y-11699600D01*
X13674838Y-11699600D02*
X13712934Y-11699600D01*
X13712934Y-11699600D02*
X13731981Y-11709124D01*
X13731981Y-11709124D02*
X13741505Y-11718648D01*
X13741505Y-11718648D02*
X13751029Y-11737696D01*
X13751029Y-11737696D02*
X13751029Y-11794838D01*
X13751029Y-11794838D02*
X13741505Y-11813886D01*
X13741505Y-11813886D02*
X13731981Y-11823410D01*
X13731981Y-11823410D02*
X13712934Y-11832934D01*
X13712934Y-11832934D02*
X13674838Y-11832934D01*
X13674838Y-11832934D02*
X13655791Y-11823410D01*
X13836743Y-11813886D02*
X13846267Y-11823410D01*
X13846267Y-11823410D02*
X13836743Y-11832934D01*
X13836743Y-11832934D02*
X13827219Y-11823410D01*
X13827219Y-11823410D02*
X13836743Y-11813886D01*
X13836743Y-11813886D02*
X13836743Y-11832934D01*
X13836743Y-11709124D02*
X13846267Y-11718648D01*
X13846267Y-11718648D02*
X13836743Y-11728172D01*
X13836743Y-11728172D02*
X13827219Y-11718648D01*
X13827219Y-11718648D02*
X13836743Y-11709124D01*
X13836743Y-11709124D02*
X13836743Y-11728172D01*
M02*
