  0
SECTION
  2
HEADER
  9
$ACADVER
  1
AC1009
  0
ENDSEC
  0
SECTION
  2
ENTITIES
  0
POLYLINE
  5
90
  8
Layer_0
  62
0
  66
1
  10
0
  20
0
  30
0
  0
VERTEX
  5
90
  8
Layer_0
  10
205.24634
  20
181.06294
  42
0.21048274
  0
VERTEX
  5
91
  8
Layer_0
  10
205.13441
  20
181.00815
  0
VERTEX
  5
92
  8
Layer_0
  10
205.11557
  20
180.98857
  0
VERTEX
  5
93
  8
Layer_0
  10
205.10846
  20
181.005
  0
VERTEX
  5
94
  8
Layer_0
  10
205.06856
  20
181.02943
  0
VERTEX
  5
95
  8
Layer_0
  10
204.97428
  20
181.03389
  0
VERTEX
  5
96
  8
Layer_0
  10
204.86225
  20
181.02003
  0
VERTEX
  5
97
  8
Layer_0
  10
204.76911
  20
180.98953
  42
-0.12346646
  0
VERTEX
  5
98
  8
Layer_0
  10
204.64043
  20
180.95108
  0
VERTEX
  5
99
  8
Layer_0
  10
204.28243
  20
180.82063
  0
VERTEX
  5
9a
  8
Layer_0
  10
204.00067
  20
180.6549
  42
-0.25993368
  0
VERTEX
  5
9b
  8
Layer_0
  10
203.96072
  20
180.58444
  42
-0.79140669
  0
VERTEX
  5
9c
  8
Layer_0
  10
203.94775
  20
180.60342
  0
VERTEX
  5
9d
  8
Layer_0
  10
203.95497
  20
180.62662
  0
VERTEX
  5
9e
  8
Layer_0
  10
203.93599
  20
180.6328
  0
VERTEX
  5
9f
  8
Layer_0
  10
203.88789
  20
180.62069
  0
VERTEX
  5
a0
  8
Layer_0
  10
203.80776
  20
180.58904
  0
VERTEX
  5
a1
  8
Layer_0
  10
203.69267
  20
180.53658
  0
VERTEX
  5
a2
  8
Layer_0
  10
203.53972
  20
180.46207
  0
VERTEX
  5
a3
  8
Layer_0
  10
203.34598
  20
180.36424
  0
VERTEX
  5
a4
  8
Layer_0
  10
203.10854
  20
180.24185
  0
VERTEX
  5
a5
  8
Layer_0
  10
202.94376
  20
180.15396
  0
VERTEX
  5
a6
  8
Layer_0
  10
202.80925
  20
180.07777
  0
VERTEX
  5
a7
  8
Layer_0
  10
202.71888
  20
180.02142
  0
VERTEX
  5
a8
  8
Layer_0
  10
202.68649
  20
179.99307
  42
-0.3849622
  0
VERTEX
  5
a9
  8
Layer_0
  10
202.63571
  20
179.95374
  42
-0.47570534
  0
VERTEX
  5
aa
  8
Layer_0
  10
202.58199
  20
179.97968
  0
VERTEX
  5
ab
  8
Layer_0
  10
202.57266
  20
180.00955
  0
VERTEX
  5
ac
  8
Layer_0
  10
202.5453
  20
180.01322
  0
VERTEX
  5
ad
  8
Layer_0
  10
202.50084
  20
179.99095
  0
VERTEX
  5
ae
  8
Layer_0
  10
202.44022
  20
179.94295
  0
VERTEX
  5
af
  8
Layer_0
  10
202.17623
  20
179.78615
  0
VERTEX
  5
b0
  8
Layer_0
  10
201.92614
  20
179.69492
  42
0.17851961
  0
VERTEX
  5
b1
  8
Layer_0
  10
201.82565
  20
179.65744
  0
VERTEX
  5
b2
  8
Layer_0
  10
201.71989
  20
179.59915
  0
VERTEX
  5
b3
  8
Layer_0
  10
201.53154
  20
179.51314
  0
VERTEX
  5
b4
  8
Layer_0
  10
201.41648
  20
179.46061
  0
VERTEX
  5
b5
  8
Layer_0
  10
201.34182
  20
179.41791
  0
VERTEX
  5
b6
  8
Layer_0
  10
201.30277
  20
179.38174
  0
VERTEX
  5
b7
  8
Layer_0
  10
201.29457
  20
179.34878
  0
VERTEX
  5
b8
  8
Layer_0
  10
201.2786
  20
179.30247
  0
VERTEX
  5
b9
  8
Layer_0
  10
201.19077
  20
179.28995
  42
0.1462339
  0
VERTEX
  5
ba
  8
Layer_0
  10
200.97514
  20
179.22272
  0
VERTEX
  5
bb
  8
Layer_0
  10
200.8951
  20
179.1805
  0
VERTEX
  5
bc
  8
Layer_0
  10
200.84539
  20
179.17308
  42
0.58738545
  0
VERTEX
  5
bd
  8
Layer_0
  10
200.81728
  20
179.15669
  42
0.32204438
  0
VERTEX
  5
be
  8
Layer_0
  10
200.86053
  20
179.10838
  0
VERTEX
  5
bf
  8
Layer_0
  10
200.86058
  20
179.09711
  0
VERTEX
  5
c0
  8
Layer_0
  10
200.79998
  20
179.09043
  0
VERTEX
  5
c1
  8
Layer_0
  10
200.5785
  20
179.03621
  0
VERTEX
  5
c2
  8
Layer_0
  10
200.41968
  20
178.94468
  0
VERTEX
  5
c3
  8
Layer_0
  10
200.39265
  20
178.91676
  0
VERTEX
  5
c4
  8
Layer_0
  10
200.3664
  20
178.91062
  0
VERTEX
  5
c5
  8
Layer_0
  10
200.35017
  20
178.92457
  0
VERTEX
  5
c6
  8
Layer_0
  10
200.35319
  20
178.95691
  0
VERTEX
  5
c7
  8
Layer_0
  10
200.34657
  20
178.99629
  0
VERTEX
  5
c8
  8
Layer_0
  10
200.3002
  20
179.02288
  0
VERTEX
  5
c9
  8
Layer_0
  10
200.24994
  20
179.0268
  0
VERTEX
  5
ca
  8
Layer_0
  10
200.22904
  20
179.01012
  42
0.41421357
  0
VERTEX
  5
cb
  8
Layer_0
  10
200.25787
  20
178.97876
  42
-0.41421356
  0
VERTEX
  5
cc
  8
Layer_0
  10
200.28671
  20
178.92946
  0
VERTEX
  5
cd
  8
Layer_0
  10
200.0587
  20
178.78061
  0
VERTEX
  5
ce
  8
Layer_0
  10
199.75907
  20
178.66734
  0
VERTEX
  5
cf
  8
Layer_0
  10
199.62057
  20
178.62368
  0
VERTEX
  5
d0
  8
Layer_0
  10
199.5603
  20
178.55383
  0
VERTEX
  5
d1
  8
Layer_0
  10
199.54477
  20
178.53338
  0
VERTEX
  5
d2
  8
Layer_0
  10
199.46623
  20
178.53654
  42
0.25987565
  0
VERTEX
  5
d3
  8
Layer_0
  10
199.26793
  20
178.45468
  42
-0.22133807
  0
VERTEX
  5
d4
  8
Layer_0
  10
199.10139
  20
178.35593
  42
0.19891237
  0
VERTEX
  5
d5
  8
Layer_0
  10
198.94876
  20
178.28671
  0
VERTEX
  5
d6
  8
Layer_0
  10
198.89989
  20
178.2445
  0
VERTEX
  5
d7
  8
Layer_0
  10
198.87956
  20
178.24018
  0
VERTEX
  5
d8
  8
Layer_0
  10
198.86177
  20
178.24068
  0
VERTEX
  5
d9
  8
Layer_0
  10
198.81901
  20
178.21006
  0
VERTEX
  5
da
  8
Layer_0
  10
198.57869
  20
178.05974
  0
VERTEX
  5
db
  8
Layer_0
  10
198.36102
  20
177.9753
  42
0.25780294
  0
VERTEX
  5
dc
  8
Layer_0
  10
198.26709
  20
177.93132
  42
-0.14991996
  0
VERTEX
  5
dd
  8
Layer_0
  10
198.14182
  20
177.84444
  0
VERTEX
  5
de
  8
Layer_0
  10
198.08884
  20
177.82268
  0
VERTEX
  5
df
  8
Layer_0
  10
198.06232
  20
177.81855
  0
VERTEX
  5
e0
  8
Layer_0
  10
198.05667
  20
177.83404
  0
VERTEX
  5
e1
  8
Layer_0
  10
198.06629
  20
177.87112
  0
VERTEX
  5
e2
  8
Layer_0
  10
198.07152
  20
177.92158
  0
VERTEX
  5
e3
  8
Layer_0
  10
198.04911
  20
177.9407
  0
VERTEX
  5
e4
  8
Layer_0
  10
198.02671
  20
177.95975
  0
VERTEX
  5
e5
  8
Layer_0
  10
198.03181
  20
178.0099
  0
VERTEX
  5
e6
  8
Layer_0
  10
198.03787
  20
178.05748
  0
VERTEX
  5
e7
  8
Layer_0
  10
198.02128
  20
178.0769
  0
VERTEX
  5
e8
  8
Layer_0
  10
197.98819
  20
178.06698
  0
VERTEX
  5
e9
  8
Layer_0
  10
197.94476
  20
178.02655
  42
0.37304205
  0
VERTEX
  5
ea
  8
Layer_0
  10
197.96254
  20
177.90616
  0
VERTEX
  5
eb
  8
Layer_0
  10
197.99558
  20
177.86768
  0
VERTEX
  5
ec
  8
Layer_0
  10
198.00616
  20
177.84497
  0
VERTEX
  5
ed
  8
Layer_0
  10
197.99396
  20
177.83076
  0
VERTEX
  5
ee
  8
Layer_0
  10
197.95866
  20
177.81779
  42
0.047091931
  0
VERTEX
  5
ef
  8
Layer_0
  10
197.83069
  20
177.76352
  42
-0.19402893
  0
VERTEX
  5
f0
  8
Layer_0
  10
197.69228
  20
177.75101
  42
-0.085069329
  0
VERTEX
  5
f1
  8
Layer_0
  10
197.65813
  20
177.74301
  0
VERTEX
  5
f2
  8
Layer_0
  10
197.66576
  20
177.72532
  0
VERTEX
  5
f3
  8
Layer_0
  10
197.64677
  20
177.70154
  0
VERTEX
  5
f4
  8
Layer_0
  10
197.60102
  20
177.67154
  0
VERTEX
  5
f5
  8
Layer_0
  10
197.52837
  20
177.63522
  0
VERTEX
  5
f6
  8
Layer_0
  10
197.40739
  20
177.57006
  0
VERTEX
  5
f7
  8
Layer_0
  10
197.35707
  20
177.52375
  42
-0.41421356
  0
VERTEX
  5
f8
  8
Layer_0
  10
197.31604
  20
177.49088
  0
VERTEX
  5
f9
  8
Layer_0
  10
197.26451
  20
177.46967
  0
VERTEX
  5
fa
  8
Layer_0
  10
197.1982
  20
177.4187
  42
-0.32186702
  0
VERTEX
  5
fb
  8
Layer_0
  10
197.05629
  20
177.38136
  0
VERTEX
  5
fc
  8
Layer_0
  10
196.98906
  20
177.39057
  0
VERTEX
  5
fd
  8
Layer_0
  10
196.91528
  20
177.32086
  42
-0.25185499
  0
VERTEX
  5
fe
  8
Layer_0
  10
196.76085
  20
177.23248
  42
0.20343955
  0
VERTEX
  5
ff
  8
Layer_0
  10
196.6261
  20
177.1907
  42
-0.22762269
  0
VERTEX
  5
100
  8
Layer_0
  10
196.5396
  20
177.14751
  0
VERTEX
  5
101
  8
Layer_0
  10
196.45228
  20
177.14188
  0
VERTEX
  5
102
  8
Layer_0
  10
196.42281
  20
177.08323
  0
VERTEX
  5
103
  8
Layer_0
  10
196.39409
  20
177.02782
  0
VERTEX
  5
104
  8
Layer_0
  10
196.31901
  20
176.98243
  0
VERTEX
  5
105
  8
Layer_0
  10
196.24569
  20
176.96404
  0
VERTEX
  5
106
  8
Layer_0
  10
196.2152
  20
176.97484
  42
0.41421356
  0
VERTEX
  5
107
  8
Layer_0
  10
196.15959
  20
177.00644
  42
0.52607865
  0
VERTEX
  5
108
  8
Layer_0
  10
196.12195
  20
176.95963
  0
VERTEX
  5
109
  8
Layer_0
  10
196.11818
  20
176.91033
  0
VERTEX
  5
10a
  8
Layer_0
  10
196.07156
  20
176.85761
  0
VERTEX
  5
10b
  8
Layer_0
  10
195.98349
  20
176.8026
  0
VERTEX
  5
10c
  8
Layer_0
  10
195.85538
  20
176.74642
  0
VERTEX
  5
10d
  8
Layer_0
  10
195.7282
  20
176.68522
  0
VERTEX
  5
10e
  8
Layer_0
  10
195.6511
  20
176.62539
  0
VERTEX
  5
10f
  8
Layer_0
  10
195.59606
  20
176.57524
  0
VERTEX
  5
110
  8
Layer_0
  10
195.52705
  20
176.53951
  0
VERTEX
  5
111
  8
Layer_0
  10
195.47536
  20
176.52993
  0
VERTEX
  5
112
  8
Layer_0
  10
195.47227
  20
176.55825
  42
0.79143068
  0
VERTEX
  5
113
  8
Layer_0
  10
195.45874
  20
176.57687
  42
0.41419959
  0
VERTEX
  5
114
  8
Layer_0
  10
195.44177
  20
176.51373
  0
VERTEX
  5
115
  8
Layer_0
  10
195.44496
  20
176.49115
  0
VERTEX
  5
116
  8
Layer_0
  10
195.41194
  20
176.49613
  42
0.29617347
  0
VERTEX
  5
117
  8
Layer_0
  10
195.31976
  20
176.47778
  0
VERTEX
  5
118
  8
Layer_0
  10
195.28959
  20
176.45752
  0
VERTEX
  5
119
  8
Layer_0
  10
195.28094
  20
176.4834
  0
VERTEX
  5
11a
  8
Layer_0
  10
195.24491
  20
176.48779
  0
VERTEX
  5
11b
  8
Layer_0
  10
195.15119
  20
176.42809
  0
VERTEX
  5
11c
  8
Layer_0
  10
195.02056
  20
176.33179
  0
VERTEX
  5
11d
  8
Layer_0
  10
194.91609
  20
176.26394
  0
VERTEX
  5
11e
  8
Layer_0
  10
194.83649
  20
176.2238
  0
VERTEX
  5
11f
  8
Layer_0
  10
194.78043
  20
176.21059
  42
0.41421356
  0
VERTEX
  5
120
  8
Layer_0
  10
194.72731
  20
176.18155
  0
VERTEX
  5
121
  8
Layer_0
  10
194.64518
  20
176.11597
  0
VERTEX
  5
122
  8
Layer_0
  10
194.52672
  20
176.07328
  0
VERTEX
  5
123
  8
Layer_0
  10
194.52987
  20
176.09035
  0
VERTEX
  5
124
  8
Layer_0
  10
194.5716
  20
176.12984
  0
VERTEX
  5
125
  8
Layer_0
  10
194.606
  20
176.15835
  0
VERTEX
  5
126
  8
Layer_0
  10
194.61821
  20
176.17211
  0
VERTEX
  5
127
  8
Layer_0
  10
194.60856
  20
176.1731
  0
VERTEX
  5
128
  8
Layer_0
  10
194.57742
  20
176.16334
  42
-0.083559354
  0
VERTEX
  5
129
  8
Layer_0
  10
194.48335
  20
176.14139
  0
VERTEX
  5
12a
  8
Layer_0
  10
194.46753
  20
176.12614
  0
VERTEX
  5
12b
  8
Layer_0
  10
194.47258
  20
176.08949
  0
VERTEX
  5
12c
  8
Layer_0
  10
194.46764
  20
176.0493
  0
VERTEX
  5
12d
  8
Layer_0
  10
194.40229
  20
176.03758
  0
VERTEX
  5
12e
  8
Layer_0
  10
194.33858
  20
176.02851
  0
VERTEX
  5
12f
  8
Layer_0
  10
194.31209
  20
176.00668
  0
VERTEX
  5
130
  8
Layer_0
  10
194.29407
  20
175.96919
  0
VERTEX
  5
131
  8
Layer_0
  10
194.24957
  20
175.95605
  0
VERTEX
  5
132
  8
Layer_0
  10
194.19288
  20
175.96749
  0
VERTEX
  5
133
  8
Layer_0
  10
194.13829
  20
176.00377
  42
0.19891237
  0
VERTEX
  5
134
  8
Layer_0
  10
194.01797
  20
176.07219
  42
-0.41421356
  0
VERTEX
  5
135
  8
Layer_0
  10
193.96606
  20
176.12408
  42
0.41421356
  0
VERTEX
  5
136
  8
Layer_0
  10
193.91415
  20
176.17599
  42
0.85080841
  0
VERTEX
  5
137
  8
Layer_0
  10
193.90375
  20
176.09872
  0
VERTEX
  5
138
  8
Layer_0
  10
193.91282
  20
176.05578
  0
VERTEX
  5
139
  8
Layer_0
  10
193.86973
  20
175.97836
  0
VERTEX
  5
13a
  8
Layer_0
  10
193.79913
  20
175.9002
  0
VERTEX
  5
13b
  8
Layer_0
  10
193.72567
  20
175.85502
  0
VERTEX
  5
13c
  8
Layer_0
  10
193.67937
  20
175.85273
  0
VERTEX
  5
13d
  8
Layer_0
  10
193.66448
  20
175.87245
  42
0.37363689
  0
VERTEX
  5
13e
  8
Layer_0
  10
193.62387
  20
175.92529
  42
0.71121015
  0
VERTEX
  5
13f
  8
Layer_0
  10
193.59998
  20
175.90366
  42
-0.58738086
  0
VERTEX
  5
140
  8
Layer_0
  10
193.59036
  20
175.86458
  42
-0.32281457
  0
VERTEX
  5
141
  8
Layer_0
  10
193.54373
  20
175.90318
  0
VERTEX
  5
142
  8
Layer_0
  10
193.48039
  20
175.93903
  0
VERTEX
  5
143
  8
Layer_0
  10
193.34617
  20
175.97099
  0
VERTEX
  5
144
  8
Layer_0
  10
193.22284
  20
175.99397
  0
VERTEX
  5
145
  8
Layer_0
  10
193.15416
  20
176.01631
  0
VERTEX
  5
146
  8
Layer_0
  10
193.13588
  20
176.04029
  0
VERTEX
  5
147
  8
Layer_0
  10
193.16374
  20
176.06818
  42
0.36039828
  0
VERTEX
  5
148
  8
Layer_0
  10
193.18361
  20
176.15639
  0
VERTEX
  5
149
  8
Layer_0
  10
193.16986
  20
176.18314
  0
VERTEX
  5
14a
  8
Layer_0
  10
193.15579
  20
176.18547
  0
VERTEX
  5
14b
  8
Layer_0
  10
193.1382
  20
176.16115
  0
VERTEX
  5
14c
  8
Layer_0
  10
193.11388
  20
176.10793
  0
VERTEX
  5
14d
  8
Layer_0
  10
193.06969
  20
176.03483
  0
VERTEX
  5
14e
  8
Layer_0
  10
193.02876
  20
176.02217
  42
-0.55754416
  0
VERTEX
  5
14f
  8
Layer_0
  10
193.0318
  20
176.07217
  0
VERTEX
  5
150
  8
Layer_0
  10
193.01228
  20
176.10291
  0
VERTEX
  5
151
  8
Layer_0
  10
192.89333
  20
176.14141
  42
-0.1188503
  0
VERTEX
  5
152
  8
Layer_0
  10
192.60419
  20
176.27786
  42
0.084015888
  0
VERTEX
  5
153
  8
Layer_0
  10
192.37437
  20
176.41849
  0
VERTEX
  5
154
  8
Layer_0
  10
192.26525
  20
176.46786
  0
VERTEX
  5
155
  8
Layer_0
  10
192.17814
  20
176.52037
  0
VERTEX
  5
156
  8
Layer_0
  10
192.12022
  20
176.57091
  0
VERTEX
  5
157
  8
Layer_0
  10
192.09864
  20
176.61442
  0
VERTEX
  5
158
  8
Layer_0
  10
192.06738
  20
176.64972
  0
VERTEX
  5
159
  8
Layer_0
  10
191.99375
  20
176.67772
  0
VERTEX
  5
15a
  8
Layer_0
  10
191.92043
  20
176.70333
  0
VERTEX
  5
15b
  8
Layer_0
  10
191.88994
  20
176.73288
  0
VERTEX
  5
15c
  8
Layer_0
  10
191.77939
  20
176.8317
  0
VERTEX
  5
15d
  8
Layer_0
  10
191.64254
  20
176.88213
  0
VERTEX
  5
15e
  8
Layer_0
  10
191.59405
  20
176.95448
  0
VERTEX
  5
15f
  8
Layer_0
  10
191.60896
  20
177.10247
  0
VERTEX
  5
160
  8
Layer_0
  10
191.62806
  20
177.15184
  0
VERTEX
  5
161
  8
Layer_0
  10
191.62599
  20
177.1853
  0
VERTEX
  5
162
  8
Layer_0
  10
191.60417
  20
177.19999
  0
VERTEX
  5
163
  8
Layer_0
  10
191.56403
  20
177.19304
  0
VERTEX
  5
164
  8
Layer_0
  10
191.53751
  20
177.15303
  0
VERTEX
  5
165
  8
Layer_0
  10
191.53673
  20
177.07432
  0
VERTEX
  5
166
  8
Layer_0
  10
191.53699
  20
177.00012
  0
VERTEX
  5
167
  8
Layer_0
  10
191.51325
  20
176.97184
  42
-0.41421356
  0
VERTEX
  5
168
  8
Layer_0
  10
191.47472
  20
177.00644
  0
VERTEX
  5
169
  8
Layer_0
  10
191.45439
  20
177.03088
  0
VERTEX
  5
16a
  8
Layer_0
  10
191.40551
  20
177.04104
  0
VERTEX
  5
16b
  8
Layer_0
  10
191.35664
  20
177.05052
  0
VERTEX
  5
16c
  8
Layer_0
  10
191.33631
  20
177.07331
  42
0.32668364
  0
VERTEX
  5
16d
  8
Layer_0
  10
191.27576
  20
177.12483
  42
-0.11047606
  0
VERTEX
  5
16e
  8
Layer_0
  10
191.11252
  20
177.23935
  42
0.12724445
  0
VERTEX
  5
16f
  8
Layer_0
  10
190.37732
  20
177.61258
  42
0.11619978
  0
VERTEX
  5
170
  8
Layer_0
  10
190.05504
  20
177.6252
  0
VERTEX
  5
171
  8
Layer_0
  10
189.94642
  20
177.60791
  0
VERTEX
  5
172
  8
Layer_0
  10
189.88448
  20
177.61107
  0
VERTEX
  5
173
  8
Layer_0
  10
189.82076
  20
177.60939
  0
VERTEX
  5
174
  8
Layer_0
  10
189.71661
  20
177.56847
  0
VERTEX
  5
175
  8
Layer_0
  10
189.59631
  20
177.50013
  0
VERTEX
  5
176
  8
Layer_0
  10
189.48416
  20
177.4162
  42
0.17532349
  0
VERTEX
  5
177
  8
Layer_0
  10
189.17038
  20
176.84322
  0
VERTEX
  5
178
  8
Layer_0
  10
189.15207
  20
176.74689
  0
VERTEX
  5
179
  8
Layer_0
  10
189.137
  20
176.69912
  0
VERTEX
  5
17a
  8
Layer_0
  10
189.13879
  20
176.66958
  0
VERTEX
  5
17b
  8
Layer_0
  10
189.16105
  20
176.61709
  0
VERTEX
  5
17c
  8
Layer_0
  10
189.18084
  20
176.56901
  0
VERTEX
  5
17d
  8
Layer_0
  10
189.15782
  20
176.57302
  0
VERTEX
  5
17e
  8
Layer_0
  10
189.13463
  20
176.53927
  0
VERTEX
  5
17f
  8
Layer_0
  10
189.13017
  20
176.43279
  0
VERTEX
  5
180
  8
Layer_0
  10
189.1426
  20
176.30728
  0
VERTEX
  5
181
  8
Layer_0
  10
189.17008
  20
176.21642
  0
VERTEX
  5
182
  8
Layer_0
  10
189.1741
  20
176.19076
  0
VERTEX
  5
183
  8
Layer_0
  10
189.14681
  20
176.17549
  0
VERTEX
  5
184
  8
Layer_0
  10
189.08665
  20
176.17024
  0
VERTEX
  5
185
  8
Layer_0
  10
188.99202
  20
176.17464
  0
VERTEX
  5
186
  8
Layer_0
  10
188.93334
  20
176.17232
  0
VERTEX
  5
187
  8
Layer_0
  10
188.92054
  20
176.14933
  0
VERTEX
  5
188
  8
Layer_0
  10
188.95493
  20
176.10133
  0
VERTEX
  5
189
  8
Layer_0
  10
189.03784
  20
176.02395
  42
-0.20161433
  0
VERTEX
  5
18a
  8
Layer_0
  10
189.17383
  20
175.71016
  0
VERTEX
  5
18b
  8
Layer_0
  10
189.19601
  20
175.55107
  0
VERTEX
  5
18c
  8
Layer_0
  10
189.23406
  20
175.46795
  0
VERTEX
  5
18d
  8
Layer_0
  10
189.29198
  20
175.38415
  0
VERTEX
  5
18e
  8
Layer_0
  10
189.36395
  20
175.23308
  0
VERTEX
  5
18f
  8
Layer_0
  10
189.43514
  20
175.09257
  0
VERTEX
  5
190
  8
Layer_0
  10
189.49117
  20
175.03412
  42
-0.25868567
  0
VERTEX
  5
191
  8
Layer_0
  10
189.57964
  20
174.96492
  0
VERTEX
  5
192
  8
Layer_0
  10
189.62042
  20
174.91595
  0
VERTEX
  5
193
  8
Layer_0
  10
189.65778
  20
174.89541
  0
VERTEX
  5
194
  8
Layer_0
  10
189.9013
  20
174.71529
  0
VERTEX
  5
195
  8
Layer_0
  10
190.09928
  20
174.50956
  0
VERTEX
  5
196
  8
Layer_0
  10
190.13972
  20
174.48109
  0
VERTEX
  5
197
  8
Layer_0
  10
190.20318
  20
174.50644
  42
0.068234471
  0
VERTEX
  5
198
  8
Layer_0
  10
190.20735
  20
174.48967
  0
VERTEX
  5
199
  8
Layer_0
  10
190.26919
  20
174.40832
  0
VERTEX
  5
19a
  8
Layer_0
  10
190.3761
  20
174.36933
  42
-0.49758558
  0
VERTEX
  5
19b
  8
Layer_0
  10
190.40205
  20
174.3374
  0
VERTEX
  5
19c
  8
Layer_0
  10
190.41747
  20
174.29955
  0
VERTEX
  5
19d
  8
Layer_0
  10
190.46605
  20
174.24388
  0
VERTEX
  5
19e
  8
Layer_0
  10
190.5513
  20
174.16695
  0
VERTEX
  5
19f
  8
Layer_0
  10
190.67671
  20
174.06526
  42
-0.021223488
  0
VERTEX
  5
1a0
  8
Layer_0
  10
190.91664
  20
173.85765
  42
0.033241888
  0
VERTEX
  5
1a1
  8
Layer_0
  10
191.14381
  20
173.66734
  42
-0.010905111
  0
VERTEX
  5
1a2
  8
Layer_0
  10
191.332
  20
173.52745
  0
VERTEX
  5
1a3
  8
Layer_0
  10
191.45689
  20
173.43604
  0
VERTEX
  5
1a4
  8
Layer_0
  10
191.55952
  20
173.37389
  0
VERTEX
  5
1a5
  8
Layer_0
  10
191.64175
  20
173.34004
  0
VERTEX
  5
1a6
  8
Layer_0
  10
191.70543
  20
173.33352
  42
-0.097452382
  0
VERTEX
  5
1a7
  8
Layer_0
  10
191.93034
  20
173.30211
  42
0.013160635
  0
VERTEX
  5
1a8
  8
Layer_0
  10
192.11485
  20
173.25394
  0
VERTEX
  5
1a9
  8
Layer_0
  10
192.33113
  20
173.20022
  0
VERTEX
  5
1aa
  8
Layer_0
  10
192.57259
  20
173.13076
  0
VERTEX
  5
1ab
  8
Layer_0
  10
192.68271
  20
173.09623
  0
VERTEX
  5
1ac
  8
Layer_0
  10
192.77506
  20
173.06509
  0
VERTEX
  5
1ad
  8
Layer_0
  10
192.84162
  20
173.03979
  0
VERTEX
  5
1ae
  8
Layer_0
  10
192.87437
  20
173.02275
  42
0.18774777
  0
VERTEX
  5
1af
  8
Layer_0
  10
193.00284
  20
172.9926
  42
-0.094144363
  0
VERTEX
  5
1b0
  8
Layer_0
  10
193.27274
  20
172.9239
  0
VERTEX
  5
1b1
  8
Layer_0
  10
193.39584
  20
172.87967
  0
VERTEX
  5
1b2
  8
Layer_0
  10
193.44703
  20
172.86979
  0
VERTEX
  5
1b3
  8
Layer_0
  10
193.46832
  20
172.87132
  0
VERTEX
  5
1b4
  8
Layer_0
  10
193.52556
  20
172.86041
  0
VERTEX
  5
1b5
  8
Layer_0
  10
193.60879
  20
172.83991
  0
VERTEX
  5
1b6
  8
Layer_0
  10
193.70807
  20
172.81265
  0
VERTEX
  5
1b7
  8
Layer_0
  10
193.91493
  20
172.74924
  0
VERTEX
  5
1b8
  8
Layer_0
  10
194.06655
  20
172.69291
  42
0.10901336
  0
VERTEX
  5
1b9
  8
Layer_0
  10
194.80515
  20
172.54277
  0
VERTEX
  5
1ba
  8
Layer_0
  10
194.93348
  20
172.53139
  0
VERTEX
  5
1bb
  8
Layer_0
  10
194.96953
  20
172.49087
  42
0.39528281
  0
VERTEX
  5
1bc
  8
Layer_0
  10
195.03008
  20
172.43503
  0
VERTEX
  5
1bd
  8
Layer_0
  10
195.2287
  20
172.41158
  0
VERTEX
  5
1be
  8
Layer_0
  10
195.33057
  20
172.37165
  42
0.15687551
  0
VERTEX
  5
1bf
  8
Layer_0
  10
195.45746
  20
172.32939
  0
VERTEX
  5
1c0
  8
Layer_0
  10
195.49707
  20
172.33791
  0
VERTEX
  5
1c1
  8
Layer_0
  10
195.57836
  20
172.36461
  0
VERTEX
  5
1c2
  8
Layer_0
  10
195.69639
  20
172.40756
  0
VERTEX
  5
1c3
  8
Layer_0
  10
195.84621
  20
172.46483
  0
VERTEX
  5
1c4
  8
Layer_0
  10
196.22139
  20
172.61464
  0
VERTEX
  5
1c5
  8
Layer_0
  10
196.66431
  20
172.79865
  0
VERTEX
  5
1c6
  8
Layer_0
  10
197.02235
  20
172.9504
  0
VERTEX
  5
1c7
  8
Layer_0
  10
197.30692
  20
173.072
  0
VERTEX
  5
1c8
  8
Layer_0
  10
197.52277
  20
173.16562
  0
VERTEX
  5
1c9
  8
Layer_0
  10
197.67467
  20
173.23344
  0
VERTEX
  5
1ca
  8
Layer_0
  10
197.76735
  20
173.27764
  0
VERTEX
  5
1cb
  8
Layer_0
  10
197.80558
  20
173.30039
  0
VERTEX
  5
1cc
  8
Layer_0
  10
197.79411
  20
173.30387
  0
VERTEX
  5
1cd
  8
Layer_0
  10
197.73769
  20
173.29025
  42
-0.017164369
  0
VERTEX
  5
1ce
  8
Layer_0
  10
197.58199
  20
173.25211
  42
0.00324499
  0
VERTEX
  5
1cf
  8
Layer_0
  10
197.18608
  20
173.16667
  0
VERTEX
  5
1d0
  8
Layer_0
  10
196.91664
  20
173.12099
  0
VERTEX
  5
1d1
  8
Layer_0
  10
196.7276
  20
173.11127
  0
VERTEX
  5
1d2
  8
Layer_0
  10
196.63453
  20
173.11389
  0
VERTEX
  5
1d3
  8
Layer_0
  10
196.59582
  20
173.09787
  0
VERTEX
  5
1d4
  8
Layer_0
  10
196.49217
  20
173.03313
  0
VERTEX
  5
1d5
  8
Layer_0
  10
196.37298
  20
173.02385
  42
-0.18531156
  0
VERTEX
  5
1d6
  8
Layer_0
  10
196.37289
  20
173.14288
  0
VERTEX
  5
1d7
  8
Layer_0
  10
196.3734
  20
173.21501
  0
VERTEX
  5
1d8
  8
Layer_0
  10
196.33122
  20
173.23481
  0
VERTEX
  5
1d9
  8
Layer_0
  10
196.29681
  20
173.24161
  0
VERTEX
  5
1da
  8
Layer_0
  10
196.29601
  20
173.25796
  0
VERTEX
  5
1db
  8
Layer_0
  10
196.29563
  20
173.29279
  0
VERTEX
  5
1dc
  8
Layer_0
  10
196.26221
  20
173.34403
  42
-0.17738326
  0
VERTEX
  5
1dd
  8
Layer_0
  10
196.20149
  20
173.51985
  42
0.14127957
  0
VERTEX
  5
1de
  8
Layer_0
  10
196.13086
  20
173.73157
  0
VERTEX
  5
1df
  8
Layer_0
  10
196.06401
  20
173.83041
  0
VERTEX
  5
1e0
  8
Layer_0
  10
196.14729
  20
173.89323
  0
VERTEX
  5
1e1
  8
Layer_0
  10
196.21408
  20
173.93266
  0
VERTEX
  5
1e2
  8
Layer_0
  10
196.25773
  20
173.93926
  0
VERTEX
  5
1e3
  8
Layer_0
  10
196.28301
  20
173.94329
  0
VERTEX
  5
1e4
  8
Layer_0
  10
196.30565
  20
173.97657
  42
-0.31054008
  0
VERTEX
  5
1e5
  8
Layer_0
  10
196.35934
  20
174.03067
  42
-0.58738292
  0
VERTEX
  5
1e6
  8
Layer_0
  10
196.37091
  20
173.99606
  42
0.58738292
  0
VERTEX
  5
1e7
  8
Layer_0
  10
196.38588
  20
173.96146
  0
VERTEX
  5
1e8
  8
Layer_0
  10
196.42424
  20
173.98179
  0
VERTEX
  5
1e9
  8
Layer_0
  10
196.46544
  20
174.03066
  42
-0.25868899
  0
VERTEX
  5
1ea
  8
Layer_0
  10
196.54977
  20
174.09987
  42
0.18797996
  0
VERTEX
  5
1eb
  8
Layer_0
  10
196.63794
  20
174.14311
  0
VERTEX
  5
1ec
  8
Layer_0
  10
196.77409
  20
174.23541
  0
VERTEX
  5
1ed
  8
Layer_0
  10
196.87333
  20
174.25515
  42
0.26735584
  0
VERTEX
  5
1ee
  8
Layer_0
  10
196.97437
  20
174.27176
  0
VERTEX
  5
1ef
  8
Layer_0
  10
197.0243
  20
174.29151
  0
VERTEX
  5
1f0
  8
Layer_0
  10
197.10339
  20
174.28761
  0
VERTEX
  5
1f1
  8
Layer_0
  10
197.17071
  20
174.27397
  0
VERTEX
  5
1f2
  8
Layer_0
  10
197.26553
  20
174.25102
  0
VERTEX
  5
1f3
  8
Layer_0
  10
197.39461
  20
174.21764
  0
VERTEX
  5
1f4
  8
Layer_0
  10
197.56468
  20
174.17269
  0
VERTEX
  5
1f5
  8
Layer_0
  10
197.82103
  20
174.10317
  0
VERTEX
  5
1f6
  8
Layer_0
  10
197.99247
  20
174.05273
  0
VERTEX
  5
1f7
  8
Layer_0
  10
198.08843
  20
174.01836
  0
VERTEX
  5
1f8
  8
Layer_0
  10
198.11831
  20
173.99709
  0
VERTEX
  5
1f9
  8
Layer_0
  10
198.1691
  20
173.97811
  0
VERTEX
  5
1fa
  8
Layer_0
  10
198.28976
  20
173.98488
  0
VERTEX
  5
1fb
  8
Layer_0
  10
198.43272
  20
174.01138
  0
VERTEX
  5
1fc
  8
Layer_0
  10
198.55044
  20
174.05162
  0
VERTEX
  5
1fd
  8
Layer_0
  10
198.62756
  20
174.09705
  0
VERTEX
  5
1fe
  8
Layer_0
  10
198.68624
  20
174.15422
  0
VERTEX
  5
1ff
  8
Layer_0
  10
198.74237
  20
174.24338
  0
VERTEX
  5
200
  8
Layer_0
  10
198.81184
  20
174.38476
  0
VERTEX
  5
201
  8
Layer_0
  10
198.84893
  20
174.44834
  0
VERTEX
  5
202
  8
Layer_0
  10
198.90104
  20
174.48745
  0
VERTEX
  5
203
  8
Layer_0
  10
198.99035
  20
174.51211
  0
VERTEX
  5
204
  8
Layer_0
  10
199.13908
  20
174.53231
  0
VERTEX
  5
205
  8
Layer_0
  10
199.3572
  20
174.55973
  0
VERTEX
  5
206
  8
Layer_0
  10
199.49487
  20
174.58517
  0
VERTEX
  5
207
  8
Layer_0
  10
199.57908
  20
174.61541
  0
VERTEX
  5
208
  8
Layer_0
  10
199.63682
  20
174.65722
  0
VERTEX
  5
209
  8
Layer_0
  10
199.67858
  20
174.69145
  0
VERTEX
  5
20a
  8
Layer_0
  10
199.70465
  20
174.70091
  0
VERTEX
  5
20b
  8
Layer_0
  10
199.71613
  20
174.68544
  0
VERTEX
  5
20c
  8
Layer_0
  10
199.71411
  20
174.64485
  42
0.46081543
  0
VERTEX
  5
20d
  8
Layer_0
  10
199.74832
  20
174.6189
  0
VERTEX
  5
20e
  8
Layer_0
  10
199.76952
  20
174.63414
  0
VERTEX
  5
20f
  8
Layer_0
  10
199.7667
  20
174.6708
  0
VERTEX
  5
210
  8
Layer_0
  10
199.76139
  20
174.70746
  0
VERTEX
  5
211
  8
Layer_0
  10
199.7766
  20
174.7227
  42
0.31051403
  0
VERTEX
  5
212
  8
Layer_0
  10
199.82703
  20
174.7764
  0
VERTEX
  5
213
  8
Layer_0
  10
199.83318
  20
174.80914
  0
VERTEX
  5
214
  8
Layer_0
  10
199.81904
  20
174.81244
  0
VERTEX
  5
215
  8
Layer_0
  10
199.80122
  20
174.83766
  0
VERTEX
  5
216
  8
Layer_0
  10
199.79853
  20
174.9231
  0
VERTEX
  5
217
  8
Layer_0
  10
199.80581
  20
175.02921
  0
VERTEX
  5
218
  8
Layer_0
  10
199.81297
  20
175.08246
  0
VERTEX
  5
219
  8
Layer_0
  10
199.82395
  20
175.09766
  0
VERTEX
  5
21a
  8
Layer_0
  10
199.84265
  20
175.08959
  0
VERTEX
  5
21b
  8
Layer_0
  10
199.87099
  20
175.08562
  0
VERTEX
  5
21c
  8
Layer_0
  10
199.86666
  20
175.12059
  0
VERTEX
  5
21d
  8
Layer_0
  10
199.83588
  20
175.17809
  0
VERTEX
  5
21e
  8
Layer_0
  10
199.78487
  20
175.24173
  0
VERTEX
  5
21f
  8
Layer_0
  10
199.70149
  20
175.32825
  0
VERTEX
  5
220
  8
Layer_0
  10
199.72736
  20
175.24173
  0
VERTEX
  5
221
  8
Layer_0
  10
199.74255
  20
175.17652
  0
VERTEX
  5
222
  8
Layer_0
  10
199.73054
  20
175.18008
  0
VERTEX
  5
223
  8
Layer_0
  10
199.69646
  20
175.24476
  0
VERTEX
  5
224
  8
Layer_0
  10
199.64547
  20
175.36295
  0
VERTEX
  5
225
  8
Layer_0
  10
199.6109
  20
175.44383
  0
VERTEX
  5
226
  8
Layer_0
  10
199.58868
  20
175.48317
  0
VERTEX
  5
227
  8
Layer_0
  10
199.57617
  20
175.48399
  0
VERTEX
  5
228
  8
Layer_0
  10
199.57076
  20
175.44935
  0
VERTEX
  5
229
  8
Layer_0
  10
199.56753
  20
175.40088
  0
VERTEX
  5
22a
  8
Layer_0
  10
199.56228
  20
175.38585
  0
VERTEX
  5
22b
  8
Layer_0
  10
199.55124
  20
175.40527
  0
VERTEX
  5
22c
  8
Layer_0
  10
199.53066
  20
175.46016
  0
VERTEX
  5
22d
  8
Layer_0
  10
199.50921
  20
175.53141
  0
VERTEX
  5
22e
  8
Layer_0
  10
199.50745
  20
175.56607
  0
VERTEX
  5
22f
  8
Layer_0
  10
199.83881
  20
175.71652
  0
VERTEX
  5
230
  8
Layer_0
  10
200.12657
  20
175.81185
  42
0.58739567
  0
VERTEX
  5
231
  8
Layer_0
  10
200.15984
  20
175.82736
  0
VERTEX
  5
232
  8
Layer_0
  10
200.18966
  20
175.84115
  0
VERTEX
  5
233
  8
Layer_0
  10
200.27229
  20
175.81544
  42
0.036817452
  0
VERTEX
  5
234
  8
Layer_0
  10
200.52316
  20
175.73114
  42
-0.011317437
  0
VERTEX
  5
235
  8
Layer_0
  10
201.24426
  20
175.52605
  0
VERTEX
  5
236
  8
Layer_0
  10
201.34369
  20
175.49834
  0
VERTEX
  5
237
  8
Layer_0
  10
201.4195
  20
175.49432
  0
VERTEX
  5
238
  8
Layer_0
  10
201.50597
  20
175.51818
  0
VERTEX
  5
239
  8
Layer_0
  10
201.63736
  20
175.57411
  0
VERTEX
  5
23a
  8
Layer_0
  10
201.83341
  20
175.68186
  0
VERTEX
  5
23b
  8
Layer_0
  10
201.93975
  20
175.81267
  0
VERTEX
  5
23c
  8
Layer_0
  10
201.98993
  20
175.88878
  0
VERTEX
  5
23d
  8
Layer_0
  10
202.05508
  20
175.94917
  0
VERTEX
  5
23e
  8
Layer_0
  10
202.15461
  20
176.00785
  0
VERTEX
  5
23f
  8
Layer_0
  10
202.30789
  20
176.07885
  0
VERTEX
  5
240
  8
Layer_0
  10
202.49609
  20
176.15974
  0
VERTEX
  5
241
  8
Layer_0
  10
202.60116
  20
176.19919
  0
VERTEX
  5
242
  8
Layer_0
  10
202.64091
  20
176.20246
  0
VERTEX
  5
243
  8
Layer_0
  10
202.63316
  20
176.17482
  0
VERTEX
  5
244
  8
Layer_0
  10
202.65067
  20
176.1697
  0
VERTEX
  5
245
  8
Layer_0
  10
202.72383
  20
176.20763
  0
VERTEX
  5
246
  8
Layer_0
  10
202.81147
  20
176.25112
  0
VERTEX
  5
247
  8
Layer_0
  10
202.86382
  20
176.25939
  0
VERTEX
  5
248
  8
Layer_0
  10
202.92439
  20
176.26861
  0
VERTEX
  5
249
  8
Layer_0
  10
203.03181
  20
176.3144
  0
VERTEX
  5
24a
  8
Layer_0
  10
203.13887
  20
176.3604
  0
VERTEX
  5
24b
  8
Layer_0
  10
203.19859
  20
176.37015
  0
VERTEX
  5
24c
  8
Layer_0
  10
203.21848
  20
176.37584
  0
VERTEX
  5
24d
  8
Layer_0
  10
203.22978
  20
176.4121
  42
-0.038420678
  0
VERTEX
  5
24e
  8
Layer_0
  10
203.25853
  20
176.56526
  0
VERTEX
  5
24f
  8
Layer_0
  10
203.26594
  20
176.63522
  0
VERTEX
  5
250
  8
Layer_0
  10
203.24467
  20
176.66042
  0
VERTEX
  5
251
  8
Layer_0
  10
203.20671
  20
176.68197
  0
VERTEX
  5
252
  8
Layer_0
  10
203.16798
  20
176.7338
  0
VERTEX
  5
253
  8
Layer_0
  10
203.1459
  20
176.78598
  0
VERTEX
  5
254
  8
Layer_0
  10
203.16931
  20
176.78208
  0
VERTEX
  5
255
  8
Layer_0
  10
203.17671
  20
176.80608
  0
VERTEX
  5
256
  8
Layer_0
  10
203.13746
  20
176.89902
  0
VERTEX
  5
257
  8
Layer_0
  10
203.065
  20
177.04105
  0
VERTEX
  5
258
  8
Layer_0
  10
203.17355
  20
177.04105
  0
VERTEX
  5
259
  8
Layer_0
  10
203.23689
  20
177.04332
  0
VERTEX
  5
25a
  8
Layer_0
  10
203.26425
  20
177.06088
  0
VERTEX
  5
25b
  8
Layer_0
  10
203.26162
  20
177.10982
  0
VERTEX
  5
25c
  8
Layer_0
  10
203.23499
  20
177.20623
  0
VERTEX
  5
25d
  8
Layer_0
  10
203.26032
  20
177.23784
  0
VERTEX
  5
25e
  8
Layer_0
  10
203.34659
  20
177.28911
  0
VERTEX
  5
25f
  8
Layer_0
  10
203.49062
  20
177.35839
  0
VERTEX
  5
260
  8
Layer_0
  10
203.68925
  20
177.44401
  42
0.00018166055
  0
VERTEX
  5
261
  8
Layer_0
  10
204.59755
  20
177.82098
  0
VERTEX
  5
262
  8
Layer_0
  10
204.80397
  20
177.9041
  0
VERTEX
  5
263
  8
Layer_0
  10
204.94035
  20
177.95215
  0
VERTEX
  5
264
  8
Layer_0
  10
205.01562
  20
177.96783
  0
VERTEX
  5
265
  8
Layer_0
  10
205.03873
  20
177.95381
  42
0.11849203
  0
VERTEX
  5
266
  8
Layer_0
  10
205.10831
  20
177.76697
  0
VERTEX
  5
267
  8
Layer_0
  10
205.17789
  20
177.63058
  0
VERTEX
  5
268
  8
Layer_0
  10
205.35916
  20
177.70357
  42
-0.00060463439
  0
VERTEX
  5
269
  8
Layer_0
  10
205.73407
  20
177.85396
  0
VERTEX
  5
26a
  8
Layer_0
  10
205.92767
  20
177.93137
  0
VERTEX
  5
26b
  8
Layer_0
  10
205.9817
  20
177.82358
  42
-0.01866169
  0
VERTEX
  5
26c
  8
Layer_0
  10
206.19931
  20
177.31786
  0
VERTEX
  5
26d
  8
Layer_0
  10
206.27318
  20
177.13927
  0
VERTEX
  5
26e
  8
Layer_0
  10
206.33618
  20
176.98951
  0
VERTEX
  5
26f
  8
Layer_0
  10
206.38921
  20
176.86665
  0
VERTEX
  5
270
  8
Layer_0
  10
206.43317
  20
176.76872
  0
VERTEX
  5
271
  8
Layer_0
  10
206.49748
  20
176.63986
  0
VERTEX
  5
272
  8
Layer_0
  10
206.5363
  20
176.58735
  42
-0.27593222
  0
VERTEX
  5
273
  8
Layer_0
  10
206.56381
  20
176.53545
  0
VERTEX
  5
274
  8
Layer_0
  10
206.62227
  20
176.33472
  0
VERTEX
  5
275
  8
Layer_0
  10
206.70646
  20
176.17599
  0
VERTEX
  5
276
  8
Layer_0
  10
206.72608
  20
176.16028
  0
VERTEX
  5
277
  8
Layer_0
  10
206.73423
  20
176.12252
  0
VERTEX
  5
278
  8
Layer_0
  10
206.75607
  20
176.0503
  0
VERTEX
  5
279
  8
Layer_0
  10
206.81555
  20
175.89318
  0
VERTEX
  5
27a
  8
Layer_0
  10
206.90357
  20
175.67431
  0
VERTEX
  5
27b
  8
Layer_0
  10
207.01105
  20
175.41686
  0
VERTEX
  5
27c
  8
Layer_0
  10
207.11853
  20
175.1618
  0
VERTEX
  5
27d
  8
Layer_0
  10
207.20655
  20
174.94945
  0
VERTEX
  5
27e
  8
Layer_0
  10
207.26602
  20
174.80198
  0
VERTEX
  5
27f
  8
Layer_0
  10
207.28786
  20
174.74154
  0
VERTEX
  5
280
  8
Layer_0
  10
207.38069
  20
174.52335
  0
VERTEX
  5
281
  8
Layer_0
  10
207.49767
  20
174.32343
  42
-0.25990362
  0
VERTEX
  5
282
  8
Layer_0
  10
207.53008
  20
174.2393
  0
VERTEX
  5
283
  8
Layer_0
  10
207.53993
  20
174.19164
  0
VERTEX
  5
284
  8
Layer_0
  10
207.56674
  20
174.10927
  0
VERTEX
  5
285
  8
Layer_0
  10
207.60643
  20
174.00376
  0
VERTEX
  5
286
  8
Layer_0
  10
207.65489
  20
173.88667
  42
-0.025638691
  0
VERTEX
  5
287
  8
Layer_0
  10
207.80699
  20
173.51163
  42
0.020253397
  0
VERTEX
  5
288
  8
Layer_0
  10
207.85812
  20
173.36661
  0
VERTEX
  5
289
  8
Layer_0
  10
207.84353
  20
173.31782
  0
VERTEX
  5
28a
  8
Layer_0
  10
207.75617
  20
173.25357
  0
VERTEX
  5
28b
  8
Layer_0
  10
207.68135
  20
173.2134
  0
VERTEX
  5
28c
  8
Layer_0
  10
207.58371
  20
173.16668
  0
VERTEX
  5
28d
  8
Layer_0
  10
207.46171
  20
173.11251
  0
VERTEX
  5
28e
  8
Layer_0
  10
207.31382
  20
173.05
  0
VERTEX
  5
28f
  8
Layer_0
  10
207.22217
  20
173.00673
  0
VERTEX
  5
290
  8
Layer_0
  10
207.18406
  20
172.97835
  0
VERTEX
  5
291
  8
Layer_0
  10
207.28338
  20
172.70166
  0
VERTEX
  5
292
  8
Layer_0
  10
207.43453
  20
172.35483
  42
-0.050166947
  0
VERTEX
  5
293
  8
Layer_0
  10
207.4978
  20
172.18866
  0
VERTEX
  5
294
  8
Layer_0
  10
207.50867
  20
172.10535
  0
VERTEX
  5
295
  8
Layer_0
  10
207.46763
  20
172.06923
  0
VERTEX
  5
296
  8
Layer_0
  10
206.94167
  20
171.85697
  0
VERTEX
  5
297
  8
Layer_0
  10
206.46179
  20
171.65561
  0
VERTEX
  5
298
  8
Layer_0
  10
206.46424
  20
171.63337
  0
VERTEX
  5
299
  8
Layer_0
  10
206.48046
  20
171.57985
  0
VERTEX
  5
29a
  8
Layer_0
  10
206.50778
  20
171.50306
  0
VERTEX
  5
29b
  8
Layer_0
  10
206.54351
  20
171.41105
  42
-0.00095226107
  0
VERTEX
  5
29c
  8
Layer_0
  10
206.65297
  20
171.13879
  0
VERTEX
  5
29d
  8
Layer_0
  10
206.63961
  20
171.11666
  0
VERTEX
  5
29e
  8
Layer_0
  10
206.59229
  20
171.08389
  0
VERTEX
  5
29f
  8
Layer_0
  10
206.51847
  20
171.0449
  0
VERTEX
  5
2a0
  8
Layer_0
  10
206.42561
  20
171.00411
  0
VERTEX
  5
2a1
  8
Layer_0
  10
206.29847
  20
170.95043
  0
VERTEX
  5
2a2
  8
Layer_0
  10
206.22998
  20
170.91215
  0
VERTEX
  5
2a3
  8
Layer_0
  10
206.20741
  20
170.87933
  0
VERTEX
  5
2a4
  8
Layer_0
  10
206.21801
  20
170.84201
  42
-0.44862753
  0
VERTEX
  5
2a5
  8
Layer_0
  10
206.17334
  20
170.74619
  42
0.0060660829
  0
VERTEX
  5
2a6
  8
Layer_0
  10
204.57159
  20
170.07204
  0
VERTEX
  5
2a7
  8
Layer_0
  10
204.32998
  20
169.97011
  0
VERTEX
  5
2a8
  8
Layer_0
  10
204.11485
  20
169.87962
  0
VERTEX
  5
2a9
  8
Layer_0
  10
203.92465
  20
169.8
  0
VERTEX
  5
2aa
  8
Layer_0
  10
203.75781
  20
169.73064
  0
VERTEX
  5
2ab
  8
Layer_0
  10
203.48792
  20
169.6204
  0
VERTEX
  5
2ac
  8
Layer_0
  10
203.29266
  20
169.54418
  0
VERTEX
  5
2ad
  8
Layer_0
  10
203.15949
  20
169.4973
  0
VERTEX
  5
2ae
  8
Layer_0
  10
203.07587
  20
169.47505
  0
VERTEX
  5
2af
  8
Layer_0
  10
203.02925
  20
169.47274
  0
VERTEX
  5
2b0
  8
Layer_0
  10
203.0071
  20
169.48566
  42
-0.079426222
  0
VERTEX
  5
2b1
  8
Layer_0
  10
202.95366
  20
169.57652
  0
VERTEX
  5
2b2
  8
Layer_0
  10
202.9324
  20
169.57545
  0
VERTEX
  5
2b3
  8
Layer_0
  10
202.87591
  20
169.55901
  0
VERTEX
  5
2b4
  8
Layer_0
  10
202.78805
  20
169.52869
  0
VERTEX
  5
2b5
  8
Layer_0
  10
202.67268
  20
169.48594
  0
VERTEX
  5
2b6
  8
Layer_0
  10
202.37481
  20
169.36901
  0
VERTEX
  5
2b7
  8
Layer_0
  10
202.01319
  20
169.21993
  0
VERTEX
  5
2b8
  8
Layer_0
  10
201.72022
  20
169.097
  0
VERTEX
  5
2b9
  8
Layer_0
  10
201.49541
  20
169.00399
  0
VERTEX
  5
2ba
  8
Layer_0
  10
201.3291
  20
168.93766
  0
VERTEX
  5
2bb
  8
Layer_0
  10
201.21163
  20
168.89478
  0
VERTEX
  5
2bc
  8
Layer_0
  10
201.08464
  20
168.86647
  0
VERTEX
  5
2bd
  8
Layer_0
  10
201.03722
  20
168.8932
  42
-0.15918026
  0
VERTEX
  5
2be
  8
Layer_0
  10
200.9903
  20
169.00217
  0
VERTEX
  5
2bf
  8
Layer_0
  10
200.96985
  20
169.02144
  0
VERTEX
  5
2c0
  8
Layer_0
  10
200.89463
  20
169.00602
  0
VERTEX
  5
2c1
  8
Layer_0
  10
200.82995
  20
168.98321
  0
VERTEX
  5
2c2
  8
Layer_0
  10
200.74376
  20
168.94923
  0
VERTEX
  5
2c3
  8
Layer_0
  10
200.63344
  20
168.90325
  0
VERTEX
  5
2c4
  8
Layer_0
  10
200.49638
  20
168.84443
  0
VERTEX
  5
2c5
  8
Layer_0
  10
200.33119
  20
168.77289
  0
VERTEX
  5
2c6
  8
Layer_0
  10
200.38437
  20
168.6456
  0
VERTEX
  5
2c7
  8
Layer_0
  10
200.41926
  20
168.55411
  0
VERTEX
  5
2c8
  8
Layer_0
  10
200.42846
  20
168.5129
  0
VERTEX
  5
2c9
  8
Layer_0
  10
200.38127
  20
168.4925
  0
VERTEX
  5
2ca
  8
Layer_0
  10
200.25952
  20
168.44097
  0
VERTEX
  5
2cb
  8
Layer_0
  10
200.08166
  20
168.36608
  0
VERTEX
  5
2cc
  8
Layer_0
  10
199.86615
  20
168.27563
  0
VERTEX
  5
2cd
  8
Layer_0
  10
199.68431
  20
168.19962
  0
VERTEX
  5
2ce
  8
Layer_0
  10
199.54674
  20
168.1433
  0
VERTEX
  5
2cf
  8
Layer_0
  10
199.44642
  20
168.10482
  0
VERTEX
  5
2d0
  8
Layer_0
  10
199.37637
  20
168.08235
  0
VERTEX
  5
2d1
  8
Layer_0
  10
199.29906
  20
168.078
  0
VERTEX
  5
2d2
  8
Layer_0
  10
199.25883
  20
168.11551
  0
VERTEX
  5
2d3
  8
Layer_0
  10
199.22108
  20
168.15413
  0
VERTEX
  5
2d4
  8
Layer_0
  10
199.16024
  20
168.15646
  0
VERTEX
  5
2d5
  8
Layer_0
  10
199.10777
  20
168.1411
  0
VERTEX
  5
2d6
  8
Layer_0
  10
199.03348
  20
168.11317
  0
VERTEX
  5
2d7
  8
Layer_0
  10
198.932
  20
168.07149
  0
VERTEX
  5
2d8
  8
Layer_0
  10
198.79799
  20
168.01489
  0
VERTEX
  5
2d9
  8
Layer_0
  10
198.66521
  20
167.95884
  0
VERTEX
  5
2da
  8
Layer_0
  10
198.56462
  20
167.91751
  0
VERTEX
  5
2db
  8
Layer_0
  10
198.49131
  20
167.88983
  0
VERTEX
  5
2dc
  8
Layer_0
  10
198.4404
  20
167.87468
  0
VERTEX
  5
2dd
  8
Layer_0
  10
198.38612
  20
167.87761
  0
VERTEX
  5
2de
  8
Layer_0
  10
198.36257
  20
167.91756
  42
0.0083386213
  0
VERTEX
  5
2df
  8
Layer_0
  10
198.10764
  20
168.52963
  0
VERTEX
  5
2e0
  8
Layer_0
  10
198.0189
  20
168.74154
  0
VERTEX
  5
2e1
  8
Layer_0
  10
197.94454
  20
168.92152
  0
VERTEX
  5
2e2
  8
Layer_0
  10
197.89234
  20
169.05055
  0
VERTEX
  5
2e3
  8
Layer_0
  10
197.8701
  20
169.10959
  0
VERTEX
  5
2e4
  8
Layer_0
  10
197.89757
  20
169.13639
  0
VERTEX
  5
2e5
  8
Layer_0
  10
197.9778
  20
169.18516
  0
VERTEX
  5
2e6
  8
Layer_0
  10
198.0968
  20
169.24906
  0
VERTEX
  5
2e7
  8
Layer_0
  10
198.24061
  20
169.32128
  0
VERTEX
  5
2e8
  8
Layer_0
  10
198.54674
  20
169.46331
  0
VERTEX
  5
2e9
  8
Layer_0
  10
198.7844
  20
169.55659
  42
0.32991393
  0
VERTEX
  5
2ea
  8
Layer_0
  10
198.84496
  20
169.65549
  42
-0.25994868
  0
VERTEX
  5
2eb
  8
Layer_0
  10
198.87956
  20
169.75731
  0
VERTEX
  5
2ec
  8
Layer_0
  10
198.904
  20
169.75148
  0
VERTEX
  5
2ed
  8
Layer_0
  10
198.91416
  20
169.70744
  42
0.41421356
  0
VERTEX
  5
2ee
  8
Layer_0
  10
198.96606
  20
169.6362
  0
VERTEX
  5
2ef
  8
Layer_0
  10
199.00288
  20
169.62858
  0
VERTEX
  5
2f0
  8
Layer_0
  10
199.0185
  20
169.61025
  0
VERTEX
  5
2f1
  8
Layer_0
  10
199.03646
  20
169.54581
  0
VERTEX
  5
2f2
  8
Layer_0
  10
199.1034
  20
169.53221
  0
VERTEX
  5
2f3
  8
Layer_0
  10
199.16304
  20
169.54548
  0
VERTEX
  5
2f4
  8
Layer_0
  10
199.24431
  20
169.57266
  0
VERTEX
  5
2f5
  8
Layer_0
  10
199.35031
  20
169.61417
  0
VERTEX
  5
2f6
  8
Layer_0
  10
199.48419
  20
169.67041
  0
VERTEX
  5
2f7
  8
Layer_0
  10
199.64344
  20
169.73762
  0
VERTEX
  5
2f8
  8
Layer_0
  10
199.7749
  20
169.79124
  0
VERTEX
  5
2f9
  8
Layer_0
  10
199.86492
  20
169.82583
  0
VERTEX
  5
2fa
  8
Layer_0
  10
199.89987
  20
169.83597
  0
VERTEX
  5
2fb
  8
Layer_0
  10
199.92868
  20
169.77052
  0
VERTEX
  5
2fc
  8
Layer_0
  10
199.98823
  20
169.62646
  0
VERTEX
  5
2fd
  8
Layer_0
  10
200.05645
  20
169.4897
  0
VERTEX
  5
2fe
  8
Layer_0
  10
200.1061
  20
169.44182
  42
-2.194857e-05
  0
VERTEX
  5
2ff
  8
Layer_0
  10
200.59424
  20
169.64816
  0
VERTEX
  5
300
  8
Layer_0
  10
200.80661
  20
169.73802
  0
VERTEX
  5
301
  8
Layer_0
  10
200.96416
  20
169.80255
  0
VERTEX
  5
302
  8
Layer_0
  10
201.07652
  20
169.84233
  0
VERTEX
  5
303
  8
Layer_0
  10
201.15334
  20
169.85794
  0
VERTEX
  5
304
  8
Layer_0
  10
201.23887
  20
169.81891
  0
VERTEX
  5
305
  8
Layer_0
  10
201.29784
  20
169.69005
  0
VERTEX
  5
306
  8
Layer_0
  10
201.3595
  20
169.55427
  0
VERTEX
  5
307
  8
Layer_0
  10
201.39584
  20
169.49779
  0
VERTEX
  5
308
  8
Layer_0
  10
201.46595
  20
169.52254
  0
VERTEX
  5
309
  8
Layer_0
  10
201.6088
  20
169.58204
  42
-0.004759258
  0
VERTEX
  5
30a
  8
Layer_0
  10
202.40897
  20
169.91481
  42
0.019602122
  0
VERTEX
  5
30b
  8
Layer_0
  10
203.18393
  20
170.24893
  0
VERTEX
  5
30c
  8
Layer_0
  10
203.3344
  20
170.3102
  0
VERTEX
  5
30d
  8
Layer_0
  10
203.42613
  20
170.29593
  0
VERTEX
  5
30e
  8
Layer_0
  10
203.48804
  20
170.2866
  0
VERTEX
  5
30f
  8
Layer_0
  10
203.6057
  20
170.31527
  0
VERTEX
  5
310
  8
Layer_0
  10
203.69669
  20
170.34754
  0
VERTEX
  5
311
  8
Layer_0
  10
203.81512
  20
170.39374
  0
VERTEX
  5
312
  8
Layer_0
  10
203.96548
  20
170.45533
  0
VERTEX
  5
313
  8
Layer_0
  10
204.15228
  20
170.53379
  0
VERTEX
  5
314
  8
Layer_0
  10
204.40706
  20
170.64223
  0
VERTEX
  5
315
  8
Layer_0
  10
204.61781
  20
170.73314
  0
VERTEX
  5
316
  8
Layer_0
  10
204.76263
  20
170.79699
  0
VERTEX
  5
317
  8
Layer_0
  10
204.81962
  20
170.82424
  0
VERTEX
  5
318
  8
Layer_0
  10
204.81702
  20
170.84446
  0
VERTEX
  5
319
  8
Layer_0
  10
204.80135
  20
170.89298
  0
VERTEX
  5
31a
  8
Layer_0
  10
204.77446
  20
170.96521
  0
VERTEX
  5
31b
  8
Layer_0
  10
204.73822
  20
171.05659
  0
VERTEX
  5
31c
  8
Layer_0
  10
204.64508
  20
171.27847
  0
VERTEX
  5
31d
  8
Layer_0
  10
204.53675
  20
171.52201
  42
-0.012609794
  0
VERTEX
  5
31e
  8
Layer_0
  10
204.37889
  20
171.90263
  0
VERTEX
  5
31f
  8
Layer_0
  10
204.24072
  20
172.23444
  0
VERTEX
  5
320
  8
Layer_0
  10
204.11765
  20
172.50174
  0
VERTEX
  5
321
  8
Layer_0
  10
204.06498
  20
172.60469
  0
VERTEX
  5
322
  8
Layer_0
  10
204.01992
  20
172.68369
  0
VERTEX
  5
323
  8
Layer_0
  10
203.98375
  20
172.73614
  0
VERTEX
  5
324
  8
Layer_0
  10
203.95776
  20
172.75945
  0
VERTEX
  5
325
  8
Layer_0
  10
203.81341
  20
172.75568
  0
VERTEX
  5
326
  8
Layer_0
  10
203.60274
  20
172.69754
  0
VERTEX
  5
327
  8
Layer_0
  10
203.42969
  20
172.629
  0
VERTEX
  5
328
  8
Layer_0
  10
203.18577
  20
172.52861
  0
VERTEX
  5
329
  8
Layer_0
  10
202.89933
  20
172.40846
  0
VERTEX
  5
32a
  8
Layer_0
  10
202.5987
  20
172.28069
  0
VERTEX
  5
32b
  8
Layer_0
  10
202.31219
  20
172.1574
  0
VERTEX
  5
32c
  8
Layer_0
  10
202.06814
  20
172.0507
  0
VERTEX
  5
32d
  8
Layer_0
  10
201.97089
  20
172.00736
  0
VERTEX
  5
32e
  8
Layer_0
  10
201.89488
  20
171.97271
  0
VERTEX
  5
32f
  8
Layer_0
  10
201.84365
  20
171.94827
  0
VERTEX
  5
330
  8
Layer_0
  10
201.82074
  20
171.93554
  0
VERTEX
  5
331
  8
Layer_0
  10
201.76782
  20
171.90487
  0
VERTEX
  5
332
  8
Layer_0
  10
201.66211
  20
171.85357
  0
VERTEX
  5
333
  8
Layer_0
  10
201.51893
  20
171.7888
  0
VERTEX
  5
334
  8
Layer_0
  10
201.35361
  20
171.7177
  42
0.0058333902
  0
VERTEX
  5
335
  8
Layer_0
  10
200.62897
  20
171.40504
  0
VERTEX
  5
336
  8
Layer_0
  10
200.50698
  20
171.35244
  0
VERTEX
  5
337
  8
Layer_0
  10
200.40355
  20
171.31155
  0
VERTEX
  5
338
  8
Layer_0
  10
200.32962
  20
171.28642
  0
VERTEX
  5
339
  8
Layer_0
  10
200.2961
  20
171.28113
  0
VERTEX
  5
33a
  8
Layer_0
  10
200.25654
  20
171.35283
  0
VERTEX
  5
33b
  8
Layer_0
  10
200.19438
  20
171.50486
  0
VERTEX
  5
33c
  8
Layer_0
  10
200.142
  20
171.63952
  0
VERTEX
  5
33d
  8
Layer_0
  10
200.07905
  20
171.6877
  0
VERTEX
  5
33e
  8
Layer_0
  10
200.02488
  20
171.68072
  0
VERTEX
  5
33f
  8
Layer_0
  10
199.9456
  20
171.65376
  0
VERTEX
  5
340
  8
Layer_0
  10
199.83373
  20
171.60734
  0
VERTEX
  5
341
  8
Layer_0
  10
199.68176
  20
171.54203
  0
VERTEX
  5
342
  8
Layer_0
  10
199.37086
  20
171.40915
  0
VERTEX
  5
343
  8
Layer_0
  10
199.27702
  20
171.62994
  0
VERTEX
  5
344
  8
Layer_0
  10
199.20733
  20
171.78587
  0
VERTEX
  5
345
  8
Layer_0
  10
199.17152
  20
171.85073
  0
VERTEX
  5
346
  8
Layer_0
  10
198.82139
  20
171.70309
  0
VERTEX
  5
347
  8
Layer_0
  10
198.49262
  20
171.53028
  42
0.14687378
  0
VERTEX
  5
348
  8
Layer_0
  10
198.46486
  20
171.51759
  0
VERTEX
  5
349
  8
Layer_0
  10
198.41231
  20
171.5037
  0
VERTEX
  5
34a
  8
Layer_0
  10
198.36053
  20
171.4014
  0
VERTEX
  5
34b
  8
Layer_0
  10
198.35034
  20
171.3706
  0
VERTEX
  5
34c
  8
Layer_0
  10
198.31633
  20
171.34481
  0
VERTEX
  5
34d
  8
Layer_0
  10
198.25336
  20
171.32142
  0
VERTEX
  5
34e
  8
Layer_0
  10
198.1563
  20
171.29782
  0
VERTEX
  5
34f
  8
Layer_0
  10
197.99836
  20
171.27201
  0
VERTEX
  5
350
  8
Layer_0
  10
197.90543
  20
171.27082
  42
0.17452428
  0
VERTEX
  5
351
  8
Layer_0
  10
197.78094
  20
171.25838
  0
VERTEX
  5
352
  8
Layer_0
  10
197.72432
  20
171.24666
  0
VERTEX
  5
353
  8
Layer_0
  10
197.70309
  20
171.26335
  42
0.41421356
  0
VERTEX
  5
354
  8
Layer_0
  10
197.64542
  20
171.2971
  0
VERTEX
  5
355
  8
Layer_0
  10
197.61141
  20
171.29038
  0
VERTEX
  5
356
  8
Layer_0
  10
197.61061
  20
171.27424
  0
VERTEX
  5
357
  8
Layer_0
  10
197.60395
  20
171.24639
  0
VERTEX
  5
358
  8
Layer_0
  10
197.55583
  20
171.21155
  0
VERTEX
  5
359
  8
Layer_0
  10
197.49029
  20
171.1899
  0
VERTEX
  5
35a
  8
Layer_0
  10
197.45157
  20
171.20846
  0
VERTEX
  5
35b
  8
Layer_0
  10
197.41952
  20
171.21995
  0
VERTEX
  5
35c
  8
Layer_0
  10
197.37689
  20
171.18237
  42
-0.38668955
  0
VERTEX
  5
35d
  8
Layer_0
  10
197.25632
  20
171.16481
  42
0.29307665
  0
VERTEX
  5
35e
  8
Layer_0
  10
197.12338
  20
171.1703
  0
VERTEX
  5
35f
  8
Layer_0
  10
197.0829
  20
171.13215
  0
VERTEX
  5
360
  8
Layer_0
  10
197.07042
  20
171.09625
  0
VERTEX
  5
361
  8
Layer_0
  10
197.05601
  20
171.0772
  0
VERTEX
  5
362
  8
Layer_0
  10
197.01088
  20
171.0795
  0
VERTEX
  5
363
  8
Layer_0
  10
196.95816
  20
171.08326
  0
VERTEX
  5
364
  8
Layer_0
  10
196.86416
  20
171.08053
  0
VERTEX
  5
365
  8
Layer_0
  10
196.74217
  20
171.07201
  0
VERTEX
  5
366
  8
Layer_0
  10
196.60549
  20
171.05838
  42
-0.025332297
  0
VERTEX
  5
367
  8
Layer_0
  10
195.87669
  20
171.01489
  0
VERTEX
  5
368
  8
Layer_0
  10
195.68987
  20
171.01018
  0
VERTEX
  5
369
  8
Layer_0
  10
195.56497
  20
171.0006
  0
VERTEX
  5
36a
  8
Layer_0
  10
195.49154
  20
170.98484
  0
VERTEX
  5
36b
  8
Layer_0
  10
195.45913
  20
170.96156
  0
VERTEX
  5
36c
  8
Layer_0
  10
195.44034
  20
170.94793
  0
VERTEX
  5
36d
  8
Layer_0
  10
195.39604
  20
170.93694
  0
VERTEX
  5
36e
  8
Layer_0
  10
195.31915
  20
170.9283
  0
VERTEX
  5
36f
  8
Layer_0
  10
195.20254
  20
170.92171
  0
VERTEX
  5
370
  8
Layer_0
  10
195.03913
  20
170.91689
  0
VERTEX
  5
371
  8
Layer_0
  10
194.82178
  20
170.91354
  0
VERTEX
  5
372
  8
Layer_0
  10
194.54342
  20
170.91138
  0
VERTEX
  5
373
  8
Layer_0
  10
194.19691
  20
170.91012
  0
VERTEX
  5
374
  8
Layer_0
  10
193.84262
  20
170.90889
  0
VERTEX
  5
375
  8
Layer_0
  10
193.56231
  20
170.90685
  0
VERTEX
  5
376
  8
Layer_0
  10
193.34826
  20
170.90367
  0
VERTEX
  5
377
  8
Layer_0
  10
193.19275
  20
170.89901
  0
VERTEX
  5
378
  8
Layer_0
  10
193.08807
  20
170.89256
  0
VERTEX
  5
379
  8
Layer_0
  10
193.02648
  20
170.88397
  0
VERTEX
  5
37a
  8
Layer_0
  10
193.00028
  20
170.87293
  0
VERTEX
  5
37b
  8
Layer_0
  10
193.00175
  20
170.85909
  0
VERTEX
  5
37c
  8
Layer_0
  10
193.02996
  20
170.81396
  0
VERTEX
  5
37d
  8
Layer_0
  10
193.02305
  20
170.79609
  0
VERTEX
  5
37e
  8
Layer_0
  10
192.98895
  20
170.80686
  0
VERTEX
  5
37f
  8
Layer_0
  10
192.93558
  20
170.84764
  0
VERTEX
  5
380
  8
Layer_0
  10
192.85858
  20
170.90407
  0
VERTEX
  5
381
  8
Layer_0
  10
192.80037
  20
170.91771
  0
VERTEX
  5
382
  8
Layer_0
  10
192.76826
  20
170.88974
  0
VERTEX
  5
383
  8
Layer_0
  10
192.76959
  20
170.82132
  0
VERTEX
  5
384
  8
Layer_0
  10
192.77818
  20
170.762
  0
VERTEX
  5
385
  8
Layer_0
  10
192.75991
  20
170.77385
  42
0.40419671
  0
VERTEX
  5
386
  8
Layer_0
  10
192.69205
  20
170.79924
  42
-0.41423517
  0
VERTEX
  5
387
  8
Layer_0
  10
192.63094
  20
170.81744
  0
VERTEX
  5
388
  8
Layer_0
  10
192.62406
  20
170.84113
  0
VERTEX
  5
389
  8
Layer_0
  10
192.65449
  20
170.83024
  42
0.85637323
  0
VERTEX
  5
38a
  8
Layer_0
  10
192.66483
  20
170.84413
  0
VERTEX
  5
38b
  8
Layer_0
  10
192.37809
  20
170.90082
  0
VERTEX
  5
38c
  8
Layer_0
  10
192.08476
  20
170.88774
  42
-0.23479581
  0
VERTEX
  5
38d
  8
Layer_0
  10
191.67587
  20
170.81511
  0
VERTEX
  5
38e
  8
Layer_0
  10
191.60377
  20
170.82633
  0
VERTEX
  5
38f
  8
Layer_0
  10
191.56097
  20
170.81818
  42
-0.19693816
  0
VERTEX
  5
390
  8
Layer_0
  10
191.48093
  20
170.79581
  42
0.46334644
  0
VERTEX
  5
391
  8
Layer_0
  10
191.43454
  20
170.72803
  0
VERTEX
  5
392
  8
Layer_0
  10
191.43413
  20
170.6825
  0
VERTEX
  5
393
  8
Layer_0
  10
191.39994
  20
170.69773
  0
VERTEX
  5
394
  8
Layer_0
  10
191.23902
  20
170.74982
  0
VERTEX
  5
395
  8
Layer_0
  10
191.10679
  20
170.73601
  0
VERTEX
  5
396
  8
Layer_0
  10
191.07984
  20
170.72578
  0
VERTEX
  5
397
  8
Layer_0
  10
191.04152
  20
170.74402
  0
VERTEX
  5
398
  8
Layer_0
  10
190.99674
  20
170.759
  0
VERTEX
  5
399
  8
Layer_0
  10
190.95636
  20
170.71013
  0
VERTEX
  5
39a
  8
Layer_0
  10
190.91825
  20
170.66563
  0
VERTEX
  5
39b
  8
Layer_0
  10
190.88105
  20
170.66032
  42
-0.55754451
  0
VERTEX
  5
39c
  8
Layer_0
  10
190.88647
  20
170.70886
  42
0.55753408
  0
VERTEX
  5
39d
  8
Layer_0
  10
190.88356
  20
170.76257
  42
0.48386612
  0
VERTEX
  5
39e
  8
Layer_0
  10
190.82501
  20
170.74937
  42
-0.48383061
  0
VERTEX
  5
39f
  8
Layer_0
  10
190.78331
  20
170.72577
  0
VERTEX
  5
3a0
  8
Layer_0
  10
190.68875
  20
170.74419
  0
VERTEX
  5
3a1
  8
Layer_0
  10
190.5008
  20
170.76413
  0
VERTEX
  5
3a2
  8
Layer_0
  10
190.30385
  20
170.78816
  0
VERTEX
  5
3a3
  8
Layer_0
  10
190.18764
  20
170.81644
  42
0.40822059
  0
VERTEX
  5
3a4
  8
Layer_0
  10
190.09749
  20
170.79155
  0
VERTEX
  5
3a5
  8
Layer_0
  10
190.0697
  20
170.76441
  0
VERTEX
  5
3a6
  8
Layer_0
  10
190.01722
  20
170.74539
  0
VERTEX
  5
3a7
  8
Layer_0
  10
189.93303
  20
170.73288
  0
VERTEX
  5
3a8
  8
Layer_0
  10
189.81017
  20
170.72527
  42
0.039031809
  0
VERTEX
  5
3a9
  8
Layer_0
  10
189.38016
  20
170.68069
  42
-0.094366562
  0
VERTEX
  5
3aa
  8
Layer_0
  10
189.05934
  20
170.67302
  0
VERTEX
  5
3ab
  8
Layer_0
  10
188.95006
  20
170.68301
  0
VERTEX
  5
3ac
  8
Layer_0
  10
188.89371
  20
170.66916
  0
VERTEX
  5
3ad
  8
Layer_0
  10
188.81242
  20
170.64753
  0
VERTEX
  5
3ae
  8
Layer_0
  10
188.64359
  20
170.6386
  42
0.045378598
  0
VERTEX
  5
3af
  8
Layer_0
  10
187.97125
  20
170.59244
  0
VERTEX
  5
3b0
  8
Layer_0
  10
187.90405
  20
170.58958
  0
VERTEX
  5
3b1
  8
Layer_0
  10
187.8761
  20
170.60713
  0
VERTEX
  5
3b2
  8
Layer_0
  10
187.85323
  20
170.62593
  0
VERTEX
  5
3b3
  8
Layer_0
  10
187.79825
  20
170.62606
  0
VERTEX
  5
3b4
  8
Layer_0
  10
187.74524
  20
170.60714
  0
VERTEX
  5
3b5
  8
Layer_0
  10
187.72712
  20
170.58015
  0
VERTEX
  5
3b6
  8
Layer_0
  10
187.6874
  20
170.56326
  0
VERTEX
  5
3b7
  8
Layer_0
  10
187.57141
  20
170.5724
  0
VERTEX
  5
3b8
  8
Layer_0
  10
187.44144
  20
170.58238
  0
VERTEX
  5
3b9
  8
Layer_0
  10
187.35707
  20
170.57129
  42
-0.20533242
  0
VERTEX
  5
3ba
  8
Layer_0
  10
187.26192
  20
170.56071
  42
0.51148366
  0
VERTEX
  5
3bb
  8
Layer_0
  10
187.21756
  20
170.53009
  0
VERTEX
  5
3bc
  8
Layer_0
  10
187.20291
  20
170.51451
  0
VERTEX
  5
3bd
  8
Layer_0
  10
187.16429
  20
170.55298
  0
VERTEX
  5
3be
  8
Layer_0
  10
187.11727
  20
170.59796
  0
VERTEX
  5
3bf
  8
Layer_0
  10
187.08433
  20
170.57706
  0
VERTEX
  5
3c0
  8
Layer_0
  10
187.01815
  20
170.54482
  0
VERTEX
  5
3c1
  8
Layer_0
  10
186.88674
  20
170.53419
  42
0.0002432022
  0
VERTEX
  5
3c2
  8
Layer_0
  10
186.59712
  20
170.53764
  0
VERTEX
  5
3c3
  8
Layer_0
  10
186.50786
  20
170.54326
  0
VERTEX
  5
3c4
  8
Layer_0
  10
186.46148
  20
170.55485
  0
VERTEX
  5
3c5
  8
Layer_0
  10
186.42533
  20
170.54969
  0
VERTEX
  5
3c6
  8
Layer_0
  10
186.36067
  20
170.51502
  0
VERTEX
  5
3c7
  8
Layer_0
  10
186.28779
  20
170.47991
  0
VERTEX
  5
3c8
  8
Layer_0
  10
186.24894
  20
170.50264
  42
0.36742308
  0
VERTEX
  5
3c9
  8
Layer_0
  10
186.15814
  20
170.51952
  42
-0.10512134
  0
VERTEX
  5
3ca
  8
Layer_0
  10
185.88647
  20
170.46388
  0
VERTEX
  5
3cb
  8
Layer_0
  10
185.58744
  20
170.46963
  0
VERTEX
  5
3cc
  8
Layer_0
  10
185.34818
  20
170.46902
  0
VERTEX
  5
3cd
  8
Layer_0
  10
185.18092
  20
170.46228
  0
VERTEX
  5
3ce
  8
Layer_0
  10
185.09787
  20
170.44964
  0
VERTEX
  5
3cf
  8
Layer_0
  10
185.05572
  20
170.44009
  0
VERTEX
  5
3d0
  8
Layer_0
  10
185.04141
  20
170.45375
  0
VERTEX
  5
3d1
  8
Layer_0
  10
185.04399
  20
170.49781
  0
VERTEX
  5
3d2
  8
Layer_0
  10
185.02827
  20
170.51641
  0
VERTEX
  5
3d3
  8
Layer_0
  10
184.99034
  20
170.51049
  0
VERTEX
  5
3d4
  8
Layer_0
  10
184.92627
  20
170.48096
  0
VERTEX
  5
3d5
  8
Layer_0
  10
184.79266
  20
170.41178
  0
VERTEX
  5
3d6
  8
Layer_0
  10
184.72289
  20
170.37875
  0
VERTEX
  5
3d7
  8
Layer_0
  10
184.70034
  20
170.37531
  0
VERTEX
  5
3d8
  8
Layer_0
  10
184.70843
  20
170.39489
  42
0.58389989
  0
VERTEX
  5
3d9
  8
Layer_0
  10
184.6861
  20
170.43253
  42
-0.062826672
  0
VERTEX
  5
3da
  8
Layer_0
  10
184.55754
  20
170.45528
  0
VERTEX
  5
3db
  8
Layer_0
  10
184.50149
  20
170.4625
  0
VERTEX
  5
3dc
  8
Layer_0
  10
184.4966
  20
170.44143
  0
VERTEX
  5
3dd
  8
Layer_0
  10
184.49106
  20
170.40743
  0
VERTEX
  5
3de
  8
Layer_0
  10
184.44165
  20
170.38644
  0
VERTEX
  5
3df
  8
Layer_0
  10
184.37138
  20
170.38313
  0
VERTEX
  5
3e0
  8
Layer_0
  10
184.30327
  20
170.40216
  42
0.18643643
  0
VERTEX
  5
3e1
  8
Layer_0
  10
184.15025
  20
170.41631
  0
VERTEX
  5
3e2
  8
Layer_0
  10
184.09317
  20
170.40975
  0
VERTEX
  5
3e3
  8
Layer_0
  10
184.08502
  20
170.42856
  0
VERTEX
  5
3e4
  8
Layer_0
  10
184.07997
  20
170.45101
  0
VERTEX
  5
3e5
  8
Layer_0
  10
184.03841
  20
170.45737
  0
VERTEX
  5
3e6
  8
Layer_0
  10
183.99675
  20
170.444
  0
VERTEX
  5
3e7
  8
Layer_0
  10
183.99144
  20
170.41898
  0
VERTEX
  5
3e8
  8
Layer_0
  10
183.98928
  20
170.40157
  0
VERTEX
  5
3e9
  8
Layer_0
  10
183.95193
  20
170.40874
  42
0.21779853
  0
VERTEX
  5
3ea
  8
Layer_0
  10
183.82097
  20
170.39386
  0
VERTEX
  5
3eb
  8
Layer_0
  10
183.77679
  20
170.37657
  0
VERTEX
  5
3ec
  8
Layer_0
  10
183.77008
  20
170.38826
  0
VERTEX
  5
3ed
  8
Layer_0
  10
183.62793
  20
170.41651
  0
VERTEX
  5
3ee
  8
Layer_0
  10
183.42108
  20
170.38607
  0
VERTEX
  5
3ef
  8
Layer_0
  10
183.39048
  20
170.37683
  0
VERTEX
  5
3f0
  8
Layer_0
  10
183.37783
  20
170.39325
  0
VERTEX
  5
3f1
  8
Layer_0
  10
183.36004
  20
170.41689
  0
VERTEX
  5
3f2
  8
Layer_0
  10
183.31728
  20
170.42528
  42
-0.10220753
  0
VERTEX
  5
3f3
  8
Layer_0
  10
183.18752
  20
170.44939
  0
VERTEX
  5
3f4
  8
Layer_0
  10
183.11832
  20
170.47595
  0
VERTEX
  5
3f5
  8
Layer_0
  10
183.18752
  20
170.41939
  0
VERTEX
  5
3f6
  8
Layer_0
  10
183.2251
  20
170.38789
  0
VERTEX
  5
3f7
  8
Layer_0
  10
183.23574
  20
170.3745
  0
VERTEX
  5
3f8
  8
Layer_0
  10
183.21795
  20
170.37696
  0
VERTEX
  5
3f9
  8
Layer_0
  10
183.17022
  20
170.39296
  42
0.15787443
  0
VERTEX
  5
3fa
  8
Layer_0
  10
182.93665
  20
170.37906
  0
VERTEX
  5
3fb
  8
Layer_0
  10
182.83279
  20
170.35504
  0
VERTEX
  5
3fc
  8
Layer_0
  10
182.7896
  20
170.35913
  0
VERTEX
  5
3fd
  8
Layer_0
  10
182.72607
  20
170.37751
  0
VERTEX
  5
3fe
  8
Layer_0
  10
182.57333
  20
170.38781
  42
-0.055652813
  0
VERTEX
  5
3ff
  8
Layer_0
  10
182.28787
  20
170.40956
  42
0.052136362
  0
VERTEX
  5
400
  8
Layer_0
  10
182.14328
  20
170.4294
  42
-0.18261648
  0
VERTEX
  5
401
  8
Layer_0
  10
182.02217
  20
170.4753
  0
VERTEX
  5
402
  8
Layer_0
  10
181.9565
  20
170.5101
  0
VERTEX
  5
403
  8
Layer_0
  10
181.83804
  20
170.50471
  0
VERTEX
  5
404
  8
Layer_0
  10
181.82795
  20
170.49243
  0
VERTEX
  5
405
  8
Layer_0
  10
181.8523
  20
170.46926
  0
VERTEX
  5
406
  8
Layer_0
  10
181.88132
  20
170.43316
  0
VERTEX
  5
407
  8
Layer_0
  10
181.84213
  20
170.37929
  42
-0.39969556
  0
VERTEX
  5
408
  8
Layer_0
  10
181.7133
  20
170.38342
  0
VERTEX
  5
409
  8
Layer_0
  10
181.65635
  20
170.41965
  0
VERTEX
  5
40a
  8
Layer_0
  10
181.61966
  20
170.41337
  0
VERTEX
  5
40b
  8
Layer_0
  10
181.52838
  20
170.32847
  0
VERTEX
  5
40c
  8
Layer_0
  10
181.48589
  20
170.31712
  0
VERTEX
  5
40d
  8
Layer_0
  10
181.48166
  20
170.35017
  0
VERTEX
  5
40e
  8
Layer_0
  10
181.43215
  20
170.36968
  0
VERTEX
  5
40f
  8
Layer_0
  10
181.35225
  20
170.373
  0
VERTEX
  5
410
  8
Layer_0
  10
181.25684
  20
170.35752
  42
-0.080650513
  0
VERTEX
  5
411
  8
Layer_0
  10
180.95232
  20
170.34576
  0
VERTEX
  5
412
  8
Layer_0
  10
180.84993
  20
170.34999
  0
VERTEX
  5
413
  8
Layer_0
  10
180.78294
  20
170.34572
  0
VERTEX
  5
414
  8
Layer_0
  10
180.74361
  20
170.3316
  0
VERTEX
  5
415
  8
Layer_0
  10
180.72421
  20
170.30631
  42
-0.62056264
  0
VERTEX
  5
416
  8
Layer_0
  10
180.6799
  20
170.29196
  0
VERTEX
  5
417
  8
Layer_0
  10
180.62412
  20
170.32562
  0
VERTEX
  5
418
  8
Layer_0
  10
180.52363
  20
170.35217
  0
VERTEX
  5
419
  8
Layer_0
  10
180.45859
  20
170.3609
  0
VERTEX
  5
41a
  8
Layer_0
  10
180.42263
  20
170.36005
  0
VERTEX
  5
41b
  8
Layer_0
  10
180.41142
  20
170.34846
  0
VERTEX
  5
41c
  8
Layer_0
  10
180.42061
  20
170.32499
  42
0.086939851
  0
VERTEX
  5
41d
  8
Layer_0
  10
180.39139
  20
170.32382
  42
0.35458572
  0
VERTEX
  5
41e
  8
Layer_0
  10
180.27431
  20
170.32382
  42
0.087293857
  0
VERTEX
  5
41f
  8
Layer_0
  10
180.24174
  20
170.3196
  0
VERTEX
  5
420
  8
Layer_0
  10
180.23845
  20
170.35344
  0
VERTEX
  5
421
  8
Layer_0
  10
180.17053
  20
170.36652
  42
-0.0089726012
  0
VERTEX
  5
422
  8
Layer_0
  10
180.00412
  20
170.37531
  42
0.12435274
  0
VERTEX
  5
423
  8
Layer_0
  10
179.87646
  20
170.35423
  42
-0.37593381
  0
VERTEX
  5
424
  8
Layer_0
  10
179.79333
  20
170.368
  0
VERTEX
  5
425
  8
Layer_0
  10
179.76304
  20
170.38253
  0
VERTEX
  5
426
  8
Layer_0
  10
179.72066
  20
170.3423
  0
VERTEX
  5
427
  8
Layer_0
  10
179.67911
  20
170.30418
  0
VERTEX
  5
428
  8
Layer_0
  10
179.64809
  20
170.31111
  0
VERTEX
  5
429
  8
Layer_0
  10
179.60488
  20
170.34091
  0
VERTEX
  5
42a
  8
Layer_0
  10
179.52584
  20
170.35949
  0
VERTEX
  5
42b
  8
Layer_0
  10
179.41094
  20
170.36685
  0
VERTEX
  5
42c
  8
Layer_0
  10
179.26018
  20
170.36298
  42
-0.021756026
  0
VERTEX
  5
42d
  8
Layer_0
  10
178.83878
  20
170.37146
  0
VERTEX
  5
42e
  8
Layer_0
  10
178.69663
  20
170.37373
  0
VERTEX
  5
42f
  8
Layer_0
  10
178.58277
  20
170.37149
  0
VERTEX
  5
430
  8
Layer_0
  10
178.50875
  20
170.36525
  0
VERTEX
  5
431
  8
Layer_0
  10
178.48614
  20
170.35555
  42
-0.58738718
  0
VERTEX
  5
432
  8
Layer_0
  10
178.46841
  20
170.32825
  42
-0.2599381
  0
VERTEX
  5
433
  8
Layer_0
  10
178.41238
  20
170.36292
  0
VERTEX
  5
434
  8
Layer_0
  10
178.38022
  20
170.37612
  0
VERTEX
  5
435
  8
Layer_0
  10
178.30728
  20
170.38419
  0
VERTEX
  5
436
  8
Layer_0
  10
178.19987
  20
170.38675
  0
VERTEX
  5
437
  8
Layer_0
  10
178.06433
  20
170.38342
  0
VERTEX
  5
438
  8
Layer_0
  10
177.93615
  20
170.38029
  0
VERTEX
  5
439
  8
Layer_0
  10
177.83244
  20
170.38247
  0
VERTEX
  5
43a
  8
Layer_0
  10
177.76302
  20
170.38943
  0
VERTEX
  5
43b
  8
Layer_0
  10
177.73769
  20
170.40065
  0
VERTEX
  5
43c
  8
Layer_0
  10
177.68792
  20
170.43119
  0
VERTEX
  5
43d
  8
Layer_0
  10
177.62646
  20
170.39248
  0
VERTEX
  5
43e
  8
Layer_0
  10
177.60061
  20
170.37039
  0
VERTEX
  5
43f
  8
Layer_0
  10
177.54483
  20
170.38955
  42
0.25576809
  0
VERTEX
  5
440
  8
Layer_0
  10
177.41673
  20
170.39279
  0
VERTEX
  5
441
  8
Layer_0
  10
177.37462
  20
170.37734
  0
VERTEX
  5
442
  8
Layer_0
  10
177.35714
  20
170.38707
  0
VERTEX
  5
443
  8
Layer_0
  10
177.28949
  20
170.40314
  0
VERTEX
  5
444
  8
Layer_0
  10
177.12674
  20
170.4029
  0
VERTEX
  5
445
  8
Layer_0
  10
177.01419
  20
170.39966
  0
VERTEX
  5
446
  8
Layer_0
  10
176.93858
  20
170.40448
  0
VERTEX
  5
447
  8
Layer_0
  10
176.89215
  20
170.41856
  0
VERTEX
  5
448
  8
Layer_0
  10
176.86714
  20
170.4431
  0
VERTEX
  5
449
  8
Layer_0
  10
176.82114
  20
170.47427
  0
VERTEX
  5
44a
  8
Layer_0
  10
176.74879
  20
170.48464
  0
VERTEX
  5
44b
  8
Layer_0
  10
176.6788
  20
170.47421
  0
VERTEX
  5
44c
  8
Layer_0
  10
176.63985
  20
170.44301
  0
VERTEX
  5
44d
  8
Layer_0
  10
176.59584
  20
170.425
  0
VERTEX
  5
44e
  8
Layer_0
  10
176.50479
  20
170.42601
  0
VERTEX
  5
44f
  8
Layer_0
  10
176.40437
  20
170.4247
  0
VERTEX
  5
450
  8
Layer_0
  10
176.35016
  20
170.39304
  42
-0.74751902
  0
VERTEX
  5
451
  8
Layer_0
  10
176.31953
  20
170.40245
  0
VERTEX
  5
452
  8
Layer_0
  10
176.29637
  20
170.44339
  0
VERTEX
  5
453
  8
Layer_0
  10
176.19963
  20
170.43244
  0
VERTEX
  5
454
  8
Layer_0
  10
176.11075
  20
170.418
  0
VERTEX
  5
455
  8
Layer_0
  10
176.06468
  20
170.42109
  0
VERTEX
  5
456
  8
Layer_0
  10
175.80052
  20
170.4458
  0
VERTEX
  5
457
  8
Layer_0
  10
175.5016
  20
170.42899
  42
-0.29067427
  0
VERTEX
  5
458
  8
Layer_0
  10
175.38828
  20
170.44235
  42
0.34914391
  0
VERTEX
  5
459
  8
Layer_0
  10
175.27646
  20
170.43727
  0
VERTEX
  5
45a
  8
Layer_0
  10
175.23199
  20
170.41581
  0
VERTEX
  5
45b
  8
Layer_0
  10
175.22612
  20
170.42732
  0
VERTEX
  5
45c
  8
Layer_0
  10
175.20592
  20
170.44208
  0
VERTEX
  5
45d
  8
Layer_0
  10
175.12467
  20
170.45178
  0
VERTEX
  5
45e
  8
Layer_0
  10
174.98341
  20
170.45635
  0
VERTEX
  5
45f
  8
Layer_0
  10
174.78316
  20
170.45573
  0
VERTEX
  5
460
  8
Layer_0
  10
174.58435
  20
170.45514
  0
VERTEX
  5
461
  8
Layer_0
  10
174.44247
  20
170.45973
  0
VERTEX
  5
462
  8
Layer_0
  10
174.35957
  20
170.46934
  0
VERTEX
  5
463
  8
Layer_0
  10
174.33771
  20
170.48385
  42
-0.080200447
  0
VERTEX
  5
464
  8
Layer_0
  10
174.31186
  20
170.47691
  42
-0.31982577
  0
VERTEX
  5
465
  8
Layer_0
  10
174.20508
  20
170.46835
  0
VERTEX
  5
466
  8
Layer_0
  10
174.15356
  20
170.48397
  0
VERTEX
  5
467
  8
Layer_0
  10
174.1216
  20
170.46637
  0
VERTEX
  5
468
  8
Layer_0
  10
174.08606
  20
170.45417
  0
VERTEX
  5
469
  8
Layer_0
  10
174.0253
  20
170.48358
  0
VERTEX
  5
46a
  8
Layer_0
  10
173.96424
  20
170.5175
  0
VERTEX
  5
46b
  8
Layer_0
  10
173.90969
  20
170.5342
  0
VERTEX
  5
46c
  8
Layer_0
  10
173.8756
  20
170.53148
  0
VERTEX
  5
46d
  8
Layer_0
  10
173.87591
  20
170.50715
  0
VERTEX
  5
46e
  8
Layer_0
  10
173.83488
  20
170.48348
  0
VERTEX
  5
46f
  8
Layer_0
  10
173.73672
  20
170.5106
  42
0.34783916
  0
VERTEX
  5
470
  8
Layer_0
  10
173.67804
  20
170.51311
  0
VERTEX
  5
471
  8
Layer_0
  10
173.50336
  20
170.48857
  0
VERTEX
  5
472
  8
Layer_0
  10
173.36584
  20
170.5099
  0
VERTEX
  5
473
  8
Layer_0
  10
173.35566
  20
170.52823
  0
VERTEX
  5
474
  8
Layer_0
  10
173.30863
  20
170.53585
  0
VERTEX
  5
475
  8
Layer_0
  10
173.26097
  20
170.5254
  0
VERTEX
  5
476
  8
Layer_0
  10
173.26003
  20
170.4959
  42
0.11173386
  0
VERTEX
  5
477
  8
Layer_0
  10
173.23611
  20
170.48726
  42
0.12655547
  0
VERTEX
  5
478
  8
Layer_0
  10
173.08371
  20
170.52568
  42
0.013881762
  0
VERTEX
  5
479
  8
Layer_0
  10
171.53534
  20
170.58334
  0
VERTEX
  5
47a
  8
Layer_0
  10
171.40437
  20
170.58674
  0
VERTEX
  5
47b
  8
Layer_0
  10
171.2971
  20
170.59274
  0
VERTEX
  5
47c
  8
Layer_0
  10
171.22461
  20
170.60048
  0
VERTEX
  5
47d
  8
Layer_0
  10
171.19797
  20
170.60913
  0
VERTEX
  5
47e
  8
Layer_0
  10
171.16927
  20
170.61709
  0
VERTEX
  5
47f
  8
Layer_0
  10
171.09119
  20
170.62296
  0
VERTEX
  5
480
  8
Layer_0
  10
170.97565
  20
170.62617
  0
VERTEX
  5
481
  8
Layer_0
  10
170.83458
  20
170.62618
  0
VERTEX
  5
482
  8
Layer_0
  10
170.6935
  20
170.62589
  0
VERTEX
  5
483
  8
Layer_0
  10
170.57797
  20
170.62829
  0
VERTEX
  5
484
  8
Layer_0
  10
170.49989
  20
170.63294
  0
VERTEX
  5
485
  8
Layer_0
  10
170.47121
  20
170.63941
  0
VERTEX
  5
486
  8
Layer_0
  10
170.42552
  20
170.65749
  0
VERTEX
  5
487
  8
Layer_0
  10
170.29277
  20
170.67187
  0
VERTEX
  5
488
  8
Layer_0
  10
170.07925
  20
170.6821
  0
VERTEX
  5
489
  8
Layer_0
  10
169.79127
  20
170.68775
  0
VERTEX
  5
48a
  8
Layer_0
  10
169.64232
  20
170.69065
  0
VERTEX
  5
48b
  8
Layer_0
  10
169.522
  20
170.69575
  0
VERTEX
  5
48c
  8
Layer_0
  10
169.44262
  20
170.70232
  0
VERTEX
  5
48d
  8
Layer_0
  10
169.41647
  20
170.70964
  0
VERTEX
  5
48e
  8
Layer_0
  10
169.38193
  20
170.72373
  0
VERTEX
  5
48f
  8
Layer_0
  10
169.28331
  20
170.7322
  42
-0.0022947148
  0
VERTEX
  5
490
  8
Layer_0
  10
168.96606
  20
170.74362
  42
0.057617521
  0
VERTEX
  5
491
  8
Layer_0
  10
168.08371
  20
170.67325
  42
-0.044636609
  0
VERTEX
  5
492
  8
Layer_0
  10
167.83353
  20
170.63596
  42
0.25682808
  0
VERTEX
  5
493
  8
Layer_0
  10
167.75456
  20
170.60437
  42
-0.36038671
  0
VERTEX
  5
494
  8
Layer_0
  10
167.68423
  20
170.59314
  42
0.27114795
  0
VERTEX
  5
495
  8
Layer_0
  10
167.58932
  20
170.57655
  42
-0.14082001
  0
VERTEX
  5
496
  8
Layer_0
  10
167.45267
  20
170.52785
  42
0.16453291
  0
VERTEX
  5
497
  8
Layer_0
  10
167.33531
  20
170.49103
  0
VERTEX
  5
498
  8
Layer_0
  10
167.28924
  20
170.47381
  0
VERTEX
  5
499
  8
Layer_0
  10
167.21272
  20
170.46665
  42
0.11284463
  0
VERTEX
  5
49a
  8
Layer_0
  10
166.93698
  20
170.381
  0
VERTEX
  5
49b
  8
Layer_0
  10
166.80375
  20
170.32536
  0
VERTEX
  5
49c
  8
Layer_0
  10
166.73274
  20
170.31186
  0
VERTEX
  5
49d
  8
Layer_0
  10
166.423
  20
170.20687
  0
VERTEX
  5
49e
  8
Layer_0
  10
166.09582
  20
170.04928
  42
-0.1972593
  0
VERTEX
  5
49f
  8
Layer_0
  10
166.00899
  20
170.01682
  42
0.25868633
  0
VERTEX
  5
4a0
  8
Layer_0
  10
165.91182
  20
169.94762
  42
-0.25868766
  0
VERTEX
  5
4a1
  8
Layer_0
  10
165.81837
  20
169.87842
  0
VERTEX
  5
4a2
  8
Layer_0
  10
165.74237
  20
169.8403
  0
VERTEX
  5
4a3
  8
Layer_0
  10
165.63013
  20
169.74865
  0
VERTEX
  5
4a4
  8
Layer_0
  10
165.47061
  20
169.60173
  0
VERTEX
  5
4a5
  8
Layer_0
  10
165.35478
  20
169.50248
  0
VERTEX
  5
4a6
  8
Layer_0
  10
165.27692
  20
169.44629
  0
VERTEX
  5
4a7
  8
Layer_0
  10
165.23131
  20
169.42859
  42
0.38087189
  0
VERTEX
  5
4a8
  8
Layer_0
  10
165.05171
  20
169.29297
  42
0.013187024
  0
VERTEX
  5
4a9
  8
Layer_0
  10
165.04306
  20
169.18637
  0
VERTEX
  5
4aa
  8
Layer_0
  10
165.03016
  20
169.1375
  0
VERTEX
  5
4ab
  8
Layer_0
  10
165.00521
  20
169.11717
  0
VERTEX
  5
4ac
  8
Layer_0
  10
164.98807
  20
169.13418
  0
VERTEX
  5
4ad
  8
Layer_0
  10
164.99392
  20
169.17508
  42
0.64932745
  0
VERTEX
  5
4ae
  8
Layer_0
  10
164.9554
  20
169.20969
  42
-0.091858846
  0
VERTEX
  5
4af
  8
Layer_0
  10
164.88019
  20
169.18637
  0
VERTEX
  5
4b0
  8
Layer_0
  10
164.86997
  20
169.17223
  0
VERTEX
  5
4b1
  8
Layer_0
  10
164.86572
  20
169.13822
  0
VERTEX
  5
4b2
  8
Layer_0
  10
164.84099
  20
169.098
  0
VERTEX
  5
4b3
  8
Layer_0
  10
164.78152
  20
169.06893
  42
0.26002299
  0
VERTEX
  5
4b4
  8
Layer_0
  10
164.67538
  20
168.97868
  42
-0.32680813
  0
VERTEX
  5
4b5
  8
Layer_0
  10
164.5981
  20
168.90956
  0
VERTEX
  5
4b6
  8
Layer_0
  10
164.56456
  20
168.90401
  0
VERTEX
  5
4b7
  8
Layer_0
  10
164.56163
  20
168.8907
  0
VERTEX
  5
4b8
  8
Layer_0
  10
164.53552
  20
168.83635
  0
VERTEX
  5
4b9
  8
Layer_0
  10
164.44629
  20
168.73216
  0
VERTEX
  5
4ba
  8
Layer_0
  10
164.35151
  20
168.62458
  0
VERTEX
  5
4bb
  8
Layer_0
  10
164.31209
  20
168.56206
  0
VERTEX
  5
4bc
  8
Layer_0
  10
164.28984
  20
168.51984
  0
VERTEX
  5
4bd
  8
Layer_0
  10
164.23636
  20
168.46108
  0
VERTEX
  5
4be
  8
Layer_0
  10
164.17253
  20
168.38681
  0
VERTEX
  5
4bf
  8
Layer_0
  10
164.09344
  20
168.27063
  0
VERTEX
  5
4c0
  8
Layer_0
  10
164.00353
  20
168.11958
  0
VERTEX
  5
4c1
  8
Layer_0
  10
163.90726
  20
167.9407
  42
-0.070741775
  0
VERTEX
  5
4c2
  8
Layer_0
  10
163.80171
  20
167.77386
  42
0.19170656
  0
VERTEX
  5
4c3
  8
Layer_0
  10
163.75845
  20
167.6824
  42
-0.3105437
  0
VERTEX
  5
4c4
  8
Layer_0
  10
163.71507
  20
167.62004
  0
VERTEX
  5
4c5
  8
Layer_0
  10
163.67033
  20
167.56926
  0
VERTEX
  5
4c6
  8
Layer_0
  10
163.62366
  20
167.47055
  42
-0.11004458
  0
VERTEX
  5
4c7
  8
Layer_0
  10
163.52664
  20
167.28871
  42
0.29618579
  0
VERTEX
  5
4c8
  8
Layer_0
  10
163.49586
  20
167.19229
  0
VERTEX
  5
4c9
  8
Layer_0
  10
163.49989
  20
167.15878
  0
VERTEX
  5
4ca
  8
Layer_0
  10
163.484
  20
167.14485
  0
VERTEX
  5
4cb
  8
Layer_0
  10
163.45582
  20
167.10316
  0
VERTEX
  5
4cc
  8
Layer_0
  10
163.42029
  20
166.99861
  0
VERTEX
  5
4cd
  8
Layer_0
  10
163.38628
  20
166.86199
  0
VERTEX
  5
4ce
  8
Layer_0
  10
163.36266
  20
166.72408
  42
-0.043358292
  0
VERTEX
  5
4cf
  8
Layer_0
  10
163.29617
  20
166.45518
  42
0.073437078
  0
VERTEX
  5
4d0
  8
Layer_0
  10
163.23943
  20
166.17393
  42
-0.099269666
  0
VERTEX
  5
4d1
  8
Layer_0
  10
163.18819
  20
165.95801
  0
VERTEX
  5
4d2
  8
Layer_0
  10
163.13517
  20
165.80236
  0
VERTEX
  5
4d3
  8
Layer_0
  10
163.10385
  20
165.61566
  0
VERTEX
  5
4d4
  8
Layer_0
  10
163.09473
  20
165.49493
  0
VERTEX
  5
4d5
  8
Layer_0
  10
163.08911
  20
165.34754
  0
VERTEX
  5
4d6
  8
Layer_0
  10
163.08637
  20
165.1672
  0
VERTEX
  5
4d7
  8
Layer_0
  10
163.08587
  20
164.94762
  42
0.063106873
  0
VERTEX
  5
4d8
  8
Layer_0
  10
163.27551
  20
163.379
  0
VERTEX
  5
4d9
  8
Layer_0
  10
163.31989
  20
163.19303
  0
VERTEX
  5
4da
  8
Layer_0
  10
163.33418
  20
163.10219
  0
VERTEX
  5
4db
  8
Layer_0
  10
163.34035
  20
163.05813
  0
VERTEX
  5
4dc
  8
Layer_0
  10
163.36557
  20
162.96449
  0
VERTEX
  5
4dd
  8
Layer_0
  10
163.40581
  20
162.8333
  0
VERTEX
  5
4de
  8
Layer_0
  10
163.45703
  20
162.67663
  0
VERTEX
  5
4df
  8
Layer_0
  10
163.57628
  20
162.33508
  0
VERTEX
  5
4e0
  8
Layer_0
  10
163.69102
  20
162.03629
  42
0.040025691
  0
VERTEX
  5
4e1
  8
Layer_0
  10
163.9688
  20
161.48267
  42
-0.0018869613
  0
VERTEX
  5
4e2
  8
Layer_0
  10
164.27298
  20
160.98567
  0
VERTEX
  5
4e3
  8
Layer_0
  10
164.39736
  20
160.78896
  0
VERTEX
  5
4e4
  8
Layer_0
  10
164.47512
  20
160.68044
  42
-0.19561443
  0
VERTEX
  5
4e5
  8
Layer_0
  10
164.5197
  20
160.61015
  0
VERTEX
  5
4e6
  8
Layer_0
  10
164.56938
  20
160.54071
  0
VERTEX
  5
4e7
  8
Layer_0
  10
164.68884
  20
160.40826
  42
-0.057109949
  0
VERTEX
  5
4e8
  8
Layer_0
  10
164.9212
  20
160.12387
  0
VERTEX
  5
4e9
  8
Layer_0
  10
164.97339
  20
160.04827
  0
VERTEX
  5
4ea
  8
Layer_0
  10
165.01006
  20
160.01682
  0
VERTEX
  5
4eb
  8
Layer_0
  10
165.03718
  20
159.99976
  0
VERTEX
  5
4ec
  8
Layer_0
  10
165.09212
  20
159.95329
  0
VERTEX
  5
4ed
  8
Layer_0
  10
165.16687
  20
159.88453
  0
VERTEX
  5
4ee
  8
Layer_0
  10
165.25346
  20
159.80056
  0
VERTEX
  5
4ef
  8
Layer_0
  10
165.45049
  20
159.61314
  0
VERTEX
  5
4f0
  8
Layer_0
  10
165.63697
  20
159.44966
  0
VERTEX
  5
4f1
  8
Layer_0
  10
165.78429
  20
159.33403
  0
VERTEX
  5
4f2
  8
Layer_0
  10
165.86385
  20
159.29018
  42
-0.30376189
  0
VERTEX
  5
4f3
  8
Layer_0
  10
165.90955
  20
159.26221
  0
VERTEX
  5
4f4
  8
Layer_0
  10
166.08558
  20
159.12262
  0
VERTEX
  5
4f5
  8
Layer_0
  10
166.28199
  20
159.01336
  42
-0.41421356
  0
VERTEX
  5
4f6
  8
Layer_0
  10
166.319
  20
158.985
  0
VERTEX
  5
4f7
  8
Layer_0
  10
166.36729
  20
158.9392
  0
VERTEX
  5
4f8
  8
Layer_0
  10
166.48337
  20
158.86894
  42
-0.0034399457
  0
VERTEX
  5
4f9
  8
Layer_0
  10
166.85535
  20
158.66681
  42
0.038915148
  0
VERTEX
  5
4fa
  8
Layer_0
  10
167.65118
  20
158.33185
  0
VERTEX
  5
4fb
  8
Layer_0
  10
167.97116
  20
158.22183
  0
VERTEX
  5
4fc
  8
Layer_0
  10
168.27025
  20
158.1374
  0
VERTEX
  5
4fd
  8
Layer_0
  10
168.4353
  20
158.099
  0
VERTEX
  5
4fe
  8
Layer_0
  10
168.62313
  20
158.06004
  0
VERTEX
  5
4ff
  8
Layer_0
  10
168.84308
  20
158.01821
  0
VERTEX
  5
500
  8
Layer_0
  10
169.10447
  20
157.9712
  42
-0.0022666071
  0
VERTEX
  5
501
  8
Layer_0
  10
169.39859
  20
157.91846
  42
0.019483357
  0
VERTEX
  5
502
  8
Layer_0
  10
169.57159
  20
157.89316
  42
-0.026784452
  0
VERTEX
  5
503
  8
Layer_0
  10
169.76192
  20
157.86151
  42
0.020980119
  0
VERTEX
  5
504
  8
Layer_0
  10
170.02142
  20
157.81883
  42
-0.0060803747
  0
VERTEX
  5
505
  8
Layer_0
  10
170.39902
  20
157.76428
  42
0.0060572271
  0
VERTEX
  5
506
  8
Layer_0
  10
170.86615
  20
157.69809
  42
-0.0044532266
  0
VERTEX
  5
507
  8
Layer_0
  10
171.45741
  20
157.61496
  42
0.015155961
  0
VERTEX
  5
508
  8
Layer_0
  10
172.06296
  20
157.54121
  0
VERTEX
  5
509
  8
Layer_0
  10
172.16508
  20
157.53167
  0
VERTEX
  5
50a
  8
Layer_0
  10
172.25132
  20
157.52228
  0
VERTEX
  5
50b
  8
Layer_0
  10
172.31257
  20
157.51414
  0
VERTEX
  5
50c
  8
Layer_0
  10
172.33977
  20
157.50833
  0
VERTEX
  5
50d
  8
Layer_0
  10
172.41806
  20
157.49416
  0
VERTEX
  5
50e
  8
Layer_0
  10
172.58198
  20
157.47471
  42
-0.036341831
  0
VERTEX
  5
50f
  8
Layer_0
  10
172.92801
  20
157.42081
  42
0.022958115
  0
VERTEX
  5
510
  8
Layer_0
  10
173.29047
  20
157.35208
  0
VERTEX
  5
511
  8
Layer_0
  10
173.46864
  20
157.31307
  0
VERTEX
  5
512
  8
Layer_0
  10
173.5581
  20
157.2727
  0
VERTEX
  5
513
  8
Layer_0
  10
173.57877
  20
157.24924
  0
VERTEX
  5
514
  8
Layer_0
  10
173.58491
  20
157.27202
  0
VERTEX
  5
515
  8
Layer_0
  10
173.61893
  20
157.29886
  0
VERTEX
  5
516
  8
Layer_0
  10
173.7152
  20
157.30001
  42
0.00042109701
  0
VERTEX
  5
517
  8
Layer_0
  10
174.05257
  20
157.2674
  42
-0.0091763167
  0
VERTEX
  5
518
  8
Layer_0
  10
174.39859
  20
157.22902
  42
0.034603699
  0
VERTEX
  5
519
  8
Layer_0
  10
175.45395
  20
157.13777
  42
-0.034284855
  0
VERTEX
  5
51a
  8
Layer_0
  10
175.83458
  20
157.10902
  42
0.022518302
  0
VERTEX
  5
51b
  8
Layer_0
  10
176.61313
  20
157.05659
  0
VERTEX
  5
51c
  8
Layer_0
  10
176.83082
  20
157.04605
  0
VERTEX
  5
51d
  8
Layer_0
  10
177.01429
  20
157.03414
  0
VERTEX
  5
51e
  8
Layer_0
  10
177.14424
  20
157.02234
  0
VERTEX
  5
51f
  8
Layer_0
  10
177.20136
  20
157.0121
  0
VERTEX
  5
520
  8
Layer_0
  10
177.23473
  20
156.99968
  0
VERTEX
  5
521
  8
Layer_0
  10
177.29928
  20
156.98941
  0
VERTEX
  5
522
  8
Layer_0
  10
177.40678
  20
156.98089
  0
VERTEX
  5
523
  8
Layer_0
  10
177.56902
  20
156.97372
  0
VERTEX
  5
524
  8
Layer_0
  10
177.79775
  20
156.96748
  0
VERTEX
  5
525
  8
Layer_0
  10
178.10476
  20
156.96179
  0
VERTEX
  5
526
  8
Layer_0
  10
178.29129
  20
156.95901
  0
VERTEX
  5
527
  8
Layer_0
  10
178.50181
  20
156.95622
  0
VERTEX
  5
528
  8
Layer_0
  10
178.73777
  20
156.95337
  0
VERTEX
  5
529
  8
Layer_0
  10
179.00067
  20
156.95039
  42
-0.00013251855
  0
VERTEX
  5
52a
  8
Layer_0
  10
180.57506
  20
156.93295
  42
0.0096340625
  0
VERTEX
  5
52b
  8
Layer_0
  10
181.54391
  20
156.95311
  42
-0.00095296132
  0
VERTEX
  5
52c
  8
Layer_0
  10
183.01451
  20
156.99028
  42
0.0059323016
  0
VERTEX
  5
52d
  8
Layer_0
  10
184.01797
  20
157.02176
  42
-0.0028341899
  0
VERTEX
  5
52e
  8
Layer_0
  10
184.77203
  20
157.05252
  0
VERTEX
  5
52f
  8
Layer_0
  10
184.93214
  20
157.05984
  0
VERTEX
  5
530
  8
Layer_0
  10
185.06646
  20
157.06903
  0
VERTEX
  5
531
  8
Layer_0
  10
185.1609
  20
157.07892
  0
VERTEX
  5
532
  8
Layer_0
  10
185.20137
  20
157.08834
  42
-0.38732607
  0
VERTEX
  5
533
  8
Layer_0
  10
185.26689
  20
157.07294
  42
0.3049857
  0
VERTEX
  5
534
  8
Layer_0
  10
185.38026
  20
157.07324
  42
-0.12561232
  0
VERTEX
  5
535
  8
Layer_0
  10
185.51224
  20
157.10971
  0
VERTEX
  5
536
  8
Layer_0
  10
185.55414
  20
157.10317
  0
VERTEX
  5
537
  8
Layer_0
  10
185.52316
  20
157.07564
  0
VERTEX
  5
538
  8
Layer_0
  10
185.48915
  20
157.0477
  0
VERTEX
  5
539
  8
Layer_0
  10
185.52489
  20
157.04157
  42
0.20147241
  0
VERTEX
  5
53a
  8
Layer_0
  10
185.61703
  20
157.07954
  0
VERTEX
  5
53b
  8
Layer_0
  10
185.70864
  20
157.1105
  0
VERTEX
  5
53c
  8
Layer_0
  10
185.87482
  20
157.13082
  42
-0.0033530631
  0
VERTEX
  5
53d
  8
Layer_0
  10
187.12143
  20
157.19518
  42
0.022841757
  0
VERTEX
  5
53e
  8
Layer_0
  10
187.73871
  20
157.24879
  42
-0.058139172
  0
VERTEX
  5
53f
  8
Layer_0
  10
188.09544
  20
157.28018
  42
0.12606731
  0
VERTEX
  5
540
  8
Layer_0
  10
188.23427
  20
157.30046
  42
-0.37145384
  0
VERTEX
  5
541
  8
Layer_0
  10
188.32501
  20
157.28473
  42
0.39214556
  0
VERTEX
  5
542
  8
Layer_0
  10
188.41669
  20
157.27513
  42
-0.070640768
  0
VERTEX
  5
543
  8
Layer_0
  10
188.62004
  20
157.33617
  42
0.015339165
  0
VERTEX
  5
544
  8
Layer_0
  10
188.81036
  20
157.37721
  42
-0.047445251
  0
VERTEX
  5
545
  8
Layer_0
  10
189.05257
  20
157.40366
  42
0.020799732
  0
VERTEX
  5
546
  8
Layer_0
  10
189.38129
  20
157.43745
  42
-0.018153326
  0
VERTEX
  5
547
  8
Layer_0
  10
189.71001
  20
157.47327
  42
0.040827569
  0
VERTEX
  5
548
  8
Layer_0
  10
190.03873
  20
157.52213
  42
-0.039945395
  0
VERTEX
  5
549
  8
Layer_0
  10
190.41936
  20
157.5759
  42
0.023489658
  0
VERTEX
  5
54a
  8
Layer_0
  10
191.01443
  20
157.65814
  0
VERTEX
  5
54b
  8
Layer_0
  10
191.15006
  20
157.68016
  0
VERTEX
  5
54c
  8
Layer_0
  10
191.25849
  20
157.69394
  0
VERTEX
  5
54d
  8
Layer_0
  10
191.32873
  20
157.69834
  0
VERTEX
  5
54e
  8
Layer_0
  10
191.34976
  20
157.69226
  42
0.58738444
  0
VERTEX
  5
54f
  8
Layer_0
  10
191.36682
  20
157.66388
  42
0.25992398
  0
VERTEX
  5
550
  8
Layer_0
  10
191.42035
  20
157.69449
  0
VERTEX
  5
551
  8
Layer_0
  10
191.48049
  20
157.72312
  0
VERTEX
  5
552
  8
Layer_0
  10
191.59853
  20
157.74898
  42
0.0063525128
  0
VERTEX
  5
553
  8
Layer_0
  10
191.81522
  20
157.78297
  42
-0.010179953
  0
VERTEX
  5
554
  8
Layer_0
  10
192.44357
  20
157.886
  42
0.021088975
  0
VERTEX
  5
555
  8
Layer_0
  10
192.7896
  20
157.95207
  42
-0.026616898
  0
VERTEX
  5
556
  8
Layer_0
  10
193.23943
  20
158.02704
  0
VERTEX
  5
557
  8
Layer_0
  10
193.41028
  20
158.05452
  0
VERTEX
  5
558
  8
Layer_0
  10
193.50525
  20
158.08525
  0
VERTEX
  5
559
  8
Layer_0
  10
193.57802
  20
158.11227
  0
VERTEX
  5
55a
  8
Layer_0
  10
193.69556
  20
158.13082
  42
0.04068276
  0
VERTEX
  5
55b
  8
Layer_0
  10
194.00067
  20
158.18248
  42
-0.023777818
  0
VERTEX
  5
55c
  8
Layer_0
  10
194.24216
  20
158.2347
  42
0.019386605
  0
VERTEX
  5
55d
  8
Layer_0
  10
195.06932
  20
158.41386
  42
-0.03976922
  0
VERTEX
  5
55e
  8
Layer_0
  10
195.43265
  20
158.47523
  42
0.083922032
  0
VERTEX
  5
55f
  8
Layer_0
  10
195.71347
  20
158.54445
  42
-0.059673473
  0
VERTEX
  5
560
  8
Layer_0
  10
195.93839
  20
158.61824
  42
0.033248763
  0
VERTEX
  5
561
  8
Layer_0
  10
196.94185
  20
158.84909
  42
-0.019419071
  0
VERTEX
  5
562
  8
Layer_0
  10
197.27057
  20
158.9332
  42
0.011554987
  0
VERTEX
  5
563
  8
Layer_0
  10
197.53008
  20
158.99419
  42
0.00050613794
  0
VERTEX
  5
564
  8
Layer_0
  10
197.91071
  20
159.0993
  42
-0.0085796341
  0
VERTEX
  5
565
  8
Layer_0
  10
198.42973
  20
159.23582
  42
0.036361902
  0
VERTEX
  5
566
  8
Layer_0
  10
198.71519
  20
159.31958
  0
VERTEX
  5
567
  8
Layer_0
  10
198.7824
  20
159.3419
  0
VERTEX
  5
568
  8
Layer_0
  10
198.81036
  20
159.34208
  0
VERTEX
  5
569
  8
Layer_0
  10
198.83831
  20
159.34218
  0
VERTEX
  5
56a
  8
Layer_0
  10
198.90551
  20
159.36432
  42
-0.029310476
  0
VERTEX
  5
56b
  8
Layer_0
  10
199.48509
  20
159.53239
  42
0.0068045485
  0
VERTEX
  5
56c
  8
Layer_0
  10
199.86572
  20
159.63718
  42
-0.022214171
  0
VERTEX
  5
56d
  8
Layer_0
  10
200.43423
  20
159.79582
  42
0.08873593
  0
VERTEX
  5
56e
  8
Layer_0
  10
200.54626
  20
159.83009
  0
VERTEX
  5
56f
  8
Layer_0
  10
200.60685
  20
159.85171
  0
VERTEX
  5
570
  8
Layer_0
  10
200.72988
  20
159.88797
  0
VERTEX
  5
571
  8
Layer_0
  10
200.88077
  20
159.92913
  0
VERTEX
  5
572
  8
Layer_0
  10
201.02489
  20
159.96538
  0
VERTEX
  5
573
  8
Layer_0
  10
201.44334
  20
160.06947
  0
VERTEX
  5
574
  8
Layer_0
  10
201.78212
  20
160.16623
  0
VERTEX
  5
575
  8
Layer_0
  10
202.0645
  20
160.26291
  0
VERTEX
  5
576
  8
Layer_0
  10
202.31378
  20
160.36678
  0
VERTEX
  5
577
  8
Layer_0
  10
202.46729
  20
160.43571
  0
VERTEX
  5
578
  8
Layer_0
  10
202.60158
  20
160.49382
  0
VERTEX
  5
579
  8
Layer_0
  10
202.7022
  20
160.53498
  0
VERTEX
  5
57a
  8
Layer_0
  10
202.75466
  20
160.55309
  42
0.081136945
  0
VERTEX
  5
57b
  8
Layer_0
  10
203.22597
  20
160.70459
  42
-0.055859083
  0
VERTEX
  5
57c
  8
Layer_0
  10
203.51624
  20
160.80882
  42
0.029118293
  0
VERTEX
  5
57d
  8
Layer_0
  10
203.87956
  20
160.93587
  42
-0.071126419
  0
VERTEX
  5
57e
  8
Layer_0
  10
204.08717
  20
161.00417
  0
VERTEX
  5
57f
  8
Layer_0
  10
204.1509
  20
161.02255
  0
VERTEX
  5
580
  8
Layer_0
  10
204.27327
  20
161.0663
  0
VERTEX
  5
581
  8
Layer_0
  10
204.43667
  20
161.12884
  0
VERTEX
  5
582
  8
Layer_0
  10
204.6235
  20
161.20364
  0
VERTEX
  5
583
  8
Layer_0
  10
205.12557
  20
161.40545
  0
VERTEX
  5
584
  8
Layer_0
  10
205.63259
  20
161.6042
  0
VERTEX
  5
585
  8
Layer_0
  10
205.85234
  20
161.68864
  0
VERTEX
  5
586
  8
Layer_0
  10
206.03058
  20
161.75576
  0
VERTEX
  5
587
  8
Layer_0
  10
206.15307
  20
161.80007
  0
VERTEX
  5
588
  8
Layer_0
  10
206.20557
  20
161.81603
  0
VERTEX
  5
589
  8
Layer_0
  10
206.6024
  20
161.96224
  0
VERTEX
  5
58a
  8
Layer_0
  10
207.08025
  20
162.16347
  42
-0.019756524
  0
VERTEX
  5
58b
  8
Layer_0
  10
207.51279
  20
162.35071
  42
0.0090310214
  0
VERTEX
  5
58c
  8
Layer_0
  10
207.92801
  20
162.52382
  42
-0.0056292413
  0
VERTEX
  5
58d
  8
Layer_0
  10
208.37784
  20
162.71649
  42
0.011258093
  0
VERTEX
  5
58e
  8
Layer_0
  10
209.03528
  20
163.01089
  42
-0.01036656
  0
VERTEX
  5
58f
  8
Layer_0
  10
209.6062
  20
163.26987
  42
0.011053922
  0
VERTEX
  5
590
  8
Layer_0
  10
210.81728
  20
163.83434
  0
VERTEX
  5
591
  8
Layer_0
  10
211.10471
  20
163.98811
  0
VERTEX
  5
592
  8
Layer_0
  10
211.29482
  20
164.12604
  42
-0.064167422
  0
VERTEX
  5
593
  8
Layer_0
  10
211.4136
  20
164.20801
  42
0.065236575
  0
VERTEX
  5
594
  8
Layer_0
  10
211.55797
  20
164.31425
  0
VERTEX
  5
595
  8
Layer_0
  10
211.6928
  20
164.44103
  0
VERTEX
  5
596
  8
Layer_0
  10
211.80595
  20
164.54897
  0
VERTEX
  5
597
  8
Layer_0
  10
211.8992
  20
164.63993
  0
VERTEX
  5
598
  8
Layer_0
  10
211.97434
  20
164.71573
  0
VERTEX
  5
599
  8
Layer_0
  10
212.07741
  20
164.82928
  0
VERTEX
  5
59a
  8
Layer_0
  10
212.12946
  20
164.90436
  0
VERTEX
  5
59b
  8
Layer_0
  10
212.17251
  20
164.97157
  0
VERTEX
  5
59c
  8
Layer_0
  10
212.20721
  20
164.99952
  42
0.41421356
  0
VERTEX
  5
59d
  8
Layer_0
  10
212.23596
  20
165.05142
  0
VERTEX
  5
59e
  8
Layer_0
  10
212.24359
  20
165.08816
  0
VERTEX
  5
59f
  8
Layer_0
  10
212.26191
  20
165.1036
  0
VERTEX
  5
5a0
  8
Layer_0
  10
212.29178
  20
165.12658
  0
VERTEX
  5
5a1
  8
Layer_0
  10
212.32714
  20
165.18145
  42
-0.0060486645
  0
VERTEX
  5
5a2
  8
Layer_0
  10
212.47787
  20
165.46664
  42
0.11606916
  0
VERTEX
  5
5a3
  8
Layer_0
  10
212.91158
  20
167.11024
  42
0.049965942
  0
VERTEX
  5
5a4
  8
Layer_0
  10
212.89227
  20
167.73308
  42
-0.012267524
  0
VERTEX
  5
5a5
  8
Layer_0
  10
212.84096
  20
168.0791
  42
0.048370954
  0
VERTEX
  5
5a6
  8
Layer_0
  10
212.78288
  20
168.35593
  0
VERTEX
  5
5a7
  8
Layer_0
  10
212.70534
  20
168.59186
  0
VERTEX
  5
5a8
  8
Layer_0
  10
212.64635
  20
168.76408
  0
VERTEX
  5
5a9
  8
Layer_0
  10
212.60507
  20
168.87495
  0
VERTEX
  5
5aa
  8
Layer_0
  10
212.58065
  20
168.92686
  42
-0.077002179
  0
VERTEX
  5
5ab
  8
Layer_0
  10
212.513
  20
169.09987
  42
0.084544391
  0
VERTEX
  5
5ac
  8
Layer_0
  10
212.38739
  20
169.34842
  0
VERTEX
  5
5ad
  8
Layer_0
  10
212.32932
  20
169.44021
  0
VERTEX
  5
5ae
  8
Layer_0
  10
212.30517
  20
169.50622
  0
VERTEX
  5
5af
  8
Layer_0
  10
212.28959
  20
169.57477
  0
VERTEX
  5
5b0
  8
Layer_0
  10
212.23689
  20
169.7193
  0
VERTEX
  5
5b1
  8
Layer_0
  10
212.19381
  20
169.82724
  0
VERTEX
  5
5b2
  8
Layer_0
  10
212.13808
  20
169.9628
  0
VERTEX
  5
5b3
  8
Layer_0
  10
212.06858
  20
170.12884
  0
VERTEX
  5
5b4
  8
Layer_0
  10
211.98419
  20
170.32824
  42
2.4788698e-05
  0
VERTEX
  5
5b5
  8
Layer_0
  10
211.59454
  20
171.24519
  0
VERTEX
  5
5b6
  8
Layer_0
  10
211.49873
  20
171.46598
  0
VERTEX
  5
5b7
  8
Layer_0
  10
211.41178
  20
171.65787
  0
VERTEX
  5
5b8
  8
Layer_0
  10
211.34327
  20
171.80027
  0
VERTEX
  5
5b9
  8
Layer_0
  10
211.30277
  20
171.87259
  42
-0.087761866
  0
VERTEX
  5
5ba
  8
Layer_0
  10
211.19894
  20
172.0975
  0
VERTEX
  5
5bb
  8
Layer_0
  10
211.16203
  20
172.19487
  0
VERTEX
  5
5bc
  8
Layer_0
  10
211.0965
  20
172.34823
  0
VERTEX
  5
5bd
  8
Layer_0
  10
211.01161
  20
172.53655
  0
VERTEX
  5
5be
  8
Layer_0
  10
210.91664
  20
172.73878
  42
-0.012623904
  0
VERTEX
  5
5bf
  8
Layer_0
  10
210.45221
  20
173.77684
  0
VERTEX
  5
5c0
  8
Layer_0
  10
210.35685
  20
174.00052
  0
VERTEX
  5
5c1
  8
Layer_0
  10
210.26683
  20
174.20448
  0
VERTEX
  5
5c2
  8
Layer_0
  10
210.19229
  20
174.36621
  0
VERTEX
  5
5c3
  8
Layer_0
  10
210.14336
  20
174.46319
  0
VERTEX
  5
5c4
  8
Layer_0
  10
209.77075
  20
175.30066
  0
VERTEX
  5
5c5
  8
Layer_0
  10
209.45259
  20
176.09593
  42
0.081291805
  0
VERTEX
  5
5c6
  8
Layer_0
  10
209.40221
  20
176.23262
  42
-0.037258528
  0
VERTEX
  5
5c7
  8
Layer_0
  10
209.26636
  20
176.55661
  0
VERTEX
  5
5c8
  8
Layer_0
  10
209.12059
  20
176.93093
  0
VERTEX
  5
5c9
  8
Layer_0
  10
208.96775
  20
177.31411
  0
VERTEX
  5
5ca
  8
Layer_0
  10
208.89911
  20
177.48315
  0
VERTEX
  5
5cb
  8
Layer_0
  10
208.84123
  20
177.62335
  0
VERTEX
  5
5cc
  8
Layer_0
  10
208.79828
  20
177.72438
  0
VERTEX
  5
5cd
  8
Layer_0
  10
208.77444
  20
177.77587
  42
-0.1271754
  0
VERTEX
  5
5ce
  8
Layer_0
  10
208.74115
  20
177.87616
  0
VERTEX
  5
5cf
  8
Layer_0
  10
208.72994
  20
177.92167
  0
VERTEX
  5
5d0
  8
Layer_0
  10
208.69928
  20
178.01235
  0
VERTEX
  5
5d1
  8
Layer_0
  10
208.65361
  20
178.13677
  0
VERTEX
  5
5d2
  8
Layer_0
  10
208.59738
  20
178.28353
  0
VERTEX
  5
5d3
  8
Layer_0
  10
208.47102
  20
178.59837
  0
VERTEX
  5
5d4
  8
Layer_0
  10
208.35576
  20
178.86557
  0
VERTEX
  5
5d5
  8
Layer_0
  10
208.28582
  20
179.02736
  0
VERTEX
  5
5d6
  8
Layer_0
  10
208.25672
  20
179.11368
  0
VERTEX
  5
5d7
  8
Layer_0
  10
208.23411
  20
179.1899
  0
VERTEX
  5
5d8
  8
Layer_0
  10
208.17351
  20
179.31743
  0
VERTEX
  5
5d9
  8
Layer_0
  10
208.08576
  20
179.47845
  0
VERTEX
  5
5da
  8
Layer_0
  10
207.98173
  20
179.65512
  0
VERTEX
  5
5db
  8
Layer_0
  10
207.87225
  20
179.82958
  0
VERTEX
  5
5dc
  8
Layer_0
  10
207.76818
  20
179.98399
  0
VERTEX
  5
5dd
  8
Layer_0
  10
207.68038
  20
180.10051
  0
VERTEX
  5
5de
  8
Layer_0
  10
207.61968
  20
180.16129
  42
-0.049387085
  0
VERTEX
  5
5df
  8
Layer_0
  10
207.41281
  20
180.34296
  0
VERTEX
  5
5e0
  8
Layer_0
  10
207.27951
  20
180.45475
  0
VERTEX
  5
5e1
  8
Layer_0
  10
207.19656
  20
180.50125
  42
-0.41421356
  0
VERTEX
  5
5e2
  8
Layer_0
  10
207.14946
  20
180.53496
  0
VERTEX
  5
5e3
  8
Layer_0
  10
207.11642
  20
180.57557
  0
VERTEX
  5
5e4
  8
Layer_0
  10
207.037
  20
180.62587
  42
-0.084816631
  0
VERTEX
  5
5e5
  8
Layer_0
  10
206.85988
  20
180.75082
  42
0.27262476
  0
VERTEX
  5
5e6
  8
Layer_0
  10
206.73013
  20
180.80157
  0
VERTEX
  5
5e7
  8
Layer_0
  10
206.68268
  20
180.80169
  0
VERTEX
  5
5e8
  8
Layer_0
  10
206.66503
  20
180.83075
  0
VERTEX
  5
5e9
  8
Layer_0
  10
206.64161
  20
180.86347
  0
VERTEX
  5
5ea
  8
Layer_0
  10
206.55965
  20
180.90166
  0
VERTEX
  5
5eb
  8
Layer_0
  10
206.40155
  20
180.95179
  0
VERTEX
  5
5ec
  8
Layer_0
  10
206.14974
  20
181.02032
  42
0.10757227
  0
VERTEX
  5
5ed
  8
Layer_0
  10
205.24634
  20
181.06294
  0
SEQEND
  0
POLYLINE
  5
5ef
  8
Layer_0
  62
0
  66
1
  10
0
  20
0
  30
0
  0
VERTEX
  5
5ef
  8
Layer_0
  10
209.36039
  20
169.01891
  0
VERTEX
  5
5f0
  8
Layer_0
  10
209.42897
  20
168.86289
  0
VERTEX
  5
5f1
  8
Layer_0
  10
209.48512
  20
168.72814
  0
VERTEX
  5
5f2
  8
Layer_0
  10
209.52306
  20
168.62907
  0
VERTEX
  5
5f3
  8
Layer_0
  10
209.537
  20
168.58007
  42
-0.32680987
  0
VERTEX
  5
5f4
  8
Layer_0
  10
209.46431
  20
168.51053
  0
VERTEX
  5
5f5
  8
Layer_0
  10
209.41679
  20
168.48404
  0
VERTEX
  5
5f6
  8
Layer_0
  10
209.42971
  20
168.44937
  42
-0.19893857
  0
VERTEX
  5
5f7
  8
Layer_0
  10
209.4678
  20
168.36417
  0
VERTEX
  5
5f8
  8
Layer_0
  10
209.49197
  20
168.27814
  0
VERTEX
  5
5f9
  8
Layer_0
  10
209.55008
  20
168.13752
  42
-0.0092742197
  0
VERTEX
  5
5fa
  8
Layer_0
  10
209.82584
  20
167.49088
  0
VERTEX
  5
5fb
  8
Layer_0
  10
209.88686
  20
167.34273
  0
VERTEX
  5
5fc
  8
Layer_0
  10
209.93246
  20
167.22895
  0
VERTEX
  5
5fd
  8
Layer_0
  10
209.96392
  20
167.14437
  0
VERTEX
  5
5fe
  8
Layer_0
  10
209.98254
  20
167.08382
  0
VERTEX
  5
5ff
  8
Layer_0
  10
209.98647
  20
167.01415
  0
VERTEX
  5
600
  8
Layer_0
  10
209.95463
  20
166.97857
  0
VERTEX
  5
601
  8
Layer_0
  10
209.92081
  20
166.94746
  0
VERTEX
  5
602
  8
Layer_0
  10
209.91545
  20
166.90177
  0
VERTEX
  5
603
  8
Layer_0
  10
209.94292
  20
166.81532
  0
VERTEX
  5
604
  8
Layer_0
  10
210.0076
  20
166.66195
  0
VERTEX
  5
605
  8
Layer_0
  10
210.05327
  20
166.55411
  0
VERTEX
  5
606
  8
Layer_0
  10
210.09068
  20
166.46117
  0
VERTEX
  5
607
  8
Layer_0
  10
210.11595
  20
166.39305
  0
VERTEX
  5
608
  8
Layer_0
  10
210.12523
  20
166.35966
  0
VERTEX
  5
609
  8
Layer_0
  10
210.10166
  20
166.34752
  0
VERTEX
  5
60a
  8
Layer_0
  10
210.0328
  20
166.31629
  0
VERTEX
  5
60b
  8
Layer_0
  10
209.92146
  20
166.26715
  0
VERTEX
  5
60c
  8
Layer_0
  10
209.77045
  20
166.2013
  0
VERTEX
  5
60d
  8
Layer_0
  10
209.58257
  20
166.11992
  0
VERTEX
  5
60e
  8
Layer_0
  10
209.36063
  20
166.02421
  0
VERTEX
  5
60f
  8
Layer_0
  10
209.10744
  20
165.91536
  0
VERTEX
  5
610
  8
Layer_0
  10
208.8258
  20
165.79457
  0
VERTEX
  5
611
  8
Layer_0
  10
208.18839
  20
165.5219
  0
VERTEX
  5
612
  8
Layer_0
  10
207.47086
  20
165.21575
  0
VERTEX
  5
613
  8
Layer_0
  10
206.69566
  20
164.88564
  0
VERTEX
  5
614
  8
Layer_0
  10
205.88522
  20
164.54112
  0
VERTEX
  5
615
  8
Layer_0
  10
205.06201
  20
164.19171
  0
VERTEX
  5
616
  8
Layer_0
  10
204.24846
  20
163.84696
  0
VERTEX
  5
617
  8
Layer_0
  10
203.46702
  20
163.51639
  0
VERTEX
  5
618
  8
Layer_0
  10
202.74015
  20
163.20955
  0
VERTEX
  5
619
  8
Layer_0
  10
202.40418
  20
163.06801
  0
VERTEX
  5
61a
  8
Layer_0
  10
202.09028
  20
162.93597
  0
VERTEX
  5
61b
  8
Layer_0
  10
201.80124
  20
162.81462
  0
VERTEX
  5
61c
  8
Layer_0
  10
201.53986
  20
162.70517
  0
VERTEX
  5
61d
  8
Layer_0
  10
201.30897
  20
162.6088
  0
VERTEX
  5
61e
  8
Layer_0
  10
201.11135
  20
162.52671
  0
VERTEX
  5
61f
  8
Layer_0
  10
200.94982
  20
162.46008
  0
VERTEX
  5
620
  8
Layer_0
  10
200.82719
  20
162.4101
  42
0.013387462
  0
VERTEX
  5
621
  8
Layer_0
  10
200.38475
  20
162.2162
  42
-0.023091045
  0
VERTEX
  5
622
  8
Layer_0
  10
200.00793
  20
162.05475
  42
0.16290779
  0
VERTEX
  5
623
  8
Layer_0
  10
199.8223
  20
161.92859
  0
VERTEX
  5
624
  8
Layer_0
  10
199.77768
  20
161.87757
  0
VERTEX
  5
625
  8
Layer_0
  10
199.73219
  20
161.85391
  0
VERTEX
  5
626
  8
Layer_0
  10
199.69197
  20
161.85893
  0
VERTEX
  5
627
  8
Layer_0
  10
199.66318
  20
161.89398
  42
-0.080098615
  0
VERTEX
  5
628
  8
Layer_0
  10
199.65164
  20
161.85074
  0
VERTEX
  5
629
  8
Layer_0
  10
199.64327
  20
161.78622
  0
VERTEX
  5
62a
  8
Layer_0
  10
199.6062
  20
161.76423
  42
-0.47326392
  0
VERTEX
  5
62b
  8
Layer_0
  10
199.56296
  20
161.80748
  0
VERTEX
  5
62c
  8
Layer_0
  10
199.55732
  20
161.83839
  0
VERTEX
  5
62d
  8
Layer_0
  10
199.52603
  20
161.84758
  0
VERTEX
  5
62e
  8
Layer_0
  10
199.47254
  20
161.83519
  0
VERTEX
  5
62f
  8
Layer_0
  10
199.40034
  20
161.80134
  42
-0.22156507
  0
VERTEX
  5
630
  8
Layer_0
  10
199.27057
  20
161.77167
  42
0.52478256
  0
VERTEX
  5
631
  8
Layer_0
  10
199.22539
  20
161.74197
  0
VERTEX
  5
632
  8
Layer_0
  10
199.19036
  20
161.70567
  0
VERTEX
  5
633
  8
Layer_0
  10
199.08819
  20
161.6899
  0
VERTEX
  5
634
  8
Layer_0
  10
198.97604
  20
161.69929
  0
VERTEX
  5
635
  8
Layer_0
  10
198.93114
  20
161.74793
  0
VERTEX
  5
636
  8
Layer_0
  10
198.91093
  20
161.78165
  0
VERTEX
  5
637
  8
Layer_0
  10
198.87247
  20
161.79808
  0
VERTEX
  5
638
  8
Layer_0
  10
198.8083
  20
161.79842
  0
VERTEX
  5
639
  8
Layer_0
  10
198.71096
  20
161.78391
  0
VERTEX
  5
63a
  8
Layer_0
  10
198.71452
  20
161.76698
  0
VERTEX
  5
63b
  8
Layer_0
  10
198.74115
  20
161.72962
  0
VERTEX
  5
63c
  8
Layer_0
  10
198.76449
  20
161.69022
  0
VERTEX
  5
63d
  8
Layer_0
  10
198.74539
  20
161.67772
  0
VERTEX
  5
63e
  8
Layer_0
  10
198.71796
  20
161.65839
  0
VERTEX
  5
63f
  8
Layer_0
  10
198.70655
  20
161.6119
  0
VERTEX
  5
640
  8
Layer_0
  10
198.6795
  20
161.5538
  0
VERTEX
  5
641
  8
Layer_0
  10
198.60274
  20
161.5099
  0
VERTEX
  5
642
  8
Layer_0
  10
198.52943
  20
161.46856
  0
VERTEX
  5
643
  8
Layer_0
  10
198.49894
  20
161.42001
  0
VERTEX
  5
644
  8
Layer_0
  10
198.49259
  20
161.3827
  0
VERTEX
  5
645
  8
Layer_0
  10
198.47214
  20
161.37007
  0
VERTEX
  5
646
  8
Layer_0
  10
198.43553
  20
161.38208
  0
VERTEX
  5
647
  8
Layer_0
  10
198.38067
  20
161.41872
  42
0.34826231
  0
VERTEX
  5
648
  8
Layer_0
  10
198.26738
  20
161.42999
  0
VERTEX
  5
649
  8
Layer_0
  10
198.22063
  20
161.40236
  0
VERTEX
  5
64a
  8
Layer_0
  10
198.20224
  20
161.41267
  0
VERTEX
  5
64b
  8
Layer_0
  10
198.21373
  20
161.4503
  0
VERTEX
  5
64c
  8
Layer_0
  10
198.25663
  20
161.50462
  0
VERTEX
  5
64d
  8
Layer_0
  10
198.299
  20
161.54445
  0
VERTEX
  5
64e
  8
Layer_0
  10
198.3269
  20
161.55945
  0
VERTEX
  5
64f
  8
Layer_0
  10
198.34935
  20
161.55076
  0
VERTEX
  5
650
  8
Layer_0
  10
198.37537
  20
161.51952
  42
0.72537728
  0
VERTEX
  5
651
  8
Layer_0
  10
198.49893
  20
161.55757
  42
0.5260896
  0
VERTEX
  5
652
  8
Layer_0
  10
198.44704
  20
161.58643
  42
-0.52610112
  0
VERTEX
  5
653
  8
Layer_0
  10
198.39513
  20
161.60934
  0
VERTEX
  5
654
  8
Layer_0
  10
198.36773
  20
161.63696
  0
VERTEX
  5
655
  8
Layer_0
  10
198.28267
  20
161.63258
  42
-0.018103693
  0
VERTEX
  5
656
  8
Layer_0
  10
197.15965
  20
161.45541
  42
0.069571996
  0
VERTEX
  5
657
  8
Layer_0
  10
196.60602
  20
161.2993
  0
VERTEX
  5
658
  8
Layer_0
  10
196.43822
  20
161.23523
  0
VERTEX
  5
659
  8
Layer_0
  10
196.33017
  20
161.20136
  0
VERTEX
  5
65a
  8
Layer_0
  10
196.2687
  20
161.19451
  0
VERTEX
  5
65b
  8
Layer_0
  10
196.2406
  20
161.21153
  42
0.32774581
  0
VERTEX
  5
65c
  8
Layer_0
  10
196.1541
  20
161.24544
  42
-0.019167646
  0
VERTEX
  5
65d
  8
Layer_0
  10
195.25847
  20
161.06961
  42
0.00027055269
  0
VERTEX
  5
65e
  8
Layer_0
  10
195.00493
  20
161.03513
  42
-0.01850227
  0
VERTEX
  5
65f
  8
Layer_0
  10
194.57159
  20
161.00175
  42
0.078215813
  0
VERTEX
  5
660
  8
Layer_0
  10
193.98337
  20
160.88524
  0
VERTEX
  5
661
  8
Layer_0
  10
193.76175
  20
160.80018
  0
VERTEX
  5
662
  8
Layer_0
  10
193.57173
  20
160.73105
  0
VERTEX
  5
663
  8
Layer_0
  10
193.4275
  20
160.68281
  0
VERTEX
  5
664
  8
Layer_0
  10
193.34323
  20
160.66045
  42
0.034671189
  0
VERTEX
  5
665
  8
Layer_0
  10
193.17021
  20
160.61568
  42
-0.0055658192
  0
VERTEX
  5
666
  8
Layer_0
  10
192.8934
  20
160.53564
  42
0.0092255822
  0
VERTEX
  5
667
  8
Layer_0
  10
192.59929
  20
160.44817
  42
-0.075027762
  0
VERTEX
  5
668
  8
Layer_0
  10
192.39166
  20
160.40344
  42
0.053035379
  0
VERTEX
  5
669
  8
Layer_0
  10
192.23596
  20
160.38339
  0
VERTEX
  5
66a
  8
Layer_0
  10
191.76571
  20
160.30288
  0
VERTEX
  5
66b
  8
Layer_0
  10
191.26288
  20
160.25915
  0
VERTEX
  5
66c
  8
Layer_0
  10
190.77943
  20
160.25473
  0
VERTEX
  5
66d
  8
Layer_0
  10
190.36734
  20
160.29217
  0
VERTEX
  5
66e
  8
Layer_0
  10
190.10773
  20
160.33498
  0
VERTEX
  5
66f
  8
Layer_0
  10
189.80074
  20
160.2079
  0
VERTEX
  5
670
  8
Layer_0
  10
189.67933
  20
160.16081
  0
VERTEX
  5
671
  8
Layer_0
  10
189.57571
  20
160.12654
  0
VERTEX
  5
672
  8
Layer_0
  10
189.50086
  20
160.10832
  0
VERTEX
  5
673
  8
Layer_0
  10
189.46577
  20
160.10938
  0
VERTEX
  5
674
  8
Layer_0
  10
189.45331
  20
160.13136
  0
VERTEX
  5
675
  8
Layer_0
  10
189.42848
  20
160.18326
  0
VERTEX
  5
676
  8
Layer_0
  10
189.39277
  20
160.26171
  0
VERTEX
  5
677
  8
Layer_0
  10
189.34767
  20
160.36332
  0
VERTEX
  5
678
  8
Layer_0
  10
189.23521
  20
160.62251
  0
VERTEX
  5
679
  8
Layer_0
  10
189.10303
  20
160.93378
  0
VERTEX
  5
67a
  8
Layer_0
  10
188.96792
  20
161.25285
  0
VERTEX
  5
67b
  8
Layer_0
  10
188.84751
  20
161.53331
  0
VERTEX
  5
67c
  8
Layer_0
  10
188.79691
  20
161.64959
  0
VERTEX
  5
67d
  8
Layer_0
  10
188.75491
  20
161.74486
  0
VERTEX
  5
67e
  8
Layer_0
  10
188.72314
  20
161.81532
  0
VERTEX
  5
67f
  8
Layer_0
  10
188.70324
  20
161.85718
  0
VERTEX
  5
680
  8
Layer_0
  10
188.63818
  20
161.98474
  0
VERTEX
  5
681
  8
Layer_0
  10
188.71562
  20
162.00838
  42
0.03522597
  0
VERTEX
  5
682
  8
Layer_0
  10
188.97125
  20
162.11525
  0
VERTEX
  5
683
  8
Layer_0
  10
189.05897
  20
162.15952
  0
VERTEX
  5
684
  8
Layer_0
  10
189.11073
  20
162.19555
  0
VERTEX
  5
685
  8
Layer_0
  10
189.13282
  20
162.22933
  0
VERTEX
  5
686
  8
Layer_0
  10
189.13157
  20
162.26683
  42
0.33737554
  0
VERTEX
  5
687
  8
Layer_0
  10
189.07449
  20
162.33569
  42
-0.71937855
  0
VERTEX
  5
688
  8
Layer_0
  10
189.06987
  20
162.36165
  0
VERTEX
  5
689
  8
Layer_0
  10
189.08361
  20
162.39472
  0
VERTEX
  5
68a
  8
Layer_0
  10
189.09543
  20
162.46599
  0
VERTEX
  5
68b
  8
Layer_0
  10
189.10407
  20
162.56497
  0
VERTEX
  5
68c
  8
Layer_0
  10
189.10828
  20
162.68118
  42
-0.014009269
  0
VERTEX
  5
68d
  8
Layer_0
  10
189.17613
  20
164.06526
  42
0.035823931
  0
VERTEX
  5
68e
  8
Layer_0
  10
189.17702
  20
164.77461
  0
VERTEX
  5
68f
  8
Layer_0
  10
189.17012
  20
164.88944
  0
VERTEX
  5
690
  8
Layer_0
  10
189.16375
  20
165.03823
  0
VERTEX
  5
691
  8
Layer_0
  10
189.15794
  20
165.21541
  0
VERTEX
  5
692
  8
Layer_0
  10
189.15274
  20
165.41542
  0
VERTEX
  5
693
  8
Layer_0
  10
189.14435
  20
165.86169
  0
VERTEX
  5
694
  8
Layer_0
  10
189.13894
  20
166.33254
  0
VERTEX
  5
695
  8
Layer_0
  10
189.13687
  20
166.78349
  0
VERTEX
  5
696
  8
Layer_0
  10
189.13851
  20
167.17004
  0
VERTEX
  5
697
  8
Layer_0
  10
189.14083
  20
167.32527
  0
VERTEX
  5
698
  8
Layer_0
  10
189.14421
  20
167.44771
  0
VERTEX
  5
699
  8
Layer_0
  10
189.14869
  20
167.5318
  0
VERTEX
  5
69a
  8
Layer_0
  10
189.15433
  20
167.57199
  0
VERTEX
  5
69b
  8
Layer_0
  10
189.18296
  20
167.62247
  0
VERTEX
  5
69c
  8
Layer_0
  10
189.23266
  20
167.65024
  0
VERTEX
  5
69d
  8
Layer_0
  10
189.32156
  20
167.66028
  0
VERTEX
  5
69e
  8
Layer_0
  10
189.4678
  20
167.65751
  42
0.024343697
  0
VERTEX
  5
69f
  8
Layer_0
  10
190.08923
  20
167.67885
  0
VERTEX
  5
6a0
  8
Layer_0
  10
190.25066
  20
167.68482
  0
VERTEX
  5
6a1
  8
Layer_0
  10
190.38728
  20
167.68358
  0
VERTEX
  5
6a2
  8
Layer_0
  10
190.49485
  20
167.6753
  0
VERTEX
  5
6a3
  8
Layer_0
  10
190.56912
  20
167.66013
  0
VERTEX
  5
6a4
  8
Layer_0
  10
190.66716
  20
167.63846
  0
VERTEX
  5
6a5
  8
Layer_0
  10
190.71254
  20
167.66238
  0
VERTEX
  5
6a6
  8
Layer_0
  10
190.75556
  20
167.68967
  0
VERTEX
  5
6a7
  8
Layer_0
  10
190.85919
  20
167.71078
  0
VERTEX
  5
6a8
  8
Layer_0
  10
190.93993
  20
167.71985
  0
VERTEX
  5
6a9
  8
Layer_0
  10
191.04327
  20
167.72838
  0
VERTEX
  5
6aa
  8
Layer_0
  10
191.17169
  20
167.73671
  0
VERTEX
  5
6ab
  8
Layer_0
  10
191.32766
  20
167.74515
  0
VERTEX
  5
6ac
  8
Layer_0
  10
191.44889
  20
167.74906
  0
VERTEX
  5
6ad
  8
Layer_0
  10
191.52601
  20
167.74535
  0
VERTEX
  5
6ae
  8
Layer_0
  10
191.56667
  20
167.73296
  0
VERTEX
  5
6af
  8
Layer_0
  10
191.57852
  20
167.71086
  0
VERTEX
  5
6b0
  8
Layer_0
  10
191.59364
  20
167.67582
  0
VERTEX
  5
6b1
  8
Layer_0
  10
191.62962
  20
167.66528
  0
VERTEX
  5
6b2
  8
Layer_0
  10
191.67238
  20
167.67872
  0
VERTEX
  5
6b3
  8
Layer_0
  10
191.70785
  20
167.71562
  0
VERTEX
  5
6b4
  8
Layer_0
  10
191.74784
  20
167.7468
  0
VERTEX
  5
6b5
  8
Layer_0
  10
191.88164
  20
167.76881
  0
VERTEX
  5
6b6
  8
Layer_0
  10
192.01041
  20
167.77895
  0
VERTEX
  5
6b7
  8
Layer_0
  10
192.19466
  20
167.78989
  0
VERTEX
  5
6b8
  8
Layer_0
  10
192.44506
  20
167.80266
  0
VERTEX
  5
6b9
  8
Layer_0
  10
192.77229
  20
167.81828
  42
0.0026907886
  0
VERTEX
  5
6ba
  8
Layer_0
  10
193.37784
  20
167.85072
  42
-0.002297489
  0
VERTEX
  5
6bb
  8
Layer_0
  10
194.07806
  20
167.88817
  0
VERTEX
  5
6bc
  8
Layer_0
  10
194.41496
  20
167.90457
  0
VERTEX
  5
6bd
  8
Layer_0
  10
194.43553
  20
167.81018
  42
0.03676108
  0
VERTEX
  5
6be
  8
Layer_0
  10
194.49223
  20
167.62032
  42
-0.092408307
  0
VERTEX
  5
6bf
  8
Layer_0
  10
194.52769
  20
167.43001
  42
0.18484346
  0
VERTEX
  5
6c0
  8
Layer_0
  10
194.57866
  20
167.27679
  0
VERTEX
  5
6c1
  8
Layer_0
  10
194.60943
  20
167.22635
  0
VERTEX
  5
6c2
  8
Layer_0
  10
194.61091
  20
167.18707
  0
VERTEX
  5
6c3
  8
Layer_0
  10
194.62651
  20
167.10489
  0
VERTEX
  5
6c4
  8
Layer_0
  10
194.69122
  20
166.95132
  42
-0.052083054
  0
VERTEX
  5
6c5
  8
Layer_0
  10
194.81476
  20
166.65176
  0
VERTEX
  5
6c6
  8
Layer_0
  10
194.8406
  20
166.58457
  0
VERTEX
  5
6c7
  8
Layer_0
  10
194.8692
  20
166.55661
  0
VERTEX
  5
6c8
  8
Layer_0
  10
194.92392
  20
166.50597
  0
VERTEX
  5
6c9
  8
Layer_0
  10
195.01251
  20
166.38423
  0
VERTEX
  5
6ca
  8
Layer_0
  10
195.10019
  20
166.26229
  0
VERTEX
  5
6cb
  8
Layer_0
  10
195.1527
  20
166.21121
  0
VERTEX
  5
6cc
  8
Layer_0
  10
195.1996
  20
166.18486
  0
VERTEX
  5
6cd
  8
Layer_0
  10
195.2738
  20
166.12237
  42
0.14279559
  0
VERTEX
  5
6ce
  8
Layer_0
  10
196.05981
  20
165.74121
  42
-0.04121029
  0
VERTEX
  5
6cf
  8
Layer_0
  10
196.54391
  20
165.61819
  0
VERTEX
  5
6d0
  8
Layer_0
  10
196.88041
  20
165.53384
  0
VERTEX
  5
6d1
  8
Layer_0
  10
197.26718
  20
165.49567
  0
VERTEX
  5
6d2
  8
Layer_0
  10
197.63834
  20
165.50608
  0
VERTEX
  5
6d3
  8
Layer_0
  10
197.928
  20
165.56749
  0
VERTEX
  5
6d4
  8
Layer_0
  10
198.06156
  20
165.61762
  0
VERTEX
  5
6d5
  8
Layer_0
  10
198.14674
  20
165.64461
  0
VERTEX
  5
6d6
  8
Layer_0
  10
198.19969
  20
165.65256
  0
VERTEX
  5
6d7
  8
Layer_0
  10
198.23656
  20
165.64554
  42
0.42735349
  0
VERTEX
  5
6d8
  8
Layer_0
  10
198.29919
  20
165.66328
  42
-0.29633911
  0
VERTEX
  5
6d9
  8
Layer_0
  10
198.37929
  20
165.70689
  42
0.068285922
  0
VERTEX
  5
6da
  8
Layer_0
  10
198.83438
  20
165.83606
  0
VERTEX
  5
6db
  8
Layer_0
  10
198.97134
  20
165.87901
  0
VERTEX
  5
6dc
  8
Layer_0
  10
199.04825
  20
165.88454
  42
0.41419922
  0
VERTEX
  5
6dd
  8
Layer_0
  10
199.10413
  20
165.89861
  42
-0.25993878
  0
VERTEX
  5
6de
  8
Layer_0
  10
199.1834
  20
165.93378
  0
VERTEX
  5
6df
  8
Layer_0
  10
199.47284
  20
166.00359
  0
VERTEX
  5
6e0
  8
Layer_0
  10
199.79652
  20
166.11082
  0
VERTEX
  5
6e1
  8
Layer_0
  10
199.90737
  20
166.15473
  0
VERTEX
  5
6e2
  8
Layer_0
  10
200.00169
  20
166.17938
  0
VERTEX
  5
6e3
  8
Layer_0
  10
200.07014
  20
166.18314
  0
VERTEX
  5
6e4
  8
Layer_0
  10
200.1034
  20
166.16438
  42
0.59019692
  0
VERTEX
  5
6e5
  8
Layer_0
  10
200.14946
  20
166.1655
  0
VERTEX
  5
6e6
  8
Layer_0
  10
200.24108
  20
166.22494
  0
VERTEX
  5
6e7
  8
Layer_0
  10
200.41996
  20
166.30972
  0
VERTEX
  5
6e8
  8
Layer_0
  10
200.53228
  20
166.35481
  0
VERTEX
  5
6e9
  8
Layer_0
  10
200.61149
  20
166.37962
  0
VERTEX
  5
6ea
  8
Layer_0
  10
200.66162
  20
166.38507
  0
VERTEX
  5
6eb
  8
Layer_0
  10
200.6867
  20
166.37212
  0
VERTEX
  5
6ec
  8
Layer_0
  10
200.70605
  20
166.35144
  0
VERTEX
  5
6ed
  8
Layer_0
  10
200.71294
  20
166.36941
  0
VERTEX
  5
6ee
  8
Layer_0
  10
200.75651
  20
166.40916
  0
VERTEX
  5
6ef
  8
Layer_0
  10
200.86053
  20
166.45175
  42
0.02484357
  0
VERTEX
  5
6f0
  8
Layer_0
  10
201.38821
  20
166.6273
  42
-0.053690846
  0
VERTEX
  5
6f1
  8
Layer_0
  10
201.6971
  20
166.71483
  42
0.056452376
  0
VERTEX
  5
6f2
  8
Layer_0
  10
201.93961
  20
166.79787
  0
VERTEX
  5
6f3
  8
Layer_0
  10
202.05116
  20
166.84014
  0
VERTEX
  5
6f4
  8
Layer_0
  10
202.09755
  20
166.84668
  0
VERTEX
  5
6f5
  8
Layer_0
  10
202.13059
  20
166.85326
  0
VERTEX
  5
6f6
  8
Layer_0
  10
202.21001
  20
166.8956
  42
-0.093712416
  0
VERTEX
  5
6f7
  8
Layer_0
  10
202.46088
  20
166.98701
  0
VERTEX
  5
6f8
  8
Layer_0
  10
202.6799
  20
167.03622
  0
VERTEX
  5
6f9
  8
Layer_0
  10
202.90809
  20
167.10637
  0
VERTEX
  5
6fa
  8
Layer_0
  10
203.10865
  20
167.18473
  0
VERTEX
  5
6fb
  8
Layer_0
  10
203.24478
  20
167.25855
  0
VERTEX
  5
6fc
  8
Layer_0
  10
203.32079
  20
167.29932
  0
VERTEX
  5
6fd
  8
Layer_0
  10
203.37454
  20
167.30259
  42
0.58737934
  0
VERTEX
  5
6fe
  8
Layer_0
  10
203.41243
  20
167.31189
  0
VERTEX
  5
6ff
  8
Layer_0
  10
203.44038
  20
167.3403
  0
VERTEX
  5
700
  8
Layer_0
  10
203.50759
  20
167.36266
  42
0.057278529
  0
VERTEX
  5
701
  8
Layer_0
  10
204.22588
  20
167.57603
  0
VERTEX
  5
702
  8
Layer_0
  10
204.38462
  20
167.63808
  0
VERTEX
  5
703
  8
Layer_0
  10
204.48736
  20
167.66388
  42
0.25993114
  0
VERTEX
  5
704
  8
Layer_0
  10
204.57066
  20
167.69698
  42
-0.36040185
  0
VERTEX
  5
705
  8
Layer_0
  10
204.6391
  20
167.71165
  0
VERTEX
  5
706
  8
Layer_0
  10
204.73227
  20
167.72988
  0
VERTEX
  5
707
  8
Layer_0
  10
204.88886
  20
167.79959
  0
VERTEX
  5
708
  8
Layer_0
  10
205.04721
  20
167.87473
  0
VERTEX
  5
709
  8
Layer_0
  10
205.14457
  20
167.90602
  42
0.16297426
  0
VERTEX
  5
70a
  8
Layer_0
  10
205.26569
  20
167.95689
  42
-0.15830184
  0
VERTEX
  5
70b
  8
Layer_0
  10
205.3891
  20
168.0088
  0
VERTEX
  5
70c
  8
Layer_0
  10
205.48615
  20
168.03493
  0
VERTEX
  5
70d
  8
Layer_0
  10
205.64052
  20
168.09622
  0
VERTEX
  5
70e
  8
Layer_0
  10
205.78583
  20
168.15557
  0
VERTEX
  5
70f
  8
Layer_0
  10
205.86109
  20
168.17705
  0
VERTEX
  5
710
  8
Layer_0
  10
205.92194
  20
168.1814
  0
VERTEX
  5
711
  8
Layer_0
  10
206.02737
  20
168.20874
  0
VERTEX
  5
712
  8
Layer_0
  10
206.17043
  20
168.25693
  0
VERTEX
  5
713
  8
Layer_0
  10
206.34417
  20
168.32388
  0
VERTEX
  5
714
  8
Layer_0
  10
206.53597
  20
168.39538
  0
VERTEX
  5
715
  8
Layer_0
  10
206.64595
  20
168.42513
  0
VERTEX
  5
716
  8
Layer_0
  10
206.74103
  20
168.45102
  0
VERTEX
  5
717
  8
Layer_0
  10
206.89701
  20
168.51329
  42
-0.049021947
  0
VERTEX
  5
718
  8
Layer_0
  10
207.23849
  20
168.6333
  0
VERTEX
  5
719
  8
Layer_0
  10
207.28534
  20
168.64741
  0
VERTEX
  5
71a
  8
Layer_0
  10
207.36442
  20
168.67547
  0
VERTEX
  5
71b
  8
Layer_0
  10
207.47147
  20
168.71579
  0
VERTEX
  5
71c
  8
Layer_0
  10
207.60223
  20
168.76671
  0
VERTEX
  5
71d
  8
Layer_0
  10
207.91783
  20
168.89361
  0
VERTEX
  5
71e
  8
Layer_0
  10
208.27715
  20
169.04272
  0
VERTEX
  5
71f
  8
Layer_0
  10
208.62565
  20
169.18896
  0
VERTEX
  5
720
  8
Layer_0
  10
208.91181
  20
169.30805
  0
VERTEX
  5
721
  8
Layer_0
  10
209.02226
  20
169.35358
  0
VERTEX
  5
722
  8
Layer_0
  10
209.10603
  20
169.38774
  0
VERTEX
  5
723
  8
Layer_0
  10
209.15942
  20
169.40898
  0
VERTEX
  5
724
  8
Layer_0
  10
209.17873
  20
169.41578
  0
VERTEX
  5
725
  8
Layer_0
  10
209.19463
  20
169.38308
  0
VERTEX
  5
726
  8
Layer_0
  10
209.23418
  20
169.29735
  0
VERTEX
  5
727
  8
Layer_0
  10
209.29142
  20
169.17162
  0
VERTEX
  5
728
  8
Layer_0
  10
209.36039
  20
169.01891
  0
SEQEND
  0
POLYLINE
  5
72a
  8
Layer_0
  62
0
  66
1
  10
0
  20
0
  30
0
  0
VERTEX
  5
72a
  8
Layer_0
  10
187.04565
  20
163.40782
  0
VERTEX
  5
72b
  8
Layer_0
  10
187.04565
  20
160.60506
  0
VERTEX
  5
72c
  8
Layer_0
  10
182.99721
  20
160.60506
  0
VERTEX
  5
72d
  8
Layer_0
  10
178.94876
  20
160.60506
  0
VERTEX
  5
72e
  8
Layer_0
  10
178.94876
  20
161.59122
  0
VERTEX
  5
72f
  8
Layer_0
  10
178.94828
  20
161.85309
  0
VERTEX
  5
730
  8
Layer_0
  10
178.94672
  20
162.06791
  0
VERTEX
  5
731
  8
Layer_0
  10
178.94392
  20
162.23947
  0
VERTEX
  5
732
  8
Layer_0
  10
178.93971
  20
162.37152
  0
VERTEX
  5
733
  8
Layer_0
  10
178.93393
  20
162.46784
  0
VERTEX
  5
734
  8
Layer_0
  10
178.92641
  20
162.53219
  0
VERTEX
  5
735
  8
Layer_0
  10
178.917
  20
162.56836
  0
VERTEX
  5
736
  8
Layer_0
  10
178.90551
  20
162.58011
  42
-0.79891646
  0
VERTEX
  5
737
  8
Layer_0
  10
178.90648
  20
162.60062
  0
VERTEX
  5
738
  8
Layer_0
  10
178.91826
  20
162.61605
  0
VERTEX
  5
739
  8
Layer_0
  10
178.92784
  20
162.65461
  0
VERTEX
  5
73a
  8
Layer_0
  10
178.93541
  20
162.72024
  0
VERTEX
  5
73b
  8
Layer_0
  10
178.94111
  20
162.81689
  0
VERTEX
  5
73c
  8
Layer_0
  10
178.94513
  20
162.9485
  0
VERTEX
  5
73d
  8
Layer_0
  10
178.94762
  20
163.11904
  0
VERTEX
  5
73e
  8
Layer_0
  10
178.94877
  20
163.33246
  0
VERTEX
  5
73f
  8
Layer_0
  10
178.94873
  20
163.59269
  42
-0.0008087693
  0
VERTEX
  5
740
  8
Layer_0
  10
178.94777
  20
165.38879
  0
VERTEX
  5
741
  8
Layer_0
  10
178.94876
  20
166.21059
  0
VERTEX
  5
742
  8
Layer_0
  10
182.99721
  20
166.21059
  0
VERTEX
  5
743
  8
Layer_0
  10
187.04565
  20
166.21059
  0
VERTEX
  5
744
  8
Layer_0
  10
187.04565
  20
163.40782
  0
SEQEND
  0
POLYLINE
  5
746
  8
Layer_0
  62
0
  66
1
  10
0
  20
0
  30
0
  0
VERTEX
  5
746
  8
Layer_0
  10
169.537
  20
167.85488
  0
VERTEX
  5
747
  8
Layer_0
  10
169.68956
  20
167.83429
  0
VERTEX
  5
748
  8
Layer_0
  10
169.78237
  20
167.81955
  0
VERTEX
  5
749
  8
Layer_0
  10
169.839
  20
167.80626
  0
VERTEX
  5
74a
  8
Layer_0
  10
169.88302
  20
167.78999
  42
0.078363651
  0
VERTEX
  5
74b
  8
Layer_0
  10
170.08926
  20
167.7547
  0
VERTEX
  5
74c
  8
Layer_0
  10
170.20186
  20
167.73445
  0
VERTEX
  5
74d
  8
Layer_0
  10
170.25584
  20
167.70459
  0
VERTEX
  5
74e
  8
Layer_0
  10
170.31541
  20
167.6832
  0
VERTEX
  5
74f
  8
Layer_0
  10
170.46483
  20
167.69094
  0
VERTEX
  5
750
  8
Layer_0
  10
170.62252
  20
167.70434
  0
VERTEX
  5
751
  8
Layer_0
  10
170.79309
  20
167.70696
  0
VERTEX
  5
752
  8
Layer_0
  10
171.0001
  20
167.69844
  0
VERTEX
  5
753
  8
Layer_0
  10
171.2671
  20
167.6784
  42
0.015987346
  0
VERTEX
  5
754
  8
Layer_0
  10
171.76006
  20
167.65146
  0
VERTEX
  5
755
  8
Layer_0
  10
171.92496
  20
167.64293
  0
VERTEX
  5
756
  8
Layer_0
  10
171.99362
  20
167.62928
  0
VERTEX
  5
757
  8
Layer_0
  10
172.05723
  20
167.61859
  0
VERTEX
  5
758
  8
Layer_0
  10
172.21001
  20
167.61719
  42
-0.050967707
  0
VERTEX
  5
759
  8
Layer_0
  10
172.57397
  20
167.59558
  0
VERTEX
  5
75a
  8
Layer_0
  10
172.68414
  20
167.58558
  0
VERTEX
  5
75b
  8
Layer_0
  10
172.74073
  20
167.59959
  42
-0.41637206
  0
VERTEX
  5
75c
  8
Layer_0
  10
172.80063
  20
167.60474
  0
VERTEX
  5
75d
  8
Layer_0
  10
172.86352
  20
167.58745
  0
VERTEX
  5
75e
  8
Layer_0
  10
173.0117
  20
167.5746
  0
VERTEX
  5
75f
  8
Layer_0
  10
173.12892
  20
167.56922
  0
VERTEX
  5
760
  8
Layer_0
  10
173.28083
  20
167.5642
  0
VERTEX
  5
761
  8
Layer_0
  10
173.47189
  20
167.5593
  0
VERTEX
  5
762
  8
Layer_0
  10
173.70655
  20
167.55427
  0
VERTEX
  5
763
  8
Layer_0
  10
173.87372
  20
167.54822
  0
VERTEX
  5
764
  8
Layer_0
  10
174.01132
  20
167.53798
  0
VERTEX
  5
765
  8
Layer_0
  10
174.1075
  20
167.52477
  0
VERTEX
  5
766
  8
Layer_0
  10
174.15036
  20
167.50975
  42
0.57004797
  0
VERTEX
  5
767
  8
Layer_0
  10
174.1936
  20
167.50816
  0
VERTEX
  5
768
  8
Layer_0
  10
174.37192
  20
167.53926
  0
VERTEX
  5
769
  8
Layer_0
  10
174.58603
  20
167.50995
  0
VERTEX
  5
76a
  8
Layer_0
  10
174.68745
  20
167.49128
  0
VERTEX
  5
76b
  8
Layer_0
  10
174.86912
  20
167.48483
  0
VERTEX
  5
76c
  8
Layer_0
  10
175.00644
  20
167.47993
  0
VERTEX
  5
76d
  8
Layer_0
  10
175.09031
  20
167.4642
  0
VERTEX
  5
76e
  8
Layer_0
  10
175.11247
  20
167.4407
  0
VERTEX
  5
76f
  8
Layer_0
  10
175.06468
  20
167.41248
  0
VERTEX
  5
770
  8
Layer_0
  10
175.08187
  20
167.40253
  0
VERTEX
  5
771
  8
Layer_0
  10
175.18394
  20
167.39962
  0
VERTEX
  5
772
  8
Layer_0
  10
175.26601
  20
167.40256
  0
VERTEX
  5
773
  8
Layer_0
  10
175.30941
  20
167.41048
  0
VERTEX
  5
774
  8
Layer_0
  10
175.32036
  20
167.42608
  0
VERTEX
  5
775
  8
Layer_0
  10
175.30505
  20
167.45204
  0
VERTEX
  5
776
  8
Layer_0
  10
175.28747
  20
167.47697
  0
VERTEX
  5
777
  8
Layer_0
  10
175.28983
  20
167.48822
  0
VERTEX
  5
778
  8
Layer_0
  10
175.31541
  20
167.48696
  0
VERTEX
  5
779
  8
Layer_0
  10
175.36745
  20
167.47434
  42
0.062195306
  0
VERTEX
  5
77a
  8
Layer_0
  10
175.71347
  20
167.44269
  0
VERTEX
  5
77b
  8
Layer_0
  10
175.95569
  20
167.43904
  0
VERTEX
  5
77c
  8
Layer_0
  10
175.95471
  20
167.28329
  0
VERTEX
  5
77d
  8
Layer_0
  10
175.94542
  20
167.1595
  0
VERTEX
  5
77e
  8
Layer_0
  10
175.92443
  20
167.08059
  0
VERTEX
  5
77f
  8
Layer_0
  10
175.91862
  20
167.05264
  0
VERTEX
  5
780
  8
Layer_0
  10
175.96431
  20
167.0552
  0
VERTEX
  5
781
  8
Layer_0
  10
176.07781
  20
167.09235
  0
VERTEX
  5
782
  8
Layer_0
  10
176.27543
  20
167.16815
  0
VERTEX
  5
783
  8
Layer_0
  10
176.43669
  20
167.22277
  0
VERTEX
  5
784
  8
Layer_0
  10
176.52116
  20
167.23473
  0
VERTEX
  5
785
  8
Layer_0
  10
176.5598
  20
167.17565
  0
VERTEX
  5
786
  8
Layer_0
  10
176.61085
  20
167.05947
  0
VERTEX
  5
787
  8
Layer_0
  10
176.66124
  20
166.94871
  0
VERTEX
  5
788
  8
Layer_0
  10
176.69827
  20
166.90263
  42
0.099268137
  0
VERTEX
  5
789
  8
Layer_0
  10
176.84824
  20
166.9538
  0
VERTEX
  5
78a
  8
Layer_0
  10
176.9707
  20
167.00497
  0
VERTEX
  5
78b
  8
Layer_0
  10
177.18561
  20
166.49533
  42
0.0075438027
  0
VERTEX
  5
78c
  8
Layer_0
  10
177.49991
  20
165.76855
  0
VERTEX
  5
78d
  8
Layer_0
  10
177.56999
  20
165.60783
  0
VERTEX
  5
78e
  8
Layer_0
  10
177.59893
  20
165.52634
  0
VERTEX
  5
78f
  8
Layer_0
  10
177.558
  20
165.49153
  0
VERTEX
  5
790
  8
Layer_0
  10
177.46009
  20
165.44308
  0
VERTEX
  5
791
  8
Layer_0
  10
177.32159
  20
165.38492
  0
VERTEX
  5
792
  8
Layer_0
  10
177.39363
  20
165.20215
  0
VERTEX
  5
793
  8
Layer_0
  10
177.43237
  20
165.09936
  0
VERTEX
  5
794
  8
Layer_0
  10
177.44655
  20
165.03928
  0
VERTEX
  5
795
  8
Layer_0
  10
177.43705
  20
165.00381
  0
VERTEX
  5
796
  8
Layer_0
  10
177.40476
  20
164.97486
  42
-0.15916516
  0
VERTEX
  5
797
  8
Layer_0
  10
177.31609
  20
164.93031
  0
VERTEX
  5
798
  8
Layer_0
  10
177.2928
  20
164.60655
  0
VERTEX
  5
799
  8
Layer_0
  10
177.33516
  20
164.24028
  42
0.091264435
  0
VERTEX
  5
79a
  8
Layer_0
  10
177.33234
  20
164.21562
  0
VERTEX
  5
79b
  8
Layer_0
  10
177.32111
  20
164.20127
  0
VERTEX
  5
79c
  8
Layer_0
  10
177.31193
  20
164.13842
  0
VERTEX
  5
79d
  8
Layer_0
  10
177.30461
  20
164.01953
  0
VERTEX
  5
79e
  8
Layer_0
  10
177.29899
  20
163.83708
  0
VERTEX
  5
79f
  8
Layer_0
  10
177.29491
  20
163.58353
  0
VERTEX
  5
7a0
  8
Layer_0
  10
177.29219
  20
163.25133
  0
VERTEX
  5
7a1
  8
Layer_0
  10
177.29067
  20
162.83296
  0
VERTEX
  5
7a2
  8
Layer_0
  10
177.29017
  20
162.32088
  0
VERTEX
  5
7a3
  8
Layer_0
  10
177.2897
  20
161.9334
  0
VERTEX
  5
7a4
  8
Layer_0
  10
177.28838
  20
161.56843
  0
VERTEX
  5
7a5
  8
Layer_0
  10
177.28631
  20
161.23421
  0
VERTEX
  5
7a6
  8
Layer_0
  10
177.28358
  20
160.93898
  0
VERTEX
  5
7a7
  8
Layer_0
  10
177.28029
  20
160.69098
  0
VERTEX
  5
7a8
  8
Layer_0
  10
177.27652
  20
160.49843
  0
VERTEX
  5
7a9
  8
Layer_0
  10
177.27236
  20
160.36958
  0
VERTEX
  5
7aa
  8
Layer_0
  10
177.26791
  20
160.31267
  0
VERTEX
  5
7ab
  8
Layer_0
  10
177.23939
  20
160.25035
  0
VERTEX
  5
7ac
  8
Layer_0
  10
177.20193
  20
160.22443
  0
VERTEX
  5
7ad
  8
Layer_0
  10
177.16505
  20
160.19476
  0
VERTEX
  5
7ae
  8
Layer_0
  10
177.1379
  20
160.12341
  0
VERTEX
  5
7af
  8
Layer_0
  10
177.10538
  20
160.05077
  0
VERTEX
  5
7b0
  8
Layer_0
  10
177.05047
  20
160.00307
  0
VERTEX
  5
7b1
  8
Layer_0
  10
176.98767
  20
159.98804
  0
VERTEX
  5
7b2
  8
Layer_0
  10
176.93144
  20
160.01338
  42
0.19890909
  0
VERTEX
  5
7b3
  8
Layer_0
  10
176.834
  20
160.05142
  42
-0.32201137
  0
VERTEX
  5
7b4
  8
Layer_0
  10
176.76004
  20
160.09468
  0
VERTEX
  5
7b5
  8
Layer_0
  10
176.73697
  20
160.11954
  0
VERTEX
  5
7b6
  8
Layer_0
  10
176.68947
  20
160.0917
  42
-0.32131501
  0
VERTEX
  5
7b7
  8
Layer_0
  10
176.59566
  20
160.06883
  0
VERTEX
  5
7b8
  8
Layer_0
  10
176.52719
  20
160.0779
  0
VERTEX
  5
7b9
  8
Layer_0
  10
176.36871
  20
160.08535
  0
VERTEX
  5
7ba
  8
Layer_0
  10
176.14383
  20
160.09039
  0
VERTEX
  5
7bb
  8
Layer_0
  10
175.87615
  20
160.09226
  0
VERTEX
  5
7bc
  8
Layer_0
  10
175.61672
  20
160.0943
  0
VERTEX
  5
7bd
  8
Layer_0
  10
175.41428
  20
160.09978
  0
VERTEX
  5
7be
  8
Layer_0
  10
175.28902
  20
160.10787
  0
VERTEX
  5
7bf
  8
Layer_0
  10
175.26111
  20
160.11774
  0
VERTEX
  5
7c0
  8
Layer_0
  10
175.30679
  20
160.14252
  0
VERTEX
  5
7c1
  8
Layer_0
  10
175.27087
  20
160.16497
  42
0.36039415
  0
VERTEX
  5
7c2
  8
Layer_0
  10
175.19351
  20
160.15372
  42
-0.2599346
  0
VERTEX
  5
7c3
  8
Layer_0
  10
175.12115
  20
160.12062
  42
-0.58737875
  0
VERTEX
  5
7c4
  8
Layer_0
  10
175.09064
  20
160.15523
  42
0.58737875
  0
VERTEX
  5
7c5
  8
Layer_0
  10
175.05807
  20
160.18983
  42
0.41421356
  0
VERTEX
  5
7c6
  8
Layer_0
  10
175.00412
  20
160.15523
  0
VERTEX
  5
7c7
  8
Layer_0
  10
174.97812
  20
160.13079
  0
VERTEX
  5
7c8
  8
Layer_0
  10
174.91558
  20
160.12063
  0
VERTEX
  5
7c9
  8
Layer_0
  10
174.85862
  20
160.13057
  0
VERTEX
  5
7ca
  8
Layer_0
  10
174.84842
  20
160.15523
  0
VERTEX
  5
7cb
  8
Layer_0
  10
174.84374
  20
160.16953
  0
VERTEX
  5
7cc
  8
Layer_0
  10
174.81091
  20
160.17966
  0
VERTEX
  5
7cd
  8
Layer_0
  10
174.75193
  20
160.18528
  0
VERTEX
  5
7ce
  8
Layer_0
  10
174.6688
  20
160.18604
  0
VERTEX
  5
7cf
  8
Layer_0
  10
174.46779
  20
160.18225
  0
VERTEX
  5
7d0
  8
Layer_0
  10
174.61963
  20
160.15242
  0
VERTEX
  5
7d1
  8
Layer_0
  10
174.73207
  20
160.12616
  0
VERTEX
  5
7d2
  8
Layer_0
  10
174.78918
  20
160.10489
  0
VERTEX
  5
7d3
  8
Layer_0
  10
174.75498
  20
160.09502
  0
VERTEX
  5
7d4
  8
Layer_0
  10
174.64419
  20
160.10424
  0
VERTEX
  5
7d5
  8
Layer_0
  10
174.50941
  20
160.12592
  0
VERTEX
  5
7d6
  8
Layer_0
  10
174.40325
  20
160.15346
  0
VERTEX
  5
7d7
  8
Layer_0
  10
174.33887
  20
160.17251
  0
VERTEX
  5
7d8
  8
Layer_0
  10
174.31209
  20
160.16963
  0
VERTEX
  5
7d9
  8
Layer_0
  10
174.29938
  20
160.16451
  0
VERTEX
  5
7da
  8
Layer_0
  10
174.26883
  20
160.17817
  42
0.096057428
  0
VERTEX
  5
7db
  8
Layer_0
  10
174.17368
  20
160.21439
  42
0.028466177
  0
VERTEX
  5
7dc
  8
Layer_0
  10
173.64766
  20
160.27534
  0
VERTEX
  5
7dd
  8
Layer_0
  10
173.5002
  20
160.28876
  0
VERTEX
  5
7de
  8
Layer_0
  10
173.42275
  20
160.30393
  0
VERTEX
  5
7df
  8
Layer_0
  10
173.33972
  20
160.32277
  0
VERTEX
  5
7e0
  8
Layer_0
  10
173.17887
  20
160.345
  0
VERTEX
  5
7e1
  8
Layer_0
  10
173.02613
  20
160.36903
  0
VERTEX
  5
7e2
  8
Layer_0
  10
172.96261
  20
160.39219
  0
VERTEX
  5
7e3
  8
Layer_0
  10
172.90925
  20
160.40925
  0
VERTEX
  5
7e4
  8
Layer_0
  10
172.78095
  20
160.4186
  0
VERTEX
  5
7e5
  8
Layer_0
  10
172.42786
  20
160.44571
  0
VERTEX
  5
7e6
  8
Layer_0
  10
172.16676
  20
160.4915
  42
0.10209649
  0
VERTEX
  5
7e7
  8
Layer_0
  10
171.98509
  20
160.50323
  0
VERTEX
  5
7e8
  8
Layer_0
  10
171.89329
  20
160.50866
  0
VERTEX
  5
7e9
  8
Layer_0
  10
171.85534
  20
160.53212
  0
VERTEX
  5
7ea
  8
Layer_0
  10
171.84009
  20
160.55181
  0
VERTEX
  5
7eb
  8
Layer_0
  10
171.80344
  20
160.54837
  42
-0.52609521
  0
VERTEX
  5
7ec
  8
Layer_0
  10
171.75153
  20
160.56796
  0
VERTEX
  5
7ed
  8
Layer_0
  10
171.73629
  20
160.59004
  0
VERTEX
  5
7ee
  8
Layer_0
  10
171.68673
  20
160.57281
  42
-0.1685915
  0
VERTEX
  5
7ef
  8
Layer_0
  10
171.55698
  20
160.54973
  42
-0.0018507918
  0
VERTEX
  5
7f0
  8
Layer_0
  10
171.35361
  20
160.5871
  42
0.02034503
  0
VERTEX
  5
7f1
  8
Layer_0
  10
171.10226
  20
160.62451
  42
-0.1131831
  0
VERTEX
  5
7f2
  8
Layer_0
  10
170.95522
  20
160.65726
  42
0.587385
  0
VERTEX
  5
7f3
  8
Layer_0
  10
170.92108
  20
160.63966
  42
-0.58738573
  0
VERTEX
  5
7f4
  8
Layer_0
  10
170.8905
  20
160.61987
  0
VERTEX
  5
7f5
  8
Layer_0
  10
170.82851
  20
160.63679
  0
VERTEX
  5
7f6
  8
Layer_0
  10
170.69055
  20
160.66144
  0
VERTEX
  5
7f7
  8
Layer_0
  10
170.48832
  20
160.69191
  0
VERTEX
  5
7f8
  8
Layer_0
  10
170.23354
  20
160.72632
  42
-0.0034634469
  0
VERTEX
  5
7f9
  8
Layer_0
  10
169.99132
  20
160.75934
  42
0.010086151
  0
VERTEX
  5
7fa
  8
Layer_0
  10
169.71001
  20
160.7932
  0
VERTEX
  5
7fb
  8
Layer_0
  10
169.56555
  20
160.81864
  0
VERTEX
  5
7fc
  8
Layer_0
  10
169.39308
  20
160.86698
  0
VERTEX
  5
7fd
  8
Layer_0
  10
169.20174
  20
160.93529
  0
VERTEX
  5
7fe
  8
Layer_0
  10
169.00067
  20
161.02065
  42
0.090055222
  0
VERTEX
  5
7ff
  8
Layer_0
  10
168.67195
  20
161.11081
  42
-0.016994596
  0
VERTEX
  5
800
  8
Layer_0
  10
168.08371
  20
161.18051
  42
-0.072972701
  0
VERTEX
  5
801
  8
Layer_0
  10
167.81592
  20
161.26453
  0
VERTEX
  5
802
  8
Layer_0
  10
167.70331
  20
161.31197
  0
VERTEX
  5
803
  8
Layer_0
  10
167.63854
  20
161.3317
  0
VERTEX
  5
804
  8
Layer_0
  10
167.5883
  20
161.36396
  0
VERTEX
  5
805
  8
Layer_0
  10
167.49642
  20
161.44666
  0
VERTEX
  5
806
  8
Layer_0
  10
167.38501
  20
161.55863
  0
VERTEX
  5
807
  8
Layer_0
  10
167.27615
  20
161.67872
  42
-0.0705352
  0
VERTEX
  5
808
  8
Layer_0
  10
167.14716
  20
161.89705
  0
VERTEX
  5
809
  8
Layer_0
  10
167.10075
  20
161.98918
  0
VERTEX
  5
80a
  8
Layer_0
  10
167.08101
  20
162.00848
  0
VERTEX
  5
80b
  8
Layer_0
  10
167.06555
  20
162.00521
  0
VERTEX
  5
80c
  8
Layer_0
  10
167.02945
  20
162.04308
  0
VERTEX
  5
80d
  8
Layer_0
  10
166.99325
  20
162.08428
  0
VERTEX
  5
80e
  8
Layer_0
  10
166.97755
  20
162.08902
  0
VERTEX
  5
80f
  8
Layer_0
  10
166.68211
  20
162.32953
  0
VERTEX
  5
810
  8
Layer_0
  10
166.38766
  20
162.63522
  0
VERTEX
  5
811
  8
Layer_0
  10
166.35948
  20
162.6875
  0
VERTEX
  5
812
  8
Layer_0
  10
166.2925
  20
162.77295
  0
VERTEX
  5
813
  8
Layer_0
  10
166.10529
  20
163.03641
  0
VERTEX
  5
814
  8
Layer_0
  10
165.9905
  20
163.25212
  0
VERTEX
  5
815
  8
Layer_0
  10
165.93398
  20
163.41952
  0
VERTEX
  5
816
  8
Layer_0
  10
165.83846
  20
163.61544
  0
VERTEX
  5
817
  8
Layer_0
  10
165.79821
  20
163.74135
  0
VERTEX
  5
818
  8
Layer_0
  10
165.75843
  20
163.95882
  0
VERTEX
  5
819
  8
Layer_0
  10
165.72683
  20
164.21653
  0
VERTEX
  5
81a
  8
Layer_0
  10
165.71111
  20
164.46319
  42
-0.085009087
  0
VERTEX
  5
81b
  8
Layer_0
  10
165.8262
  20
165.39745
  42
0.037328622
  0
VERTEX
  5
81c
  8
Layer_0
  10
165.89401
  20
165.63727
  0
VERTEX
  5
81d
  8
Layer_0
  10
166.02246
  20
165.93723
  0
VERTEX
  5
81e
  8
Layer_0
  10
166.18541
  20
166.23369
  0
VERTEX
  5
81f
  8
Layer_0
  10
166.20416
  20
166.26625
  0
VERTEX
  5
820
  8
Layer_0
  10
166.19552
  20
166.2798
  0
VERTEX
  5
821
  8
Layer_0
  10
166.19537
  20
166.29472
  0
VERTEX
  5
822
  8
Layer_0
  10
166.23454
  20
166.3306
  0
VERTEX
  5
823
  8
Layer_0
  10
166.27241
  20
166.3668
  0
VERTEX
  5
824
  8
Layer_0
  10
166.26914
  20
166.3825
  0
VERTEX
  5
825
  8
Layer_0
  10
166.26587
  20
166.3982
  0
VERTEX
  5
826
  8
Layer_0
  10
166.30374
  20
166.43441
  0
VERTEX
  5
827
  8
Layer_0
  10
166.3439
  20
166.47061
  0
VERTEX
  5
828
  8
Layer_0
  10
166.34612
  20
166.48631
  0
VERTEX
  5
829
  8
Layer_0
  10
166.35623
  20
166.51614
  0
VERTEX
  5
82a
  8
Layer_0
  10
166.41533
  20
166.58633
  42
0.0041728606
  0
VERTEX
  5
82b
  8
Layer_0
  10
166.68867
  20
166.88045
  0
VERTEX
  5
82c
  8
Layer_0
  10
166.761
  20
166.95624
  0
VERTEX
  5
82d
  8
Layer_0
  10
166.82534
  20
167.01831
  0
VERTEX
  5
82e
  8
Layer_0
  10
166.87469
  20
167.06024
  0
VERTEX
  5
82f
  8
Layer_0
  10
166.90205
  20
167.07564
  42
0.2973893
  0
VERTEX
  5
830
  8
Layer_0
  10
166.94762
  20
167.10185
  0
VERTEX
  5
831
  8
Layer_0
  10
167.0852
  20
167.22164
  0
VERTEX
  5
832
  8
Layer_0
  10
167.3053
  20
167.37846
  42
-0.098848635
  0
VERTEX
  5
833
  8
Layer_0
  10
168.46434
  20
167.82248
  42
0.0085516475
  0
VERTEX
  5
834
  8
Layer_0
  10
168.70424
  20
167.86684
  0
VERTEX
  5
835
  8
Layer_0
  10
168.85725
  20
167.88202
  0
VERTEX
  5
836
  8
Layer_0
  10
169.07497
  20
167.88469
  0
VERTEX
  5
837
  8
Layer_0
  10
169.31552
  20
167.87544
  0
VERTEX
  5
838
  8
Layer_0
  10
169.537
  20
167.85488
  0
SEQEND
  0
ENDSEC
  0
EOF
