<?xml version="1.0" encoding="UTF-8"?>
<svg xmlns="http://www.w3.org/2000/svg" xmlns:xlink="http://www.w3.org/1999/xlink" width="49.828mm" height="24.134mm" viewBox="163.085861 -181.067032 49.828278 24.134079">
    <path transform="matrix(0.034602,0,0,-0.034602,162.997208,-156.798828)" style="stroke:#000000;stroke-width:0.05mm;fill:none" d="M1221,701.232849C1219.625,700.993896,1218.169434,700.28125,1217.765259,699.64917C1217.303711,698.927124,1217.024902,698.893372,1217.015259,699.55835C1216.99585,700.906189,1209.962769,700.585632,1207.20813,699.111389C1206.065918,698.500122,1204.392456,698,1203.489136,698C1200.551392,698,1185,690.800415,1185,689.440369C1185,688.713074,1184.480469,687.796936,1183.845459,687.40448C1183.095215,686.940796,1182.963989,687.13269,1183.470703,687.952637C1184.961792,690.365112,1179.275269,687.9151,1159.217529,677.503235C1152.46228,673.996582,1146.973511,670.761292,1147.020386,670.313721C1147.067261,669.866211,1146.40686,669.354492,1145.552856,669.176697C1144.69873,668.99884,1144,669.336365,1144,669.926697C1144,671.585388,1142.538818,671.206787,1139.902954,668.865234C1137.109131,666.383118,1127.304688,661.652649,1125.046021,661.697021C1124.195679,661.713745,1122.889038,661.226196,1122.142334,660.613708C1121.39563,660.00116,1117.570557,658.124634,1113.642334,656.443665C1108.369141,654.187195,1106.576904,652.944153,1106.793823,651.693665C1107.02063,650.386414,1106.336182,649.998474,1103.793823,649.993408C1101.982178,649.989807,1099.178101,649.115417,1097.562378,648.050354C1095.946655,646.985291,1094.259155,646.339783,1093.812378,646.615967C1093.365601,646.89209,1093,646.678955,1093,646.142334C1093,645.605713,1093.5625,644.977417,1094.25,644.746094C1094.9375,644.514832,1094.150024,644.281372,1092.5,644.227295C1089.128784,644.116882,1082.466309,641.563538,1081.509399,640.015137C1080.571533,638.497742,1078.982178,638.7901,1079.587891,640.368591C1079.899536,641.180603,1079.276733,641.955872,1078.056519,642.274963C1076.925415,642.57074,1076,642.404907,1076,641.906372C1076,641.407898,1076.375,641,1076.833374,641C1077.291626,641,1077.666626,640.358887,1077.666626,639.575256C1077.666626,638.204285,1065.177612,632,1062.417847,632C1060.026978,632,1056.049683,629.728638,1056.673462,628.719421C1057.049683,628.110596,1056.006104,627.918884,1053.954834,628.21991C1051.199097,628.62439,1050.211914,628.216858,1048.223877,625.854309C1046.80542,624.168518,1044.835083,623,1043.411133,623C1042.084961,623,1040.099976,622.099976,1039,621C1037.900024,619.900024,1037,619.294739,1037,619.654968C1037,620.015259,1036.212524,619.623535,1035.25,618.784607C1032.337402,616.24585,1024.054321,612,1022.014221,612C1020.961121,612,1019.739502,611.42804,1019.299683,610.728943C1018.859924,610.029846,1017.230713,608.899963,1015.679199,608.21814C1013.056091,607.065247,1012.903076,607.119263,1013.496582,608.989197C1013.880005,610.197205,1013.681824,611,1013,611C1012.320313,611,1012.119812,611.802063,1012.5,613C1013.249329,615.360779,1011.777893,615.642212,1009.984375,613.481262C1008.95343,612.238892,1009.046875,611.605713,1010.498108,610.002075C1012.19989,608.121643,1012.195313,608.017456,1010.386108,607.447876C1009.348816,607.121216,1007.684326,606.415466,1006.687378,605.879456C1005.690613,605.343445,1003.890625,605.180786,1002.687378,605.517944C1001.370483,605.887085,1000.977783,605.795166,1001.700623,605.286987C1002.505676,604.721069,1001.270081,603.694702,997.950623,602.171875C995.227783,600.922729,993,599.473022,993,598.950378C993,598.427673,992.466492,598,991.814453,598C991.162415,598,989.629883,597.061462,988.408813,595.914307C986.693542,594.302917,985.760925,594.057556,984.307434,594.835449C982.787048,595.64917,982.005249,595.31366,980.232422,593.086853C978.840393,591.338379,977.209351,590.404968,975.769348,590.532715C974.521179,590.643433,972.768799,590.100098,971.875183,589.325256C970.981506,588.550476,969.856506,587.988647,969.375183,588.076721C967.14563,588.48468,966,587.854187,966,586.219238C966,585.158936,964.786316,583.980347,963,583.306091C961.349976,582.683289,960,582.584656,960,583.086853C960,583.589111,959.276855,584,958.393005,584C957.453064,584,957.001526,583.438416,957.305176,582.647034C958.003357,580.827759,955.290955,578.658447,949.601257,576.485535C947.012817,575.497009,944.35614,573.922913,943.69751,572.987549C942.24762,570.928467,937.310242,569.074951,938.529297,571.047363C939.039917,571.873535,938.904907,572.059265,938.138184,571.585388C937.494263,571.187439,937.27356,570.366455,937.647705,569.760986C938.074768,569.070007,937.753845,568.880493,936.785889,569.251892C935.937683,569.577393,934.738892,569.338867,934.121826,568.721863C933.292725,567.8927,933,567.935059,933,568.884033C933,569.645264,931.473206,568.994507,929.25,567.285767C923.695374,563.016418,920.258179,561,918.535156,561C917.690857,561,917,560.622253,917,560.160522C917,559.341614,912.602905,556.968445,911.202942,557.031799C910.816345,557.049316,911.400024,557.784851,912.5,558.666321C914.257629,560.074829,914.278015,560.192139,912.668213,559.634521C911.660706,559.285522,910.437378,559,909.949585,559C909.461853,559,909.321777,558.325012,909.638367,557.5C910.059326,556.403076,909.513489,556,907.606995,556C906.173157,556,905,555.598145,905,555.106995C905,553.19635,901.856384,553.143616,899.977295,555.022705C898.889771,556.110229,897.325012,557,896.5,557C895.674988,557,895,557.674988,895,558.5C895,559.325012,894.325012,560,893.5,560C891.71344,560,891.489197,558.336914,893.198914,557.767029C894.870117,557.209961,890.621704,551.395874,888.052551,550.723999C886.961243,550.438599,886.165466,550.665222,886.28418,551.227539C886.402893,551.789917,885.874878,552.477112,885.110779,552.754761C884.26001,553.063843,883.992188,552.821655,884.4198,552.129761C884.803833,551.508362,884.678955,551,884.142334,551C883.605713,551,882.999268,551.502197,882.794678,552.115906C882.590088,552.729675,880.020752,553.611572,877.084961,554.075623C871.224854,555.002014,869.904968,555.7052,871.812805,556.884338C872.537048,557.331909,872.779907,558.409973,872.387146,559.433594C871.82196,560.906372,871.480103,560.668823,870.371887,558.033081C869.568787,556.123047,868.58905,555.135925,867.911865,555.554504C867.092896,556.060608,867.116821,556.454163,867.999573,556.999756C868.722656,557.446594,867.106079,558.254883,863.997925,559.000488C861.129822,559.688538,857.369446,561.463257,855.641602,562.944275C853.913696,564.425293,850.924988,566.253906,849,567.007935C844.462708,568.785095,841.071045,571.195251,841.031433,572.670532C841.01416,573.314331,839.650024,574.137573,838,574.5C836.349976,574.862427,835,575.579773,835,576.094177C835,577.332336,828.863831,581.033875,827.849976,580.407288C826.530823,579.59198,825.756226,584.676025,826.879761,586.775391C828.04187,588.946777,827.462402,590.114685,825.581055,589.392761C824.84906,589.111877,824.532227,587.733582,824.792297,585.961609C825.052002,584.192383,824.778687,583,824.113525,583C823.501099,583,823,583.450012,823,584C823,584.549988,822.099976,585,821,585C819.900024,585,819,585.419678,819,585.932617C819,586.445557,818.212524,587.115601,817.25,587.42157C816.287476,587.7276,814.164612,589.216858,812.532471,590.73114C808.544861,594.430786,797.700256,599.936218,791.285217,601.517639C787.672607,602.408264,784.810974,602.520264,781.97113,601.882202C779.716553,601.37561,777.498535,601.191895,777.042175,601.473938C775.677917,602.317078,769.325684,599.224854,765.473022,595.842163C761.335938,592.209778,757.270081,584.7854,756.40448,579.282776C756.077209,577.202271,755.643127,575.328308,755.43988,575.11853C755.236633,574.908691,755.549438,573.841919,756.134949,572.747864C756.925049,571.271545,756.901001,570.943176,756.041687,571.474243C754.763428,572.264282,755.071045,563.312073,756.395874,561.168518C757.133728,559.974609,755.580566,559.610107,751.25,559.960876C748.12207,560.214233,748.427734,559.209229,752.574341,555.605957C755.807251,552.796692,756.182678,551.93042,756.504517,546.537659C756.716003,542.993103,757.421814,540.154541,758.244995,539.537659C759.006531,538.966919,760.695801,535.912476,761.99884,532.75C763.30188,529.587524,764.956421,527,765.675537,527C766.394653,527,767.545105,526.099976,768.232056,525C768.919006,523.900024,769.935364,522.995972,770.49054,522.991089C771.947266,522.978271,783.547607,512.840332,783.25,511.840179C782.940247,510.799225,785.67511,510.717072,786.252747,511.75C786.483459,512.162476,786.53772,511.944366,786.373352,511.265259C786.077026,510.040924,789.809143,507.379395,791.25,507.787537C791.662476,507.904388,792,507.489105,792,506.864685C792,505.704651,794.286316,503.439362,799.937683,499C801.688049,497.625,804.808228,494.924988,806.87146,493C808.934692,491.075012,811.88916,488.600006,813.437073,487.5C814.984924,486.399994,817.432312,484.580719,818.875671,483.457123C824.140503,479.358795,827.547241,477.589569,829.667542,477.852631C830.859619,478.000519,833.784668,477.592072,836.167542,476.945007C838.550354,476.297913,840.950012,475.671387,841.5,475.552704C848.524475,474.036804,862.434814,469.802734,863.450012,468.87146C863.972473,468.392151,865.643311,468,867.162964,468C868.682617,468,872.192627,467.106567,874.962952,466.014587C877.733337,464.922607,880,464.218964,880,464.450897C880,465.120728,894.148804,461.081055,897.904053,459.33905C902.470154,457.220917,913.395752,455,919.249634,455C922.805542,455,924,454.622833,924,453.5C924,452.674988,924.787476,451.9487,925.75,451.885986C930.625671,451.568298,933.286377,451.007202,934.434143,450.054657C935.131592,449.47583,936.781738,448.926208,938.101135,448.833313C939.420471,448.740387,955.115723,454.843079,972.979309,462.394836C1003.525024,475.307861,1009.95813,478.254211,1004,476.602081C1002.625,476.220795,1000.599976,475.724701,999.5,475.499603C998.400024,475.274536,993.251343,474.163452,988.058472,473.030518C982.865662,471.897583,976.903137,471.177216,974.808472,471.429718C972.713806,471.68219,971,471.507813,971,471.042206C971,469.874176,965.158813,467.93396,964.559937,468.903046C964.293579,469.334045,964.292419,470.882172,964.557373,472.343323C964.922852,474.359009,964.632263,475,963.352905,475C962.425476,475,961.967651,475.300995,962.33551,475.668854C962.703369,476.036713,962.263733,477.156097,961.358521,478.156342C960.453308,479.156616,959.663696,481.443115,959.603882,483.237488C959.544006,485.03186,958.625549,487.78537,957.562805,489.356384L955.630554,492.212738L958.037354,494.028168C959.361023,495.026642,960.797363,495.625244,961.229126,495.358398C961.660889,495.091553,962.284119,495.576752,962.614075,496.436615C962.944031,497.296478,963.642395,498,964.166016,498C964.689636,498,964.839905,497.549988,964.5,497C964.160095,496.450012,964.354736,496,964.932495,496C965.510315,496,966.545105,496.899994,967.232056,498C967.919006,499.100006,969.015686,500,969.669128,500C970.32251,500,971.469177,500.5625,972.217224,501.25C974.608093,503.447296,978.051575,505.086151,979.02002,504.48764C979.536255,504.168579,980.850098,504.384613,981.939636,504.967712C983.995544,506.067993,984.140686,506.04364,999,502.104492C1010.635193,499.02005,1015,497.635651,1015,497.029663C1015,495.725555,1024.049683,496.867554,1027.488403,498.605652C1031.019165,500.390167,1031.904907,501.519073,1035.042847,508.233429C1036.46814,511.283478,1037.339233,511.676239,1044.5,512.497681C1054.80188,513.679443,1056.823242,514.186646,1058.884888,516.107422C1060.810425,517.901306,1061.442139,517.800232,1061.118408,515.75C1061.053345,515.337524,1061.498169,515,1062.106934,515C1062.71582,515,1062.954956,515.674988,1062.638428,516.5C1062.321777,517.325012,1062.450562,518,1062.924438,518C1063.398315,518,1064.053955,518.698364,1064.381592,519.551941C1064.709106,520.405518,1064.605347,520.874146,1064.151001,520.593323C1063.696533,520.3125,1063.42981,521.751587,1063.558105,523.791382C1063.891235,529.089111,1063.913208,529.171692,1064.833374,528.603027C1066.634888,527.489563,1065.438599,530.639709,1063.163574,533L1060.753784,535.5L1061.501099,533C1062.677612,529.064453,1061.359253,531.016113,1059.134888,536.503052C1057.531006,540.45929,1057.081299,540.979309,1056.975586,539C1056.842163,536.501099,1056.841675,536.501282,1055.816895,539.3125C1055.253052,540.859375,1054.95105,542.236694,1055.145874,542.373169C1057.544312,544.053589,1072.320801,549.919739,1073.038452,549.476257C1073.567261,549.149414,1074,549.351257,1074,549.924805C1074,550.57782,1075.214844,550.448914,1077.25,549.579956C1079.037476,548.816711,1082.300049,547.720398,1084.5,547.143738C1090.81543,545.488403,1100.067505,542.856995,1105.339722,541.216797C1110.066162,539.746338,1110.331909,539.77887,1116.700439,542.605591C1121.938965,544.930725,1123.657715,546.286682,1125.439453,549.5C1127.333618,552.915894,1128.887329,554.039246,1136.078735,557.192688C1145.161377,561.175415,1146.463989,561.559692,1145.479004,559.966064C1145.127563,559.3974,1146.306763,559.824036,1148.099365,560.914246C1149.891968,562.004395,1151.712524,562.677673,1152.14502,562.410339C1152.577515,562.143066,1154.762329,562.858398,1157,564C1159.237671,565.141602,1161.406738,565.866638,1161.820068,565.611267C1162.233276,565.355835,1162.638916,565.901306,1162.721313,566.823425C1162.803711,567.745544,1163.177612,569.737488,1163.552124,571.25C1163.979248,572.974487,1163.829834,574,1163.151733,574C1162.557007,574,1161.559692,574.954285,1160.935425,576.120667C1160.073608,577.730957,1160.082886,578.066833,1160.973877,577.516113C1161.619263,577.117249,1161.205078,578.637939,1160.053345,580.895447L1157.959351,585L1161.096313,585C1164.306763,585,1164.283691,584.937805,1162.871948,589.774048C1162.633179,590.591797,1167.335205,593.052917,1176,596.64563C1183.425049,599.724243,1195.237549,604.626892,1202.25,607.540405C1211.668335,611.453369,1215,612.456482,1215,611.378967C1215,610.576721,1215.904785,608.146729,1217.010742,605.979004L1219.021484,602.037659L1224.260742,604.146973C1227.142334,605.307129,1232.017822,607.262878,1235.095215,608.493225L1240.690552,610.730103L1242.252075,607.615051C1243.11084,605.901794,1245.940796,599.325012,1248.540771,593C1254.675781,578.075134,1257.182373,572.641602,1258.279663,571.888184C1258.769775,571.551697,1259.127686,570.876709,1259.074829,570.388184C1258.900024,568.769653,1262.380371,560,1263.19751,560C1263.638916,560,1264,559.304626,1264,558.454712C1264,557.604858,1267.599976,548.427673,1272,538.061035C1276.400024,527.694397,1280,518.911865,1280,518.544373C1280,517.265198,1285.132813,507.03598,1286.063232,506.460968C1286.578369,506.142517,1287,505.048401,1287,504.029602C1287,503.010803,1288.623047,498.424866,1290.606934,493.838623C1292.590698,489.25238,1294.568848,484.375,1295.002808,483C1295.436646,481.625,1296.101563,479.739014,1296.480225,478.808929C1297.161987,477.13446,1293.185425,474.821381,1280.75,469.658844C1278.6875,468.802612,1277,467.870758,1277,467.588043C1277,466.454163,1282.241699,453.405609,1284.238525,449.56839C1284.791382,448.506012,1285.614258,446.34491,1286.067139,444.765991C1286.720947,442.486359,1286.541382,441.775665,1285.19519,441.314697C1282.941772,440.54303,1256.604614,429.712555,1256.126465,429.360901C1255.920898,429.209808,1256.983643,426.029266,1258.488037,422.293091C1259.992554,418.556885,1261.416016,415.016266,1261.651489,414.425018C1261.886963,413.833771,1258.930176,412.082184,1255.080933,410.532562C1248.888062,408.03952,1248.197144,407.500092,1249.081299,405.848083C1249.891113,404.334869,1249.646484,403.81012,1247.790283,403.078766C1246.53064,402.582489,1225.699951,393.815125,1201.5,383.595764C1162.135864,366.972809,1157.37207,365.187317,1156.286011,366.649384C1155.618408,367.548218,1154.92334,368.730011,1154.741455,369.275574C1154.55957,369.821136,1142.328735,365.183594,1127.561768,358.96991C1102.109985,348.260254,1100.642212,347.76886,1099.356445,349.527283C1098.610352,350.547516,1098,351.964691,1098,352.676544C1098,354.002045,1095.385864,353.167175,1083.726074,348.117889L1078.952026,346.050507L1080.489136,342.371735C1081.334595,340.348389,1081.907837,338.622589,1081.763184,338.536621C1081.618408,338.450653,1074.305542,335.364929,1065.512329,331.679443C1049.61377,325.015869,1049.516113,324.990112,1047.960815,327.052002C1046.401489,329.119232,1046.36145,329.110504,1034.6427,324.144196C1023.043518,319.228638,1022.877625,319.191559,1022.059021,321.331482C1021.602783,322.52417,1018.287415,330.48407,1014.691406,339.020142C1011.095398,347.556213,1008.006287,355.098694,1007.826599,355.781158C1007.552124,356.823944,1027.847168,366.746063,1034.25,368.699371C1035.261597,369.007996,1036,370.213989,1036,371.557617C1036,372.835999,1036.449951,374.160095,1037,374.5C1037.550049,374.839905,1038,374.191467,1038,373.059021C1038,371.895447,1038.652344,371,1039.5,371C1040.324951,371,1041.006836,370.662506,1041.015259,370.25C1041.085205,366.829254,1043.002319,367.076935,1054.473755,371.988739C1060.970825,374.77066,1066.376709,376.923737,1066.486938,376.773376C1066.597046,376.623016,1067.746216,373.898376,1069.040649,370.718628C1070.334961,367.538849,1071.86792,365.137573,1072.447021,365.382416C1073.026123,365.627258,1079.37439,368.310699,1086.554321,371.345612C1105.280884,379.261322,1104.137451,379.193237,1106.888184,372.556366C1108.154907,369.500366,1109.429443,367,1109.720581,367C1110.011719,367,1112.781128,368.095642,1115.875,369.434723C1118.96875,370.773834,1129.375,375.101532,1139,379.051849C1148.625,383.002136,1158.703247,387.347382,1161.395996,388.707947C1165.366211,390.713898,1166.689819,390.970734,1168.395996,390.066223C1170.169434,389.125977,1173.466064,390.205841,1189.381592,396.940277C1199.766357,401.334503,1208.44519,405.111847,1208.667725,405.33432C1209.018433,405.685059,1204.768677,416.168488,1200.49292,425.5C1199.736938,427.149994,1197.68396,432.100006,1195.930664,436.5C1190.447388,450.260986,1185.338013,460.656311,1183.759888,461.261871C1182.28186,461.829071,1177.533691,461.001038,1173.5,459.472717C1163.621216,455.729706,1123.16687,438.431244,1122,437.45108C1121.175049,436.758118,1115.099976,433.925079,1108.5,431.155487C1101.900024,428.385895,1092.476074,424.319733,1087.557983,422.119598C1082.639771,419.919464,1078.310791,418.307922,1077.937866,418.538422C1077.564819,418.768921,1076.242065,421.678619,1074.998413,425.004395C1072.414063,431.914856,1073.632202,431.826538,1060.183716,426.078522L1051.19873,422.238281L1048.486816,428.619141C1046.995361,432.128601,1045.623047,435,1045.4375,435C1043.998779,435,1026.433472,426.708862,1025.817505,425.739014C1025.384766,425.057556,1025.023682,424.892609,1025.015259,425.372437C1024.985718,427.059387,1022,423.734131,1022,422.014191C1022,420.697754,1020.560913,419.967896,1016.097717,419.020752C1012.851379,418.331848,1009.588989,417.980743,1008.847717,418.240509C1008.106384,418.500305,1006.487488,418.338593,1005.25,417.881165C1003.88623,417.377075,1003,417.433624,1003,418.02475C1003,418.561127,1002.25,419,1001.333313,419C1000.416687,419,999.963989,418.702667,1000.327393,418.339264C1000.690796,417.975861,999.978333,417.160645,998.74408,416.527649C997.172485,415.72168,996.269531,415.694946,995.731018,416.438416C995.225708,417.135956,994.485596,416.87735,993.572693,415.684265C992.377869,414.122742,991.890015,414.051727,990.088257,415.176971C988.485107,416.178131,987.582947,416.215424,986.246521,415.335754C985.28595,414.703461,984.597107,413.740387,984.71582,413.195618C984.834534,412.650848,984.060242,412.433014,982.995178,412.711517C981.930115,412.990051,976.657959,412.715363,971.279358,412.101166C965.900696,411.486938,956.422668,410.921417,950.217041,410.844482C941.690674,410.73877,938.742432,410.362122,938.149597,409.302826C937.500977,408.143829,931.18335,407.886414,901.671448,407.816406C871.318787,407.744415,866.150391,407.523743,867.131348,406.341705C868.996338,404.094574,867.545288,403.843323,865.219055,406.010559C861.984375,409.024109,859.631958,408.651154,860.421997,405.25C860.846313,403.423248,860.75238,402.962677,860.142151,403.878113C859.636963,404.636078,858.754395,404.966248,858.180908,404.611816C857.607422,404.257355,856.812561,404.494232,856.414612,405.138184C855.925781,405.929108,856.146729,406.049042,857.09552,405.507813C858.151917,404.905182,858.225891,405.004639,857.394165,405.909119C856.05658,407.363678,842.221802,408.403931,840.630371,407.169586C838.585266,405.583344,831.551575,404.333923,828.813293,405.070496C827.335571,405.467987,825.841309,405.507965,825.492676,405.159363C825.144043,404.81073,824.103088,404.519775,823.179443,404.512756C822.068909,404.504333,821.614807,403.840698,821.838867,402.553772C822.101807,401.043793,821.877686,400.847534,820.838867,401.678131C819.04895,403.109406,813.051758,403.892731,812.366943,402.784698C812.0672,402.299713,811.218384,402.403778,810.480713,403.016022C809.451416,403.87027,808.879028,403.642456,808.019592,402.03656C807.403625,400.885651,806.424194,400.237823,805.843079,400.596985C805.127563,401.039185,805.178223,401.492126,806,402C806.937988,402.579712,806.918884,402.932098,805.915771,403.552063C805.154053,404.022827,804.455139,403.865356,804.223633,403.170807C804.006653,402.52002,803.464355,402.213013,803.018433,402.488586C802.572571,402.764191,798.898499,403.263,794.853882,403.597107C790.809265,403.931183,786.736511,404.611481,785.803406,405.108887C784.592651,405.754242,783.846558,405.548218,783.19812,404.389557C782.513794,403.166718,780.463867,402.693848,774.894714,402.474121C770.827637,402.313629,765.235168,401.733887,762.467102,401.18576C759.676697,400.633209,755.545532,400.534515,753.195557,400.964233C750.852905,401.392639,748.711792,401.342712,748.408936,400.852631C748.107544,400.36496,744.854736,399.967499,741.180481,399.969421C733.954041,399.973175,726.127319,399.435791,721.75,398.635315C720.237488,398.358734,719,398.549805,719,399.059937C719,399.570068,717.987488,399.816223,716.75,399.606903C715.512512,399.397614,714.587463,398.800568,714.694336,398.280182C714.811157,397.711334,713.016418,397.621979,710.194336,398.056122C707.612427,398.453308,704.825012,398.438965,704,398.024261C703.174988,397.609558,701.9375,397.471954,701.25,397.718475C700.5625,397.964966,699.985718,397.566681,699.968201,396.833344C699.948303,395.999146,699.372009,396.246887,698.428711,397.495117C697.267029,399.032379,696.736755,399.192078,696.117981,398.190887C695.626282,397.395325,693.412231,396.915009,690.407471,396.952087C687.708374,396.985382,683.941956,397.030304,682.03772,397.051941C680.133423,397.073547,678.369385,397.297302,678.117554,397.549133C677.865723,397.800964,676.554626,397.282959,675.204041,396.398041C673.2901,395.143982,672.57782,395.065063,671.975159,396.040253C671.496033,396.815399,670.497681,397.000916,669.350952,396.527832C667.421814,395.731964,663.22467,394.872528,661.5,394.920258C648.981934,395.26651,640.130066,395.106598,638.709106,394.508453C637.724121,394.093872,636.989929,394.147339,637.077515,394.627319C637.479126,396.827057,636.772461,396.99408,633.75,395.413757C627.158508,391.967255,626.765808,391.812103,627.454346,392.926178C627.819397,393.516785,627.528992,394.006134,626.809021,394.013641C626.08905,394.021179,624.417114,394.317047,623.093628,394.671173C621.53894,395.087158,620.915588,394.945618,621.332397,394.27121C622.259705,392.770752,618.032593,391.91217,615.745178,393.136383C614.682861,393.704895,612.692932,393.888763,611.323059,393.544952C609.806335,393.164276,609.069153,393.302887,609.437805,393.899384C609.770813,394.438141,609.164673,394.812775,608.090881,394.731903C607.01709,394.651001,606.406189,394.151764,606.733337,393.622467C607.079163,393.062897,606.601318,392.939026,605.591614,393.326477C604.636536,393.692963,602.933411,393.499542,601.806885,392.896637C600.680359,392.293732,600.018433,392.220856,600.335999,392.73468C601.032776,393.862061,592.046387,393.805603,590.25,392.671265C589.558105,392.234375,589,392.327026,589,392.878845C589,393.427124,588.212524,393.843597,587.25,393.804321C586.287476,393.765076,584.599976,394.078583,583.5,394.501007L581.5,395.269073L583.5,393.634216C585.448059,392.041809,585.43512,392.022003,583,392.870544C581.397888,393.428833,578.973572,393.284515,576.25,392.46875C573.912476,391.768585,572,391.50943,572,391.892792C572,392.276184,569.1875,392.64917,565.75,392.721619C562.3125,392.794098,558.599976,393.076965,557.5,393.350189C556.400024,393.623413,554.519653,393.881409,553.321411,393.923492C552.12323,393.965576,550.548218,394.5625,549.821411,395.25C548.629944,396.377075,547.725708,396.521515,544.5,396.100037C543.950012,396.028168,544.135498,395.567108,544.91217,395.075439C546.1026,394.321869,546.056458,393.913605,544.618286,392.475464C543.010254,390.867401,542.796387,390.874268,540.895081,392.59494C539.708862,393.668427,538.594055,394.024902,538.188965,393.460236C537.090515,391.92926,533.541504,389.375702,534.322876,390.678497C535.223206,392.179718,531.487732,392.838684,527.703369,391.846252C526.165222,391.442902,522.204956,391.289948,518.902771,391.506378C514.176147,391.816162,512.773621,391.573578,512.310242,390.366089C511.91217,389.328735,511.497772,389.19458,511.029907,389.951599C510.649445,390.5672,508.617126,391.350159,506.513611,391.691498C503.391541,392.198151,502.844696,392.053864,503.536469,390.906067C504.258392,389.708282,504.133301,389.703308,502.691956,390.872437C501.257874,392.035706,500.742126,392.035706,499.308044,390.872437C498.158386,389.93988,497.856781,389.900635,498.367065,390.75C498.892365,391.624359,498.273865,392.031952,496.309021,392.106293C494.764069,392.164764,492.600006,392.279083,491.5,392.360321C490.399994,392.441559,488.739807,392.167511,487.810699,391.751312C486.824951,391.309753,485.82428,391.475311,485.408051,392.148773C484.914612,392.947174,484.267181,392.718292,483.307861,391.406372C482.47522,390.26767,481.637085,389.90741,481.21051,390.504883C480.236023,391.86969,476.500153,392.369232,470,392.003876C469.174988,391.957489,463.69455,392.06781,457.821259,392.249023C451.947937,392.430206,447.362,392.223297,447.630249,391.789246C447.898529,391.355164,447.66803,391,447.118042,391C446.568024,391,445.839355,391.450897,445.498779,392.001984C445.125885,392.605347,441.123993,392.841125,435.439758,392.594666C430.155426,392.36554,426,392.584778,426,393.092682C426,394.41037,423.235779,394.207336,422.785522,392.856598C422.510345,392.031067,421.854492,392.007507,420.426392,392.77182C419.129639,393.46582,417.854523,393.498077,416.724182,392.865509C415.775879,392.334839,415.000946,392.260468,415.002106,392.700317C415.003265,393.140137,412.006897,393.345947,408.343536,393.157654C403.195251,392.893036,401.49173,393.15686,400.841034,394.31955C399.944611,395.921417,394.806427,395.919312,394.272308,394.316895C394.105164,393.815521,392.348755,393.59436,390.369141,393.82547C388.021576,394.099548,386.467438,393.76825,385.900238,392.872833C385.20285,391.771881,385.027588,391.825745,385.01532,393.144684C385.002686,394.502289,384.397766,394.653564,381.550079,394.011292C379.652588,393.583344,377.897614,393.43573,377.650085,393.683258C376.829102,394.504211,363.537262,394.690826,361.376984,393.911713C360.103516,393.452454,358.792969,393.607025,358.10202,394.297974C357.232758,395.167236,356.439728,395.131195,354.870392,394.151123C353.726563,393.436798,353.071869,393.307281,353.415527,393.863312C353.826874,394.52887,349.453278,394.809387,340.613953,394.684357C331.882568,394.560852,327.38089,394.845093,327.740479,395.497223C328.044586,396.048737,327.708466,395.958557,326.9935,395.296814C326.112,394.480896,325.118713,394.401276,323.907501,395.0495C322.746979,395.670593,321.902008,395.650452,321.495056,394.991974C321.09729,394.348389,320.081604,394.529846,318.711853,395.489288C316.412659,397.099701,313.540222,397.552979,314.394592,396.170532C314.991791,395.204285,311.975647,395.278992,310.371887,396.270142C309.770782,396.641663,309.00769,396.674347,308.676117,396.342773C307.790405,395.457092,299.106903,395.367798,299.653412,396.25C299.908966,396.662506,299.164917,397,298,397C296.653656,397,296.141937,396.579376,296.59549,395.84549C297.088287,395.048096,296.874573,394.970764,295.90451,395.59549C295.132019,396.092957,293.149994,396.592743,291.5,396.706085C284.571503,397.182068,255.768051,398.254761,246.752014,398.372589C241.390625,398.442657,237.003128,398.777954,237.002014,399.117706C237.000916,399.457458,232.274994,399.67923,226.5,399.610565C220.725006,399.541901,215.999344,399.713928,215.998535,399.992859C215.996338,400.754944,208.799072,401.266571,196.348328,401.389709C190.21492,401.450378,185.340698,401.735138,185.516754,402.022522C185.69281,402.309906,183.96106,402.60321,181.668427,402.674347C179.375793,402.745453,175.25,402.894073,172.5,403.004639C165.987885,403.266418,153.936752,402.305298,147,400.970947C143.975006,400.389069,140.721359,399.9039,139.769684,399.892853C138.818024,399.881775,137.791107,399.471008,137.487671,398.980042C137.184219,398.489075,136.269638,398.343048,135.455246,398.655548C134.640854,398.968048,133.40654,398.75238,132.712341,398.176239C132.018143,397.600098,130.240891,396.966766,128.762894,396.768829C127.284897,396.570892,125.758614,396.091949,125.371147,395.704468C124.983681,395.317017,123.389458,395,121.82843,395C120.267403,395,116.681351,393.886169,113.859421,392.524841C111.037498,391.163483,108.381409,390.264282,107.957001,390.526581C107.107819,391.051392,91.071274,384.440094,89.550003,382.938019C89.027496,382.422119,87.898247,382,87.04055,382C86.182846,382,84.919037,381.100006,84.232071,380C83.545113,378.899994,82.330048,378,81.531929,378C80.73381,378,78.28566,376.3125,76.091599,374.25C69.029221,367.611084,65.775604,365,64.56543,365C62.955864,365,59.529049,362.412354,59.375,361.080597C59.306252,360.486267,59.193748,359.100006,59.125,358C59.056252,356.899994,58.564125,356,58.031384,356C57.498646,356,57.351768,356.753113,57.704994,357.673615C58.200146,358.963959,57.945229,359.192963,56.59182,358.673615C55.626354,358.303131,54.648228,358,54.418213,358C54.188194,358,54,357.373779,54,356.608398C54,355.843018,52.904991,354.941986,51.56665,354.606079C50.228306,354.270172,48.847984,353.096405,48.499264,351.997681C48.150543,350.898956,47.14555,350,46.265945,350C45.386341,350,44.911922,349.75473,45.211681,349.454987C45.51144,349.155212,44.01144,347.093506,41.878349,344.873383C39.745258,342.653259,38,340.44104,38,339.957367C38,339.473663,37.015156,338.1604,35.811455,337.038971C33.703354,335.074982,30.075615,329.338715,26.300457,322C25.310205,320.075012,23.9375,317.905365,23.25,317.178558C22.5625,316.451782,22,315.262421,22,314.535553C22,313.808685,21.435894,312.997498,20.746433,312.732941C20.056971,312.468353,18.868137,310.524261,18.104582,308.412659C17.341026,306.301086,16.079252,303.936401,15.300639,303.157776C14.522026,302.379181,14.121736,301.125153,14.411105,300.371063C14.700474,299.616974,14.546237,299,14.068356,299C13.238324,299,11.157319,291.783569,10.561712,286.839783C10.406673,285.552917,9.541862,282.055817,8.639912,279.068512C7.73796,276.081177,7,272.423615,7,270.940613C7,269.457611,6.333638,266.649414,5.519196,264.700195C2.993069,258.654297,2.531525,254.096527,2.562234,235.5C2.592754,217.018402,3.914273,206.087936,8.043087,190.16713C9.089003,186.134048,9.851997,182.534042,9.73863,182.16713C9.375802,180.992813,16.131493,160.813126,20.051239,151.362701C22.13567,146.337173,25.748087,139.137177,28.078836,135.362701C30.409584,131.588211,34.365601,125.125,36.86998,121C39.374363,116.875,42.003139,112.905357,42.7117,112.178574C43.420265,111.451782,44,110.537666,44,110.147217C44,109.75676,46.199615,107.131126,48.888035,104.312477C51.576454,101.493828,54.59848,97.795441,55.603642,96.093834C56.608807,94.392227,57.764259,93,58.17131,93C58.578365,93,61.743843,90.1875,65.205704,86.75C72.633766,79.374214,81.453011,72,82.846069,72C83.389069,72,83.98333,71.636307,84.166664,71.191788C84.64859,70.023293,93.663284,64,94.930176,64C95.518578,64,96,63.6311,96,63.180222C96,62.729343,98.137497,61.220116,100.75,59.826378C103.362503,58.432644,108.199997,55.803818,111.5,53.984547C117.458229,50.69981,121.060303,49.183796,134.5,44.304497C148.19136,39.333828,154.518112,37.763763,176.5,33.881664C179.800003,33.29887,183.625,32.612823,185,32.357117C186.375,32.101406,188.625,31.772552,190,31.626328C191.375,31.480104,193.850006,31.068405,195.5,30.711443C197.149994,30.354481,200.524994,29.799429,203,29.477993C205.475006,29.156557,210.38562,28.447195,213.912491,27.901632C217.439362,27.356071,223.514374,26.49519,227.412491,25.988565C231.310623,25.481939,239,24.400869,244.5,23.586187C250,22.771505,257.875,21.8125,262,21.455063C266.125,21.097626,269.725006,20.66991,270,20.504585C270.274994,20.339258,273.424988,19.90209,277,19.533098C280.575012,19.164106,285.075012,18.463139,287,17.975393C288.924988,17.487646,293.638794,16.593836,297.475067,15.989146C301.31134,15.384458,304.791962,14.352027,305.209747,13.694856C305.780884,12.796468,305.973175,12.791595,305.98468,13.675219C305.994537,14.430034,307.341461,14.719363,309.75,14.484027C311.8125,14.282502,316.200012,13.858395,319.5,13.541567C322.799988,13.224738,327.299988,12.725755,329.5,12.432714C339.681885,11.07648,354.850708,9.764863,360,9.795442C362.475006,9.81014,367.424988,9.436343,371,8.964784C374.575012,8.493224,384.700012,7.811394,393.5,7.449606C402.299988,7.087818,409.950012,6.509124,410.5,6.163619C412.172302,5.113091,419.828644,4.850501,462.5,4.380168C485.049988,4.131618,505.524994,3.904864,508,3.876272C510.475006,3.84768,523.075012,4.109703,536,4.458546C548.924988,4.807388,568.049988,5.290956,578.5,5.533141C588.950012,5.775325,602,6.184682,607.5,6.442823C613,6.700964,622.806519,7.10097,629.292297,7.331725C635.778076,7.562479,641.361694,8.028337,641.700317,8.366963C642.03894,8.70559,642.891113,8.505325,643.594055,7.92193C644.495361,7.173945,645.461304,7.176504,646.870361,7.930606C647.96936,8.518773,649.685608,8.99311,650.684265,8.984687C652.222412,8.971715,652.270691,8.821185,651,8C649.678284,7.145827,649.684204,7.028806,651.049988,7.015313C651.902527,7.006891,653.100769,7.500794,653.712891,8.112876C654.324951,8.724958,657.677429,9.391724,661.162903,9.594577C671.822876,10.214995,687.000916,10.998614,697.190247,11.454616C702.519836,11.69313,710.547485,12.390364,715.029358,13.004023C719.511292,13.617682,724.150696,14.025909,725.339172,13.911197C726.527588,13.796484,728.332886,14.06011,729.350952,14.497031C730.520569,14.99903,731.485962,14.831717,731.973755,14.042472C732.516296,13.1646,733.303406,13.082197,734.622803,13.765129C735.655273,14.29952,738.299988,15.093245,740.5,15.52896C742.700012,15.964676,745.174988,16.49848,746,16.715191C746.825012,16.931904,749.974976,17.275875,753,17.479574C756.025024,17.683273,760.299988,18.122761,762.5,18.456213C764.700012,18.789665,768.974976,19.255482,772,19.49136C775.025024,19.727238,779.299988,20.3627,781.5,20.9035C783.700012,21.444298,788.650024,22.143555,792.5,22.457405C796.349976,22.771254,804.088989,23.840752,809.697815,24.834066C815.30658,25.827383,819.667542,26.271074,819.388794,25.820047C819.110046,25.36902,819.33197,25,819.881958,25C820.431946,25,821.127991,25.398075,821.428711,25.884613C821.72937,26.371149,824.046631,27.079826,826.578125,27.45945C829.10968,27.839073,831.927673,28.281145,832.840454,28.441833C840.011353,29.704262,848.076416,31.026686,851,31.419453C852.924988,31.678066,857.424988,32.53727,861,33.328793C864.575012,34.120319,870.424988,35.095268,874,35.495354C877.575012,35.895435,881.032043,36.652473,881.682312,37.177654C882.332581,37.702839,884.807556,38.295414,887.182312,38.494492C889.557068,38.693569,893.525024,39.365486,896,39.987644C898.474976,40.609802,901.615601,41.288788,902.979065,41.496506C905.621155,41.899014,916.395569,44.2328,926.884155,46.674461C930.395447,47.491863,935.120483,48.289989,937.384155,48.448082C939.647888,48.606171,943.299988,49.506382,945.5,50.448551C947.700012,51.390717,950.625,52.350311,952,52.580982C961.182739,54.121468,973.699097,57.000961,981,59.252655C982.924988,59.846348,987.200012,60.940102,990.5,61.683212C993.799988,62.426323,997.174988,63.219475,998,63.44577C998.825012,63.672066,1003.775024,65.039124,1009,66.483681C1014.224976,67.928238,1020.974976,69.703819,1024,70.429413C1027.025024,71.155014,1030.737549,72.244095,1032.25,72.849594C1033.762451,73.455093,1035,73.747772,1035,73.5C1035,73.252228,1036.237549,73.541443,1037.75,74.1427C1040.587524,75.270691,1041.069946,75.410576,1054.5,79C1058.900024,80.17598,1063.849976,81.53862,1065.5,82.028099C1074.932861,84.826385,1079.769409,86.176041,1081.929932,86.612968C1083.266357,86.88324,1084.723511,87.329102,1085.167969,87.603783C1085.854492,88.028137,1094.021118,90.336365,1099,91.513336C1116.958862,95.758659,1126.981812,98.880104,1136.248901,103.113701C1142.348389,105.900223,1148.082153,108.323227,1148.990479,108.498177C1152.418335,109.158302,1160.795898,111.851219,1162.611328,112.876457C1163.650146,113.463112,1167.425049,114.818741,1171,115.888977C1174.574951,116.959213,1179.300049,118.611427,1181.5,119.560593C1183.699951,120.50975,1186.400024,121.39785,1187.5,121.534157C1188.599976,121.670464,1195.574951,124.264618,1203,127.298973C1220.786743,134.567795,1247.739502,145.000763,1248.721558,144.997055C1249.819214,144.99292,1269.780762,152.922134,1274,155.038223C1275.925049,156.003693,1281.550049,158.438782,1286.5,160.449539C1291.449951,162.460281,1296.849976,164.711533,1298.5,165.452301C1300.150024,166.193069,1306,168.698853,1311.5,171.020706C1317,173.34256,1325.550049,177.171158,1330.5,179.528702C1335.449951,181.886261,1342.875,185.25415,1347,187.012909C1353.745728,189.889053,1362.243896,193.850021,1382,203.326157C1388.405762,206.398743,1393.145752,209.294174,1395.801025,211.756546C1396.546265,212.447647,1398.091064,213.513519,1399.233887,214.125153C1400.376709,214.736786,1402.25415,216.118591,1403.405884,217.195816C1414.678833,227.739212,1418.716309,231.908234,1419.921997,234.25C1420.700806,235.762497,1421.711914,237,1422.168945,237C1422.626099,237,1423,237.675003,1423,238.5C1423,239.324997,1423.337524,240.00351,1423.75,240.007797C1424.162476,240.0121,1425.010742,241.024597,1425.63501,242.257797C1426.259155,243.491013,1428.219482,247.199997,1429.991211,250.5C1437.956177,265.335571,1441.995728,280.644165,1442.525391,298C1442.735229,304.875,1442.484009,312.975006,1441.967285,316C1441.450439,319.024994,1440.783081,323.524994,1440.484253,326C1440.185303,328.475006,1439.430054,332.075012,1438.805908,334C1435.449951,344.350067,1433.588501,349.605164,1432.961426,350.5C1432.57605,351.049988,1431.696289,353.299988,1431.006592,355.5C1430.316772,357.700012,1428.683105,360.932465,1427.376221,362.683289C1426.069336,364.434082,1425,366.486267,1425,367.243652C1425,368.716614,1422.8302,374.273468,1415.723755,391C1413.270142,396.774994,1408.202881,408.700012,1404.463013,417.5C1400.723145,426.299988,1396.928589,434.45929,1396.030762,435.631775C1395.132813,436.80426,1393.782593,439.729248,1393.030396,442.131775C1392.278076,444.534302,1388.606567,452.874146,1384.871582,460.664734C1381.136475,468.455353,1375.096436,481.955353,1371.449341,490.664734C1367.802246,499.374146,1363.785767,508.299988,1362.523926,510.5C1359.83667,515.18512,1343.149536,554.627197,1342.560425,557.68634C1342.339355,558.834167,1341.684204,560.611877,1341.104614,561.636658C1340.525024,562.661499,1338.758179,566.875,1337.178467,571C1332.127075,584.189575,1323.955811,604.442566,1322.962036,606.23645C1322.432861,607.191467,1322,608.495667,1322,609.134644C1322,610.609497,1314.632813,629.523499,1310.862305,637.728943C1309.288086,641.154907,1308,644.381531,1308,644.899353C1308,648.336487,1292.943726,673.096619,1289.5896,675.175293C1288.990356,675.546692,1286.300049,677.90918,1283.611206,680.425293C1280.922363,682.941345,1278.109863,685,1277.361206,685C1276.612549,685,1276,685.438416,1276,685.974304C1276,686.510193,1274.537476,687.692383,1272.75,688.60144C1270.962524,689.510437,1268.659058,691.135498,1267.631348,692.212708C1266.55127,693.344604,1264.968628,693.963562,1263.881348,693.679199C1262.733154,693.378967,1262,693.707642,1262,694.522644C1262,695.761108,1258.842529,696.922729,1247.108276,700.001221C1242.573853,701.190857,1225.415771,702.000244,1221,701.232849z"/>
    <path transform="matrix(0.034602,0,0,-0.034602,162.997208,-156.798828)" style="stroke:#000000;stroke-width:0.05mm;fill:none" d="M1339.896118,353.16037C1342.703247,346.923553,1345,341.21637,1345,340.477753C1345,339.739105,1344.054688,338.834747,1342.899292,338.468048C1341.37085,337.98291,1341.098511,337.501556,1341.899292,336.700653C1342.504761,336.095306,1343,334.987122,1343,334.238068C1343,333.489014,1344.070068,330.541504,1345.37793,327.68808C1346.685791,324.834625,1350.271851,316.424988,1353.347168,309C1358.679199,296.126068,1358.851807,295.439453,1357.06958,294.194611C1355.274414,292.940796,1355.334839,292.579498,1358.600342,285.044189C1360.470093,280.729401,1362,276.798096,1362,276.307922C1362,275.633636,1124.807739,174.880951,1093.286377,162.165878C1090.103882,160.882111,1084.349976,158.360458,1080.5,156.56221C1076.650024,154.763947,1071.749512,152.664291,1069.609985,151.896317C1067.470459,151.128342,1065.056152,149.487503,1064.244995,148.25C1062.622192,145.774628,1060.456299,145.303604,1059.646729,147.25C1059.360718,147.9375,1059.210693,147.375,1059.313354,146C1059.435669,144.361496,1058.983154,143.5,1058,143.5C1057.175049,143.5,1056.612549,144.0625,1056.75,144.75C1057.072266,146.361145,1055.148926,146.288528,1052.050415,144.572556C1050.703125,143.826431,1049.015625,143.440521,1048.300415,143.714981C1047.585205,143.989426,1046.997437,143.603333,1046.994385,142.856995C1046.990601,141.968842,1045.620728,141.448883,1043.029297,141.352036C1039.994141,141.238617,1038.934814,141.630051,1038.490723,143.029099C1037.967651,144.677322,1036.613037,144.898682,1032.127563,144.068893C1031.922729,144.031006,1032.315308,143.324997,1033,142.5C1033.860107,141.463638,1033.897949,141,1033.122437,141C1032.505127,141,1032,140.144028,1032,139.097824C1032,137.883362,1030.915405,136.817551,1029,136.149841C1027.349976,135.574646,1026,134.405624,1026,133.552017C1026,131.639114,1025.074341,131.629044,1022.58197,133.514862C1021.140076,134.605927,1020.327515,134.686768,1019.307922,133.840561C1016.979919,131.908478,1016.719177,133.719208,1018.997375,135.997391C1021.02478,138.024857,1021.241516,138.052032,1022.429016,136.427948C1023.797302,134.556702,1026,135.235016,1026,137.527634C1026,138.369766,1025.396118,138.705505,1024.5,138.361633C1023.664612,138.041031,1023,138.334396,1023,139.023849C1023,139.869858,1021.971313,140.082458,1019.75,139.695496C1001.497681,136.515717,992.529175,135.1008,987.294739,134.575211C983.728271,134.217102,976.924316,132.298584,971.294739,130.06366C963.507751,126.972267,961.343018,126.452316,960.734131,127.527122C960.312927,128.270691,959.187927,128.711548,958.234131,128.506805C945.248718,125.719307,936.277405,123.958168,932.350586,123.425629C929.708191,123.067284,926.410828,122.618858,925.023132,122.429138C923.635437,122.239418,918,121.80542,912.5,121.464684C905.033386,121.002121,900.726624,120.148956,895.5,118.097054C886.533752,114.576981,878.909729,111.899879,877,111.60096C876.174988,111.471817,873.924988,110.889473,872,110.306839C870.075012,109.72422,866.474976,108.683533,864,107.994209C861.525024,107.304893,857.700012,106.167221,855.5,105.466057C853.299988,104.764893,850.599976,104.183144,849.5,104.173264C848.400024,104.163399,846.375,103.902672,845,103.59388C828.175049,99.815399,804.83374,98.675903,790.996948,100.95752L783.493835,102.194733L774.62207,98.52224C769.742554,96.502373,765.38623,95.221054,764.941345,95.674873C764.496399,96.128693,759.779053,106.849998,754.458313,119.5C749.137573,132.149994,743.938232,144.158905,742.904236,146.186447L741.02417,149.87291L743.262085,150.555832C744.49292,150.931442,747.817383,152.321396,750.64978,153.644592C754.804443,155.585526,755.699768,156.432037,755.283142,158.025208C754.999146,159.111343,754.256714,160.006897,753.633362,160.01532C752.909302,160.025101,752.861145,160.295959,753.5,160.76532C754.049988,161.169388,754.549561,165.324997,754.610107,170C754.721802,178.616745,755.501892,194.532074,756.570801,210C757.311584,220.719894,757.311768,220.884018,756.596558,230.5C755.496033,245.297195,754.980835,308.819397,755.940857,311.344513C756.870667,313.79007,758.027649,314.105682,765,313.815765C768.42511,313.67334,770.865417,313.757172,782.959412,314.432678C789.603455,314.803802,794.662476,314.606445,796.828186,313.891693C799.415466,313.037811,800.415039,313.053467,800.973206,313.956696C801.717773,315.161346,805.604492,315.684357,818.75,316.348785C824.369812,316.632843,826,316.409973,826,315.357605C826,313.528717,828.692383,313.62793,829.737488,315.495361C830.56781,316.979126,832.046509,317.121735,860.5,318.462036C864.349976,318.643402,872.224976,319.065369,878,319.39975C883.775024,319.734161,892.881409,320.221069,898.236511,320.481812L907.972961,320.955902L908.567749,318.227936C908.894897,316.72757,909.632263,314.258514,910.206299,312.741119C910.780334,311.223724,911.241394,308.748718,911.230957,307.241119C911.220459,305.73349,911.883301,303.740845,912.703918,302.813019C913.524536,301.885162,913.94397,300.718353,913.636047,300.220093C913.328064,299.721832,914.372559,296.655975,915.957092,293.407074C917.541565,290.158203,919.148254,286.262512,919.527405,284.75C919.906616,283.237488,920.614563,282,921.100708,282C921.586853,282,923.450562,279.758087,925.24231,277.017975C927.034058,274.277863,928.857117,272.027863,929.29364,272.017975C929.730164,272.008087,931.305176,270.8526,932.79364,269.450226C938.719177,263.867462,946.306396,260.188202,955.509155,258.434784C960.454102,257.492615,966.75,255.892731,969.5,254.879471C980.651367,250.770691,1000.754883,250.034393,1009.5,253.414444C1015.785889,255.844009,1017.098816,256.176086,1018.417419,255.670059C1019.216797,255.363327,1020.031372,255.594025,1020.2276,256.182739C1020.423828,256.771454,1021.465393,257.338562,1022.542175,257.442993C1025.644653,257.743866,1030.084106,259.003937,1035.694214,261.175995C1038.551025,262.282043,1041.332397,262.912598,1041.875122,262.577179C1042.417847,262.241791,1043.144409,262.424713,1043.489868,262.983673C1043.835327,263.542664,1044.866333,264,1045.780762,264C1047.617798,264,1060.344116,267.674774,1063.5,269.116455C1067.970581,271.158691,1071.88501,271.841949,1072.369019,270.664459C1072.72937,269.787933,1073.058472,269.795898,1073.699951,270.696686C1074.168701,271.354858,1077.686646,273.23053,1081.517578,274.864868C1086.535278,277.005402,1088.690918,277.509674,1089.226196,276.668182C1089.716431,275.897675,1089.974609,275.871063,1089.984741,276.589935C1089.993164,277.189423,1091.912476,278.260193,1094.25,278.969482C1100.626831,280.90448,1107.253052,283.108887,1109.5,284.042938C1111.973511,285.071106,1115.219238,285.990875,1118.426758,286.57251C1119.770996,286.816254,1122.924805,287.896149,1125.435425,288.97229C1127.945923,290.048431,1130,290.683228,1130,290.382904C1130,290.082581,1131.462524,290.718811,1133.25,291.796753C1135.037476,292.874695,1138.300049,294.063568,1140.5,294.438721C1148.290527,295.767212,1159.623047,299.692596,1163.154907,302.286041C1164.615112,303.358276,1166.302612,303.931,1166.904907,303.558746C1167.507202,303.186523,1168,303.307434,1168,303.827484C1168,304.347504,1169.237549,305.007843,1170.75,305.29483C1177.826782,306.637726,1186.278564,309.148376,1191.508545,311.461365C1194.665771,312.857605,1198.066284,314,1199.06543,314C1200.064575,314,1201.147949,314.430359,1201.473022,314.956329C1201.798096,315.4823,1202.68811,315.673187,1203.450806,315.380493C1204.213623,315.087799,1207.46167,316.231476,1210.668823,317.922028C1213.875977,319.612549,1217.201538,320.996674,1218.058838,320.997864C1218.91626,320.999023,1220.491211,321.660675,1221.558838,322.468201C1222.626465,323.275696,1224.231445,323.950714,1225.12561,323.968201C1226.019653,323.985687,1229.289429,325.122559,1232.391846,326.494568C1235.494263,327.866608,1238.362671,328.917786,1238.766235,328.830536C1240.16272,328.528656,1245.53064,330.160217,1252.727173,333.073914C1256.702148,334.683258,1260.626831,336,1261.448608,336C1262.270508,336,1265.535645,337.146576,1268.704346,338.547943C1271.873047,339.94931,1276.314087,341.510132,1278.573242,342.016418C1280.832397,342.522675,1294.340088,347.847107,1308.590332,353.84845C1322.840698,359.849762,1334.565674,364.701477,1334.646118,364.629974C1334.72644,364.558502,1337.088867,359.397156,1339.896118,353.16037z"/>
    <path transform="matrix(0.034602,0,0,-0.034602,162.997208,-156.798828)" style="stroke:#000000;stroke-width:0.05mm;fill:none" d="M695,191L695,110L578,110L461,110L461,138.5C461,160.591232,460.718903,167.017746,459.75,167.078949C458.779297,167.140259,458.785522,167.272675,459.777893,167.67157C460.774567,168.07222,461.043274,174.381393,460.998932,196.342636C460.967682,211.829178,460.955139,235.1875,460.971039,248.25L461,272L578,272L695,272L695,191z"/>
    <path transform="matrix(0.034602,0,0,-0.034602,162.997208,-156.798828)" style="stroke:#000000;stroke-width:0.05mm;fill:none" d="M189,319.519958C196.332443,318.55661,197.244308,318.38559,199,317.644653C199.824997,317.296478,202.507172,316.837463,204.960388,316.624634C207.413605,316.411804,209.579971,315.760101,209.774536,315.176392C210.004211,314.487335,212.122513,314.34906,215.814148,314.782135C221.945496,315.501404,227.252579,315.418396,239,314.419525C243.125,314.068787,249.535828,313.718384,253.246292,313.6409C256.956757,313.563416,259.994202,313.274994,259.996216,313C259.99823,312.725006,262.812378,312.56778,266.249939,312.650604C269.687469,312.733459,274.420868,312.452484,276.768616,312.026245C279.13913,311.595856,281.282013,311.647308,281.587708,312.141937C281.890472,312.631805,282.669617,312.698761,283.319092,312.29071C284.556274,311.513458,289.621033,311.231323,309.5,310.832397C316.358459,310.694733,321.853973,310.143494,322.326141,309.545776C322.865417,308.863098,323.299316,308.847198,323.575775,309.5C324.070892,310.669098,333.042633,310.709717,334.916901,309.551361C335.620605,309.116455,339.302155,308.789856,343.098175,308.825562C349.314117,308.884064,352.044708,307.873749,348.75,306.734406C348.0625,306.496674,349.613464,306.329498,352.196625,306.362946C356.183716,306.414551,356.712463,306.643372,355.696625,307.877747C354.676605,309.117157,354.942749,309.21228,357.5,308.522339C359.149994,308.077179,363.649994,307.665527,367.5,307.607544L374.5,307.502167L374.472046,303.001068C374.456696,300.525482,374.062836,297.889282,373.596832,297.142853C372.590027,295.530243,374.295471,295.955688,383.74057,299.67337C387.172882,301.024353,390.368622,301.890228,390.842224,301.597504C391.315857,301.30481,392.4823,299.025604,393.434387,296.532654C394.386444,294.039703,395.523254,292,395.960571,292C396.397919,292,398.348328,292.665436,400.29483,293.478729L403.833893,294.957428L410.044861,280.228729C413.460876,272.12793,417.548248,262.676239,419.127899,259.224945C420.70755,255.773682,421.995422,252.623688,421.989838,252.22496C421.984222,251.826233,420.178589,250.7435,417.977264,249.818893L413.974884,248.137787L416.056702,242.85614C418.034088,237.839493,418.050201,237.509888,416.378143,236.287231C415.409912,235.579254,414.256866,235,413.815765,235C412.5737,235,413.079376,216.695984,414.366699,215.058044C415.229248,213.960571,415.209747,213.790314,414.285065,214.345398C413.337646,214.914108,413.069336,202.856262,413.066681,159.587418C413.064789,129.069412,412.775208,102.952599,412.423218,101.550056C412.071198,100.14753,411.213226,99,410.516602,99C409.819977,99,408.987244,97.686195,408.666077,96.080429C408.029938,92.89975,404.553101,91.04689,402.699341,92.900665C402.094696,93.505295,400.827515,94,399.883331,94C398.939178,94,397.977356,94.5625,397.745941,95.25C397.415588,96.23159,396.977631,96.213104,395.706421,95.16391C394.816071,94.429062,393.596039,94.131622,392.995239,94.502937C392.39444,94.874252,383.037231,95.179062,372.201447,95.180305C361.365662,95.181541,353.367096,95.512787,354.42688,95.916412C356.122955,96.562363,356.156738,96.725876,354.708923,97.281464C353.80423,97.628616,352.798096,97.482307,352.473022,96.956329C352.147949,96.430344,351.20697,96,350.381958,96C349.556976,96,349.160095,96.449997,349.5,97C349.839905,97.550003,349.416473,98,348.559021,98C347.701569,98,347,97.550003,347,97C347,96.449997,345.84845,96,344.440979,96C342.989624,96,342.149475,96.432838,342.5,97C342.887604,97.627174,340.952271,97.959152,337.309021,97.890434L331.5,97.780869L335.888092,96.919006C338.301544,96.444977,340.506561,95.826775,340.788116,95.545219C341.621338,94.71199,332.49826,95.860062,329.634674,96.948792C328.185608,97.499733,327,97.710075,327,97.416229C327,97.122383,326.4375,97.233368,325.75,97.662865C325.0625,98.092354,323.825012,98.563347,323,98.709503C318.513397,99.504372,312.859497,100.159653,307.798065,100.471382C304.661987,100.664543,301.736969,101.036293,301.298065,101.297501C300.859131,101.558708,297.6875,102.092819,294.25,102.484398C290.8125,102.875977,288.000031,103.489693,288.000061,103.84819C288.000122,104.20668,285.637604,104.550087,282.750061,104.611313C276.900818,104.735321,267.304504,105.874359,265,106.71817C264.174988,107.020248,261.8125,107.172821,259.75,107.057228C257.674744,106.940933,256,107.313797,256,107.892143C256,108.466942,255.324997,108.678207,254.5,108.361633C253.675003,108.045036,253,108.300003,253,108.928192C253,109.734619,252.449493,109.775749,251.127243,109.0681C250.097229,108.516853,248.409729,108.21666,247.377243,108.401009C246.344757,108.585373,243.699997,109.071388,241.5,109.481056C239.300003,109.890732,236.031326,110.37735,234.236267,110.562424C232.441223,110.747513,230.528717,111.173233,229.986267,111.508476C229.443817,111.843727,229,111.614922,229,111C229,110.385078,228.602356,110.127724,228.116348,110.428093C227.341705,110.906853,219.80983,112.127296,209.129913,113.504608C207.276367,113.743637,204.126373,114.172913,202.129913,114.458542C200.133469,114.744164,196.475006,115.184624,194,115.437347C189.090088,115.938698,181.318542,118.430634,173.5,122.010643C170.75,123.269836,166.475006,124.442352,164,124.616241C159.870255,124.90638,156.710327,125.280792,147,126.630501C145.074997,126.898071,141.592407,127.990669,139.260895,129.058502C136.929398,130.126328,134.622513,131,134.134491,131C133.284149,131,127.52343,136.516388,123.661484,141.028854C122.650284,142.210358,120.972656,145.049713,119.933434,147.338531C118.894203,149.627335,118.034042,151.076492,118.021973,150.558868C118.00988,150.041245,117.33931,150.491241,116.531807,151.558868C115.724297,152.626495,115.049294,153.223877,115.031807,152.886414C114.968826,151.671341,98.009026,167.375061,97.984024,168.6716C97.975243,169.127213,96.73774,170.918472,95.234024,172.652176C92.250587,176.091919,86.69899,184.900238,86.50621,186.5C86.295288,188.250244,83.825844,194.15126,82.112198,197C80.65097,199.429108,78.632332,212.867233,78.431862,221.5C78.210045,231.052017,79.513969,241.637146,81.757843,248.5C82.656982,251.25,83.538895,254.368912,83.717651,255.430908C84.084305,257.609192,90.442978,270.623901,92.139046,272.667542C92.747261,273.400391,92.878784,274,92.431313,274C91.983849,274,92.491249,274.660675,93.558868,275.468201C94.626495,276.275696,95.076492,276.950714,94.558868,276.968201C94.041252,276.985687,94.491249,277.660675,95.558868,278.468201C96.626495,279.275696,97.177666,279.950714,96.783707,279.968201C96.38974,279.985687,97.289742,281.286499,98.783707,282.858856C100.277657,284.431244,103.832489,288.256256,106.683311,291.358856C109.534126,294.461487,112.309143,297,112.849983,297C113.390823,297,113.98333,297.340851,114.166656,297.757446C114.510727,298.539276,120.980583,303.54248,124.503952,305.751373C132.735992,310.912292,148.693085,317.025269,158,318.583344C159.925003,318.905609,163.044876,319.482574,164.933044,319.865479C169.044479,320.69928,181.37088,320.522308,189,319.519958z"/>
</svg>
