<?xml version="1.0" encoding="UTF-8" standalone="no"?>
<!-- Created with Inkscape (http://www.inkscape.org/) -->

<svg
   width="49.473022mm"
   height="65.786324mm"
   viewBox="0 0 49.473022 65.786324"
   version="1.1"
   id="svg5"
   xml:space="preserve"
   xmlns="http://www.w3.org/2000/svg"
   xmlns:svg="http://www.w3.org/2000/svg"><defs
     id="defs2" /><g
     id="layer1"
     transform="translate(-75.404947,-86.898427)"><path
       style="fill:#000000;stroke-width:0.0606266"
       d="m 89.440018,110.66021 c -0.300101,-0.026 -0.995791,-0.0777 -1.545979,-0.11501 -1.219221,-0.0826 -1.996641,-0.16416 -2.637258,-0.27673 -0.266758,-0.0469 -0.948806,-0.14277 -1.515665,-0.21311 -2.418885,-0.30015 -3.789286,-0.60159 -4.607627,-1.01352 -2.304986,-1.16024 -3.72854,-3.51079 -3.72854,-6.1565 0,-0.41376 0.02434,-0.83138 0.05409,-0.92805 0.02975,-0.0967 0.08744,-0.33947 0.128217,-0.53953 0.04077,-0.20007 0.10156,-0.45596 0.135083,-0.56864 0.08136,-0.27346 0.609314,-1.182688 0.884343,-1.522982 0.321215,-0.397441 0.352756,-0.424386 0.496752,-0.424386 0.08971,0 0.152432,-0.05718 0.199504,-0.18188 0.03776,-0.100034 0.09179,-0.18188 0.120076,-0.18188 0.02828,0 0.206454,-0.126508 0.395938,-0.281125 0.431965,-0.352488 0.798563,-0.514413 1.920807,-0.848426 0.456816,-0.135964 1.63041,-0.146725 3.698226,-0.03392 0.80027,0.04366 1.959756,0.09314 2.576632,0.109969 0.616876,0.01683 1.162516,0.04492 1.212532,0.06243 0.05002,0.01751 0.418325,0.02574 0.81846,0.01828 0.400137,-0.0075 0.768442,-0.01183 0.818459,-0.0097 1.459804,0.06207 2.159789,0.078 3.364781,0.0766 2.287529,-0.0027 4.708723,-0.04406 4.941072,-0.08448 0.116705,-0.02029 0.689629,-0.05405 1.273159,-0.07498 0.583531,-0.02093 1.156454,-0.04608 1.273159,-0.05587 0.954351,-0.08008 2.511401,-0.176075 2.758511,-0.170077 0.63744,0.01548 1.09415,0.05445 1.16706,0.09961 0.0517,0.03205 0.0758,0.0053 0.0758,-0.08438 0,-0.09848 0.0257,-0.121467 0.10266,-0.09192 0.0565,0.02167 0.23267,0.0061 0.39157,-0.03464 0.26631,-0.06825 0.31123,-0.06256 0.57445,0.07282 0.20591,0.105905 0.29257,0.125831 0.31069,0.07145 0.0138,-0.04148 0.0638,-0.07542 0.11103,-0.07542 0.0472,0 0.0859,-0.02612 0.0859,-0.05804 0,-0.03398 0.45859,-0.06783 1.10644,-0.08167 1.32,-0.02819 2.59497,-0.130191 3.13742,-0.250992 0.21674,-0.04826 0.52424,-0.104629 0.68333,-0.125254 0.15909,-0.02061 0.33642,-0.08695 0.39407,-0.147404 0.0576,-0.06045 0.21911,-0.167527 0.3588,-0.237951 l 0.25397,-0.128042 0.0765,0.211542 c 0.0421,0.116348 0.10005,0.211542 0.12886,0.211542 0.0288,0 0.19061,-0.05947 0.35957,-0.132156 0.33171,-0.142701 0.31646,-0.147855 0.51013,0.172376 0.0639,0.105629 0.0935,0.100705 0.57595,-0.0959 0.27974,-0.113988 0.7678,-0.328803 1.08457,-0.477374 0.31677,-0.148569 0.90279,-0.402199 1.30225,-0.563621 0.64854,-0.26207 0.73232,-0.282729 0.78256,-0.192961 0.0309,0.05529 0.20017,0.438042 0.37606,0.850554 l 0.3198,0.750017 -0.2839,0.122967 c -0.59991,0.259842 -0.8706,0.354756 -0.92169,0.323178 -0.0292,-0.01802 -0.30682,0.07474 -0.61702,0.206135 -0.31019,0.1314 -0.72768,0.307856 -0.92775,0.392125 l -0.36376,0.153215 -0.11115,-0.148013 c -0.14329,-0.190799 -0.28014,-0.184698 -0.7965,0.03551 -0.23245,0.09913 -0.42693,0.180242 -0.43219,0.180242 -0.005,0 -0.0435,-0.08185 -0.0849,-0.18188 -0.0915,-0.221017 -0.14454,-0.223681 -0.58397,-0.02934 l -0.34492,0.15254 -0.11387,-0.122227 c -0.14426,-0.154836 -0.20151,-0.153654 -0.31368,0.0065 -0.0496,0.07079 -0.28984,0.227658 -0.53392,0.348601 -0.24416,0.120989 -0.45207,0.264933 -0.46222,0.320017 -0.0102,0.05506 0.10857,0.402907 0.26383,0.772988 0.31478,0.750363 0.33502,0.764543 0.79405,0.556109 0.13821,-0.06276 0.34485,-0.111448 0.45921,-0.108207 0.11444,0.0032 0.4727,-0.101581 0.79689,-0.233172 0.53073,-0.215426 0.58568,-0.252309 0.55574,-0.373046 -0.0411,-0.16569 0.15184,-0.288118 0.34908,-0.221517 0.19748,0.06669 0.29915,0.03986 1.10137,-0.290592 0.44259,-0.182319 0.78781,-0.290058 0.87631,-0.273484 0.18938,0.03547 0.49046,-0.07255 2.06686,-0.741521 0.71691,-0.304234 1.34439,-0.602343 1.39441,-0.662467 0.05,-0.06012 0.16868,-0.15771 0.26371,-0.21686 0.17493,-0.1089 0.18007,-0.145463 0.0699,-0.497322 -0.0355,-0.113445 0.0145,-0.149656 0.4498,-0.325104 0.56281,-0.226867 0.58423,-0.275264 0.35631,-0.805071 -0.0734,-0.170662 -0.10752,-0.319426 -0.0758,-0.330587 0.22861,-0.08039 0.54566,-0.314764 0.55988,-0.413887 0.0167,-0.116054 -0.0783,-0.364564 -0.79877,-2.089981 -0.43708,-1.046758 -0.42252,-1.012709 -0.57049,-1.333788 -0.0692,-0.150051 -0.2246,-0.504717 -0.34545,-0.788147 -0.12084,-0.283429 -0.24009,-0.536024 -0.26498,-0.561324 -0.0249,-0.02529 -0.20631,0.01953 -0.40313,0.09959 l -0.35785,0.14559 -0.0645,-0.129368 c -0.0355,-0.07115 -0.10896,-0.13793 -0.1633,-0.148394 -0.12405,-0.02389 -1.57239,0.568999 -1.8497,0.757189 -0.11334,0.07692 -0.24579,0.139849 -0.29433,0.139849 -0.11391,0 -0.11411,-0.0013 0.0594,0.391059 l 0.14766,0.333891 -0.25376,0.06483 c -0.47736,0.121949 -0.89906,0.31909 -0.99466,0.464989 -0.0526,0.08022 -0.17392,0.186364 -0.26968,0.235886 -0.1579,0.08165 -0.21493,0.07825 -0.61242,-0.03656 -0.24107,-0.06963 -0.51217,-0.155294 -0.60245,-0.190362 -0.23238,-0.09027 -1.01807,0.204155 -1.01807,0.381508 0,0.138744 0.1684,0.487264 0.26612,0.550759 0.12919,0.08394 -0.0586,0.256609 -0.33292,0.306112 -0.50131,0.09046 -0.53738,0.106834 -0.62994,0.285803 -0.15801,0.30556 -0.26698,0.324721 -0.87479,0.153826 -0.71367,-0.200654 -0.86411,-0.193495 -1.36887,0.06515 -0.58504,0.299791 -0.59298,0.307959 -0.48704,0.501195 0.0482,0.08791 0.15195,0.325607 0.23056,0.528222 l 0.14294,0.36839 -0.4073,0.15793 c -0.38995,0.151201 -0.54192,0.159387 -0.81294,0.04379 -0.0667,-0.02844 -0.27131,-0.07917 -0.4547,-0.112721 -0.1834,-0.03355 -0.84887,-0.212616 -1.47884,-0.397922 -0.62996,-0.185304 -1.20503,-0.336918 -1.27792,-0.336918 -0.1912,0 -0.62398,-0.305223 -1.13404,-0.799801 -0.2442,-0.236792 -0.47188,-0.433345 -0.50595,-0.436787 -0.13786,-0.01394 -0.65169,-0.497981 -0.76557,-0.721215 -0.13222,-0.259165 -0.19149,-0.93595 -0.0851,-0.97142 0.0423,-0.0141 0.0414,-0.06801 -0.003,-0.16755 -0.16182,-0.364099 0.25726,-0.904587 0.70138,-0.904587 0.31643,0 0.49898,0.07429 1.00218,0.407866 0.23341,0.154728 0.57444,0.381137 0.75783,0.503129 0.1834,0.121994 0.4835,0.30113 0.6669,0.398081 0.18339,0.09695 0.35058,0.199795 0.37153,0.22854 0.0391,0.05357 0.40035,0.145965 0.78375,0.200427 0.15082,0.02143 0.23924,0.0021 0.29435,-0.06429 0.0592,-0.07139 0.10735,-0.07962 0.19409,-0.03319 0.0911,0.04877 0.23567,0.004 0.68869,-0.213466 0.31535,-0.151354 0.62662,-0.275187 0.69172,-0.275187 0.0651,0 0.12856,-0.03065 0.14105,-0.06811 0.0331,-0.09934 1.36885,-0.841295 1.51457,-0.841295 0.0317,0 0.17717,-0.08227 0.32332,-0.182822 0.14615,-0.100552 0.35568,-0.200279 0.46562,-0.221615 0.10994,-0.02133 0.37723,-0.132747 0.59397,-0.247576 0.79049,-0.418804 0.97209,-0.505931 1.63692,-0.785334 0.11671,-0.04905 0.28461,-0.127656 0.37311,-0.174688 0.0885,-0.04703 0.23174,-0.08551 0.3183,-0.08551 0.0995,0 0.15736,-0.03346 0.15736,-0.09094 0,-0.05002 0.0504,-0.09094 0.11198,-0.09094 0.0616,0 0.17094,-0.05114 0.243,-0.113636 0.0721,-0.0625 0.36952,-0.216037 0.66101,-0.341193 0.2915,-0.125159 0.81997,-0.374124 1.17439,-0.553257 0.35441,-0.179136 0.68527,-0.3257 0.73525,-0.3257 0.05,0 0.12232,-0.03791 0.16078,-0.08424 0.0384,-0.04634 0.23278,-0.145156 0.43184,-0.219597 0.29548,-0.110506 0.37881,-0.121324 0.45396,-0.05895 0.075,0.06227 0.11234,0.05803 0.20179,-0.02291 0.0672,-0.06079 0.21369,-0.09903 0.37778,-0.09859 0.3213,7.94e-4 0.9255,0.152866 0.9546,0.240155 0.0114,0.03424 0.0676,0.06226 0.12481,0.06226 0.16356,0 0.80105,0.547325 1.04621,0.898236 0.2393,0.342532 0.39645,0.703839 1.28374,2.951554 0.5254,1.330934 1.2589,3.029035 2.12123,4.910759 0.41391,0.903203 1.14533,2.630004 1.38349,3.266239 0.60508,1.616478 0.0217,3.431568 -1.41218,4.394048 -0.74531,0.50028 -5.16879,2.37033 -7.68924,3.25068 -0.35012,0.12229 -0.87036,0.31419 -1.1561,0.42645 -0.28574,0.11226 -0.77682,0.27103 -1.09128,0.35282 -0.31447,0.0818 -1.07647,0.29086 -1.69335,0.46459 -1.45076,0.40859 -3.71628,0.99563 -4.21355,1.09182 -0.13338,0.0258 -0.80179,0.16017 -1.48535,0.29859 -2.38358,0.48269 -5.01284,0.84277 -7.093318,0.97145 -0.550188,0.034 -1.164032,0.0763 -1.364099,0.0939 -1.453261,0.12804 -6.855333,0.18761 -8.00272,0.0883 z m -0.04328,-2.83118 c 0.06409,-0.0917 0.133397,-0.23664 0.154,-0.3221 0.02061,-0.0854 0.04037,-1.14263 0.04393,-2.34928 0.0043,-1.46154 0.02733,-2.19391 0.06895,-2.19391 0.03594,0 0.05176,-0.0919 0.03723,-0.21632 -0.0191,-0.16368 0.0013,-0.23059 0.08431,-0.27495 0.06026,-0.0323 0.110093,-0.0918 0.110744,-0.13229 0.0024,-0.15 -0.700577,-1.7394 -0.759018,-1.71608 -0.03334,0.0133 -0.108368,0.0434 -0.166722,0.0668 -0.07254,0.0291 -0.106098,0.0142 -0.106098,-0.0474 0,-0.17368 -0.168672,-0.2505 -0.396488,-0.18058 -0.196565,0.0603 -0.209778,0.0557 -0.209778,-0.0732 0,-0.12869 -0.03226,-0.1401 -0.500168,-0.17704 -0.275096,-0.0217 -1.114015,-0.0666 -1.86427,-0.0997 -0.750255,-0.0331 -1.76284,-0.0879 -2.250186,-0.121654 -0.487347,-0.03377 -0.927301,-0.04559 -0.977675,-0.02625 -0.05037,0.01931 -0.251839,-0.0046 -0.447699,-0.0532 -1.399839,-0.347274 -2.632567,1.22e-4 -3.618976,1.019894 -0.678709,0.70166 -1.008137,1.7242 -0.889789,2.76188 0.08181,0.71725 0.376801,1.28722 0.992966,1.91852 0.270663,0.27731 0.594725,0.62344 0.72014,0.76919 0.181081,0.21043 0.300469,0.28531 0.57993,0.36373 0.193548,0.0543 0.438157,0.0987 0.543581,0.0987 0.10542,0 0.375343,0.0691 0.599826,0.15362 0.352102,0.13253 1.217464,0.29171 1.968341,0.36207 0.262602,0.0246 0.442352,0.0471 1.718575,0.21491 0.533514,0.0702 1.177364,0.16637 1.430774,0.21381 0.259482,0.0486 0.855358,0.0878 1.364101,0.0897 0.496843,0.002 1.012479,0.0261 1.145855,0.0537 0.418738,0.0866 0.500775,0.0731 0.623613,-0.10262 z m 12.526312,-0.039 c 0.14157,-0.0592 0.4547,-0.0835 1.04386,-0.0811 0.95007,0.004 1.54983,-0.0885 2.47854,-0.3813 0.83684,-0.26385 1.1773,-0.34099 1.87943,-0.42583 1.18966,-0.14376 1.33695,-0.16789 1.58894,-0.2603 0.14033,-0.0515 0.46285,-0.12246 0.7167,-0.15776 0.38938,-0.0542 0.47577,-0.05 0.55248,0.0267 0.14366,0.14366 0.4763,0.11329 0.66396,-0.0606 0.10565,-0.0979 0.23425,-0.15157 0.3633,-0.15157 0.10987,0 0.21799,-0.0295 0.24027,-0.0655 0.0223,-0.036 0.10695,-0.0489 0.18815,-0.0285 0.10695,0.0268 0.21793,-0.0132 0.40262,-0.14519 0.14023,-0.10024 1.16891,-0.56677 2.28596,-1.03673 2.88629,-1.21431 7.95752,-3.38352 8.05268,-3.4445 0.0656,-0.042 0.0616,-0.0947 -0.0216,-0.28761 -0.0561,-0.12988 -0.0998,-0.32678 -0.0971,-0.43755 0.003,-0.11077 -0.10491,-0.46502 -0.23902,-0.78724 -0.15019,-0.360886 -0.23089,-0.637325 -0.21016,-0.71992 0.0368,-0.14659 -0.33625,-1.061879 -0.44797,-1.099116 -0.0361,-0.01204 -0.44058,0.134765 -0.89881,0.326236 -0.75718,0.316394 -1.66899,0.645213 -4.01603,1.44827 -0.45015,0.15402 -0.9003,0.30969 -1.00034,0.34591 -1.31723,0.47709 -3.51019,1.18078 -4.79054,1.53722 -1.1404,0.31748 -1.24172,0.32127 -2.17304,0.0811 -0.64259,-0.16569 -0.88628,-0.29414 -1.15863,-0.61072 -0.26178,-0.3043 -0.35888,-0.51525 -0.53115,-1.154 -0.10688,-0.396264 -0.14656,-0.469739 -0.25337,-0.469106 -0.0696,5.29e-4 -1.02694,0.05484 -2.12732,0.120962 -1.10037,0.06612 -2.25109,0.120345 -2.55714,0.120504 -0.43016,2.44e-4 -0.5786,0.02241 -0.65397,0.09779 -0.0863,0.0863 -0.0962,0.3415 -0.0861,2.22803 0.006,1.17179 -0.01,2.38285 -0.0359,2.69123 l -0.0473,0.56071 -0.23469,0.0703 c -0.12909,0.0387 -0.2347,0.0848 -0.2347,0.10256 0,0.0311 0.83795,1.99357 0.89057,2.08566 0.0405,0.0708 0.24548,0.0537 0.46747,-0.039 z m -2.570573,-3.37123 v -2.9707 h -4.211103 -4.211106 l -0.0176,1.89458 c -0.0097,1.04202 -0.0096,2.37884 2.44e-4,2.97071 l 0.01786,1.07612 h 4.210849 4.210849 v -2.97071 z"
       id="path302" /></g></svg>
