  0
SECTION
  2
HEADER
  9
$ACADVER
  1
AC1009
  0
ENDSEC
  0
SECTION
  2
ENTITIES
  0
POLYLINE
  5
90
  8
Layer_0
  62
0
  66
1
  10
0
  20
0
  30
0
  0
VERTEX
  5
90
  8
Layer_0
  10
126.7473
  20
280.01053
  0
VERTEX
  5
91
  8
Layer_0
  10
127.39745
  20
280.03397
  42
0.025172754
  0
VERTEX
  5
92
  8
Layer_0
  10
129.54688
  20
280.22488
  42
0.27700585
  0
VERTEX
  5
93
  8
Layer_0
  10
129.77808
  20
280.36478
  0
VERTEX
  5
94
  8
Layer_0
  10
129.76709
  20
280.72513
  42
0.0036081892
  0
VERTEX
  5
95
  8
Layer_0
  10
127.83007
  20
294.36331
  0
VERTEX
  5
96
  8
Layer_0
  10
127.29638
  20
298.15067
  0
VERTEX
  5
97
  8
Layer_0
  10
127.27709
  20
298.2471
  0
VERTEX
  5
98
  8
Layer_0
  10
127.28027
  20
298.33279
  0
VERTEX
  5
99
  8
Layer_0
  10
129.08594
  20
290.87137
  0
VERTEX
  5
9a
  8
Layer_0
  10
130.87964
  20
283.40237
  0
VERTEX
  5
9b
  8
Layer_0
  10
131.31323
  20
281.66434
  0
VERTEX
  5
9c
  8
Layer_0
  10
131.42432
  20
281.20364
  0
VERTEX
  5
9d
  8
Layer_0
  10
131.56372
  20
280.75052
  0
VERTEX
  5
9e
  8
Layer_0
  10
131.60059
  20
280.72269
  0
VERTEX
  5
9f
  8
Layer_0
  10
131.65039
  20
280.70584
  42
0.07635412
  0
VERTEX
  5
a0
  8
Layer_0
  10
132.57251
  20
280.88016
  42
0.06396507
  0
VERTEX
  5
a1
  8
Layer_0
  10
138.47876
  20
283.34061
  42
0.045357543
  0
VERTEX
  5
a2
  8
Layer_0
  10
141.40674
  20
285.26443
  42
0.11967239
  0
VERTEX
  5
a3
  8
Layer_0
  10
141.62915
  20
285.57889
  42
0.052388287
  0
VERTEX
  5
a4
  8
Layer_0
  10
141.28027
  20
286.06937
  42
0.002803428
  0
VERTEX
  5
a5
  8
Layer_0
  10
131.79956
  20
298.17044
  42
0.010579547
  0
VERTEX
  5
a6
  8
Layer_0
  10
130.71704
  20
299.57913
  0
VERTEX
  5
a7
  8
Layer_0
  10
130.65405
  20
299.68582
  42
-0.0014749472
  0
VERTEX
  5
a8
  8
Layer_0
  10
140.77417
  20
289.00516
  0
VERTEX
  5
a9
  8
Layer_0
  10
141.81372
  20
287.92825
  42
0.01578749
  0
VERTEX
  5
aa
  8
Layer_0
  10
142.90234
  20
286.81839
  0
VERTEX
  5
ab
  8
Layer_0
  10
142.94556
  20
286.78006
  42
0.091147886
  0
VERTEX
  5
ac
  8
Layer_0
  10
143.24707
  20
286.94949
  42
0.11310624
  0
VERTEX
  5
ad
  8
Layer_0
  10
149.24683
  20
295.74515
  42
0.20642269
  0
VERTEX
  5
ae
  8
Layer_0
  10
149.21851
  20
296.00906
  42
0.0074452215
  0
VERTEX
  5
af
  8
Layer_0
  10
144.00195
  20
298.14017
  0
VERTEX
  5
b0
  8
Layer_0
  10
132.58203
  20
302.70071
  0
VERTEX
  5
b1
  8
Layer_0
  10
132.31567
  20
302.81424
  0
VERTEX
  5
b2
  8
Layer_0
  10
132.60034
  20
302.73465
  42
-0.0017130871
  0
VERTEX
  5
b3
  8
Layer_0
  10
145.3772
  20
298.9451
  42
-0.0068278703
  0
VERTEX
  5
b4
  8
Layer_0
  10
148.19971
  20
298.11526
  0
VERTEX
  5
b5
  8
Layer_0
  10
148.71021
  20
297.97171
  42
0.024846877
  0
VERTEX
  5
b6
  8
Layer_0
  10
149.77783
  20
297.71243
  0
VERTEX
  5
b7
  8
Layer_0
  10
149.81567
  20
297.70975
  42
0.039232623
  0
VERTEX
  5
b8
  8
Layer_0
  10
149.89771
  20
297.78616
  0
VERTEX
  5
b9
  8
Layer_0
  10
149.9209
  20
297.83865
  42
0.081083987
  0
VERTEX
  5
ba
  8
Layer_0
  10
151.01099
  20
304.49246
  42
0.028812509
  0
VERTEX
  5
bb
  8
Layer_0
  10
150.83179
  20
308.44534
  42
0.080364281
  0
VERTEX
  5
bc
  8
Layer_0
  10
150.71216
  20
308.83841
  0
VERTEX
  5
bd
  8
Layer_0
  10
150.67847
  20
308.85037
  0
VERTEX
  5
be
  8
Layer_0
  10
150.60352
  20
308.85452
  42
0.023934428
  0
VERTEX
  5
bf
  8
Layer_0
  10
148.66504
  20
308.62991
  0
VERTEX
  5
c0
  8
Layer_0
  10
146.60425
  20
308.33621
  0
VERTEX
  5
c1
  8
Layer_0
  10
132.6272
  20
306.28226
  0
VERTEX
  5
c2
  8
Layer_0
  10
133.16943
  20
306.41702
  42
-0.001150025
  0
VERTEX
  5
c3
  8
Layer_0
  10
149.43237
  20
310.2847
  42
-0.0169186
  0
VERTEX
  5
c4
  8
Layer_0
  10
149.79761
  20
310.36795
  0
VERTEX
  5
c5
  8
Layer_0
  10
149.95972
  20
310.4202
  42
0.058711374
  0
VERTEX
  5
c6
  8
Layer_0
  10
150.26367
  20
310.57449
  42
0.23509506
  0
VERTEX
  5
c7
  8
Layer_0
  10
150.30933
  20
310.80862
  42
0.052892315
  0
VERTEX
  5
c8
  8
Layer_0
  10
149.49878
  20
313.60062
  42
0.062337324
  0
VERTEX
  5
c9
  8
Layer_0
  10
146.21045
  20
319.82376
  0
VERTEX
  5
ca
  8
Layer_0
  10
145.75562
  20
320.40945
  42
0.10871552
  0
VERTEX
  5
cb
  8
Layer_0
  10
145.44531
  20
320.61819
  42
0.063101912
  0
VERTEX
  5
cc
  8
Layer_0
  10
144.9541
  20
320.26981
  42
0.0026665892
  0
VERTEX
  5
cd
  8
Layer_0
  10
132.84131
  20
310.79813
  42
0.014570391
  0
VERTEX
  5
ce
  8
Layer_0
  10
131.43188
  20
309.71561
  0
VERTEX
  5
cf
  8
Layer_0
  10
131.32446
  20
309.65384
  42
-0.0019082386
  0
VERTEX
  5
d0
  8
Layer_0
  10
142.01733
  20
319.76248
  0
VERTEX
  5
d1
  8
Layer_0
  10
143.09473
  20
320.80154
  42
0.016571174
  0
VERTEX
  5
d2
  8
Layer_0
  10
144.23242
  20
321.91995
  42
0.14230063
  0
VERTEX
  5
d3
  8
Layer_0
  10
144.24072
  20
321.97098
  42
0.070164016
  0
VERTEX
  5
d4
  8
Layer_0
  10
143.56958
  20
322.76907
  42
0.10171658
  0
VERTEX
  5
d5
  8
Layer_0
  10
135.42261
  20
328.17972
  42
0.064838257
  0
VERTEX
  5
d6
  8
Layer_0
  10
135.04492
  20
328.23172
  0
VERTEX
  5
d7
  8
Layer_0
  10
135.01465
  20
328.21585
  0
VERTEX
  5
d8
  8
Layer_0
  10
134.88745
  20
327.94803
  42
0.0032061043
  0
VERTEX
  5
d9
  8
Layer_0
  10
129.43213
  20
314.37454
  0
VERTEX
  5
da
  8
Layer_0
  10
128.23071
  20
311.40482
  0
VERTEX
  5
db
  8
Layer_0
  10
128.19263
  20
311.32181
  0
VERTEX
  5
dc
  8
Layer_0
  10
128.21777
  20
311.42142
  42
-0.001785492
  0
VERTEX
  5
dd
  8
Layer_0
  10
133.28223
  20
328.51053
  42
-0.028007585
  0
VERTEX
  5
de
  8
Layer_0
  10
133.33228
  20
328.69412
  0
VERTEX
  5
df
  8
Layer_0
  10
133.3335
  20
328.77591
  42
0.12127038
  0
VERTEX
  5
e0
  8
Layer_0
  10
133.27197
  20
328.9285
  42
0.057077625
  0
VERTEX
  5
e1
  8
Layer_0
  10
132.66064
  20
329.17386
  42
0.063024908
  0
VERTEX
  5
e2
  8
Layer_0
  10
126.6245
  20
329.97855
  42
0.058111519
  0
VERTEX
  5
e3
  8
Layer_0
  10
122.16552
  20
329.70779
  42
0.1710909
  0
VERTEX
  5
e4
  8
Layer_0
  10
122.09618
  20
329.52347
  42
0.040096309
  0
VERTEX
  5
e5
  8
Layer_0
  10
122.11156
  20
329.31473
  0
VERTEX
  5
e6
  8
Layer_0
  10
124.35497
  20
314.18729
  0
VERTEX
  5
e7
  8
Layer_0
  10
124.72191
  20
311.62527
  0
VERTEX
  5
e8
  8
Layer_0
  10
124.5869
  20
312.16653
  42
-0.00097532652
  0
VERTEX
  5
e9
  8
Layer_0
  10
120.66747
  20
328.6116
  0
VERTEX
  5
ea
  8
Layer_0
  10
120.63256
  20
328.77884
  42
0.12757411
  0
VERTEX
  5
eb
  8
Layer_0
  10
120.38646
  20
329.2742
  42
0.11359106
  0
VERTEX
  5
ec
  8
Layer_0
  10
119.68334
  20
329.2095
  42
0.080317745
  0
VERTEX
  5
ed
  8
Layer_0
  10
112.25341
  20
325.95096
  42
0.020856256
  0
VERTEX
  5
ee
  8
Layer_0
  10
110.63012
  20
324.75906
  42
0.10712438
  0
VERTEX
  5
ef
  8
Layer_0
  10
110.37183
  20
324.42947
  42
0.05163571
  0
VERTEX
  5
f0
  8
Layer_0
  10
110.7207
  20
323.93924
  42
0.0049737939
  0
VERTEX
  5
f1
  8
Layer_0
  10
118.26415
  20
314.31473
  0
VERTEX
  5
f2
  8
Layer_0
  10
120.47338
  20
311.50003
  42
-0.013791596
  0
VERTEX
  5
f3
  8
Layer_0
  10
121.39478
  20
310.28714
  0
VERTEX
  5
f4
  8
Layer_0
  10
121.41674
  20
310.24686
  0
VERTEX
  5
f5
  8
Layer_0
  10
116.31371
  20
315.61942
  0
VERTEX
  5
f6
  8
Layer_0
  10
111.24633
  20
320.99857
  0
VERTEX
  5
f7
  8
Layer_0
  10
110.17651
  20
322.11722
  0
VERTEX
  5
f8
  8
Layer_0
  10
109.92333
  20
322.39407
  42
0.040518628
  0
VERTEX
  5
f9
  8
Layer_0
  10
109.03881
  20
323.21024
  0
VERTEX
  5
fa
  8
Layer_0
  10
108.95922
  20
323.22513
  0
VERTEX
  5
fb
  8
Layer_0
  10
108.90258
  20
323.20926
  42
0.07161613
  0
VERTEX
  5
fc
  8
Layer_0
  10
108.17822
  20
322.59232
  42
0.1013288
  0
VERTEX
  5
fd
  8
Layer_0
  10
102.73779
  20
314.22318
  42
0.19370211
  0
VERTEX
  5
fe
  8
Layer_0
  10
102.76563
  20
314.01175
  0
VERTEX
  5
ff
  8
Layer_0
  10
103.03368
  20
313.88406
  42
0.0032594215
  0
VERTEX
  5
100
  8
Layer_0
  10
116.62157
  20
308.43314
  0
VERTEX
  5
101
  8
Layer_0
  10
119.51
  20
307.26785
  0
VERTEX
  5
102
  8
Layer_0
  10
119.68212
  20
307.19217
  0
VERTEX
  5
103
  8
Layer_0
  10
119.57274
  20
307.22147
  42
-0.0025223
  0
VERTEX
  5
104
  8
Layer_0
  10
105.49755
  20
311.38455
  0
VERTEX
  5
105
  8
Layer_0
  10
104.4414
  20
311.68924
  42
0.013351733
  0
VERTEX
  5
106
  8
Layer_0
  10
102.20776
  20
312.28885
  0
VERTEX
  5
107
  8
Layer_0
  10
102.09351
  20
312.29739
  42
0.074643314
  0
VERTEX
  5
108
  8
Layer_0
  10
101.83324
  20
311.7327
  42
0.072049195
  0
VERTEX
  5
109
  8
Layer_0
  10
100.99999
  20
304.83133
  42
0.040905738
  0
VERTEX
  5
10a
  8
Layer_0
  10
101.20922
  20
301.43484
  42
0.057705099
  0
VERTEX
  5
10b
  8
Layer_0
  10
101.28759
  20
301.2471
  42
0.18937236
  0
VERTEX
  5
10c
  8
Layer_0
  10
101.62523
  20
301.20291
  42
0.016168601
  0
VERTEX
  5
10d
  8
Layer_0
  10
102.54833
  20
301.31595
  42
0.0012664174
  0
VERTEX
  5
10e
  8
Layer_0
  10
117.70604
  20
303.52884
  0
VERTEX
  5
10f
  8
Layer_0
  10
119.30687
  20
303.73148
  0
VERTEX
  5
110
  8
Layer_0
  10
119.33397
  20
303.73221
  42
0.053169315
  0
VERTEX
  5
111
  8
Layer_0
  10
119.07227
  20
303.66068
  0
VERTEX
  5
112
  8
Layer_0
  10
116.79906
  20
303.10526
  42
-0.00084781963
  0
VERTEX
  5
113
  8
Layer_0
  10
108.8457
  20
301.2095
  42
-0.0017821243
  0
VERTEX
  5
114
  8
Layer_0
  10
105.27271
  20
300.35648
  0
VERTEX
  5
115
  8
Layer_0
  10
104.12621
  20
300.07596
  42
0.0040763909
  0
VERTEX
  5
116
  8
Layer_0
  10
101.84058
  20
299.48709
  42
0.20817493
  0
VERTEX
  5
117
  8
Layer_0
  10
101.70889
  20
299.43304
  42
0.25150809
  0
VERTEX
  5
118
  8
Layer_0
  10
101.67211
  20
299.29935
  42
0.045552074
  0
VERTEX
  5
119
  8
Layer_0
  10
102.29076
  20
296.97537
  42
0.091325913
  0
VERTEX
  5
11a
  8
Layer_0
  10
106.22753
  20
289.64993
  42
0.09784347
  0
VERTEX
  5
11b
  8
Layer_0
  10
106.55712
  20
289.39114
  42
0.037049661
  0
VERTEX
  5
11c
  8
Layer_0
  10
106.92699
  20
289.64993
  42
0.0049689983
  0
VERTEX
  5
11d
  8
Layer_0
  10
111.77001
  20
293.40433
  0
VERTEX
  5
11e
  8
Layer_0
  10
120.69921
  20
300.43607
  0
VERTEX
  5
11f
  8
Layer_0
  10
120.98168
  20
300.6514
  0
VERTEX
  5
120
  8
Layer_0
  10
120.96874
  20
300.63626
  0
VERTEX
  5
121
  8
Layer_0
  10
112.99902
  20
293.095
  42
0.0052170665
  0
VERTEX
  5
122
  8
Layer_0
  10
107.96337
  20
288.25882
  42
0.059307105
  0
VERTEX
  5
123
  8
Layer_0
  10
107.75023
  20
288.02982
  42
0.099977708
  0
VERTEX
  5
124
  8
Layer_0
  10
108.22704
  20
287.38651
  42
0.070295154
  0
VERTEX
  5
125
  8
Layer_0
  10
113.36791
  20
283.37747
  42
0.037551399
  0
VERTEX
  5
126
  8
Layer_0
  10
116.52514
  20
281.84085
  42
0.051676338
  0
VERTEX
  5
127
  8
Layer_0
  10
116.89623
  20
281.77957
  0
VERTEX
  5
128
  8
Layer_0
  10
116.94384
  20
281.79593
  0
VERTEX
  5
129
  8
Layer_0
  10
116.95604
  20
281.80862
  42
0.031677734
  0
VERTEX
  5
12a
  8
Layer_0
  10
117.56688
  20
283.17606
  42
0.0033296287
  0
VERTEX
  5
12b
  8
Layer_0
  10
122.56835
  20
295.63382
  0
VERTEX
  5
12c
  8
Layer_0
  10
123.76928
  20
298.60526
  0
VERTEX
  5
12d
  8
Layer_0
  10
123.80811
  20
298.68777
  0
VERTEX
  5
12e
  8
Layer_0
  10
123.78173
  20
298.58353
  42
-0.0024477071
  0
VERTEX
  5
12f
  8
Layer_0
  10
119.88818
  20
285.42801
  0
VERTEX
  5
130
  8
Layer_0
  10
119.33129
  20
283.53641
  42
0.0060035075
  0
VERTEX
  5
131
  8
Layer_0
  10
118.74364
  20
281.38602
  0
VERTEX
  5
132
  8
Layer_0
  10
118.71264
  20
281.13089
  42
0.18506557
  0
VERTEX
  5
133
  8
Layer_0
  10
119.11475
  20
280.93143
  42
0.071597605
  0
VERTEX
  5
134
  8
Layer_0
  10
126.7473
  20
280.01053
  0
SEQEND
  0
POLYLINE
  5
136
  8
Layer_0
  62
0
  66
1
  10
0
  20
0
  30
0
  0
VERTEX
  5
136
  8
Layer_0
  10
125.49184
  20
300.03336
  0
VERTEX
  5
137
  8
Layer_0
  10
124.99554
  20
300.10901
  42
-0.19910071
  0
VERTEX
  5
138
  8
Layer_0
  10
121.82734
  20
302.25528
  42
-0.1989111
  0
VERTEX
  5
139
  8
Layer_0
  10
121.10558
  20
306.01355
  42
-0.41300402
  0
VERTEX
  5
13a
  8
Layer_0
  10
126.98444
  20
309.90814
  42
-0.19883053
  0
VERTEX
  5
13b
  8
Layer_0
  10
130.164
  20
307.77921
  42
-0.19911671
  0
VERTEX
  5
13c
  8
Layer_0
  10
130.90533
  20
304.02597
  42
-0.38675757
  0
VERTEX
  5
13d
  8
Layer_0
  10
125.49184
  20
300.03336
  0
SEQEND
  0
ENDSEC
  0
EOF
