<?xml version="1.0" encoding="UTF-8" standalone="no"?>
<!-- Created with Inkscape (http://www.inkscape.org/) -->

<svg
   width="49.55867mm"
   height="49.585793mm"
   viewBox="0 0 49.55867 49.585793"
   version="1.1"
   id="svg5"
   xml:space="preserve"
   inkscape:export-filename="emc_antenna_mask.svg"
   inkscape:export-xdpi="96"
   inkscape:export-ydpi="96"
   xmlns:inkscape="http://www.inkscape.org/namespaces/inkscape"
   xmlns:sodipodi="http://sodipodi.sourceforge.net/DTD/sodipodi-0.dtd"
   xmlns="http://www.w3.org/2000/svg"
   xmlns:svg="http://www.w3.org/2000/svg"><sodipodi:namedview
     id="namedview7"
     pagecolor="#ffffff"
     bordercolor="#000000"
     borderopacity="0.25"
     inkscape:showpageshadow="2"
     inkscape:pageopacity="0.0"
     inkscape:pagecheckerboard="0"
     inkscape:deskcolor="#d1d1d1"
     inkscape:document-units="mm"
     showgrid="false" /><defs
     id="defs2" /><g
     inkscape:label="Layer 1"
     inkscape:groupmode="layer"
     id="layer1"
     transform="translate(-65.832048,-23.986318)"><path
       id="path637"
       style="fill:#a0a0a0;stroke:none;stroke-width:0.12471"
       d="m 88.141933,73.453984 c -1.10041,-0.111858 -3.32909,-0.508574 -4.1526,-0.739182 -0.35742,-0.100089 -0.45809,-0.184364 -0.41015,-0.343363 0.0349,-0.115896 0.37769,-1.305044 0.76166,-2.642553 0.38397,-1.337508 1.02791,-3.52616 1.43097,-4.863668 1.62606,-5.395815 2.87856,-9.759307 2.81854,-9.819325 -0.0349,-0.03494 -0.1361,-0.03538 -0.2248,-0.0011 -0.0887,0.03441 -1.4698,3.32771 -3.06913,7.318447 -3.80843,9.503029 -3.74781,9.36099 -3.9948,9.360289 -0.35187,-0.0011 -3.14256,-1.424925 -4.32118,-2.204858 -1.20682,-0.798592 -3.06008,-2.307085 -3.86193,-3.14348 l -0.49477,-0.516089 1.27405,-1.276426 c 0.70073,-0.702038 3.6542,-3.5212 6.56325,-6.264807 2.90906,-2.743607 5.27413,-5.044498 5.25571,-5.113086 -0.0184,-0.06859 -0.1201,-0.117843 -0.22595,-0.10945 -0.10585,0.0084 -2.79353,2.060323 -5.97263,4.559845 -3.1791,2.499521 -6.35973,4.988475 -7.06807,5.531006 l -1.28788,0.986422 -0.24823,-0.30847 c -0.7141,-0.887388 -2.07774,-3.08275 -2.62634,-4.228213 -0.71132,-1.485215 -1.75574,-4.501132 -1.69728,-4.901142 0.0473,-0.323559 -0.49127,-0.17649 8.76884,-2.394614 9.10656,-2.181344 8.66731,-2.066388 8.66731,-2.268283 0,-0.09962 -0.1294,-0.171903 -0.30775,-0.171903 -0.16927,0 -3.15761,0.417285 -6.64078,0.927299 -9.7378,1.425828 -10.90548,1.587896 -10.97073,1.522653 -0.27423,-0.274236 -0.37494,-4.409353 -0.15621,-6.414392 0.14576,-1.336233 0.54134,-3.395628 0.7514,-3.91187 l 0.13485,-0.33139 1.14322,0.311134 c 0.62877,0.171122 3.47217,1.003046 6.31866,1.848718 8.19437,2.434481 9.99783,2.950614 10.06728,2.881164 0.0357,-0.03575 0.0365,-0.137573 0.002,-0.226269 -0.0348,-0.0887 -3.76447,-1.639443 -8.28819,-3.446103 -4.52373,-1.806657 -8.29447,-3.327797 -8.37943,-3.380308 -0.11455,-0.07079 -0.0123,-0.399675 0.39552,-1.272435 1.13692,-2.432936 2.67741,-4.727313 4.4219,-6.585883 l 0.9901,-1.054847 0.32224,0.244235 c 0.17724,0.134326 1.8003,1.815002 3.6068,3.734832 5.72189,6.080831 8.38446,8.854471 8.53758,8.893717 0.47756,0.122404 0.0192,-0.56569 -2.53283,-3.802166 -5.83433,-7.399133 -8.15846,-10.412589 -8.11991,-10.528247 0.0218,-0.06551 0.54421,-0.481967 1.16084,-0.92547 1.93986,-1.395225 6.03203,-3.257182 7.94562,-3.615288 0.41073,-0.07687 0.47842,-0.05299 0.58676,0.206955 0.0674,0.161615 1.02685,4.109225 2.13219,8.772464 1.10535,4.663241 2.03478,8.503668 2.06539,8.534283 0.0306,0.03061 0.1193,-0.008 0.19708,-0.08575 0.10542,-0.105413 -0.19388,-2.405047 -1.17565,-9.033121 -0.72439,-4.890437 -1.30717,-8.901954 -1.29507,-8.914482 0.0121,-0.01252 0.63842,-0.08997 1.39182,-0.17209 1.73605,-0.189238 4.66588,-0.07424 6.63494,0.260434 1.55712,0.264658 2.77863,0.575197 2.77863,0.706401 0,0.04351 -0.66903,2.328796 -1.48675,5.078428 -3.00529,10.105578 -3.64476,12.317973 -3.57929,12.383445 0.0368,0.0368 0.13948,0.03871 0.22817,0.0042 0.0887,-0.03446 1.66882,-3.824309 3.51138,-8.421878 l 3.35012,-8.359219 0.380937,0.132799 c 0.70842,0.246955 2.89812,1.410873 3.96001,2.104912 1.35422,0.885097 2.71259,1.990219 3.73689,3.040186 l 0.81061,0.83093 -0.76498,0.706633 c -1.10728,1.022826 -6.81871,6.430394 -9.617077,9.105416 -2.17432,2.078479 -2.65606,2.638007 -2.27126,2.638007 0.0712,0 1.29176,-0.909744 2.71243,-2.02165 3.941607,-3.084957 10.380837,-8.104976 10.921137,-8.514112 l 0.48141,-0.36454 0.35519,0.430594 c 1.21336,1.470935 3.27426,5.572953 3.92074,7.803837 0.44188,1.524823 0.45507,1.482146 -0.53097,1.717771 -5.77596,1.380212 -16.134087,3.843226 -16.399287,3.899513 -0.36724,0.07794 -0.45161,0.257165 -0.17163,0.364602 0.0942,0.03616 4.021127,-0.498735 8.726457,-1.188652 4.70532,-0.689919 8.6958,-1.254397 8.86773,-1.254397 0.23548,0 0.3354,0.08461 0.405,0.34295 0.16322,0.605774 0.11288,5.878653 -0.0658,6.890197 -0.20198,1.143638 -0.74752,3.270975 -0.86868,3.387453 -0.0973,0.09357 -1.1059,-0.1933 -10.79394,-3.070162 -3.624507,-1.076296 -6.619787,-1.927127 -6.656187,-1.890734 -0.0364,0.03639 -0.0377,0.140277 -0.003,0.230847 0.0348,0.09058 3.535117,1.548894 7.778567,3.240714 4.24346,1.69182 8.00696,3.205504 8.36334,3.363743 l 0.64796,0.287708 -0.36059,0.853313 c -0.9639,2.281029 -2.67325,4.842386 -4.48955,6.727328 l -1.18474,1.229516 -1.5631,-1.599115 c -0.8597,-0.879512 -3.5977,-3.745677 -6.08443,-6.369251 -2.486727,-2.623577 -4.603327,-4.770139 -4.703547,-4.770139 -0.10022,0 -0.18222,0.05738 -0.18222,0.127498 0,0.07012 0.74358,1.076079 1.6524,2.235462 7.054647,8.999606 9.081207,11.606492 9.138207,11.755037 0.12059,0.314259 -1.92032,1.657522 -4.40592,2.899826 -1.32895,0.664212 -4.437687,1.808191 -4.923257,1.8117 -0.12219,7.93e-4 -0.2486,-0.06854 -0.28091,-0.154281 -0.0634,-0.168228 -4.17354,-17.153083 -4.17354,-17.246873 0,-0.03111 -0.0842,-0.05656 -0.18707,-0.05656 -0.10288,0 -0.18675,0.09821 -0.18637,0.218239 2.6e-4,0.120033 0.55939,4.144097 1.24224,8.94236 0.68286,4.798267 1.22226,8.743419 1.19867,8.767004 -0.0236,0.02357 -0.5405,0.09523 -1.1487,0.159213 -1.31363,0.138189 -3.43764,0.129481 -4.90947,-0.02013 z m 4.33247,-19.835844 c 3.47148,-1.291963 4.46048,-5.888865 1.82985,-8.505261 -2.99913,-2.982921 -8.11261,-1.295075 -8.78834,2.900841 -0.34984,2.17229 0.85525,4.465849 2.8399,5.405012 1.34615,0.637013 2.75895,0.705416 4.11859,0.199408 z" /></g></svg>
