  0
SECTION
  2
HEADER
  9
$ACADVER
  1
AC1009
  0
ENDSEC
  0
SECTION
  2
ENTITIES
  0
POLYLINE
  5
90
  8
Layer_0
  62
0
  66
1
  10
0
  20
0
  30
0
  0
VERTEX
  5
90
  8
Layer_0
  10
182.74462
  20
325.68702
  0
VERTEX
  5
91
  8
Layer_0
  10
184.10232
  20
325.50857
  0
VERTEX
  5
92
  8
Layer_0
  10
185.51198
  20
325.2478
  0
VERTEX
  5
93
  8
Layer_0
  10
185.83602
  20
325.17743
  0
VERTEX
  5
94
  8
Layer_0
  10
186.13896
  20
325.10702
  0
VERTEX
  5
95
  8
Layer_0
  10
186.41596
  20
325.03761
  0
VERTEX
  5
96
  8
Layer_0
  10
186.66213
  20
324.97023
  0
VERTEX
  5
97
  8
Layer_0
  10
186.87262
  20
324.90588
  0
VERTEX
  5
98
  8
Layer_0
  10
187.04255
  20
324.84561
  0
VERTEX
  5
99
  8
Layer_0
  10
187.16707
  20
324.79042
  0
VERTEX
  5
9a
  8
Layer_0
  10
187.24129
  20
324.74135
  0
VERTEX
  5
9b
  8
Layer_0
  10
187.28909
  20
324.67361
  0
VERTEX
  5
9c
  8
Layer_0
  10
187.30164
  20
324.57779
  0
VERTEX
  5
9d
  8
Layer_0
  10
187.27773
  20
324.42729
  0
VERTEX
  5
9e
  8
Layer_0
  10
187.21613
  20
324.19552
  0
VERTEX
  5
9f
  8
Layer_0
  10
187.19021
  20
324.107
  0
VERTEX
  5
a0
  8
Layer_0
  10
187.13984
  20
323.93651
  0
VERTEX
  5
a1
  8
Layer_0
  10
187.06633
  20
323.68854
  0
VERTEX
  5
a2
  8
Layer_0
  10
186.97104
  20
323.36758
  0
VERTEX
  5
a3
  8
Layer_0
  10
186.85528
  20
322.97809
  0
VERTEX
  5
a4
  8
Layer_0
  10
186.7204
  20
322.52457
  0
VERTEX
  5
a5
  8
Layer_0
  10
186.56772
  20
322.0115
  0
VERTEX
  5
a6
  8
Layer_0
  10
186.39859
  20
321.44336
  0
VERTEX
  5
a7
  8
Layer_0
  10
186.21434
  20
320.82462
  0
VERTEX
  5
a8
  8
Layer_0
  10
186.01631
  20
320.15978
  0
VERTEX
  5
a9
  8
Layer_0
  10
185.80582
  20
319.45332
  0
VERTEX
  5
aa
  8
Layer_0
  10
185.58421
  20
318.70971
  0
VERTEX
  5
ab
  8
Layer_0
  10
185.11298
  20
317.12899
  0
VERTEX
  5
ac
  8
Layer_0
  10
184.61328
  20
315.45348
  0
VERTEX
  5
ad
  8
Layer_0
  10
184.36134
  20
314.60831
  0
VERTEX
  5
ae
  8
Layer_0
  10
184.11669
  20
313.78661
  0
VERTEX
  5
af
  8
Layer_0
  10
183.8806
  20
312.99263
  0
VERTEX
  5
b0
  8
Layer_0
  10
183.65433
  20
312.23065
  0
VERTEX
  5
b1
  8
Layer_0
  10
183.43913
  20
311.50492
  0
VERTEX
  5
b2
  8
Layer_0
  10
183.23626
  20
310.81971
  0
VERTEX
  5
b3
  8
Layer_0
  10
183.04697
  20
310.17929
  0
VERTEX
  5
b4
  8
Layer_0
  10
182.87253
  20
309.58793
  0
VERTEX
  5
b5
  8
Layer_0
  10
182.71419
  20
309.04988
  0
VERTEX
  5
b6
  8
Layer_0
  10
182.5732
  20
308.56941
  0
VERTEX
  5
b7
  8
Layer_0
  10
182.45082
  20
308.15079
  0
VERTEX
  5
b8
  8
Layer_0
  10
182.34832
  20
307.79828
  0
VERTEX
  5
b9
  8
Layer_0
  10
182.26694
  20
307.51615
  0
VERTEX
  5
ba
  8
Layer_0
  10
182.20794
  20
307.30866
  0
VERTEX
  5
bb
  8
Layer_0
  10
182.17258
  20
307.18008
  0
VERTEX
  5
bc
  8
Layer_0
  10
182.16211
  20
307.13467
  0
VERTEX
  5
bd
  8
Layer_0
  10
182.18186
  20
307.17596
  0
VERTEX
  5
be
  8
Layer_0
  10
182.23512
  20
307.30176
  0
VERTEX
  5
bf
  8
Layer_0
  10
182.32019
  20
307.50777
  0
VERTEX
  5
c0
  8
Layer_0
  10
182.43532
  20
307.78969
  0
VERTEX
  5
c1
  8
Layer_0
  10
182.57879
  20
308.14321
  0
VERTEX
  5
c2
  8
Layer_0
  10
182.74887
  20
308.56403
  0
VERTEX
  5
c3
  8
Layer_0
  10
182.94383
  20
309.04785
  0
VERTEX
  5
c4
  8
Layer_0
  10
183.16195
  20
309.59037
  0
VERTEX
  5
c5
  8
Layer_0
  10
183.4015
  20
310.18728
  0
VERTEX
  5
c6
  8
Layer_0
  10
183.66074
  20
310.83428
  0
VERTEX
  5
c7
  8
Layer_0
  10
183.93795
  20
311.52707
  0
VERTEX
  5
c8
  8
Layer_0
  10
184.23141
  20
312.26134
  0
VERTEX
  5
c9
  8
Layer_0
  10
184.53937
  20
313.03279
  0
VERTEX
  5
ca
  8
Layer_0
  10
184.86013
  20
313.83712
  0
VERTEX
  5
cb
  8
Layer_0
  10
185.19193
  20
314.67003
  0
VERTEX
  5
cc
  8
Layer_0
  10
185.53307
  20
315.52721
  0
VERTEX
  5
cd
  8
Layer_0
  10
185.87462
  20
316.38495
  0
VERTEX
  5
ce
  8
Layer_0
  10
186.20765
  20
317.21952
  0
VERTEX
  5
cf
  8
Layer_0
  10
186.53038
  20
318.02654
  0
VERTEX
  5
d0
  8
Layer_0
  10
186.84105
  20
318.80167
  0
VERTEX
  5
d1
  8
Layer_0
  10
187.13788
  20
319.54054
  0
VERTEX
  5
d2
  8
Layer_0
  10
187.4191
  20
320.2388
  0
VERTEX
  5
d3
  8
Layer_0
  10
187.68296
  20
320.89208
  0
VERTEX
  5
d4
  8
Layer_0
  10
187.92767
  20
321.49603
  0
VERTEX
  5
d5
  8
Layer_0
  10
188.15148
  20
322.04629
  0
VERTEX
  5
d6
  8
Layer_0
  10
188.3526
  20
322.5385
  0
VERTEX
  5
d7
  8
Layer_0
  10
188.52927
  20
322.9683
  0
VERTEX
  5
d8
  8
Layer_0
  10
188.67972
  20
323.33134
  0
VERTEX
  5
d9
  8
Layer_0
  10
188.80219
  20
323.62325
  0
VERTEX
  5
da
  8
Layer_0
  10
188.89489
  20
323.83967
  0
VERTEX
  5
db
  8
Layer_0
  10
188.95607
  20
323.97625
  0
VERTEX
  5
dc
  8
Layer_0
  10
188.98396
  20
324.02863
  0
VERTEX
  5
dd
  8
Layer_0
  10
189.05728
  20
324.05184
  0
VERTEX
  5
de
  8
Layer_0
  10
189.18262
  20
324.04027
  0
VERTEX
  5
df
  8
Layer_0
  10
189.36338
  20
323.99259
  0
VERTEX
  5
e0
  8
Layer_0
  10
189.60299
  20
323.90749
  0
VERTEX
  5
e1
  8
Layer_0
  10
189.90484
  20
323.78367
  0
VERTEX
  5
e2
  8
Layer_0
  10
190.27233
  20
323.61979
  0
VERTEX
  5
e3
  8
Layer_0
  10
190.70889
  20
323.41456
  0
VERTEX
  5
e4
  8
Layer_0
  10
191.2179
  20
323.16666
  0
VERTEX
  5
e5
  8
Layer_0
  10
192.04309
  20
322.73402
  0
VERTEX
  5
e6
  8
Layer_0
  10
192.87648
  20
322.24804
  0
VERTEX
  5
e7
  8
Layer_0
  10
193.70896
  20
321.71533
  0
VERTEX
  5
e8
  8
Layer_0
  10
194.53142
  20
321.14249
  0
VERTEX
  5
e9
  8
Layer_0
  10
195.33476
  20
320.53612
  0
VERTEX
  5
ea
  8
Layer_0
  10
196.10988
  20
319.90284
  0
VERTEX
  5
eb
  8
Layer_0
  10
196.84767
  20
319.24923
  0
VERTEX
  5
ec
  8
Layer_0
  10
197.53903
  20
318.58191
  0
VERTEX
  5
ed
  8
Layer_0
  10
197.70182
  20
318.41486
  0
VERTEX
  5
ee
  8
Layer_0
  10
197.84314
  20
318.26446
  0
VERTEX
  5
ef
  8
Layer_0
  10
197.96248
  20
318.13131
  0
VERTEX
  5
f0
  8
Layer_0
  10
198.05936
  20
318.01605
  0
VERTEX
  5
f1
  8
Layer_0
  10
198.13326
  20
317.91929
  0
VERTEX
  5
f2
  8
Layer_0
  10
198.18368
  20
317.84164
  0
VERTEX
  5
f3
  8
Layer_0
  10
198.21013
  20
317.78375
  0
VERTEX
  5
f4
  8
Layer_0
  10
198.21211
  20
317.74621
  0
VERTEX
  5
f5
  8
Layer_0
  10
198.17555
  20
317.70442
  0
VERTEX
  5
f6
  8
Layer_0
  10
198.07688
  20
317.60423
  0
VERTEX
  5
f7
  8
Layer_0
  10
197.91931
  20
317.44868
  0
VERTEX
  5
f8
  8
Layer_0
  10
197.70603
  20
317.24084
  0
VERTEX
  5
f9
  8
Layer_0
  10
197.44025
  20
316.98377
  0
VERTEX
  5
fa
  8
Layer_0
  10
197.12517
  20
316.68052
  0
VERTEX
  5
fb
  8
Layer_0
  10
196.76399
  20
316.33416
  0
VERTEX
  5
fc
  8
Layer_0
  10
196.35992
  20
315.94773
  0
VERTEX
  5
fd
  8
Layer_0
  10
195.91615
  20
315.52431
  0
VERTEX
  5
fe
  8
Layer_0
  10
195.43589
  20
315.06694
  0
VERTEX
  5
ff
  8
Layer_0
  10
194.92233
  20
314.57869
  0
VERTEX
  5
100
  8
Layer_0
  10
194.37869
  20
314.06261
  0
VERTEX
  5
101
  8
Layer_0
  10
193.80816
  20
313.52176
  0
VERTEX
  5
102
  8
Layer_0
  10
193.21394
  20
312.95921
  0
VERTEX
  5
103
  8
Layer_0
  10
192.59924
  20
312.378
  0
VERTEX
  5
104
  8
Layer_0
  10
191.96725
  20
311.7812
  0
VERTEX
  5
105
  8
Layer_0
  10
190.7121
  20
310.59637
  0
VERTEX
  5
106
  8
Layer_0
  10
189.52311
  20
309.47342
  0
VERTEX
  5
107
  8
Layer_0
  10
188.96195
  20
308.94323
  0
VERTEX
  5
108
  8
Layer_0
  10
188.42758
  20
308.43819
  0
VERTEX
  5
109
  8
Layer_0
  10
187.9234
  20
307.96154
  0
VERTEX
  5
10a
  8
Layer_0
  10
187.45283
  20
307.51651
  0
VERTEX
  5
10b
  8
Layer_0
  10
187.01928
  20
307.10633
  0
VERTEX
  5
10c
  8
Layer_0
  10
186.62617
  20
306.73422
  0
VERTEX
  5
10d
  8
Layer_0
  10
186.27692
  20
306.40342
  0
VERTEX
  5
10e
  8
Layer_0
  10
185.97493
  20
306.11715
  0
VERTEX
  5
10f
  8
Layer_0
  10
185.72362
  20
305.87865
  0
VERTEX
  5
110
  8
Layer_0
  10
185.5264
  20
305.69115
  0
VERTEX
  5
111
  8
Layer_0
  10
185.38669
  20
305.55787
  0
VERTEX
  5
112
  8
Layer_0
  10
185.30791
  20
305.48204
  0
VERTEX
  5
113
  8
Layer_0
  10
185.29869
  20
305.46613
  0
VERTEX
  5
114
  8
Layer_0
  10
185.36308
  20
305.50864
  0
VERTEX
  5
115
  8
Layer_0
  10
185.49763
  20
305.60688
  0
VERTEX
  5
116
  8
Layer_0
  10
185.69888
  20
305.75817
  0
VERTEX
  5
117
  8
Layer_0
  10
185.96337
  20
305.95981
  0
VERTEX
  5
118
  8
Layer_0
  10
186.28763
  20
306.20911
  0
VERTEX
  5
119
  8
Layer_0
  10
186.66821
  20
306.50337
  0
VERTEX
  5
11a
  8
Layer_0
  10
187.10164
  20
306.83992
  0
VERTEX
  5
11b
  8
Layer_0
  10
187.58447
  20
307.21605
  0
VERTEX
  5
11c
  8
Layer_0
  10
188.11324
  20
307.62907
  0
VERTEX
  5
11d
  8
Layer_0
  10
188.68448
  20
308.0763
  0
VERTEX
  5
11e
  8
Layer_0
  10
189.29474
  20
308.55504
  0
VERTEX
  5
11f
  8
Layer_0
  10
189.94056
  20
309.0626
  0
VERTEX
  5
120
  8
Layer_0
  10
190.61847
  20
309.59629
  0
VERTEX
  5
121
  8
Layer_0
  10
191.32502
  20
310.15342
  0
VERTEX
  5
122
  8
Layer_0
  10
192.05674
  20
310.7313
  0
VERTEX
  5
123
  8
Layer_0
  10
192.79162
  20
311.31151
  0
VERTEX
  5
124
  8
Layer_0
  10
193.50744
  20
311.8755
  0
VERTEX
  5
125
  8
Layer_0
  10
194.20043
  20
312.42034
  0
VERTEX
  5
126
  8
Layer_0
  10
194.8668
  20
312.94311
  0
VERTEX
  5
127
  8
Layer_0
  10
195.50279
  20
313.44088
  0
VERTEX
  5
128
  8
Layer_0
  10
196.10463
  20
313.91074
  0
VERTEX
  5
129
  8
Layer_0
  10
196.66855
  20
314.34976
  0
VERTEX
  5
12a
  8
Layer_0
  10
197.19076
  20
314.75502
  0
VERTEX
  5
12b
  8
Layer_0
  10
197.66751
  20
315.1236
  0
VERTEX
  5
12c
  8
Layer_0
  10
198.09501
  20
315.45258
  0
VERTEX
  5
12d
  8
Layer_0
  10
198.4695
  20
315.73903
  0
VERTEX
  5
12e
  8
Layer_0
  10
198.7872
  20
315.98003
  0
VERTEX
  5
12f
  8
Layer_0
  10
199.04434
  20
316.17265
  0
VERTEX
  5
130
  8
Layer_0
  10
199.23715
  20
316.31399
  0
VERTEX
  5
131
  8
Layer_0
  10
199.36185
  20
316.40111
  0
VERTEX
  5
132
  8
Layer_0
  10
199.41468
  20
316.43109
  0
VERTEX
  5
133
  8
Layer_0
  10
199.51184
  20
316.39631
  0
VERTEX
  5
134
  8
Layer_0
  10
199.64232
  20
316.29146
  0
VERTEX
  5
135
  8
Layer_0
  10
199.8025
  20
316.12241
  0
VERTEX
  5
136
  8
Layer_0
  10
199.98871
  20
315.89506
  0
VERTEX
  5
137
  8
Layer_0
  10
200.19732
  20
315.61528
  0
VERTEX
  5
138
  8
Layer_0
  10
200.42469
  20
315.28895
  0
VERTEX
  5
139
  8
Layer_0
  10
200.66717
  20
314.92196
  0
VERTEX
  5
13a
  8
Layer_0
  10
200.92111
  20
314.52019
  0
VERTEX
  5
13b
  8
Layer_0
  10
201.44882
  20
313.63582
  0
VERTEX
  5
13c
  8
Layer_0
  10
201.97867
  20
312.6829
  0
VERTEX
  5
13d
  8
Layer_0
  10
202.48151
  20
311.70848
  0
VERTEX
  5
13e
  8
Layer_0
  10
202.92819
  20
310.75961
  0
VERTEX
  5
13f
  8
Layer_0
  10
203.47656
  20
309.40286
  0
VERTEX
  5
140
  8
Layer_0
  10
203.93442
  20
308.05749
  0
VERTEX
  5
141
  8
Layer_0
  10
204.02549
  20
307.75296
  0
VERTEX
  5
142
  8
Layer_0
  10
204.10474
  20
307.46917
  0
VERTEX
  5
143
  8
Layer_0
  10
204.17093
  20
307.21012
  0
VERTEX
  5
144
  8
Layer_0
  10
204.22283
  20
306.97982
  0
VERTEX
  5
145
  8
Layer_0
  10
204.25921
  20
306.78226
  0
VERTEX
  5
146
  8
Layer_0
  10
204.27882
  20
306.62146
  0
VERTEX
  5
147
  8
Layer_0
  10
204.28045
  20
306.50142
  0
VERTEX
  5
148
  8
Layer_0
  10
204.26285
  20
306.42614
  0
VERTEX
  5
149
  8
Layer_0
  10
204.18443
  20
306.34906
  0
VERTEX
  5
14a
  8
Layer_0
  10
204.02429
  20
306.27223
  0
VERTEX
  5
14b
  8
Layer_0
  10
203.90911
  20
306.2322
  0
VERTEX
  5
14c
  8
Layer_0
  10
203.76816
  20
306.19019
  0
VERTEX
  5
14d
  8
Layer_0
  10
203.59964
  20
306.14551
  0
VERTEX
  5
14e
  8
Layer_0
  10
203.40177
  20
306.09749
  0
VERTEX
  5
14f
  8
Layer_0
  10
202.97604
  20
305.99763
  0
VERTEX
  5
150
  8
Layer_0
  10
202.50585
  20
305.88708
  0
VERTEX
  5
151
  8
Layer_0
  10
201.995
  20
305.76675
  0
VERTEX
  5
152
  8
Layer_0
  10
201.44729
  20
305.63755
  0
VERTEX
  5
153
  8
Layer_0
  10
200.86654
  20
305.50037
  0
VERTEX
  5
154
  8
Layer_0
  10
200.25654
  20
305.35613
  0
VERTEX
  5
155
  8
Layer_0
  10
199.6211
  20
305.20573
  0
VERTEX
  5
156
  8
Layer_0
  10
198.96402
  20
305.05008
  0
VERTEX
  5
157
  8
Layer_0
  10
196.19548
  20
304.39308
  0
VERTEX
  5
158
  8
Layer_0
  10
193.38517
  20
303.72454
  0
VERTEX
  5
159
  8
Layer_0
  10
192.04046
  20
303.40407
  0
VERTEX
  5
15a
  8
Layer_0
  10
190.77662
  20
303.10247
  0
VERTEX
  5
15b
  8
Layer_0
  10
190.18455
  20
302.96101
  0
VERTEX
  5
15c
  8
Layer_0
  10
189.6241
  20
302.82698
  0
VERTEX
  5
15d
  8
Layer_0
  10
189.0991
  20
302.7013
  0
VERTEX
  5
15e
  8
Layer_0
  10
188.61334
  20
302.58486
  0
VERTEX
  5
15f
  8
Layer_0
  10
188.17063
  20
302.47858
  0
VERTEX
  5
160
  8
Layer_0
  10
187.77477
  20
302.38335
  0
VERTEX
  5
161
  8
Layer_0
  10
187.42958
  20
302.30009
  0
VERTEX
  5
162
  8
Layer_0
  10
187.13884
  20
302.22971
  0
VERTEX
  5
163
  8
Layer_0
  10
186.90638
  20
302.1731
  0
VERTEX
  5
164
  8
Layer_0
  10
186.73599
  20
302.13118
  0
VERTEX
  5
165
  8
Layer_0
  10
186.63147
  20
302.10485
  0
VERTEX
  5
166
  8
Layer_0
  10
186.59664
  20
302.09501
  0
VERTEX
  5
167
  8
Layer_0
  10
186.64506
  20
302.10015
  0
VERTEX
  5
168
  8
Layer_0
  10
186.78358
  20
302.11875
  0
VERTEX
  5
169
  8
Layer_0
  10
187.0076
  20
302.15015
  0
VERTEX
  5
16a
  8
Layer_0
  10
187.3125
  20
302.19366
  0
VERTEX
  5
16b
  8
Layer_0
  10
187.69365
  20
302.24862
  0
VERTEX
  5
16c
  8
Layer_0
  10
188.14646
  20
302.31433
  0
VERTEX
  5
16d
  8
Layer_0
  10
188.66629
  20
302.39014
  0
VERTEX
  5
16e
  8
Layer_0
  10
189.24854
  20
302.47535
  0
VERTEX
  5
16f
  8
Layer_0
  10
189.88859
  20
302.5693
  0
VERTEX
  5
170
  8
Layer_0
  10
190.58182
  20
302.6713
  0
VERTEX
  5
171
  8
Layer_0
  10
191.32362
  20
302.78069
  0
VERTEX
  5
172
  8
Layer_0
  10
192.10937
  20
302.89678
  0
VERTEX
  5
173
  8
Layer_0
  10
192.93445
  20
303.01889
  0
VERTEX
  5
174
  8
Layer_0
  10
193.79426
  20
303.14636
  0
VERTEX
  5
175
  8
Layer_0
  10
194.68417
  20
303.2785
  0
VERTEX
  5
176
  8
Layer_0
  10
195.59957
  20
303.41464
  0
VERTEX
  5
177
  8
Layer_0
  10
196.27872
  20
303.51566
  0
VERTEX
  5
178
  8
Layer_0
  10
196.9244
  20
303.61157
  0
VERTEX
  5
179
  8
Layer_0
  10
197.5374
  20
303.70249
  0
VERTEX
  5
17a
  8
Layer_0
  10
198.11852
  20
303.78851
  0
VERTEX
  5
17b
  8
Layer_0
  10
198.66855
  20
303.86974
  0
VERTEX
  5
17c
  8
Layer_0
  10
199.18829
  20
303.9463
  0
VERTEX
  5
17d
  8
Layer_0
  10
199.67854
  20
304.01829
  0
VERTEX
  5
17e
  8
Layer_0
  10
200.1401
  20
304.08583
  0
VERTEX
  5
17f
  8
Layer_0
  10
200.57376
  20
304.14901
  0
VERTEX
  5
180
  8
Layer_0
  10
200.98032
  20
304.20795
  0
VERTEX
  5
181
  8
Layer_0
  10
201.36058
  20
304.26276
  0
VERTEX
  5
182
  8
Layer_0
  10
201.71533
  20
304.31355
  0
VERTEX
  5
183
  8
Layer_0
  10
202.3515
  20
304.40348
  0
VERTEX
  5
184
  8
Layer_0
  10
202.89522
  20
304.47862
  0
VERTEX
  5
185
  8
Layer_0
  10
203.35285
  20
304.53983
  0
VERTEX
  5
186
  8
Layer_0
  10
203.73077
  20
304.58798
  0
VERTEX
  5
187
  8
Layer_0
  10
204.03536
  20
304.62394
  0
VERTEX
  5
188
  8
Layer_0
  10
204.273
  20
304.64858
  0
VERTEX
  5
189
  8
Layer_0
  10
204.45007
  20
304.66277
  0
VERTEX
  5
18a
  8
Layer_0
  10
204.57293
  20
304.66737
  0
VERTEX
  5
18b
  8
Layer_0
  10
204.64796
  20
304.66325
  0
VERTEX
  5
18c
  8
Layer_0
  10
204.68155
  20
304.65129
  0
VERTEX
  5
18d
  8
Layer_0
  10
204.72918
  20
304.55515
  0
VERTEX
  5
18e
  8
Layer_0
  10
204.77334
  20
304.37536
  0
VERTEX
  5
18f
  8
Layer_0
  10
204.81377
  20
304.12098
  0
VERTEX
  5
190
  8
Layer_0
  10
204.85019
  20
303.80106
  0
VERTEX
  5
191
  8
Layer_0
  10
204.88233
  20
303.42469
  0
VERTEX
  5
192
  8
Layer_0
  10
204.90992
  20
303.00092
  0
VERTEX
  5
193
  8
Layer_0
  10
204.9327
  20
302.53882
  0
VERTEX
  5
194
  8
Layer_0
  10
204.95038
  20
302.04746
  0
VERTEX
  5
195
  8
Layer_0
  10
204.96939
  20
301.01322
  0
VERTEX
  5
196
  8
Layer_0
  10
204.96478
  20
299.97074
  0
VERTEX
  5
197
  8
Layer_0
  10
204.95293
  20
299.46907
  0
VERTEX
  5
198
  8
Layer_0
  10
204.93437
  20
298.99253
  0
VERTEX
  5
199
  8
Layer_0
  10
204.90882
  20
298.5502
  0
VERTEX
  5
19a
  8
Layer_0
  10
204.87601
  20
298.15114
  0
VERTEX
  5
19b
  8
Layer_0
  10
204.79725
  20
297.52488
  0
VERTEX
  5
19c
  8
Layer_0
  10
204.67926
  20
296.81214
  0
VERTEX
  5
19d
  8
Layer_0
  10
204.5337
  20
296.06301
  0
VERTEX
  5
19e
  8
Layer_0
  10
204.37221
  20
295.3276
  0
VERTEX
  5
19f
  8
Layer_0
  10
204.28913
  20
294.98069
  0
VERTEX
  5
1a0
  8
Layer_0
  10
204.20644
  20
294.65599
  0
VERTEX
  5
1a1
  8
Layer_0
  10
204.1256
  20
294.35977
  0
VERTEX
  5
1a2
  8
Layer_0
  10
204.04805
  20
294.09829
  0
VERTEX
  5
1a3
  8
Layer_0
  10
203.97527
  20
293.87781
  0
VERTEX
  5
1a4
  8
Layer_0
  10
203.9087
  20
293.70459
  0
VERTEX
  5
1a5
  8
Layer_0
  10
203.84979
  20
293.58489
  0
VERTEX
  5
1a6
  8
Layer_0
  10
203.80002
  20
293.52498
  0
VERTEX
  5
1a7
  8
Layer_0
  10
203.75513
  20
293.52501
  0
VERTEX
  5
1a8
  8
Layer_0
  10
203.64956
  20
293.54415
  0
VERTEX
  5
1a9
  8
Layer_0
  10
203.4819
  20
293.58282
  0
VERTEX
  5
1aa
  8
Layer_0
  10
203.2507
  20
293.64142
  0
VERTEX
  5
1ab
  8
Layer_0
  10
202.95452
  20
293.72036
  0
VERTEX
  5
1ac
  8
Layer_0
  10
202.59194
  20
293.82006
  0
VERTEX
  5
1ad
  8
Layer_0
  10
202.16151
  20
293.94094
  0
VERTEX
  5
1ae
  8
Layer_0
  10
201.66181
  20
294.08339
  0
VERTEX
  5
1af
  8
Layer_0
  10
201.0914
  20
294.24783
  0
VERTEX
  5
1b0
  8
Layer_0
  10
200.44885
  20
294.43468
  0
VERTEX
  5
1b1
  8
Layer_0
  10
199.73272
  20
294.64434
  0
VERTEX
  5
1b2
  8
Layer_0
  10
198.94157
  20
294.87722
  0
VERTEX
  5
1b3
  8
Layer_0
  10
198.07398
  20
295.13375
  0
VERTEX
  5
1b4
  8
Layer_0
  10
197.12851
  20
295.41432
  0
VERTEX
  5
1b5
  8
Layer_0
  10
196.10373
  20
295.71934
  0
VERTEX
  5
1b6
  8
Layer_0
  10
194.99819
  20
296.04924
  0
VERTEX
  5
1b7
  8
Layer_0
  10
194.11307
  20
296.31353
  0
VERTEX
  5
1b8
  8
Layer_0
  10
193.25256
  20
296.5702
  0
VERTEX
  5
1b9
  8
Layer_0
  10
192.42113
  20
296.81793
  0
VERTEX
  5
1ba
  8
Layer_0
  10
191.62325
  20
297.0554
  0
VERTEX
  5
1bb
  8
Layer_0
  10
190.86337
  20
297.28129
  0
VERTEX
  5
1bc
  8
Layer_0
  10
190.14596
  20
297.49429
  0
VERTEX
  5
1bd
  8
Layer_0
  10
189.47548
  20
297.69307
  0
VERTEX
  5
1be
  8
Layer_0
  10
188.85641
  20
297.87631
  0
VERTEX
  5
1bf
  8
Layer_0
  10
188.29321
  20
298.04269
  0
VERTEX
  5
1c0
  8
Layer_0
  10
187.79033
  20
298.19089
  0
VERTEX
  5
1c1
  8
Layer_0
  10
187.35225
  20
298.3196
  0
VERTEX
  5
1c2
  8
Layer_0
  10
186.98343
  20
298.42748
  0
VERTEX
  5
1c3
  8
Layer_0
  10
186.68833
  20
298.51322
  0
VERTEX
  5
1c4
  8
Layer_0
  10
186.47142
  20
298.57551
  0
VERTEX
  5
1c5
  8
Layer_0
  10
186.33716
  20
298.61301
  0
VERTEX
  5
1c6
  8
Layer_0
  10
186.29002
  20
298.62441
  0
VERTEX
  5
1c7
  8
Layer_0
  10
186.33166
  20
298.605
  0
VERTEX
  5
1c8
  8
Layer_0
  10
186.45789
  20
298.55208
  0
VERTEX
  5
1c9
  8
Layer_0
  10
186.66439
  20
298.46739
  0
VERTEX
  5
1ca
  8
Layer_0
  10
186.94686
  20
298.35265
  0
VERTEX
  5
1cb
  8
Layer_0
  10
187.30099
  20
298.20959
  0
VERTEX
  5
1cc
  8
Layer_0
  10
187.72247
  20
298.03992
  0
VERTEX
  5
1cd
  8
Layer_0
  10
188.20699
  20
297.84538
  0
VERTEX
  5
1ce
  8
Layer_0
  10
188.75025
  20
297.62769
  0
VERTEX
  5
1cf
  8
Layer_0
  10
189.34794
  20
297.38857
  0
VERTEX
  5
1d0
  8
Layer_0
  10
189.99574
  20
297.12975
  0
VERTEX
  5
1d1
  8
Layer_0
  10
190.68935
  20
296.85296
  0
VERTEX
  5
1d2
  8
Layer_0
  10
191.42446
  20
296.55992
  0
VERTEX
  5
1d3
  8
Layer_0
  10
192.19676
  20
296.25235
  0
VERTEX
  5
1d4
  8
Layer_0
  10
193.00195
  20
295.93199
  0
VERTEX
  5
1d5
  8
Layer_0
  10
193.83571
  20
295.60054
  0
VERTEX
  5
1d6
  8
Layer_0
  10
194.69374
  20
295.25975
  0
VERTEX
  5
1d7
  8
Layer_0
  10
195.55231
  20
294.91853
  0
VERTEX
  5
1d8
  8
Layer_0
  10
196.38769
  20
294.58583
  0
VERTEX
  5
1d9
  8
Layer_0
  10
197.19549
  20
294.26341
  0
VERTEX
  5
1da
  8
Layer_0
  10
197.97137
  20
293.95305
  0
VERTEX
  5
1db
  8
Layer_0
  10
198.71096
  20
293.6565
  0
VERTEX
  5
1dc
  8
Layer_0
  10
199.40989
  20
293.37555
  0
VERTEX
  5
1dd
  8
Layer_0
  10
200.06381
  20
293.11195
  0
VERTEX
  5
1de
  8
Layer_0
  10
200.66834
  20
292.86747
  0
VERTEX
  5
1df
  8
Layer_0
  10
201.21914
  20
292.64389
  0
VERTEX
  5
1e0
  8
Layer_0
  10
201.71182
  20
292.44296
  0
VERTEX
  5
1e1
  8
Layer_0
  10
202.14204
  20
292.26646
  0
VERTEX
  5
1e2
  8
Layer_0
  10
202.50543
  20
292.11615
  0
VERTEX
  5
1e3
  8
Layer_0
  10
202.79762
  20
291.9938
  0
VERTEX
  5
1e4
  8
Layer_0
  10
203.01426
  20
291.90119
  0
VERTEX
  5
1e5
  8
Layer_0
  10
203.15097
  20
291.84007
  0
VERTEX
  5
1e6
  8
Layer_0
  10
203.2034
  20
291.81221
  0
VERTEX
  5
1e7
  8
Layer_0
  10
203.22664
  20
291.73896
  0
VERTEX
  5
1e8
  8
Layer_0
  10
203.21505
  20
291.61374
  0
VERTEX
  5
1e9
  8
Layer_0
  10
203.16732
  20
291.43315
  0
VERTEX
  5
1ea
  8
Layer_0
  10
203.08214
  20
291.19378
  0
VERTEX
  5
1eb
  8
Layer_0
  10
202.9582
  20
290.89222
  0
VERTEX
  5
1ec
  8
Layer_0
  10
202.79417
  20
290.52508
  0
VERTEX
  5
1ed
  8
Layer_0
  10
202.58874
  20
290.08895
  0
VERTEX
  5
1ee
  8
Layer_0
  10
202.34059
  20
289.58043
  0
VERTEX
  5
1ef
  8
Layer_0
  10
201.90753
  20
288.75603
  0
VERTEX
  5
1f0
  8
Layer_0
  10
201.42108
  20
287.92346
  0
VERTEX
  5
1f1
  8
Layer_0
  10
200.88786
  20
287.09179
  0
VERTEX
  5
1f2
  8
Layer_0
  10
200.31446
  20
286.27012
  0
VERTEX
  5
1f3
  8
Layer_0
  10
199.70751
  20
285.46756
  0
VERTEX
  5
1f4
  8
Layer_0
  10
199.07361
  20
284.69319
  0
VERTEX
  5
1f5
  8
Layer_0
  10
198.41937
  20
283.95612
  0
VERTEX
  5
1f6
  8
Layer_0
  10
197.7514
  20
283.26543
  0
VERTEX
  5
1f7
  8
Layer_0
  10
197.58419
  20
283.10279
  0
VERTEX
  5
1f8
  8
Layer_0
  10
197.43364
  20
282.96161
  0
VERTEX
  5
1f9
  8
Layer_0
  10
197.30037
  20
282.84238
  0
VERTEX
  5
1fa
  8
Layer_0
  10
197.18499
  20
282.7456
  0
VERTEX
  5
1fb
  8
Layer_0
  10
197.08813
  20
282.67177
  0
VERTEX
  5
1fc
  8
Layer_0
  10
197.01042
  20
282.62139
  0
VERTEX
  5
1fd
  8
Layer_0
  10
196.95246
  20
282.59497
  0
VERTEX
  5
1fe
  8
Layer_0
  10
196.91489
  20
282.59299
  0
VERTEX
  5
1ff
  8
Layer_0
  10
196.87306
  20
282.62952
  0
VERTEX
  5
200
  8
Layer_0
  10
196.77277
  20
282.72809
  0
VERTEX
  5
201
  8
Layer_0
  10
196.61707
  20
282.88552
  0
VERTEX
  5
202
  8
Layer_0
  10
196.40903
  20
283.09859
  0
VERTEX
  5
203
  8
Layer_0
  10
196.15171
  20
283.36411
  0
VERTEX
  5
204
  8
Layer_0
  10
195.84817
  20
283.67888
  0
VERTEX
  5
205
  8
Layer_0
  10
195.50147
  20
284.03971
  0
VERTEX
  5
206
  8
Layer_0
  10
195.11467
  20
284.44339
  0
VERTEX
  5
207
  8
Layer_0
  10
194.69083
  20
284.88673
  0
VERTEX
  5
208
  8
Layer_0
  10
194.23302
  20
285.36653
  0
VERTEX
  5
209
  8
Layer_0
  10
193.7443
  20
285.87959
  0
VERTEX
  5
20a
  8
Layer_0
  10
193.22772
  20
286.42271
  0
VERTEX
  5
20b
  8
Layer_0
  10
192.68635
  20
286.99268
  0
VERTEX
  5
20c
  8
Layer_0
  10
192.12325
  20
287.58633
  0
VERTEX
  5
20d
  8
Layer_0
  10
191.54148
  20
288.20043
  0
VERTEX
  5
20e
  8
Layer_0
  10
190.9441
  20
288.83181
  0
VERTEX
  5
20f
  8
Layer_0
  10
189.75812
  20
290.08574
  0
VERTEX
  5
210
  8
Layer_0
  10
188.63408
  20
291.27358
  0
VERTEX
  5
211
  8
Layer_0
  10
188.10337
  20
291.83419
  0
VERTEX
  5
212
  8
Layer_0
  10
187.59785
  20
292.36805
  0
VERTEX
  5
213
  8
Layer_0
  10
187.12074
  20
292.87174
  0
VERTEX
  5
214
  8
Layer_0
  10
186.67527
  20
293.34185
  0
VERTEX
  5
215
  8
Layer_0
  10
186.26469
  20
293.77498
  0
VERTEX
  5
216
  8
Layer_0
  10
185.89222
  20
294.16771
  0
VERTEX
  5
217
  8
Layer_0
  10
185.5611
  20
294.51663
  0
VERTEX
  5
218
  8
Layer_0
  10
185.27456
  20
294.81832
  0
VERTEX
  5
219
  8
Layer_0
  10
185.03583
  20
295.06939
  0
VERTEX
  5
21a
  8
Layer_0
  10
184.84814
  20
295.26642
  0
VERTEX
  5
21b
  8
Layer_0
  10
184.71473
  20
295.40599
  0
VERTEX
  5
21c
  8
Layer_0
  10
184.63883
  20
295.4847
  0
VERTEX
  5
21d
  8
Layer_0
  10
184.6229
  20
295.49391
  0
VERTEX
  5
21e
  8
Layer_0
  10
184.66545
  20
295.42958
  0
VERTEX
  5
21f
  8
Layer_0
  10
184.76379
  20
295.29516
  0
VERTEX
  5
220
  8
Layer_0
  10
184.91523
  20
295.0941
  0
VERTEX
  5
221
  8
Layer_0
  10
185.11706
  20
294.82987
  0
VERTEX
  5
222
  8
Layer_0
  10
185.3666
  20
294.50593
  0
VERTEX
  5
223
  8
Layer_0
  10
185.66115
  20
294.12572
  0
VERTEX
  5
224
  8
Layer_0
  10
185.99802
  20
293.6927
  0
VERTEX
  5
225
  8
Layer_0
  10
186.37452
  20
293.21034
  0
VERTEX
  5
226
  8
Layer_0
  10
186.78794
  20
292.68208
  0
VERTEX
  5
227
  8
Layer_0
  10
187.23561
  20
292.11139
  0
VERTEX
  5
228
  8
Layer_0
  10
187.71481
  20
291.50172
  0
VERTEX
  5
229
  8
Layer_0
  10
188.22287
  20
290.85653
  0
VERTEX
  5
22a
  8
Layer_0
  10
188.75707
  20
290.17928
  0
VERTEX
  5
22b
  8
Layer_0
  10
189.31474
  20
289.47342
  0
VERTEX
  5
22c
  8
Layer_0
  10
189.89318
  20
288.7424
  0
VERTEX
  5
22d
  8
Layer_0
  10
190.47396
  20
288.00823
  0
VERTEX
  5
22e
  8
Layer_0
  10
191.03849
  20
287.2931
  0
VERTEX
  5
22f
  8
Layer_0
  10
191.58386
  20
286.60079
  0
VERTEX
  5
230
  8
Layer_0
  10
192.10713
  20
285.93506
  0
VERTEX
  5
231
  8
Layer_0
  10
192.60539
  20
285.29968
  0
VERTEX
  5
232
  8
Layer_0
  10
193.0757
  20
284.69843
  0
VERTEX
  5
233
  8
Layer_0
  10
193.51515
  20
284.13506
  0
VERTEX
  5
234
  8
Layer_0
  10
193.9208
  20
283.61335
  0
VERTEX
  5
235
  8
Layer_0
  10
194.28974
  20
283.13707
  0
VERTEX
  5
236
  8
Layer_0
  10
194.61903
  20
282.70998
  0
VERTEX
  5
237
  8
Layer_0
  10
194.90576
  20
282.33585
  0
VERTEX
  5
238
  8
Layer_0
  10
195.14699
  20
282.01846
  0
VERTEX
  5
239
  8
Layer_0
  10
195.33981
  20
281.76157
  0
VERTEX
  5
23a
  8
Layer_0
  10
195.48128
  20
281.56895
  0
VERTEX
  5
23b
  8
Layer_0
  10
195.56848
  20
281.44437
  0
VERTEX
  5
23c
  8
Layer_0
  10
195.59849
  20
281.39159
  0
VERTEX
  5
23d
  8
Layer_0
  10
195.57796
  20
281.32381
  0
VERTEX
  5
23e
  8
Layer_0
  10
195.51502
  20
281.23443
  0
VERTEX
  5
23f
  8
Layer_0
  10
195.41242
  20
281.12531
  0
VERTEX
  5
240
  8
Layer_0
  10
195.27288
  20
280.99832
  0
VERTEX
  5
241
  8
Layer_0
  10
195.09914
  20
280.8553
  0
VERTEX
  5
242
  8
Layer_0
  10
194.89395
  20
280.69811
  0
VERTEX
  5
243
  8
Layer_0
  10
194.66003
  20
280.52861
  0
VERTEX
  5
244
  8
Layer_0
  10
194.40012
  20
280.34866
  0
VERTEX
  5
245
  8
Layer_0
  10
193.81329
  20
279.96482
  0
VERTEX
  5
246
  8
Layer_0
  10
193.15533
  20
279.56144
  0
VERTEX
  5
247
  8
Layer_0
  10
192.44813
  20
279.15337
  0
VERTEX
  5
248
  8
Layer_0
  10
191.71358
  20
278.75547
  0
VERTEX
  5
249
  8
Layer_0
  10
191.02076
  20
278.40241
  0
VERTEX
  5
24a
  8
Layer_0
  10
190.34731
  20
278.079
  0
VERTEX
  5
24b
  8
Layer_0
  10
189.69017
  20
277.78403
  0
VERTEX
  5
24c
  8
Layer_0
  10
189.04627
  20
277.51626
  0
VERTEX
  5
24d
  8
Layer_0
  10
187.78597
  20
277.05748
  0
VERTEX
  5
24e
  8
Layer_0
  10
186.54191
  20
276.69287
  0
VERTEX
  5
24f
  8
Layer_0
  10
186.28255
  20
276.62709
  0
VERTEX
  5
250
  8
Layer_0
  10
186.07385
  20
276.57709
  0
VERTEX
  5
251
  8
Layer_0
  10
185.90952
  20
276.54207
  0
VERTEX
  5
252
  8
Layer_0
  10
185.78327
  20
276.52121
  0
VERTEX
  5
253
  8
Layer_0
  10
185.61983
  20
276.51875
  0
VERTEX
  5
254
  8
Layer_0
  10
185.53319
  20
276.56325
  0
VERTEX
  5
255
  8
Layer_0
  10
185.51193
  20
276.61938
  0
VERTEX
  5
256
  8
Layer_0
  10
185.47007
  20
276.76329
  0
VERTEX
  5
257
  8
Layer_0
  10
185.40872
  20
276.99042
  0
VERTEX
  5
258
  8
Layer_0
  10
185.32902
  20
277.29623
  0
VERTEX
  5
259
  8
Layer_0
  10
185.23208
  20
277.67615
  0
VERTEX
  5
25a
  8
Layer_0
  10
185.11903
  20
278.12564
  0
VERTEX
  5
25b
  8
Layer_0
  10
184.99097
  20
278.64015
  0
VERTEX
  5
25c
  8
Layer_0
  10
184.84904
  20
279.21511
  0
VERTEX
  5
25d
  8
Layer_0
  10
184.69434
  20
279.84597
  0
VERTEX
  5
25e
  8
Layer_0
  10
184.52801
  20
280.52819
  0
VERTEX
  5
25f
  8
Layer_0
  10
184.35117
  20
281.2572
  0
VERTEX
  5
260
  8
Layer_0
  10
184.16492
  20
282.02846
  0
VERTEX
  5
261
  8
Layer_0
  10
183.9704
  20
282.83741
  0
VERTEX
  5
262
  8
Layer_0
  10
183.76872
  20
283.67949
  0
VERTEX
  5
263
  8
Layer_0
  10
183.561
  20
284.55016
  0
VERTEX
  5
264
  8
Layer_0
  10
183.34837
  20
285.44486
  0
VERTEX
  5
265
  8
Layer_0
  10
183.13615
  20
286.33868
  0
VERTEX
  5
266
  8
Layer_0
  10
182.92965
  20
287.20678
  0
VERTEX
  5
267
  8
Layer_0
  10
182.72996
  20
288.0447
  0
VERTEX
  5
268
  8
Layer_0
  10
182.53815
  20
288.84796
  0
VERTEX
  5
269
  8
Layer_0
  10
182.3553
  20
289.6121
  0
VERTEX
  5
26a
  8
Layer_0
  10
182.18248
  20
290.33265
  0
VERTEX
  5
26b
  8
Layer_0
  10
182.02079
  20
291.00515
  0
VERTEX
  5
26c
  8
Layer_0
  10
181.87129
  20
291.62512
  0
VERTEX
  5
26d
  8
Layer_0
  10
181.73506
  20
292.1881
  0
VERTEX
  5
26e
  8
Layer_0
  10
181.6132
  20
292.68962
  0
VERTEX
  5
26f
  8
Layer_0
  10
181.50676
  20
293.12522
  0
VERTEX
  5
270
  8
Layer_0
  10
181.41684
  20
293.49043
  0
VERTEX
  5
271
  8
Layer_0
  10
181.34451
  20
293.78078
  0
VERTEX
  5
272
  8
Layer_0
  10
181.29085
  20
293.9918
  0
VERTEX
  5
273
  8
Layer_0
  10
181.25694
  20
294.11903
  0
VERTEX
  5
274
  8
Layer_0
  10
181.24385
  20
294.158
  0
VERTEX
  5
275
  8
Layer_0
  10
181.24832
  20
294.10531
  0
VERTEX
  5
276
  8
Layer_0
  10
181.26588
  20
293.9636
  0
VERTEX
  5
277
  8
Layer_0
  10
181.2959
  20
293.73746
  0
VERTEX
  5
278
  8
Layer_0
  10
181.33771
  20
293.43149
  0
VERTEX
  5
279
  8
Layer_0
  10
181.39066
  20
293.05027
  0
VERTEX
  5
27a
  8
Layer_0
  10
181.45409
  20
292.59839
  0
VERTEX
  5
27b
  8
Layer_0
  10
181.52735
  20
292.08045
  0
VERTEX
  5
27c
  8
Layer_0
  10
181.60979
  20
291.50104
  0
VERTEX
  5
27d
  8
Layer_0
  10
181.70075
  20
290.86475
  0
VERTEX
  5
27e
  8
Layer_0
  10
181.79957
  20
290.17616
  0
VERTEX
  5
27f
  8
Layer_0
  10
181.9056
  20
289.43988
  0
VERTEX
  5
280
  8
Layer_0
  10
182.01819
  20
288.66048
  0
VERTEX
  5
281
  8
Layer_0
  10
182.13668
  20
287.84257
  0
VERTEX
  5
282
  8
Layer_0
  10
182.26042
  20
286.99072
  0
VERTEX
  5
283
  8
Layer_0
  10
182.38874
  20
286.10954
  0
VERTEX
  5
284
  8
Layer_0
  10
182.52101
  20
285.20362
  0
VERTEX
  5
285
  8
Layer_0
  10
182.68569
  20
284.07484
  0
VERTEX
  5
286
  8
Layer_0
  10
182.83774
  20
283.02789
  0
VERTEX
  5
287
  8
Layer_0
  10
182.97736
  20
282.06137
  0
VERTEX
  5
288
  8
Layer_0
  10
183.10474
  20
281.17387
  0
VERTEX
  5
289
  8
Layer_0
  10
183.22006
  20
280.364
  0
VERTEX
  5
28a
  8
Layer_0
  10
183.32352
  20
279.63035
  0
VERTEX
  5
28b
  8
Layer_0
  10
183.41531
  20
278.97152
  0
VERTEX
  5
28c
  8
Layer_0
  10
183.49561
  20
278.38611
  0
VERTEX
  5
28d
  8
Layer_0
  10
183.56463
  20
277.87271
  0
VERTEX
  5
28e
  8
Layer_0
  10
183.62254
  20
277.42993
  0
VERTEX
  5
28f
  8
Layer_0
  10
183.66955
  20
277.05635
  0
VERTEX
  5
290
  8
Layer_0
  10
183.70583
  20
276.75059
  0
VERTEX
  5
291
  8
Layer_0
  10
183.73159
  20
276.51122
  0
VERTEX
  5
292
  8
Layer_0
  10
183.747
  20
276.33687
  0
VERTEX
  5
293
  8
Layer_0
  10
183.75227
  20
276.22611
  0
VERTEX
  5
294
  8
Layer_0
  10
183.74759
  20
276.17755
  0
VERTEX
  5
295
  8
Layer_0
  10
183.70472
  20
276.12264
  0
VERTEX
  5
296
  8
Layer_0
  10
183.62933
  20
276.07702
  0
VERTEX
  5
297
  8
Layer_0
  10
183.5042
  20
276.03825
  0
VERTEX
  5
298
  8
Layer_0
  10
183.3121
  20
276.00385
  0
VERTEX
  5
299
  8
Layer_0
  10
183.18556
  20
275.98753
  0
VERTEX
  5
29a
  8
Layer_0
  10
183.03581
  20
275.97138
  0
VERTEX
  5
29b
  8
Layer_0
  10
182.86071
  20
275.9551
  0
VERTEX
  5
29c
  8
Layer_0
  10
182.6581
  20
275.93838
  0
VERTEX
  5
29d
  8
Layer_0
  10
182.42583
  20
275.92091
  0
VERTEX
  5
29e
  8
Layer_0
  10
182.16175
  20
275.90238
  0
VERTEX
  5
29f
  8
Layer_0
  10
181.86369
  20
275.88249
  0
VERTEX
  5
2a0
  8
Layer_0
  10
181.52952
  20
275.86092
  0
VERTEX
  5
2a1
  8
Layer_0
  10
180.71667
  20
275.82336
  0
VERTEX
  5
2a2
  8
Layer_0
  10
179.8915
  20
275.81285
  0
VERTEX
  5
2a3
  8
Layer_0
  10
179.06199
  20
275.82885
  0
VERTEX
  5
2a4
  8
Layer_0
  10
178.23607
  20
275.87084
  0
VERTEX
  5
2a5
  8
Layer_0
  10
177.42171
  20
275.93828
  0
VERTEX
  5
2a6
  8
Layer_0
  10
176.62685
  20
276.03064
  0
VERTEX
  5
2a7
  8
Layer_0
  10
175.85946
  20
276.14739
  0
VERTEX
  5
2a8
  8
Layer_0
  10
175.12747
  20
276.28801
  0
VERTEX
  5
2a9
  8
Layer_0
  10
174.72765
  20
276.37371
  0
VERTEX
  5
2aa
  8
Layer_0
  10
174.37533
  20
276.44954
  0
VERTEX
  5
2ab
  8
Layer_0
  10
174.06739
  20
276.51634
  0
VERTEX
  5
2ac
  8
Layer_0
  10
173.80072
  20
276.57494
  0
VERTEX
  5
2ad
  8
Layer_0
  10
173.57218
  20
276.62618
  0
VERTEX
  5
2ae
  8
Layer_0
  10
173.37866
  20
276.6709
  0
VERTEX
  5
2af
  8
Layer_0
  10
173.21703
  20
276.70994
  0
VERTEX
  5
2b0
  8
Layer_0
  10
173.08416
  20
276.74413
  0
VERTEX
  5
2b1
  8
Layer_0
  10
172.89222
  20
276.80133
  0
VERTEX
  5
2b2
  8
Layer_0
  10
172.77787
  20
276.84919
  0
VERTEX
  5
2b3
  8
Layer_0
  10
172.7161
  20
276.89442
  0
VERTEX
  5
2b4
  8
Layer_0
  10
172.68194
  20
276.94372
  0
VERTEX
  5
2b5
  8
Layer_0
  10
172.67972
  20
276.98803
  0
VERTEX
  5
2b6
  8
Layer_0
  10
172.6944
  20
277.08455
  0
VERTEX
  5
2b7
  8
Layer_0
  10
172.72691
  20
277.23661
  0
VERTEX
  5
2b8
  8
Layer_0
  10
172.77822
  20
277.44753
  0
VERTEX
  5
2b9
  8
Layer_0
  10
172.84926
  20
277.72064
  0
VERTEX
  5
2ba
  8
Layer_0
  10
172.94099
  20
278.05924
  0
VERTEX
  5
2bb
  8
Layer_0
  10
173.05435
  20
278.46668
  0
VERTEX
  5
2bc
  8
Layer_0
  10
173.19029
  20
278.94626
  0
VERTEX
  5
2bd
  8
Layer_0
  10
173.34977
  20
279.50131
  0
VERTEX
  5
2be
  8
Layer_0
  10
173.53373
  20
280.13516
  0
VERTEX
  5
2bf
  8
Layer_0
  10
173.74312
  20
280.85112
  0
VERTEX
  5
2c0
  8
Layer_0
  10
173.97888
  20
281.65252
  0
VERTEX
  5
2c1
  8
Layer_0
  10
174.24198
  20
282.54268
  0
VERTEX
  5
2c2
  8
Layer_0
  10
174.53335
  20
283.52493
  0
VERTEX
  5
2c3
  8
Layer_0
  10
174.68993
  20
284.05162
  0
VERTEX
  5
2c4
  8
Layer_0
  10
174.85394
  20
284.60258
  0
VERTEX
  5
2c5
  8
Layer_0
  10
175.02549
  20
285.17822
  0
VERTEX
  5
2c6
  8
Layer_0
  10
175.20471
  20
285.77896
  0
VERTEX
  5
2c7
  8
Layer_0
  10
175.46905
  20
286.66516
  0
VERTEX
  5
2c8
  8
Layer_0
  10
175.72574
  20
287.52675
  0
VERTEX
  5
2c9
  8
Layer_0
  10
175.97346
  20
288.35925
  0
VERTEX
  5
2ca
  8
Layer_0
  10
176.21089
  20
289.15819
  0
VERTEX
  5
2cb
  8
Layer_0
  10
176.43672
  20
289.91911
  0
VERTEX
  5
2cc
  8
Layer_0
  10
176.64962
  20
290.63753
  0
VERTEX
  5
2cd
  8
Layer_0
  10
176.84828
  20
291.30898
  0
VERTEX
  5
2ce
  8
Layer_0
  10
177.03138
  20
291.92898
  0
VERTEX
  5
2cf
  8
Layer_0
  10
177.19759
  20
292.49308
  0
VERTEX
  5
2d0
  8
Layer_0
  10
177.3456
  20
292.99678
  0
VERTEX
  5
2d1
  8
Layer_0
  10
177.47409
  20
293.43564
  0
VERTEX
  5
2d2
  8
Layer_0
  10
177.58174
  20
293.80516
  0
VERTEX
  5
2d3
  8
Layer_0
  10
177.66723
  20
294.10088
  0
VERTEX
  5
2d4
  8
Layer_0
  10
177.72924
  20
294.31833
  0
VERTEX
  5
2d5
  8
Layer_0
  10
177.76645
  20
294.45304
  0
VERTEX
  5
2d6
  8
Layer_0
  10
177.77755
  20
294.50054
  0
VERTEX
  5
2d7
  8
Layer_0
  10
177.75781
  20
294.45923
  0
VERTEX
  5
2d8
  8
Layer_0
  10
177.70452
  20
294.33337
  0
VERTEX
  5
2d9
  8
Layer_0
  10
177.61943
  20
294.12727
  0
VERTEX
  5
2da
  8
Layer_0
  10
177.50425
  20
293.84523
  0
VERTEX
  5
2db
  8
Layer_0
  10
177.36073
  20
293.49156
  0
VERTEX
  5
2dc
  8
Layer_0
  10
177.19058
  20
293.07056
  0
VERTEX
  5
2dd
  8
Layer_0
  10
176.99554
  20
292.58654
  0
VERTEX
  5
2de
  8
Layer_0
  10
176.77734
  20
292.0438
  0
VERTEX
  5
2df
  8
Layer_0
  10
176.5377
  20
291.44664
  0
VERTEX
  5
2e0
  8
Layer_0
  10
176.27836
  20
290.79938
  0
VERTEX
  5
2e1
  8
Layer_0
  10
176.00103
  20
290.10631
  0
VERTEX
  5
2e2
  8
Layer_0
  10
175.70746
  20
289.37174
  0
VERTEX
  5
2e3
  8
Layer_0
  10
175.39937
  20
288.59997
  0
VERTEX
  5
2e4
  8
Layer_0
  10
175.07849
  20
287.79531
  0
VERTEX
  5
2e5
  8
Layer_0
  10
174.74654
  20
286.96206
  0
VERTEX
  5
2e6
  8
Layer_0
  10
174.40527
  20
286.10453
  0
VERTEX
  5
2e7
  8
Layer_0
  10
173.98587
  20
285.05121
  0
VERTEX
  5
2e8
  8
Layer_0
  10
173.59502
  20
284.07175
  0
VERTEX
  5
2e9
  8
Layer_0
  10
173.23235
  20
283.16523
  0
VERTEX
  5
2ea
  8
Layer_0
  10
172.89749
  20
282.33077
  0
VERTEX
  5
2eb
  8
Layer_0
  10
172.59006
  20
281.56746
  0
VERTEX
  5
2ec
  8
Layer_0
  10
172.3097
  20
280.87439
  0
VERTEX
  5
2ed
  8
Layer_0
  10
172.05604
  20
280.25066
  0
VERTEX
  5
2ee
  8
Layer_0
  10
171.8287
  20
279.69538
  0
VERTEX
  5
2ef
  8
Layer_0
  10
171.62732
  20
279.20764
  0
VERTEX
  5
2f0
  8
Layer_0
  10
171.45152
  20
278.78653
  0
VERTEX
  5
2f1
  8
Layer_0
  10
171.30093
  20
278.43116
  0
VERTEX
  5
2f2
  8
Layer_0
  10
171.17518
  20
278.14063
  0
VERTEX
  5
2f3
  8
Layer_0
  10
171.07391
  20
277.91402
  0
VERTEX
  5
2f4
  8
Layer_0
  10
170.99673
  20
277.75045
  0
VERTEX
  5
2f5
  8
Layer_0
  10
170.94329
  20
277.649
  0
VERTEX
  5
2f6
  8
Layer_0
  10
170.9132
  20
277.60878
  0
VERTEX
  5
2f7
  8
Layer_0
  10
170.8038
  20
277.58859
  0
VERTEX
  5
2f8
  8
Layer_0
  10
170.6217
  20
277.62267
  0
VERTEX
  5
2f9
  8
Layer_0
  10
170.49387
  20
277.66272
  0
VERTEX
  5
2fa
  8
Layer_0
  10
170.33644
  20
277.71955
  0
VERTEX
  5
2fb
  8
Layer_0
  10
170.1456
  20
277.79421
  0
VERTEX
  5
2fc
  8
Layer_0
  10
169.91755
  20
277.88777
  0
VERTEX
  5
2fd
  8
Layer_0
  10
169.15295
  20
278.22942
  0
VERTEX
  5
2fe
  8
Layer_0
  10
168.36219
  20
278.62615
  0
VERTEX
  5
2ff
  8
Layer_0
  10
167.55636
  20
279.07106
  0
VERTEX
  5
300
  8
Layer_0
  10
166.74652
  20
279.55721
  0
VERTEX
  5
301
  8
Layer_0
  10
165.94377
  20
280.07771
  0
VERTEX
  5
302
  8
Layer_0
  10
165.15917
  20
280.62563
  0
VERTEX
  5
303
  8
Layer_0
  10
164.40381
  20
281.19405
  0
VERTEX
  5
304
  8
Layer_0
  10
163.68877
  20
281.77607
  0
VERTEX
  5
305
  8
Layer_0
  10
162.97009
  20
282.42138
  0
VERTEX
  5
306
  8
Layer_0
  10
162.33111
  20
283.0557
  0
VERTEX
  5
307
  8
Layer_0
  10
162.0749
  20
283.33369
  0
VERTEX
  5
308
  8
Layer_0
  10
161.87868
  20
283.56687
  0
VERTEX
  5
309
  8
Layer_0
  10
161.80724
  20
283.66228
  0
VERTEX
  5
30a
  8
Layer_0
  10
161.75581
  20
283.74123
  0
VERTEX
  5
30b
  8
Layer_0
  10
161.72606
  20
283.80198
  0
VERTEX
  5
30c
  8
Layer_0
  10
161.71966
  20
283.84276
  0
VERTEX
  5
30d
  8
Layer_0
  10
161.75622
  20
283.88857
  0
VERTEX
  5
30e
  8
Layer_0
  10
161.8583
  20
283.99592
  0
VERTEX
  5
30f
  8
Layer_0
  10
162.02252
  20
284.1616
  0
VERTEX
  5
310
  8
Layer_0
  10
162.24553
  20
284.38235
  0
VERTEX
  5
311
  8
Layer_0
  10
162.52395
  20
284.65494
  0
VERTEX
  5
312
  8
Layer_0
  10
162.85442
  20
284.97615
  0
VERTEX
  5
313
  8
Layer_0
  10
163.23359
  20
285.34274
  0
VERTEX
  5
314
  8
Layer_0
  10
163.65807
  20
285.75147
  0
VERTEX
  5
315
  8
Layer_0
  10
164.12452
  20
286.19911
  0
VERTEX
  5
316
  8
Layer_0
  10
164.62955
  20
286.68242
  0
VERTEX
  5
317
  8
Layer_0
  10
165.16982
  20
287.19818
  0
VERTEX
  5
318
  8
Layer_0
  10
165.74196
  20
287.74315
  0
VERTEX
  5
319
  8
Layer_0
  10
166.3426
  20
288.31409
  0
VERTEX
  5
31a
  8
Layer_0
  10
166.96837
  20
288.90777
  0
VERTEX
  5
31b
  8
Layer_0
  10
167.61592
  20
289.52096
  0
VERTEX
  5
31c
  8
Layer_0
  10
168.28187
  20
290.15042
  0
VERTEX
  5
31d
  8
Layer_0
  10
168.9484
  20
290.77991
  0
VERTEX
  5
31e
  8
Layer_0
  10
169.59761
  20
291.39319
  0
VERTEX
  5
31f
  8
Layer_0
  10
170.2261
  20
291.98703
  0
VERTEX
  5
320
  8
Layer_0
  10
170.83043
  20
292.55818
  0
VERTEX
  5
321
  8
Layer_0
  10
171.4072
  20
293.10341
  0
VERTEX
  5
322
  8
Layer_0
  10
171.95297
  20
293.61948
  0
VERTEX
  5
323
  8
Layer_0
  10
172.46433
  20
294.10316
  0
VERTEX
  5
324
  8
Layer_0
  10
172.93786
  20
294.5512
  0
VERTEX
  5
325
  8
Layer_0
  10
173.37014
  20
294.96038
  0
VERTEX
  5
326
  8
Layer_0
  10
173.75775
  20
295.32744
  0
VERTEX
  5
327
  8
Layer_0
  10
174.09725
  20
295.64917
  0
VERTEX
  5
328
  8
Layer_0
  10
174.38525
  20
295.92231
  0
VERTEX
  5
329
  8
Layer_0
  10
174.61831
  20
296.14363
  0
VERTEX
  5
32a
  8
Layer_0
  10
174.79301
  20
296.3099
  0
VERTEX
  5
32b
  8
Layer_0
  10
174.90594
  20
296.41788
  0
VERTEX
  5
32c
  8
Layer_0
  10
174.95367
  20
296.46432
  0
VERTEX
  5
32d
  8
Layer_0
  10
174.9301
  20
296.44918
  0
VERTEX
  5
32e
  8
Layer_0
  10
174.83384
  20
296.37646
  0
VERTEX
  5
32f
  8
Layer_0
  10
174.6685
  20
296.24899
  0
VERTEX
  5
330
  8
Layer_0
  10
174.43772
  20
296.06964
  0
VERTEX
  5
331
  8
Layer_0
  10
174.14511
  20
295.84124
  0
VERTEX
  5
332
  8
Layer_0
  10
173.79431
  20
295.56665
  0
VERTEX
  5
333
  8
Layer_0
  10
173.38894
  20
295.24873
  0
VERTEX
  5
334
  8
Layer_0
  10
172.93261
  20
294.89031
  0
VERTEX
  5
335
  8
Layer_0
  10
172.42897
  20
294.49425
  0
VERTEX
  5
336
  8
Layer_0
  10
171.88163
  20
294.06339
  0
VERTEX
  5
337
  8
Layer_0
  10
171.29422
  20
293.60059
  0
VERTEX
  5
338
  8
Layer_0
  10
170.67036
  20
293.10869
  0
VERTEX
  5
339
  8
Layer_0
  10
170.01368
  20
292.59055
  0
VERTEX
  5
33a
  8
Layer_0
  10
169.3278
  20
292.049
  0
VERTEX
  5
33b
  8
Layer_0
  10
168.61636
  20
291.48691
  0
VERTEX
  5
33c
  8
Layer_0
  10
167.88296
  20
290.90712
  0
VERTEX
  5
33d
  8
Layer_0
  10
167.14809
  20
290.32658
  0
VERTEX
  5
33e
  8
Layer_0
  10
166.43229
  20
289.76227
  0
VERTEX
  5
33f
  8
Layer_0
  10
165.73934
  20
289.21712
  0
VERTEX
  5
340
  8
Layer_0
  10
165.07301
  20
288.69405
  0
VERTEX
  5
341
  8
Layer_0
  10
164.43708
  20
288.19599
  0
VERTEX
  5
342
  8
Layer_0
  10
163.83531
  20
287.72587
  0
VERTEX
  5
343
  8
Layer_0
  10
163.27147
  20
287.28659
  0
VERTEX
  5
344
  8
Layer_0
  10
162.74934
  20
286.8811
  0
VERTEX
  5
345
  8
Layer_0
  10
162.2727
  20
286.51231
  0
VERTEX
  5
346
  8
Layer_0
  10
161.8453
  20
286.18315
  0
VERTEX
  5
347
  8
Layer_0
  10
161.47093
  20
285.89654
  0
VERTEX
  5
348
  8
Layer_0
  10
161.15335
  20
285.6554
  0
VERTEX
  5
349
  8
Layer_0
  10
160.89634
  20
285.46266
  0
VERTEX
  5
34a
  8
Layer_0
  10
160.70366
  20
285.32125
  0
VERTEX
  5
34b
  8
Layer_0
  10
160.5791
  20
285.23408
  0
VERTEX
  5
34c
  8
Layer_0
  10
160.52641
  20
285.20408
  0
VERTEX
  5
34d
  8
Layer_0
  10
160.46194
  20
285.22845
  0
VERTEX
  5
34e
  8
Layer_0
  10
160.36946
  20
285.30142
  0
VERTEX
  5
34f
  8
Layer_0
  10
160.25205
  20
285.41861
  0
VERTEX
  5
350
  8
Layer_0
  10
160.11281
  20
285.57564
  0
VERTEX
  5
351
  8
Layer_0
  10
159.95483
  20
285.76813
  0
VERTEX
  5
352
  8
Layer_0
  10
159.78121
  20
285.9917
  0
VERTEX
  5
353
  8
Layer_0
  10
159.59504
  20
286.24196
  0
VERTEX
  5
354
  8
Layer_0
  10
159.39941
  20
286.51455
  0
VERTEX
  5
355
  8
Layer_0
  10
158.58421
  20
287.74044
  0
VERTEX
  5
356
  8
Layer_0
  10
157.86517
  20
288.97293
  42
-0.059772608
  0
VERTEX
  5
357
  8
Layer_0
  10
155.79893
  20
294.33115
  0
VERTEX
  5
358
  8
Layer_0
  10
155.74018
  20
294.56729
  0
VERTEX
  5
359
  8
Layer_0
  10
155.69572
  20
294.75777
  0
VERTEX
  5
35a
  8
Layer_0
  10
155.6649
  20
294.90826
  0
VERTEX
  5
35b
  8
Layer_0
  10
155.64708
  20
295.02447
  0
VERTEX
  5
35c
  8
Layer_0
  10
155.6478
  20
295.17679
  0
VERTEX
  5
35d
  8
Layer_0
  10
155.69268
  20
295.26031
  0
VERTEX
  5
35e
  8
Layer_0
  10
155.74879
  20
295.28148
  0
VERTEX
  5
35f
  8
Layer_0
  10
155.89277
  20
295.32324
  0
VERTEX
  5
360
  8
Layer_0
  10
156.12006
  20
295.38445
  0
VERTEX
  5
361
  8
Layer_0
  10
156.42611
  20
295.46401
  0
VERTEX
  5
362
  8
Layer_0
  10
156.80634
  20
295.5608
  0
VERTEX
  5
363
  8
Layer_0
  10
157.25621
  20
295.67369
  0
VERTEX
  5
364
  8
Layer_0
  10
157.77116
  20
295.80157
  0
VERTEX
  5
365
  8
Layer_0
  10
158.34663
  20
295.94332
  0
VERTEX
  5
366
  8
Layer_0
  10
158.97806
  20
296.09782
  0
VERTEX
  5
367
  8
Layer_0
  10
159.6609
  20
296.26395
  0
VERTEX
  5
368
  8
Layer_0
  10
160.39059
  20
296.44059
  0
VERTEX
  5
369
  8
Layer_0
  10
161.16257
  20
296.62663
  0
VERTEX
  5
36a
  8
Layer_0
  10
161.97228
  20
296.82094
  0
VERTEX
  5
36b
  8
Layer_0
  10
162.81516
  20
297.02241
  0
VERTEX
  5
36c
  8
Layer_0
  10
163.68666
  20
297.22992
  0
VERTEX
  5
36d
  8
Layer_0
  10
164.58222
  20
297.44234
  0
VERTEX
  5
36e
  8
Layer_0
  10
165.47691
  20
297.65436
  0
VERTEX
  5
36f
  8
Layer_0
  10
166.34585
  20
297.86065
  0
VERTEX
  5
370
  8
Layer_0
  10
167.18457
  20
298.06015
  0
VERTEX
  5
371
  8
Layer_0
  10
167.98859
  20
298.25179
  0
VERTEX
  5
372
  8
Layer_0
  10
168.75346
  20
298.43447
  0
VERTEX
  5
373
  8
Layer_0
  10
169.47468
  20
298.60712
  0
VERTEX
  5
374
  8
Layer_0
  10
170.14781
  20
298.76867
  0
VERTEX
  5
375
  8
Layer_0
  10
170.76836
  20
298.91803
  0
VERTEX
  5
376
  8
Layer_0
  10
171.33185
  20
299.05413
  0
VERTEX
  5
377
  8
Layer_0
  10
171.83383
  20
299.17589
  0
VERTEX
  5
378
  8
Layer_0
  10
172.26982
  20
299.28223
  0
VERTEX
  5
379
  8
Layer_0
  10
172.63535
  20
299.37208
  0
VERTEX
  5
37a
  8
Layer_0
  10
172.92594
  20
299.44435
  0
VERTEX
  5
37b
  8
Layer_0
  10
173.13713
  20
299.49797
  0
VERTEX
  5
37c
  8
Layer_0
  10
173.26444
  20
299.53186
  0
VERTEX
  5
37d
  8
Layer_0
  10
173.30341
  20
299.54495
  0
VERTEX
  5
37e
  8
Layer_0
  10
173.27627
  20
299.54424
  0
VERTEX
  5
37f
  8
Layer_0
  10
173.20964
  20
299.53766
  0
VERTEX
  5
380
  8
Layer_0
  10
173.10556
  20
299.5255
  0
VERTEX
  5
381
  8
Layer_0
  10
172.96611
  20
299.50804
  0
VERTEX
  5
382
  8
Layer_0
  10
172.79334
  20
299.48557
  0
VERTEX
  5
383
  8
Layer_0
  10
172.58931
  20
299.45838
  0
VERTEX
  5
384
  8
Layer_0
  10
172.35609
  20
299.42674
  0
VERTEX
  5
385
  8
Layer_0
  10
172.09573
  20
299.39094
  0
VERTEX
  5
386
  8
Layer_0
  10
171.50186
  20
299.30801
  0
VERTEX
  5
387
  8
Layer_0
  10
170.82419
  20
299.21187
  0
VERTEX
  5
388
  8
Layer_0
  10
170.0792
  20
299.1048
  0
VERTEX
  5
389
  8
Layer_0
  10
169.28338
  20
298.98907
  42
-0.00017994021
  0
VERTEX
  5
38a
  8
Layer_0
  10
161.70607
  20
297.88367
  42
5.5326205e-05
  0
VERTEX
  5
38b
  8
Layer_0
  10
156.71953
  20
297.15784
  0
VERTEX
  5
38c
  8
Layer_0
  10
156.33535
  20
297.10287
  0
VERTEX
  5
38d
  8
Layer_0
  10
156.02538
  20
297.06124
  0
VERTEX
  5
38e
  8
Layer_0
  10
155.7813
  20
297.03237
  0
VERTEX
  5
38f
  8
Layer_0
  10
155.59475
  20
297.0157
  0
VERTEX
  5
390
  8
Layer_0
  10
155.4574
  20
297.01068
  0
VERTEX
  5
391
  8
Layer_0
  10
155.3609
  20
297.01674
  0
VERTEX
  5
392
  8
Layer_0
  10
155.29691
  20
297.03333
  0
VERTEX
  5
393
  8
Layer_0
  10
155.25709
  20
297.05988
  0
VERTEX
  5
394
  8
Layer_0
  10
155.20943
  20
297.1546
  0
VERTEX
  5
395
  8
Layer_0
  10
155.16525
  20
297.33151
  0
VERTEX
  5
396
  8
Layer_0
  10
155.12482
  20
297.58177
  0
VERTEX
  5
397
  8
Layer_0
  10
155.08841
  20
297.89652
  0
VERTEX
  5
398
  8
Layer_0
  10
155.05629
  20
298.26692
  0
VERTEX
  5
399
  8
Layer_0
  10
155.02873
  20
298.68413
  0
VERTEX
  5
39a
  8
Layer_0
  10
155.00599
  20
299.13929
  0
VERTEX
  5
39b
  8
Layer_0
  10
154.98834
  20
299.62356
  0
VERTEX
  5
39c
  8
Layer_0
  10
154.96939
  20
300.64404
  0
VERTEX
  5
39d
  8
Layer_0
  10
154.97402
  20
301.6748
  0
VERTEX
  5
39e
  8
Layer_0
  10
154.98584
  20
302.17191
  0
VERTEX
  5
39f
  8
Layer_0
  10
155.00437
  20
302.64505
  0
VERTEX
  5
3a0
  8
Layer_0
  10
155.02986
  20
303.08537
  0
VERTEX
  5
3a1
  8
Layer_0
  10
155.06258
  20
303.48403
  0
VERTEX
  5
3a2
  8
Layer_0
  10
155.25944
  20
304.97486
  0
VERTEX
  5
3a3
  8
Layer_0
  10
155.53428
  20
306.4393
  0
VERTEX
  5
3a4
  8
Layer_0
  10
155.60771
  20
306.76676
  0
VERTEX
  5
3a5
  8
Layer_0
  10
155.68103
  20
307.06954
  0
VERTEX
  5
3a6
  8
Layer_0
  10
155.75326
  20
307.34304
  0
VERTEX
  5
3a7
  8
Layer_0
  10
155.82338
  20
307.58266
  0
VERTEX
  5
3a8
  8
Layer_0
  10
155.89042
  20
307.78379
  0
VERTEX
  5
3a9
  8
Layer_0
  10
155.95336
  20
307.94183
  0
VERTEX
  5
3aa
  8
Layer_0
  10
156.01123
  20
308.05218
  0
VERTEX
  5
3ab
  8
Layer_0
  10
156.06301
  20
308.11023
  0
VERTEX
  5
3ac
  8
Layer_0
  10
156.10777
  20
308.11042
  0
VERTEX
  5
3ad
  8
Layer_0
  10
156.21277
  20
308.09165
  0
VERTEX
  5
3ae
  8
Layer_0
  10
156.37961
  20
308.05347
  0
VERTEX
  5
3af
  8
Layer_0
  10
156.60987
  20
307.99542
  0
VERTEX
  5
3b0
  8
Layer_0
  10
156.90515
  20
307.91705
  0
VERTEX
  5
3b1
  8
Layer_0
  10
157.26704
  20
307.8179
  0
VERTEX
  5
3b2
  8
Layer_0
  10
157.69714
  20
307.69751
  0
VERTEX
  5
3b3
  8
Layer_0
  10
158.19705
  20
307.55543
  0
VERTEX
  5
3b4
  8
Layer_0
  10
158.76835
  20
307.39121
  0
VERTEX
  5
3b5
  8
Layer_0
  10
159.41263
  20
307.20438
  0
VERTEX
  5
3b6
  8
Layer_0
  10
160.1315
  20
306.99449
  0
VERTEX
  5
3b7
  8
Layer_0
  10
160.92655
  20
306.76109
  0
VERTEX
  5
3b8
  8
Layer_0
  10
161.79937
  20
306.50372
  0
VERTEX
  5
3b9
  8
Layer_0
  10
162.75155
  20
306.22192
  0
VERTEX
  5
3ba
  8
Layer_0
  10
163.78469
  20
305.91525
  0
VERTEX
  5
3bb
  8
Layer_0
  10
164.90039
  20
305.58323
  0
VERTEX
  5
3bc
  8
Layer_0
  10
165.7891
  20
305.31863
  0
VERTEX
  5
3bd
  8
Layer_0
  10
166.65313
  20
305.06168
  0
VERTEX
  5
3be
  8
Layer_0
  10
167.488
  20
304.81371
  0
VERTEX
  5
3bf
  8
Layer_0
  10
168.28921
  20
304.57603
  0
VERTEX
  5
3c0
  8
Layer_0
  10
169.05228
  20
304.34997
  0
VERTEX
  5
3c1
  8
Layer_0
  10
169.77274
  20
304.13686
  0
VERTEX
  5
3c2
  8
Layer_0
  10
170.44609
  20
303.938
  0
VERTEX
  5
3c3
  8
Layer_0
  10
171.06786
  20
303.75472
  0
VERTEX
  5
3c4
  8
Layer_0
  10
171.63355
  20
303.58833
  0
VERTEX
  5
3c5
  8
Layer_0
  10
172.13868
  20
303.44017
  0
VERTEX
  5
3c6
  8
Layer_0
  10
172.57878
  20
303.31155
  0
VERTEX
  5
3c7
  8
Layer_0
  10
172.94934
  20
303.20379
  0
VERTEX
  5
3c8
  8
Layer_0
  10
173.2459
  20
303.11821
  0
VERTEX
  5
3c9
  8
Layer_0
  10
173.46397
  20
303.05613
  0
VERTEX
  5
3ca
  8
Layer_0
  10
173.59906
  20
303.01888
  0
VERTEX
  5
3cb
  8
Layer_0
  10
173.64668
  20
303.00776
  0
VERTEX
  5
3cc
  8
Layer_0
  10
173.60535
  20
303.02748
  0
VERTEX
  5
3cd
  8
Layer_0
  10
173.47942
  20
303.08069
  0
VERTEX
  5
3ce
  8
Layer_0
  10
173.27321
  20
303.16567
  0
VERTEX
  5
3cf
  8
Layer_0
  10
172.99101
  20
303.28068
  0
VERTEX
  5
3d0
  8
Layer_0
  10
172.63714
  20
303.42401
  0
VERTEX
  5
3d1
  8
Layer_0
  10
172.21591
  20
303.59392
  0
VERTEX
  5
3d2
  8
Layer_0
  10
171.73162
  20
303.7887
  0
VERTEX
  5
3d3
  8
Layer_0
  10
171.18857
  20
304.0066
  0
VERTEX
  5
3d4
  8
Layer_0
  10
170.59108
  20
304.24591
  0
VERTEX
  5
3d5
  8
Layer_0
  10
169.94345
  20
304.5049
  0
VERTEX
  5
3d6
  8
Layer_0
  10
169.24999
  20
304.78184
  0
VERTEX
  5
3d7
  8
Layer_0
  10
168.51501
  20
305.07501
  0
VERTEX
  5
3d8
  8
Layer_0
  10
167.74281
  20
305.38268
  0
VERTEX
  5
3d9
  8
Layer_0
  10
166.93769
  20
305.70312
  0
VERTEX
  5
3da
  8
Layer_0
  10
166.10398
  20
306.03461
  0
VERTEX
  5
3db
  8
Layer_0
  10
165.24597
  20
306.37542
  0
VERTEX
  5
3dc
  8
Layer_0
  10
164.38738
  20
306.71665
  0
VERTEX
  5
3dd
  8
Layer_0
  10
163.55199
  20
307.04937
  0
VERTEX
  5
3de
  8
Layer_0
  10
162.74415
  20
307.37183
  0
VERTEX
  5
3df
  8
Layer_0
  10
161.96823
  20
307.68224
  0
VERTEX
  5
3e0
  8
Layer_0
  10
161.22859
  20
307.97885
  0
VERTEX
  5
3e1
  8
Layer_0
  10
160.52959
  20
308.25988
  0
VERTEX
  5
3e2
  8
Layer_0
  10
159.87561
  20
308.52357
  0
VERTEX
  5
3e3
  8
Layer_0
  10
159.27099
  20
308.76814
  0
VERTEX
  5
3e4
  8
Layer_0
  10
158.72011
  20
308.99183
  0
VERTEX
  5
3e5
  8
Layer_0
  10
158.22732
  20
309.19288
  0
VERTEX
  5
3e6
  8
Layer_0
  10
157.797
  20
309.3695
  0
VERTEX
  5
3e7
  8
Layer_0
  10
157.4335
  20
309.51994
  0
VERTEX
  5
3e8
  8
Layer_0
  10
157.1412
  20
309.64243
  0
VERTEX
  5
3e9
  8
Layer_0
  10
156.92444
  20
309.73519
  0
VERTEX
  5
3ea
  8
Layer_0
  10
156.7876
  20
309.79646
  0
VERTEX
  5
3eb
  8
Layer_0
  10
156.73504
  20
309.82447
  0
VERTEX
  5
3ec
  8
Layer_0
  10
156.70817
  20
309.88302
  0
VERTEX
  5
3ed
  8
Layer_0
  10
156.70678
  20
309.97295
  0
VERTEX
  5
3ee
  8
Layer_0
  10
156.73461
  20
310.10427
  0
VERTEX
  5
3ef
  8
Layer_0
  10
156.79535
  20
310.28703
  0
VERTEX
  5
3f0
  8
Layer_0
  10
156.89271
  20
310.53124
  0
VERTEX
  5
3f1
  8
Layer_0
  10
157.03042
  20
310.84692
  0
VERTEX
  5
3f2
  8
Layer_0
  10
157.11557
  20
311.0347
  0
VERTEX
  5
3f3
  8
Layer_0
  10
157.21219
  20
311.24411
  0
VERTEX
  5
3f4
  8
Layer_0
  10
157.32075
  20
311.4764
  0
VERTEX
  5
3f5
  8
Layer_0
  10
157.44172
  20
311.73283
  0
VERTEX
  5
3f6
  8
Layer_0
  10
157.86319
  20
312.57542
  0
VERTEX
  5
3f7
  8
Layer_0
  10
158.32623
  20
313.39756
  0
VERTEX
  5
3f8
  8
Layer_0
  10
158.58749
  20
313.82472
  0
VERTEX
  5
3f9
  8
Layer_0
  10
158.87613
  20
314.27527
  0
VERTEX
  5
3fa
  8
Layer_0
  10
159.19781
  20
314.75873
  0
VERTEX
  5
3fb
  8
Layer_0
  10
159.55819
  20
315.28458
  0
VERTEX
  5
3fc
  8
Layer_0
  10
159.88963
  20
315.7545
  0
VERTEX
  5
3fd
  8
Layer_0
  10
160.20719
  20
316.18754
  0
VERTEX
  5
3fe
  8
Layer_0
  10
160.51669
  20
316.59074
  0
VERTEX
  5
3ff
  8
Layer_0
  10
160.82397
  20
316.97113
  0
VERTEX
  5
400
  8
Layer_0
  10
161.4552
  20
317.6916
  0
VERTEX
  5
401
  8
Layer_0
  10
162.14755
  20
318.40518
  0
VERTEX
  5
402
  8
Layer_0
  10
162.32657
  20
318.57963
  0
VERTEX
  5
403
  8
Layer_0
  10
162.4789
  20
318.72285
  0
VERTEX
  5
404
  8
Layer_0
  10
162.60707
  20
318.83678
  0
VERTEX
  5
405
  8
Layer_0
  10
162.7136
  20
318.92332
  0
VERTEX
  5
406
  8
Layer_0
  10
162.80104
  20
318.98442
  0
VERTEX
  5
407
  8
Layer_0
  10
162.87189
  20
319.02199
  0
VERTEX
  5
408
  8
Layer_0
  10
162.9287
  20
319.03796
  0
VERTEX
  5
409
  8
Layer_0
  10
162.97399
  20
319.03426
  0
VERTEX
  5
40a
  8
Layer_0
  10
163.01693
  20
319.01547
  0
VERTEX
  5
40b
  8
Layer_0
  10
163.07428
  20
318.97834
  0
VERTEX
  5
40c
  8
Layer_0
  10
163.15363
  20
318.91499
  0
VERTEX
  5
40d
  8
Layer_0
  10
163.26257
  20
318.81758
  0
VERTEX
  5
40e
  8
Layer_0
  10
163.40868
  20
318.67824
  0
VERTEX
  5
40f
  8
Layer_0
  10
163.59955
  20
318.48912
  0
VERTEX
  5
410
  8
Layer_0
  10
163.84277
  20
318.24236
  0
VERTEX
  5
411
  8
Layer_0
  10
164.14592
  20
317.93009
  0
VERTEX
  5
412
  8
Layer_0
  10
164.32235
  20
317.74694
  0
VERTEX
  5
413
  8
Layer_0
  10
164.5166
  20
317.54447
  0
VERTEX
  5
414
  8
Layer_0
  10
164.72963
  20
317.32169
  0
VERTEX
  5
415
  8
Layer_0
  10
164.96239
  20
317.07762
  0
VERTEX
  5
416
  8
Layer_0
  10
165.21582
  20
316.81129
  0
VERTEX
  5
417
  8
Layer_0
  10
165.49087
  20
316.5217
  0
VERTEX
  5
418
  8
Layer_0
  10
165.7885
  20
316.20788
  0
VERTEX
  5
419
  8
Layer_0
  10
166.10964
  20
315.86885
  0
VERTEX
  5
41a
  8
Layer_0
  10
166.45526
  20
315.50362
  0
VERTEX
  5
41b
  8
Layer_0
  10
166.82629
  20
315.1112
  0
VERTEX
  5
41c
  8
Layer_0
  10
167.22368
  20
314.69063
  0
VERTEX
  5
41d
  8
Layer_0
  10
167.64839
  20
314.24091
  0
VERTEX
  5
41e
  8
Layer_0
  10
168.10136
  20
313.76106
  0
VERTEX
  5
41f
  8
Layer_0
  10
168.58354
  20
313.2501
  0
VERTEX
  5
420
  8
Layer_0
  10
169.09588
  20
312.70705
  0
VERTEX
  5
421
  8
Layer_0
  10
169.63933
  20
312.13093
  0
VERTEX
  5
422
  8
Layer_0
  10
170.72247
  20
310.98302
  0
VERTEX
  5
423
  8
Layer_0
  10
171.74793
  20
309.89709
  0
VERTEX
  5
424
  8
Layer_0
  10
172.23169
  20
309.38514
  0
VERTEX
  5
425
  8
Layer_0
  10
172.6922
  20
308.89799
  0
VERTEX
  5
426
  8
Layer_0
  10
173.12654
  20
308.43876
  0
VERTEX
  5
427
  8
Layer_0
  10
173.53176
  20
308.01055
  0
VERTEX
  5
428
  8
Layer_0
  10
173.90493
  20
307.61647
  0
VERTEX
  5
429
  8
Layer_0
  10
174.2431
  20
307.25962
  0
VERTEX
  5
42a
  8
Layer_0
  10
174.54334
  20
306.94311
  0
VERTEX
  5
42b
  8
Layer_0
  10
174.8027
  20
306.67004
  0
VERTEX
  5
42c
  8
Layer_0
  10
175.01825
  20
306.44352
  0
VERTEX
  5
42d
  8
Layer_0
  10
175.18704
  20
306.26665
  0
VERTEX
  5
42e
  8
Layer_0
  10
175.30614
  20
306.14254
  0
VERTEX
  5
42f
  8
Layer_0
  10
175.37261
  20
306.07429
  0
VERTEX
  5
430
  8
Layer_0
  10
175.38172
  20
306.07283
  0
VERTEX
  5
431
  8
Layer_0
  10
175.33251
  20
306.14471
  0
VERTEX
  5
432
  8
Layer_0
  10
175.22772
  20
306.28642
  0
VERTEX
  5
433
  8
Layer_0
  10
175.07007
  20
306.49446
  0
VERTEX
  5
434
  8
Layer_0
  10
174.86229
  20
306.76535
  0
VERTEX
  5
435
  8
Layer_0
  10
174.60711
  20
307.09558
  0
VERTEX
  5
436
  8
Layer_0
  10
174.30727
  20
307.48165
  0
VERTEX
  5
437
  8
Layer_0
  10
173.96549
  20
307.92009
  0
VERTEX
  5
438
  8
Layer_0
  10
173.5845
  20
308.40738
  0
VERTEX
  5
439
  8
Layer_0
  10
173.16703
  20
308.94003
  0
VERTEX
  5
43a
  8
Layer_0
  10
172.71581
  20
309.51454
  0
VERTEX
  5
43b
  8
Layer_0
  10
172.23356
  20
310.12743
  0
VERTEX
  5
43c
  8
Layer_0
  10
171.72303
  20
310.77519
  0
VERTEX
  5
43d
  8
Layer_0
  10
171.18693
  20
311.45433
  0
VERTEX
  5
43e
  8
Layer_0
  10
170.628
  20
312.16136
  0
VERTEX
  5
43f
  8
Layer_0
  10
170.04897
  20
312.89277
  0
VERTEX
  5
440
  8
Layer_0
  10
169.46794
  20
313.62693
  0
VERTEX
  5
441
  8
Layer_0
  10
168.90317
  20
314.34204
  0
VERTEX
  5
442
  8
Layer_0
  10
168.35757
  20
315.03431
  0
VERTEX
  5
443
  8
Layer_0
  10
167.83407
  20
315.7
  0
VERTEX
  5
444
  8
Layer_0
  10
167.3356
  20
316.33531
  0
VERTEX
  5
445
  8
Layer_0
  10
166.86508
  20
316.9365
  0
VERTEX
  5
446
  8
Layer_0
  10
166.42545
  20
317.49979
  0
VERTEX
  5
447
  8
Layer_0
  10
166.01962
  20
318.02141
  0
VERTEX
  5
448
  8
Layer_0
  10
165.65052
  20
318.4976
  0
VERTEX
  5
449
  8
Layer_0
  10
165.32109
  20
318.92458
  0
VERTEX
  5
44a
  8
Layer_0
  10
165.03424
  20
319.29859
  0
VERTEX
  5
44b
  8
Layer_0
  10
164.7929
  20
319.61586
  0
VERTEX
  5
44c
  8
Layer_0
  10
164.60001
  20
319.87262
  0
VERTEX
  5
44d
  8
Layer_0
  10
164.45847
  20
320.06511
  0
VERTEX
  5
44e
  8
Layer_0
  10
164.37123
  20
320.18956
  0
VERTEX
  5
44f
  8
Layer_0
  10
164.34121
  20
320.24219
  0
VERTEX
  5
450
  8
Layer_0
  10
164.3656
  20
320.3066
  0
VERTEX
  5
451
  8
Layer_0
  10
164.43864
  20
320.39899
  0
VERTEX
  5
452
  8
Layer_0
  10
164.55594
  20
320.51629
  0
VERTEX
  5
453
  8
Layer_0
  10
164.71313
  20
320.65539
  0
VERTEX
  5
454
  8
Layer_0
  10
164.9058
  20
320.81322
  0
VERTEX
  5
455
  8
Layer_0
  10
165.12959
  20
320.98667
  0
VERTEX
  5
456
  8
Layer_0
  10
165.3801
  20
321.17266
  0
VERTEX
  5
457
  8
Layer_0
  10
165.65295
  20
321.3681
  0
VERTEX
  5
458
  8
Layer_0
  10
166.88003
  20
322.18252
  0
VERTEX
  5
459
  8
Layer_0
  10
168.11372
  20
322.90085
  0
VERTEX
  5
45a
  8
Layer_0
  10
168.50636
  20
323.10056
  0
VERTEX
  5
45b
  8
Layer_0
  10
168.93512
  20
323.30462
  0
VERTEX
  5
45c
  8
Layer_0
  10
169.3922
  20
323.5103
  0
VERTEX
  5
45d
  8
Layer_0
  10
169.86977
  20
323.71488
  0
VERTEX
  5
45e
  8
Layer_0
  10
170.85517
  20
324.10974
  0
VERTEX
  5
45f
  8
Layer_0
  10
171.82882
  20
324.46733
  0
VERTEX
  5
460
  8
Layer_0
  10
172.2917
  20
324.6253
  0
VERTEX
  5
461
  8
Layer_0
  10
172.72821
  20
324.76574
  0
VERTEX
  5
462
  8
Layer_0
  10
173.13053
  20
324.88592
  0
VERTEX
  5
463
  8
Layer_0
  10
173.49084
  20
324.98309
  0
VERTEX
  5
464
  8
Layer_0
  10
173.80135
  20
325.05453
  0
VERTEX
  5
465
  8
Layer_0
  10
174.05423
  20
325.09749
  0
VERTEX
  5
466
  8
Layer_0
  10
174.24167
  20
325.10925
  0
VERTEX
  5
467
  8
Layer_0
  10
174.35586
  20
325.08706
  0
VERTEX
  5
468
  8
Layer_0
  10
174.43301
  20
325.00871
  0
VERTEX
  5
469
  8
Layer_0
  10
174.50992
  20
324.84872
  0
VERTEX
  5
46a
  8
Layer_0
  10
174.54999
  20
324.73366
  0
VERTEX
  5
46b
  8
Layer_0
  10
174.59204
  20
324.59284
  0
VERTEX
  5
46c
  8
Layer_0
  10
174.63676
  20
324.42449
  0
VERTEX
  5
46d
  8
Layer_0
  10
174.68483
  20
324.22681
  0
VERTEX
  5
46e
  8
Layer_0
  10
174.78488
  20
323.80108
  0
VERTEX
  5
46f
  8
Layer_0
  10
174.89562
  20
323.33097
  0
VERTEX
  5
470
  8
Layer_0
  10
175.01614
  20
322.8203
  0
VERTEX
  5
471
  8
Layer_0
  10
175.14554
  20
322.27286
  0
VERTEX
  5
472
  8
Layer_0
  10
175.2829
  20
321.69245
  0
VERTEX
  5
473
  8
Layer_0
  10
175.42732
  20
321.08286
  0
VERTEX
  5
474
  8
Layer_0
  10
175.5779
  20
320.4479
  0
VERTEX
  5
475
  8
Layer_0
  10
175.73373
  20
319.79136
  0
VERTEX
  5
476
  8
Layer_0
  10
176.39139
  20
317.02541
  0
VERTEX
  5
477
  8
Layer_0
  10
177.0605
  20
314.21814
  0
VERTEX
  5
478
  8
Layer_0
  10
177.38122
  20
312.87498
  0
VERTEX
  5
479
  8
Layer_0
  10
177.68306
  20
311.61265
  0
VERTEX
  5
47a
  8
Layer_0
  10
177.82462
  20
311.02129
  0
VERTEX
  5
47b
  8
Layer_0
  10
177.95874
  20
310.46154
  0
VERTEX
  5
47c
  8
Layer_0
  10
178.08452
  20
309.9372
  0
VERTEX
  5
47d
  8
Layer_0
  10
178.20104
  20
309.45205
  0
VERTEX
  5
47e
  8
Layer_0
  10
178.30739
  20
309.00991
  0
VERTEX
  5
47f
  8
Layer_0
  10
178.40268
  20
308.61456
  0
VERTEX
  5
480
  8
Layer_0
  10
178.486
  20
308.26981
  0
VERTEX
  5
481
  8
Layer_0
  10
178.55643
  20
307.97946
  0
VERTEX
  5
482
  8
Layer_0
  10
178.61307
  20
307.7473
  0
VERTEX
  5
483
  8
Layer_0
  10
178.65502
  20
307.57714
  0
VERTEX
  5
484
  8
Layer_0
  10
178.68137
  20
307.47277
  0
VERTEX
  5
485
  8
Layer_0
  10
178.69121
  20
307.43799
  0
VERTEX
  5
486
  8
Layer_0
  10
178.68632
  20
307.48482
  0
VERTEX
  5
487
  8
Layer_0
  10
178.66841
  20
307.6187
  0
VERTEX
  5
488
  8
Layer_0
  10
178.63814
  20
307.83517
  0
VERTEX
  5
489
  8
Layer_0
  10
178.59617
  20
308.12976
  0
VERTEX
  5
48a
  8
Layer_0
  10
178.54314
  20
308.49802
  0
VERTEX
  5
48b
  8
Layer_0
  10
178.47971
  20
308.93549
  0
VERTEX
  5
48c
  8
Layer_0
  10
178.40653
  20
309.43771
  0
VERTEX
  5
48d
  8
Layer_0
  10
178.32426
  20
310.00021
  0
VERTEX
  5
48e
  8
Layer_0
  10
178.23355
  20
310.61855
  0
VERTEX
  5
48f
  8
Layer_0
  10
178.13504
  20
311.28827
  0
VERTEX
  5
490
  8
Layer_0
  10
178.02941
  20
312.00489
  0
VERTEX
  5
491
  8
Layer_0
  10
177.91729
  20
312.76397
  0
VERTEX
  5
492
  8
Layer_0
  10
177.79935
  20
313.56104
  0
VERTEX
  5
493
  8
Layer_0
  10
177.67623
  20
314.39165
  0
VERTEX
  5
494
  8
Layer_0
  10
177.54859
  20
315.25133
  0
VERTEX
  5
495
  8
Layer_0
  10
177.41708
  20
316.13563
  0
VERTEX
  5
496
  8
Layer_0
  10
177.28524
  20
317.02145
  0
VERTEX
  5
497
  8
Layer_0
  10
177.15666
  20
317.88562
  0
VERTEX
  5
498
  8
Layer_0
  10
177.03201
  20
318.72351
  0
VERTEX
  5
499
  8
Layer_0
  10
176.91197
  20
319.53051
  0
VERTEX
  5
49a
  8
Layer_0
  10
176.79724
  20
320.30203
  0
VERTEX
  5
49b
  8
Layer_0
  10
176.68849
  20
321.03344
  0
VERTEX
  5
49c
  8
Layer_0
  10
176.58641
  20
321.72013
  0
VERTEX
  5
49d
  8
Layer_0
  10
176.49169
  20
322.35751
  0
VERTEX
  5
49e
  8
Layer_0
  10
176.40501
  20
322.94095
  0
VERTEX
  5
49f
  8
Layer_0
  10
176.32706
  20
323.46584
  0
VERTEX
  5
4a0
  8
Layer_0
  10
176.25852
  20
323.92758
  0
VERTEX
  5
4a1
  8
Layer_0
  10
176.20007
  20
324.32156
  0
VERTEX
  5
4a2
  8
Layer_0
  10
176.15241
  20
324.64316
  0
VERTEX
  5
4a3
  8
Layer_0
  10
176.11622
  20
324.88778
  0
VERTEX
  5
4a4
  8
Layer_0
  10
176.09217
  20
325.0508
  0
VERTEX
  5
4a5
  8
Layer_0
  10
176.08096
  20
325.12762
  0
VERTEX
  5
4a6
  8
Layer_0
  10
176.06767
  20
325.26955
  0
VERTEX
  5
4a7
  8
Layer_0
  10
176.07221
  20
325.38215
  0
VERTEX
  5
4a8
  8
Layer_0
  10
176.09463
  20
325.46574
  0
VERTEX
  5
4a9
  8
Layer_0
  10
176.13498
  20
325.52064
  0
VERTEX
  5
4aa
  8
Layer_0
  10
176.20207
  20
325.54767
  0
VERTEX
  5
4ab
  8
Layer_0
  10
176.34053
  20
325.57694
  0
VERTEX
  5
4ac
  8
Layer_0
  10
176.5504
  20
325.60846
  0
VERTEX
  5
4ad
  8
Layer_0
  10
176.83177
  20
325.64223
  0
VERTEX
  5
4ae
  8
Layer_0
  10
177.1847
  20
325.67826
  0
VERTEX
  5
4af
  8
Layer_0
  10
177.60924
  20
325.71656
  0
VERTEX
  5
4b0
  8
Layer_0
  10
178.10548
  20
325.75714
  0
VERTEX
  5
4b1
  8
Layer_0
  10
178.67347
  20
325.79999
  0
VERTEX
  5
4b2
  8
Layer_0
  10
178.80696
  20
325.80677
  0
VERTEX
  5
4b3
  8
Layer_0
  10
178.98164
  20
325.811
  0
VERTEX
  5
4b4
  8
Layer_0
  10
179.19214
  20
325.81285
  0
VERTEX
  5
4b5
  8
Layer_0
  10
179.43309
  20
325.81245
  0
VERTEX
  5
4b6
  8
Layer_0
  10
179.98485
  20
325.80552
  0
VERTEX
  5
4b7
  8
Layer_0
  10
180.59395
  20
325.79142
  0
VERTEX
  5
4b8
  8
Layer_0
  10
181.21744
  20
325.77132
  0
VERTEX
  5
4b9
  8
Layer_0
  10
181.81236
  20
325.74643
  0
VERTEX
  5
4ba
  8
Layer_0
  10
182.08568
  20
325.73255
  0
VERTEX
  5
4bb
  8
Layer_0
  10
182.33574
  20
325.71793
  0
VERTEX
  5
4bc
  8
Layer_0
  10
182.55718
  20
325.7027
  0
VERTEX
  5
4bd
  8
Layer_0
  10
182.74462
  20
325.68702
  0
SEQEND
  0
ENDSEC
  0
EOF
