  0
SECTION
  2
HEADER
  9
$ACADVER
  1
AC1009
  0
ENDSEC
  0
SECTION
  2
ENTITIES
  0
POLYLINE
  5
90
  8
Layer_0
  62
1
  66
1
  10
0
  20
0
  30
0
  0
VERTEX
  5
90
  8
Layer_0
  10
175.01376
  20
339.09921
  42
0.085097799
  0
VERTEX
  5
91
  8
Layer_0
  10
174.62029
  20
338.98511
  42
0.12893709
  0
VERTEX
  5
92
  8
Layer_0
  10
174.11011
  20
338.51294
  42
0.020793161
  0
VERTEX
  5
93
  8
Layer_0
  10
174.05367
  20
338.42566
  42
-0.0025839895
  0
VERTEX
  5
94
  8
Layer_0
  10
174.02666
  20
338.37808
  42
0.051077513
  0
VERTEX
  5
95
  8
Layer_0
  10
173.83794
  20
337.96289
  42
-0.023874034
  0
VERTEX
  5
96
  8
Layer_0
  10
173.82552
  20
337.9285
  42
0.03636633
  0
VERTEX
  5
97
  8
Layer_0
  10
173.72891
  20
337.64032
  42
-0.0023492196
  0
VERTEX
  5
98
  8
Layer_0
  10
173.70105
  20
337.53976
  42
0.0087189122
  0
VERTEX
  5
99
  8
Layer_0
  10
173.67915
  20
337.45514
  42
-0.0053598163
  0
VERTEX
  5
9a
  8
Layer_0
  10
173.66052
  20
337.3811
  42
0.019060251
  0
VERTEX
  5
9b
  8
Layer_0
  10
173.62283
  20
337.20654
  42
0.012704507
  0
VERTEX
  5
9c
  8
Layer_0
  10
173.58034
  20
336.96063
  42
0.033557698
  0
VERTEX
  5
9d
  8
Layer_0
  10
173.53305
  20
336.34842
  0
VERTEX
  5
9e
  8
Layer_0
  10
173.53178
  20
336.27839
  0
VERTEX
  5
9f
  8
Layer_0
  10
173.52892
  20
336.2493
  42
-0.22639713
  0
VERTEX
  5
a0
  8
Layer_0
  10
173.51164
  20
336.26617
  42
0.033499781
  0
VERTEX
  5
a1
  8
Layer_0
  10
173.25906
  20
336.54022
  42
0.062996545
  0
VERTEX
  5
a2
  8
Layer_0
  10
172.77786
  20
336.89603
  42
0.025877297
  0
VERTEX
  5
a3
  8
Layer_0
  10
172.62366
  20
336.97263
  42
0.00015829513
  0
VERTEX
  5
a4
  8
Layer_0
  10
172.57315
  20
336.99475
  42
0.046169177
  0
VERTEX
  5
a5
  8
Layer_0
  10
172.30994
  20
337.08493
  42
-0.0042249881
  0
VERTEX
  5
a6
  8
Layer_0
  10
172.2036
  20
337.11111
  42
0.031146325
  0
VERTEX
  5
a7
  8
Layer_0
  10
171.96698
  20
337.14902
  42
0.065507848
  0
VERTEX
  5
a8
  8
Layer_0
  10
171.57567
  20
337.14886
  42
0.00022322718
  0
VERTEX
  5
a9
  8
Layer_0
  10
171.49374
  20
337.13721
  42
0.028685799
  0
VERTEX
  5
aa
  8
Layer_0
  10
171.25447
  20
337.08511
  42
0.034456986
  0
VERTEX
  5
ab
  8
Layer_0
  10
171.15875
  20
337.05328
  42
-0.0074686123
  0
VERTEX
  5
ac
  8
Layer_0
  10
171.1109
  20
337.03467
  42
0.067651431
  0
VERTEX
  5
ad
  8
Layer_0
  10
170.744
  20
336.83121
  42
0.10486598
  0
VERTEX
  5
ae
  8
Layer_0
  10
170.37935
  20
336.43646
  42
-0.00072120219
  0
VERTEX
  5
af
  8
Layer_0
  10
170.35243
  20
336.3894
  42
0.040658378
  0
VERTEX
  5
b0
  8
Layer_0
  10
170.28036
  20
336.2413
  42
-0.014803278
  0
VERTEX
  5
b1
  8
Layer_0
  10
170.26775
  20
336.20959
  42
0.046376132
  0
VERTEX
  5
b2
  8
Layer_0
  10
170.22054
  20
336.06149
  42
-0.0048779825
  0
VERTEX
  5
b3
  8
Layer_0
  10
170.2095
  20
336.01654
  42
0.024734941
  0
VERTEX
  5
b4
  8
Layer_0
  10
170.20189
  20
335.97952
  42
-0.0010885225
  0
VERTEX
  5
b5
  8
Layer_0
  10
170.19023
  20
335.90546
  42
0.080809197
  0
VERTEX
  5
b6
  8
Layer_0
  10
170.19066
  20
335.58282
  42
0.021376485
  0
VERTEX
  5
b7
  8
Layer_0
  10
170.22498
  20
335.41623
  42
0.038314994
  0
VERTEX
  5
b8
  8
Layer_0
  10
170.26802
  20
335.28931
  42
-0.00090213914
  0
VERTEX
  5
b9
  8
Layer_0
  10
170.28485
  20
335.24963
  0
VERTEX
  5
ba
  8
Layer_0
  10
170.405
  20
335.02547
  0
VERTEX
  5
bb
  8
Layer_0
  10
170.57412
  20
334.80154
  0
VERTEX
  5
bc
  8
Layer_0
  10
170.78776
  20
334.58298
  0
VERTEX
  5
bd
  8
Layer_0
  10
171.04146
  20
334.37494
  0
VERTEX
  5
be
  8
Layer_0
  10
171.16529
  20
334.28791
  0
VERTEX
  5
bf
  8
Layer_0
  10
171.25409
  20
334.22885
  42
-0.14360252
  0
VERTEX
  5
c0
  8
Layer_0
  10
171.30209
  20
334.19977
  42
0.14360177
  0
VERTEX
  5
c1
  8
Layer_0
  10
171.35023
  20
334.17068
  42
-0.14109864
  0
VERTEX
  5
c2
  8
Layer_0
  10
171.37456
  20
334.15717
  42
0.011864354
  0
VERTEX
  5
c3
  8
Layer_0
  10
171.41434
  20
334.13336
  42
-0.0012946195
  0
VERTEX
  5
c4
  8
Layer_0
  10
171.45253
  20
334.11169
  0
VERTEX
  5
c5
  8
Layer_0
  10
171.58263
  20
334.04548
  0
VERTEX
  5
c6
  8
Layer_0
  10
171.69541
  20
333.99085
  42
-0.10436526
  0
VERTEX
  5
c7
  8
Layer_0
  10
171.72112
  20
333.9809
  42
0.010113191
  0
VERTEX
  5
c8
  8
Layer_0
  10
171.84203
  20
333.93024
  42
-0.0016302333
  0
VERTEX
  5
c9
  8
Layer_0
  10
171.90317
  20
333.90607
  42
0.020603012
  0
VERTEX
  5
ca
  8
Layer_0
  10
172.13846
  20
333.82681
  0
VERTEX
  5
cb
  8
Layer_0
  10
172.17695
  20
333.81449
  0
VERTEX
  5
cc
  8
Layer_0
  10
172.19296
  20
333.8085
  0
VERTEX
  5
cd
  8
Layer_0
  10
172.18086
  20
333.79844
  0
VERTEX
  5
ce
  8
Layer_0
  10
172.15175
  20
333.77633
  42
0.056522713
  0
VERTEX
  5
cf
  8
Layer_0
  10
171.49083
  20
333.1651
  42
0.016142539
  0
VERTEX
  5
d0
  8
Layer_0
  10
171.36975
  20
333.01501
  42
-0.013456305
  0
VERTEX
  5
d1
  8
Layer_0
  10
171.32164
  20
332.95114
  42
0.026617836
  0
VERTEX
  5
d2
  8
Layer_0
  10
171.30164
  20
332.92255
  42
-0.0025912045
  0
VERTEX
  5
d3
  8
Layer_0
  10
171.2784
  20
332.88791
  42
0.044261597
  0
VERTEX
  5
d4
  8
Layer_0
  10
171.02441
  20
332.44116
  42
-0.00036882166
  0
VERTEX
  5
d5
  8
Layer_0
  10
171.00304
  20
332.39355
  42
0.05001641
  0
VERTEX
  5
d6
  8
Layer_0
  10
170.90059
  20
332.10797
  42
-0.0079435411
  0
VERTEX
  5
d7
  8
Layer_0
  10
170.88263
  20
332.03656
  42
0.11858076
  0
VERTEX
  5
d8
  8
Layer_0
  10
170.86305
  20
331.44574
  42
0.059939223
  0
VERTEX
  5
d9
  8
Layer_0
  10
170.92642
  20
331.26965
  0
VERTEX
  5
da
  8
Layer_0
  10
171.0267
  20
331.11149
  0
VERTEX
  5
db
  8
Layer_0
  10
171.16528
  20
330.96451
  0
VERTEX
  5
dc
  8
Layer_0
  10
171.3389
  20
330.83166
  0
VERTEX
  5
dd
  8
Layer_0
  10
171.54426
  20
330.71588
  42
0.038676771
  0
VERTEX
  5
de
  8
Layer_0
  10
171.86595
  20
330.59039
  42
0.031100823
  0
VERTEX
  5
df
  8
Layer_0
  10
172.04939
  20
330.54755
  42
0.074035822
  0
VERTEX
  5
e0
  8
Layer_0
  10
172.52528
  20
330.53235
  42
0.041498904
  0
VERTEX
  5
e1
  8
Layer_0
  10
172.76457
  20
330.57996
  42
0.023154789
  0
VERTEX
  5
e2
  8
Layer_0
  10
172.8763
  20
330.61667
  42
-0.0014103248
  0
VERTEX
  5
e3
  8
Layer_0
  10
172.90282
  20
330.62729
  42
0.021221301
  0
VERTEX
  5
e4
  8
Layer_0
  10
173.01714
  20
330.67859
  42
0.044728475
  0
VERTEX
  5
e5
  8
Layer_0
  10
173.30161
  20
330.85498
  42
0.065665102
  0
VERTEX
  5
e6
  8
Layer_0
  10
173.72023
  20
331.27856
  42
0.036885343
  0
VERTEX
  5
e7
  8
Layer_0
  10
173.99593
  20
331.69901
  42
0.014933101
  0
VERTEX
  5
e8
  8
Layer_0
  10
174.10339
  20
331.90433
  42
0.019410395
  0
VERTEX
  5
e9
  8
Layer_0
  10
174.18806
  20
332.08151
  42
0.17195501
  0
VERTEX
  5
ea
  8
Layer_0
  10
174.20071
  20
332.07092
  42
-0.073482423
  0
VERTEX
  5
eb
  8
Layer_0
  10
174.20811
  20
332.03229
  42
0.053397934
  0
VERTEX
  5
ec
  8
Layer_0
  10
174.21313
  20
331.99527
  42
-0.0077869456
  0
VERTEX
  5
ed
  8
Layer_0
  10
174.22661
  20
331.92813
  42
0.014687502
  0
VERTEX
  5
ee
  8
Layer_0
  10
174.23979
  20
331.86465
  42
-0.010249615
  0
VERTEX
  5
ef
  8
Layer_0
  10
174.25052
  20
331.81708
  42
0.024762477
  0
VERTEX
  5
f0
  8
Layer_0
  10
174.29852
  20
331.62665
  42
-0.0080192576
  0
VERTEX
  5
f1
  8
Layer_0
  10
174.30933
  20
331.58963
  42
0.056044591
  0
VERTEX
  5
f2
  8
Layer_0
  10
174.34679
  20
331.47733
  42
-0.12471285
  0
VERTEX
  5
f3
  8
Layer_0
  10
174.35176
  20
331.45856
  42
0.18155333
  0
VERTEX
  5
f4
  8
Layer_0
  10
174.35616
  20
331.44394
  42
-0.10655519
  0
VERTEX
  5
f5
  8
Layer_0
  10
174.36775
  20
331.4151
  42
0.079610503
  0
VERTEX
  5
f6
  8
Layer_0
  10
174.37866
  20
331.38602
  42
-0.07955776
  0
VERTEX
  5
f7
  8
Layer_0
  10
174.38637
  20
331.36749
  42
0.030913772
  0
VERTEX
  5
f8
  8
Layer_0
  10
174.40094
  20
331.33047
  42
-0.0051727847
  0
VERTEX
  5
f9
  8
Layer_0
  10
174.41814
  20
331.2908
  42
0.023863749
  0
VERTEX
  5
fa
  8
Layer_0
  10
174.52048
  20
331.08157
  42
0.055266341
  0
VERTEX
  5
fb
  8
Layer_0
  10
174.76299
  20
330.73016
  42
0.054400713
  0
VERTEX
  5
fc
  8
Layer_0
  10
175.03305
  20
330.47086
  42
-0.001863861
  0
VERTEX
  5
fd
  8
Layer_0
  10
175.08623
  20
330.43079
  42
0.01976638
  0
VERTEX
  5
fe
  8
Layer_0
  10
175.14935
  20
330.3858
  42
-0.020292448
  0
VERTEX
  5
ff
  8
Layer_0
  10
175.1786
  20
330.36649
  42
0.026228395
  0
VERTEX
  5
100
  8
Layer_0
  10
175.25342
  20
330.31921
  42
0.040210899
  0
VERTEX
  5
101
  8
Layer_0
  10
175.45245
  20
330.21805
  42
-0.0030822895
  0
VERTEX
  5
102
  8
Layer_0
  10
175.487
  20
330.20392
  42
0.014251465
  0
VERTEX
  5
103
  8
Layer_0
  10
175.53752
  20
330.18539
  42
0.15731763
  0
VERTEX
  5
104
  8
Layer_0
  10
176.37498
  20
330.15698
  42
0.034455093
  0
VERTEX
  5
105
  8
Layer_0
  10
176.56212
  20
330.22281
  42
0.045863204
  0
VERTEX
  5
106
  8
Layer_0
  10
176.82961
  20
330.37158
  42
0.069709102
  0
VERTEX
  5
107
  8
Layer_0
  10
177.04735
  20
330.57678
  0
VERTEX
  5
108
  8
Layer_0
  10
177.10457
  20
330.65235
  0
VERTEX
  5
109
  8
Layer_0
  10
177.13801
  20
330.703
  42
-0.14205859
  0
VERTEX
  5
10a
  8
Layer_0
  10
177.15565
  20
330.73404
  42
0.09198305
  0
VERTEX
  5
10b
  8
Layer_0
  10
177.29706
  20
331.11099
  42
0.02208907
  0
VERTEX
  5
10c
  8
Layer_0
  10
177.3214
  20
331.26883
  42
0.13006621
  0
VERTEX
  5
10d
  8
Layer_0
  10
177.17805
  20
332.17935
  42
-0.00013026856
  0
VERTEX
  5
10e
  8
Layer_0
  10
177.14835
  20
332.24811
  42
0.039325995
  0
VERTEX
  5
10f
  8
Layer_0
  10
177.04416
  20
332.45297
  42
-0.14214635
  0
VERTEX
  5
110
  8
Layer_0
  10
177.03166
  20
332.4754
  0
VERTEX
  5
111
  8
Layer_0
  10
176.93432
  20
332.62373
  0
VERTEX
  5
112
  8
Layer_0
  10
176.81368
  20
332.78495
  42
-0.024408442
  0
VERTEX
  5
113
  8
Layer_0
  10
176.78458
  20
332.81934
  42
0.017667311
  0
VERTEX
  5
114
  8
Layer_0
  10
176.72607
  20
332.88446
  42
-0.10567
  0
VERTEX
  5
115
  8
Layer_0
  10
176.69226
  20
332.92273
  0
VERTEX
  5
116
  8
Layer_0
  10
176.6022
  20
333.00963
  0
VERTEX
  5
117
  8
Layer_0
  10
176.48016
  20
333.11721
  42
-0.22931446
  0
VERTEX
  5
118
  8
Layer_0
  10
176.43613
  20
333.15707
  0
VERTEX
  5
119
  8
Layer_0
  10
176.46131
  20
333.15996
  0
VERTEX
  5
11a
  8
Layer_0
  10
176.53051
  20
333.15903
  42
0.035471893
  0
VERTEX
  5
11b
  8
Layer_0
  10
177.08218
  20
333.18124
  42
0.029272918
  0
VERTEX
  5
11c
  8
Layer_0
  10
177.52351
  20
333.25336
  42
-0.001568475
  0
VERTEX
  5
11d
  8
Layer_0
  10
177.58466
  20
333.26724
  42
0.0037843736
  0
VERTEX
  5
11e
  8
Layer_0
  10
177.62852
  20
333.27734
  42
-6.961203e-05
  0
VERTEX
  5
11f
  8
Layer_0
  10
177.66841
  20
333.2869
  42
0.023010363
  0
VERTEX
  5
120
  8
Layer_0
  10
177.78671
  20
333.3187
  42
-0.01400756
  0
VERTEX
  5
121
  8
Layer_0
  10
177.82393
  20
333.32983
  42
0.052975148
  0
VERTEX
  5
122
  8
Layer_0
  10
177.97408
  20
333.37778
  42
-0.12113638
  0
VERTEX
  5
123
  8
Layer_0
  10
177.9937
  20
333.3826
  42
0.25927741
  0
VERTEX
  5
124
  8
Layer_0
  10
178.00739
  20
333.38791
  42
-0.25927738
  0
VERTEX
  5
125
  8
Layer_0
  10
178.02008
  20
333.39319
  42
0.11736727
  0
VERTEX
  5
126
  8
Layer_0
  10
178.05566
  20
333.4064
  42
-0.11687153
  0
VERTEX
  5
127
  8
Layer_0
  10
178.09273
  20
333.41962
  42
0.17488777
  0
VERTEX
  5
128
  8
Layer_0
  10
178.10867
  20
333.42383
  42
-0.097513724
  0
VERTEX
  5
129
  8
Layer_0
  10
178.13499
  20
333.43478
  42
0.021396386
  0
VERTEX
  5
12a
  8
Layer_0
  10
178.16823
  20
333.44644
  42
0.001557874
  0
VERTEX
  5
12b
  8
Layer_0
  10
178.244
  20
333.47809
  42
0.064004109
  0
VERTEX
  5
12c
  8
Layer_0
  10
178.7518
  20
333.76022
  42
0.060498489
  0
VERTEX
  5
12d
  8
Layer_0
  10
178.95378
  20
333.95383
  42
0.098051131
  0
VERTEX
  5
12e
  8
Layer_0
  10
179.13707
  20
334.28702
  42
0.071303022
  0
VERTEX
  5
12f
  8
Layer_0
  10
179.18114
  20
334.58585
  42
0.12181612
  0
VERTEX
  5
130
  8
Layer_0
  10
179.03786
  20
335.14902
  0
VERTEX
  5
131
  8
Layer_0
  10
178.93928
  20
335.30771
  0
VERTEX
  5
132
  8
Layer_0
  10
178.81947
  20
335.45026
  0
VERTEX
  5
133
  8
Layer_0
  10
178.67894
  20
335.57638
  0
VERTEX
  5
134
  8
Layer_0
  10
178.5182
  20
335.68577
  0
VERTEX
  5
135
  8
Layer_0
  10
178.33773
  20
335.77813
  0
VERTEX
  5
136
  8
Layer_0
  10
178.13805
  20
335.85316
  0
VERTEX
  5
137
  8
Layer_0
  10
177.91965
  20
335.91058
  0
VERTEX
  5
138
  8
Layer_0
  10
177.68303
  20
335.95007
  42
0.031019737
  0
VERTEX
  5
139
  8
Layer_0
  10
177.3188
  20
335.97003
  42
0.03663886
  0
VERTEX
  5
13a
  8
Layer_0
  10
176.92265
  20
335.94751
  42
-0.0009263031
  0
VERTEX
  5
13b
  8
Layer_0
  10
176.84822
  20
335.93661
  42
0.027394898
  0
VERTEX
  5
13c
  8
Layer_0
  10
176.55312
  20
335.87912
  42
-0.0031373485
  0
VERTEX
  5
13d
  8
Layer_0
  10
176.47867
  20
335.8606
  42
0.020903639
  0
VERTEX
  5
13e
  8
Layer_0
  10
176.40955
  20
335.84244
  42
-0.0081662852
  0
VERTEX
  5
13f
  8
Layer_0
  10
176.35637
  20
335.82602
  42
0.032660796
  0
VERTEX
  5
140
  8
Layer_0
  10
176.1942
  20
335.77325
  42
-0.02752621
  0
VERTEX
  5
141
  8
Layer_0
  10
176.15964
  20
335.76077
  42
0.011736834
  0
VERTEX
  5
142
  8
Layer_0
  10
176.099
  20
335.73929
  42
-0.29343222
  0
VERTEX
  5
143
  8
Layer_0
  10
176.06076
  20
335.72702
  0
VERTEX
  5
144
  8
Layer_0
  10
176.07077
  20
335.74515
  0
VERTEX
  5
145
  8
Layer_0
  10
176.09699
  20
335.78659
  0
VERTEX
  5
146
  8
Layer_0
  10
176.17518
  20
335.91036
  0
VERTEX
  5
147
  8
Layer_0
  10
176.21812
  20
335.98289
  42
-0.15441518
  0
VERTEX
  5
148
  8
Layer_0
  10
176.228
  20
335.99985
  42
0.045422933
  0
VERTEX
  5
149
  8
Layer_0
  10
176.36534
  20
336.26266
  42
0.019188341
  0
VERTEX
  5
14a
  8
Layer_0
  10
176.42503
  20
336.39734
  42
-0.011110617
  0
VERTEX
  5
14b
  8
Layer_0
  10
176.44733
  20
336.45288
  42
0.041222096
  0
VERTEX
  5
14c
  8
Layer_0
  10
176.55836
  20
336.79932
  42
0.029287525
  0
VERTEX
  5
14d
  8
Layer_0
  10
176.62032
  20
337.16159
  42
0.058393164
  0
VERTEX
  5
14e
  8
Layer_0
  10
176.62338
  20
337.57944
  42
0.043030523
  0
VERTEX
  5
14f
  8
Layer_0
  10
176.54526
  20
337.96817
  42
0.013668766
  0
VERTEX
  5
150
  8
Layer_0
  10
176.51324
  20
338.06339
  42
0.015836649
  0
VERTEX
  5
151
  8
Layer_0
  10
176.48242
  20
338.1427
  42
-0.0016511203
  0
VERTEX
  5
152
  8
Layer_0
  10
176.46217
  20
338.19031
  42
0.062367179
  0
VERTEX
  5
153
  8
Layer_0
  10
176.27226
  20
338.51559
  42
0.12579908
  0
VERTEX
  5
154
  8
Layer_0
  10
175.67842
  20
338.99438
  42
0.0747306
  0
VERTEX
  5
155
  8
Layer_0
  10
175.27138
  20
339.0997
  42
0.062033441
  0
VERTEX
  5
156
  8
Layer_0
  10
175.01376
  20
339.09921
  0
SEQEND
  0
POLYLINE
  5
158
  8
Layer_0
  62
1
  66
1
  10
0
  20
0
  30
0
  0
VERTEX
  5
158
  8
Layer_0
  10
175.33279
  20
338.87714
  42
-0.095729454
  0
VERTEX
  5
159
  8
Layer_0
  10
175.76881
  20
338.73001
  42
-0.051745087
  0
VERTEX
  5
15a
  8
Layer_0
  10
175.93492
  20
338.61725
  42
-0.044854093
  0
VERTEX
  5
15b
  8
Layer_0
  10
176.11871
  20
338.42932
  42
-0.077697131
  0
VERTEX
  5
15c
  8
Layer_0
  10
176.35133
  20
338.01578
  42
-0.027235299
  0
VERTEX
  5
15d
  8
Layer_0
  10
176.40309
  20
337.84653
  42
-0.028597841
  0
VERTEX
  5
15e
  8
Layer_0
  10
176.44762
  20
337.60587
  42
-0.063299678
  0
VERTEX
  5
15f
  8
Layer_0
  10
176.44739
  20
337.22241
  42
-0.035958258
  0
VERTEX
  5
160
  8
Layer_0
  10
176.38278
  20
336.8707
  42
-0.034881682
  0
VERTEX
  5
161
  8
Layer_0
  10
176.28075
  20
336.56131
  42
0.0079135471
  0
VERTEX
  5
162
  8
Layer_0
  10
176.27113
  20
336.53751
  42
-0.014804308
  0
VERTEX
  5
163
  8
Layer_0
  10
176.25323
  20
336.49637
  42
0.10675584
  0
VERTEX
  5
164
  8
Layer_0
  10
176.2394
  20
336.46326
  0
VERTEX
  5
165
  8
Layer_0
  10
176.17822
  20
336.33259
  0
VERTEX
  5
166
  8
Layer_0
  10
176.09077
  20
336.16727
  42
0.0091463423
  0
VERTEX
  5
167
  8
Layer_0
  10
176.06798
  20
336.12759
  42
-0.021038995
  0
VERTEX
  5
168
  8
Layer_0
  10
175.95158
  20
335.94092
  42
0.14881749
  0
VERTEX
  5
169
  8
Layer_0
  10
175.90973
  20
335.85989
  42
-0.50688795
  0
VERTEX
  5
16a
  8
Layer_0
  10
175.89934
  20
335.84457
  42
0.33323956
  0
VERTEX
  5
16b
  8
Layer_0
  10
175.87674
  20
335.82959
  42
-0.061884568
  0
VERTEX
  5
16c
  8
Layer_0
  10
175.79831
  20
335.72034
  42
0.046955351
  0
VERTEX
  5
16d
  8
Layer_0
  10
175.74115
  20
335.6463
  42
-0.01297562
  0
VERTEX
  5
16e
  8
Layer_0
  10
175.67166
  20
335.55682
  0
VERTEX
  5
16f
  8
Layer_0
  10
175.65639
  20
335.53876
  0
VERTEX
  5
170
  8
Layer_0
  10
175.60094
  20
335.58099
  42
0.094890511
  0
VERTEX
  5
171
  8
Layer_0
  10
174.98984
  20
335.8895
  42
0.015616057
  0
VERTEX
  5
172
  8
Layer_0
  10
174.88881
  20
335.91562
  42
-0.0010073022
  0
VERTEX
  5
173
  8
Layer_0
  10
174.8383
  20
335.92648
  42
0.016242059
  0
VERTEX
  5
174
  8
Layer_0
  10
174.7798
  20
335.93671
  42
-0.0020586999
  0
VERTEX
  5
175
  8
Layer_0
  10
174.70802
  20
335.94775
  42
0.053485551
  0
VERTEX
  5
176
  8
Layer_0
  10
174.36374
  20
335.95901
  42
0.024722533
  0
VERTEX
  5
177
  8
Layer_0
  10
174.22415
  20
335.94769
  42
-0.0022535483
  0
VERTEX
  5
178
  8
Layer_0
  10
174.15237
  20
335.9368
  42
0.043388351
  0
VERTEX
  5
179
  8
Layer_0
  10
173.88916
  20
335.87936
  42
-0.012566379
  0
VERTEX
  5
17a
  8
Layer_0
  10
173.85194
  20
335.86835
  42
0.014622378
  0
VERTEX
  5
17b
  8
Layer_0
  10
173.78345
  20
335.84659
  42
-0.082165956
  0
VERTEX
  5
17c
  8
Layer_0
  10
173.73227
  20
335.83142
  0
VERTEX
  5
17d
  8
Layer_0
  10
173.72766
  20
335.83755
  0
VERTEX
  5
17e
  8
Layer_0
  10
173.72379
  20
335.86297
  0
VERTEX
  5
17f
  8
Layer_0
  10
173.71959
  20
335.91824
  0
VERTEX
  5
180
  8
Layer_0
  10
173.71401
  20
336.01389
  42
-0.05277887
  0
VERTEX
  5
181
  8
Layer_0
  10
173.75592
  20
336.90244
  42
0.0018532573
  0
VERTEX
  5
182
  8
Layer_0
  10
173.76726
  20
336.9765
  42
-0.017031465
  0
VERTEX
  5
183
  8
Layer_0
  10
173.80148
  20
337.16159
  42
-0.010318083
  0
VERTEX
  5
184
  8
Layer_0
  10
173.85318
  20
337.37845
  42
0.0060463137
  0
VERTEX
  5
185
  8
Layer_0
  10
173.87846
  20
337.47629
  42
-0.017035607
  0
VERTEX
  5
186
  8
Layer_0
  10
173.89355
  20
337.52917
  42
-0.0053360793
  0
VERTEX
  5
187
  8
Layer_0
  10
173.94476
  20
337.69049
  42
-0.066742937
  0
VERTEX
  5
188
  8
Layer_0
  10
174.25317
  20
338.35428
  42
-0.10088995
  0
VERTEX
  5
189
  8
Layer_0
  10
174.62294
  20
338.7319
  0
VERTEX
  5
18a
  8
Layer_0
  10
174.70844
  20
338.78096
  0
VERTEX
  5
18b
  8
Layer_0
  10
174.7698
  20
338.80913
  42
0.10657661
  0
VERTEX
  5
18c
  8
Layer_0
  10
174.78964
  20
338.81671
  42
-0.062455861
  0
VERTEX
  5
18d
  8
Layer_0
  10
174.99249
  20
338.87357
  42
-0.07673283
  0
VERTEX
  5
18e
  8
Layer_0
  10
175.33279
  20
338.87714
  0
SEQEND
  0
POLYLINE
  5
190
  8
Layer_0
  62
1
  66
1
  10
0
  20
0
  30
0
  0
VERTEX
  5
190
  8
Layer_0
  10
172.00685
  20
336.92627
  42
-0.017706441
  0
VERTEX
  5
191
  8
Layer_0
  10
172.24081
  20
336.88379
  42
-0.038139648
  0
VERTEX
  5
192
  8
Layer_0
  10
172.41895
  20
336.8309
  42
0.0021518889
  0
VERTEX
  5
193
  8
Layer_0
  10
172.47478
  20
336.80963
  42
-0.050827474
  0
VERTEX
  5
194
  8
Layer_0
  10
172.82585
  20
336.6351
  42
-0.10079
  0
VERTEX
  5
195
  8
Layer_0
  10
173.50243
  20
335.97687
  0
VERTEX
  5
196
  8
Layer_0
  10
173.54619
  20
335.91339
  0
VERTEX
  5
197
  8
Layer_0
  10
173.54948
  20
335.87109
  42
0.0084734947
  0
VERTEX
  5
198
  8
Layer_0
  10
173.55664
  20
335.7944
  0
VERTEX
  5
199
  8
Layer_0
  10
173.5605
  20
335.76001
  0
VERTEX
  5
19a
  8
Layer_0
  10
173.50832
  20
335.73358
  42
0.1354391
  0
VERTEX
  5
19b
  8
Layer_0
  10
172.88699
  20
335.14944
  42
0.074021415
  0
VERTEX
  5
19c
  8
Layer_0
  10
172.6761
  20
334.66284
  42
0.01108236
  0
VERTEX
  5
19d
  8
Layer_0
  10
172.6506
  20
334.55942
  42
0.032921936
  0
VERTEX
  5
19e
  8
Layer_0
  10
172.60733
  20
334.27908
  42
0.027149491
  0
VERTEX
  5
19f
  8
Layer_0
  10
172.60323
  20
334.07678
  0
VERTEX
  5
1a0
  8
Layer_0
  10
172.6037
  20
333.9659
  0
VERTEX
  5
1a1
  8
Layer_0
  10
172.59728
  20
333.94328
  42
-0.047913675
  0
VERTEX
  5
1a2
  8
Layer_0
  10
172.39236
  20
333.98016
  42
-0.015271247
  0
VERTEX
  5
1a3
  8
Layer_0
  10
172.29665
  20
334.00388
  42
0.0078727359
  0
VERTEX
  5
1a4
  8
Layer_0
  10
172.2036
  20
334.02765
  42
-0.023595532
  0
VERTEX
  5
1a5
  8
Layer_0
  10
172.04141
  20
334.07803
  42
-0.021935242
  0
VERTEX
  5
1a6
  8
Layer_0
  10
171.87393
  20
334.14059
  42
0.0048359658
  0
VERTEX
  5
1a7
  8
Layer_0
  10
171.80746
  20
334.16815
  42
-0.018613209
  0
VERTEX
  5
1a8
  8
Layer_0
  10
171.61337
  20
334.25778
  42
-0.0156313
  0
VERTEX
  5
1a9
  8
Layer_0
  10
171.36613
  20
334.39252
  42
-0.033754526
  0
VERTEX
  5
1aa
  8
Layer_0
  10
171.07101
  20
334.59583
  42
-0.046265144
  0
VERTEX
  5
1ab
  8
Layer_0
  10
170.68512
  20
334.95081
  42
-0.040480048
  0
VERTEX
  5
1ac
  8
Layer_0
  10
170.51463
  20
335.17853
  42
-0.048417489
  0
VERTEX
  5
1ad
  8
Layer_0
  10
170.42197
  20
335.35806
  42
-0.042799724
  0
VERTEX
  5
1ae
  8
Layer_0
  10
170.36281
  20
335.56168
  42
-0.094249088
  0
VERTEX
  5
1af
  8
Layer_0
  10
170.3629
  20
335.86844
  42
-0.068357456
  0
VERTEX
  5
1b0
  8
Layer_0
  10
170.46532
  20
336.18842
  42
-0.13791407
  0
VERTEX
  5
1b1
  8
Layer_0
  10
170.91762
  20
336.6864
  42
-0.092468414
  0
VERTEX
  5
1b2
  8
Layer_0
  10
171.44057
  20
336.90173
  42
-0.034971709
  0
VERTEX
  5
1b3
  8
Layer_0
  10
171.65591
  20
336.93375
  42
-0.053209739
  0
VERTEX
  5
1b4
  8
Layer_0
  10
172.00685
  20
336.92627
  0
SEQEND
  0
POLYLINE
  5
1b6
  8
Layer_0
  62
1
  66
1
  10
0
  20
0
  30
0
  0
VERTEX
  5
1b6
  8
Layer_0
  10
174.5618
  20
335.75204
  42
-0.097268615
  0
VERTEX
  5
1b7
  8
Layer_0
  10
175.21124
  20
335.56461
  42
-0.1258522
  0
VERTEX
  5
1b8
  8
Layer_0
  10
175.79341
  20
335.05392
  0
VERTEX
  5
1b9
  8
Layer_0
  10
175.92326
  20
334.79891
  0
VERTEX
  5
1ba
  8
Layer_0
  10
175.99767
  20
334.51051
  0
VERTEX
  5
1bb
  8
Layer_0
  10
176.01434
  20
334.20359
  0
VERTEX
  5
1bc
  8
Layer_0
  10
175.97103
  20
333.893
  42
-0.14161645
  0
VERTEX
  5
1bd
  8
Layer_0
  10
175.52069
  20
333.09402
  42
-0.14994423
  0
VERTEX
  5
1be
  8
Layer_0
  10
174.60434
  20
332.6312
  42
-0.071039938
  0
VERTEX
  5
1bf
  8
Layer_0
  10
174.21884
  20
332.62329
  42
-0.14233018
  0
VERTEX
  5
1c0
  8
Layer_0
  10
173.35213
  20
332.98773
  42
-0.064237049
  0
VERTEX
  5
1c1
  8
Layer_0
  10
173.09946
  20
333.2464
  42
-0.1308823
  0
VERTEX
  5
1c2
  8
Layer_0
  10
172.80687
  20
333.9935
  42
-0.065688135
  0
VERTEX
  5
1c3
  8
Layer_0
  10
172.81207
  20
334.41132
  0
VERTEX
  5
1c4
  8
Layer_0
  10
172.89023
  20
334.74538
  0
VERTEX
  5
1c5
  8
Layer_0
  10
173.0217
  20
335.04035
  0
VERTEX
  5
1c6
  8
Layer_0
  10
173.20214
  20
335.28866
  0
VERTEX
  5
1c7
  8
Layer_0
  10
173.42722
  20
335.48278
  42
-0.12607583
  0
VERTEX
  5
1c8
  8
Layer_0
  10
174.25385
  20
335.75171
  42
-0.044621962
  0
VERTEX
  5
1c9
  8
Layer_0
  10
174.5618
  20
335.75204
  0
SEQEND
  0
POLYLINE
  5
1cb
  8
Layer_0
  62
1
  66
1
  10
0
  20
0
  30
0
  0
VERTEX
  5
1cb
  8
Layer_0
  10
177.61922
  20
335.73685
  42
0.0021008992
  0
VERTEX
  5
1cc
  8
Layer_0
  10
177.7043
  20
335.72546
  42
-0.022393534
  0
VERTEX
  5
1cd
  8
Layer_0
  10
177.8904
  20
335.6936
  42
-0.023817222
  0
VERTEX
  5
1ce
  8
Layer_0
  10
177.9994
  20
335.66772
  42
0.010780584
  0
VERTEX
  5
1cf
  8
Layer_0
  10
178.03662
  20
335.65677
  42
-0.038945494
  0
VERTEX
  5
1d0
  8
Layer_0
  10
178.22665
  20
335.59308
  42
0.01219166
  0
VERTEX
  5
1d1
  8
Layer_0
  10
178.28514
  20
335.56857
  42
-0.065326442
  0
VERTEX
  5
1d2
  8
Layer_0
  10
178.58165
  20
335.39621
  42
-0.067616281
  0
VERTEX
  5
1d3
  8
Layer_0
  10
178.79759
  20
335.18909
  42
-0.023187856
  0
VERTEX
  5
1d4
  8
Layer_0
  10
178.85181
  20
335.1124
  0
VERTEX
  5
1d5
  8
Layer_0
  10
178.92926
  20
334.9656
  0
VERTEX
  5
1d6
  8
Layer_0
  10
178.97246
  20
334.85183
  42
0.26056252
  0
VERTEX
  5
1d7
  8
Layer_0
  10
178.97778
  20
334.83972
  42
-0.26056253
  0
VERTEX
  5
1d8
  8
Layer_0
  10
178.98309
  20
334.82379
  42
0.093720315
  0
VERTEX
  5
1d9
  8
Layer_0
  10
178.98785
  20
334.79898
  42
-0.11259488
  0
VERTEX
  5
1da
  8
Layer_0
  10
179.00906
  20
334.54013
  42
-0.067586473
  0
VERTEX
  5
1db
  8
Layer_0
  10
178.9682
  20
334.34784
  0
VERTEX
  5
1dc
  8
Layer_0
  10
178.91291
  20
334.23249
  0
VERTEX
  5
1dd
  8
Layer_0
  10
178.83152
  20
334.11924
  0
VERTEX
  5
1de
  8
Layer_0
  10
178.72649
  20
334.01101
  0
VERTEX
  5
1df
  8
Layer_0
  10
178.60025
  20
333.91069
  42
-0.051157135
  0
VERTEX
  5
1e0
  8
Layer_0
  10
178.22672
  20
333.70856
  42
-0.0074179428
  0
VERTEX
  5
1e1
  8
Layer_0
  10
178.10176
  20
333.6571
  42
0.0021862646
  0
VERTEX
  5
1e2
  8
Layer_0
  10
178.07784
  20
333.64749
  42
-0.012289614
  0
VERTEX
  5
1e3
  8
Layer_0
  10
178.02599
  20
333.62863
  42
0.038992516
  0
VERTEX
  5
1e4
  8
Layer_0
  10
177.97688
  20
333.60971
  42
-0.12386833
  0
VERTEX
  5
1e5
  8
Layer_0
  10
177.95801
  20
333.60474
  42
0.18253544
  0
VERTEX
  5
1e6
  8
Layer_0
  10
177.9433
  20
333.60031
  42
-0.10762079
  0
VERTEX
  5
1e7
  8
Layer_0
  10
177.89838
  20
333.5838
  42
0.003309874
  0
VERTEX
  5
1e8
  8
Layer_0
  10
177.82127
  20
333.55997
  42
-0.006917753
  0
VERTEX
  5
1e9
  8
Layer_0
  10
177.76279
  20
333.54208
  42
-0.010844095
  0
VERTEX
  5
1ea
  8
Layer_0
  10
177.64182
  20
333.50903
  42
0.0020068243
  0
VERTEX
  5
1eb
  8
Layer_0
  10
177.60062
  20
333.49896
  42
-0.017713128
  0
VERTEX
  5
1ec
  8
Layer_0
  10
177.37729
  20
333.45035
  42
0.002578754
  0
VERTEX
  5
1ed
  8
Layer_0
  10
177.32411
  20
333.4408
  42
-0.0081515052
  0
VERTEX
  5
1ee
  8
Layer_0
  10
177.2603
  20
333.43033
  42
0.037257533
  0
VERTEX
  5
1ef
  8
Layer_0
  10
177.19383
  20
333.41605
  42
-0.060868175
  0
VERTEX
  5
1f0
  8
Layer_0
  10
177.0928
  20
333.40366
  42
0.0043053253
  0
VERTEX
  5
1f1
  8
Layer_0
  10
176.92265
  20
333.3924
  42
-0.040704646
  0
VERTEX
  5
1f2
  8
Layer_0
  10
176.28725
  20
333.3927
  42
0.017608975
  0
VERTEX
  5
1f3
  8
Layer_0
  10
176.09052
  20
333.40222
  0
VERTEX
  5
1f4
  8
Layer_0
  10
176.00842
  20
333.40506
  0
VERTEX
  5
1f5
  8
Layer_0
  10
175.97159
  20
333.4089
  42
-0.3772425
  0
VERTEX
  5
1f6
  8
Layer_0
  10
175.98045
  20
333.43109
  42
0.065373188
  0
VERTEX
  5
1f7
  8
Layer_0
  10
176.05511
  20
333.57831
  42
-0.0080183919
  0
VERTEX
  5
1f8
  8
Layer_0
  10
176.07295
  20
333.61993
  42
0.040771458
  0
VERTEX
  5
1f9
  8
Layer_0
  10
176.14153
  20
333.82425
  42
0.019083825
  0
VERTEX
  5
1fa
  8
Layer_0
  10
176.18568
  20
334.02258
  42
0.094008254
  0
VERTEX
  5
1fb
  8
Layer_0
  10
176.18646
  20
334.63083
  42
0.12572046
  0
VERTEX
  5
1fc
  8
Layer_0
  10
175.87578
  20
335.31494
  0
VERTEX
  5
1fd
  8
Layer_0
  10
175.83974
  20
335.35978
  0
VERTEX
  5
1fe
  8
Layer_0
  10
175.82593
  20
335.37961
  42
-0.19643029
  0
VERTEX
  5
1ff
  8
Layer_0
  10
175.91577
  20
335.42413
  42
0.10796027
  0
VERTEX
  5
200
  8
Layer_0
  10
175.96893
  20
335.44742
  42
-0.01697948
  0
VERTEX
  5
201
  8
Layer_0
  10
176.1171
  20
335.50867
  42
0.028535563
  0
VERTEX
  5
202
  8
Layer_0
  10
176.2247
  20
335.55154
  42
-0.12136412
  0
VERTEX
  5
203
  8
Layer_0
  10
176.24205
  20
335.5564
  42
0.12629818
  0
VERTEX
  5
204
  8
Layer_0
  10
176.2594
  20
335.56146
  42
-0.056145944
  0
VERTEX
  5
205
  8
Layer_0
  10
176.40422
  20
335.60925
  42
0.0057283338
  0
VERTEX
  5
206
  8
Layer_0
  10
176.44942
  20
335.62271
  42
-0.0136843
  0
VERTEX
  5
207
  8
Layer_0
  10
176.5797
  20
335.65683
  42
-0.0068449667
  0
VERTEX
  5
208
  8
Layer_0
  10
176.62357
  20
335.66711
  42
0.00047301365
  0
VERTEX
  5
209
  8
Layer_0
  10
176.67142
  20
335.67783
  42
-0.011215811
  0
VERTEX
  5
20a
  8
Layer_0
  10
176.811
  20
335.70447
  42
-0.018197184
  0
VERTEX
  5
20b
  8
Layer_0
  10
177.0742
  20
335.73865
  42
-0.060253755
  0
VERTEX
  5
20c
  8
Layer_0
  10
177.61922
  20
335.73685
  0
SEQEND
  0
POLYLINE
  5
20e
  8
Layer_0
  62
1
  66
1
  10
0
  20
0
  30
0
  0
VERTEX
  5
20e
  8
Layer_0
  10
172.48479
  20
333.74246
  42
0.032198275
  0
VERTEX
  5
20f
  8
Layer_0
  10
172.6194
  20
333.71851
  42
-0.30372591
  0
VERTEX
  5
210
  8
Layer_0
  10
172.64751
  20
333.70364
  42
-0.0021496062
  0
VERTEX
  5
211
  8
Layer_0
  10
172.65575
  20
333.67218
  42
0.014835945
  0
VERTEX
  5
212
  8
Layer_0
  10
172.68576
  20
333.56772
  42
0.023875977
  0
VERTEX
  5
213
  8
Layer_0
  10
172.70316
  20
333.51749
  42
-0.0093023128
  0
VERTEX
  5
214
  8
Layer_0
  10
172.7252
  20
333.46194
  42
0.054242881
  0
VERTEX
  5
215
  8
Layer_0
  10
172.86943
  20
333.18869
  42
0.050385824
  0
VERTEX
  5
216
  8
Layer_0
  10
173.08577
  20
332.9274
  42
0.080005068
  0
VERTEX
  5
217
  8
Layer_0
  10
173.54425
  20
332.599
  42
0.11615977
  0
VERTEX
  5
218
  8
Layer_0
  10
173.63074
  20
332.55753
  42
-0.10414922
  0
VERTEX
  5
219
  8
Layer_0
  10
173.65926
  20
332.54642
  42
0.065970175
  0
VERTEX
  5
21a
  8
Layer_0
  10
174.0766
  20
332.42786
  42
-0.37047712
  0
VERTEX
  5
21b
  8
Layer_0
  10
174.09654
  20
332.4166
  42
-0.10602725
  0
VERTEX
  5
21c
  8
Layer_0
  10
174.07024
  20
332.34927
  42
0.011313103
  0
VERTEX
  5
21d
  8
Layer_0
  10
174.04807
  20
332.29681
  42
-0.012301763
  0
VERTEX
  5
21e
  8
Layer_0
  10
174.02768
  20
332.24854
  42
0.0013231551
  0
VERTEX
  5
21f
  8
Layer_0
  10
173.98233
  20
332.14761
  42
-0.027995464
  0
VERTEX
  5
220
  8
Layer_0
  10
173.78122
  20
331.74936
  42
0.13408172
  0
VERTEX
  5
221
  8
Layer_0
  10
173.76155
  20
331.71338
  42
-0.14326915
  0
VERTEX
  5
222
  8
Layer_0
  10
173.74394
  20
331.68326
  42
0.046071882
  0
VERTEX
  5
223
  8
Layer_0
  10
173.72313
  20
331.64783
  42
-0.07676768
  0
VERTEX
  5
224
  8
Layer_0
  10
173.61421
  20
331.4812
  42
0.018614199
  0
VERTEX
  5
225
  8
Layer_0
  10
173.58357
  20
331.4389
  42
-0.034647442
  0
VERTEX
  5
226
  8
Layer_0
  10
173.44917
  20
331.267
  42
0.025282722
  0
VERTEX
  5
227
  8
Layer_0
  10
173.41968
  20
331.23157
  42
-0.057198765
  0
VERTEX
  5
228
  8
Layer_0
  10
173.21657
  20
331.03137
  42
0.016817966
  0
VERTEX
  5
229
  8
Layer_0
  10
173.17699
  20
330.99796
  42
-0.0445325
  0
VERTEX
  5
22a
  8
Layer_0
  10
173.0463
  20
330.90149
  42
-0.087611133
  0
VERTEX
  5
22b
  8
Layer_0
  10
172.64493
  20
330.72604
  42
-0.063959152
  0
VERTEX
  5
22c
  8
Layer_0
  10
172.31792
  20
330.69232
  42
-0.036031594
  0
VERTEX
  5
22d
  8
Layer_0
  10
172.11055
  20
330.71082
  42
-0.15874662
  0
VERTEX
  5
22e
  8
Layer_0
  10
171.28793
  20
331.12354
  42
-0.14938834
  0
VERTEX
  5
22f
  8
Layer_0
  10
171.0706
  20
331.54468
  42
-0.087887159
  0
VERTEX
  5
230
  8
Layer_0
  10
171.07068
  20
331.84665
  42
-0.056379532
  0
VERTEX
  5
231
  8
Layer_0
  10
171.16638
  20
332.2164
  42
0.0046590171
  0
VERTEX
  5
232
  8
Layer_0
  10
171.19632
  20
332.29044
  42
-0.085361858
  0
VERTEX
  5
233
  8
Layer_0
  10
171.71535
  20
333.11816
  42
-0.045040661
  0
VERTEX
  5
234
  8
Layer_0
  10
172.02849
  20
333.4325
  42
0.0087585344
  0
VERTEX
  5
235
  8
Layer_0
  10
172.09193
  20
333.4856
  42
-0.014108027
  0
VERTEX
  5
236
  8
Layer_0
  10
172.2888
  20
333.64359
  42
-0.0045771853
  0
VERTEX
  5
237
  8
Layer_0
  10
172.39767
  20
333.72363
  42
-0.22551379
  0
VERTEX
  5
238
  8
Layer_0
  10
172.48479
  20
333.74246
  0
SEQEND
  0
POLYLINE
  5
23a
  8
Layer_0
  62
1
  66
1
  10
0
  20
0
  30
0
  0
VERTEX
  5
23a
  8
Layer_0
  10
175.90972
  20
333.26311
  0
VERTEX
  5
23b
  8
Layer_0
  10
175.91149
  20
333.22392
  0
VERTEX
  5
23c
  8
Layer_0
  10
175.92169
  20
333.21462
  42
-0.078310264
  0
VERTEX
  5
23d
  8
Layer_0
  10
176.08388
  20
333.12808
  42
-0.078552841
  0
VERTEX
  5
23e
  8
Layer_0
  10
176.66753
  20
332.62894
  42
0.023111425
  0
VERTEX
  5
23f
  8
Layer_0
  10
176.69667
  20
332.59454
  42
-0.047128535
  0
VERTEX
  5
240
  8
Layer_0
  10
176.79897
  20
332.45438
  42
-0.048844631
  0
VERTEX
  5
241
  8
Layer_0
  10
177.01329
  20
332.06302
  42
-0.034092614
  0
VERTEX
  5
242
  8
Layer_0
  10
177.07964
  20
331.8779
  42
-0.066857599
  0
VERTEX
  5
243
  8
Layer_0
  10
177.1501
  20
331.3913
  42
-0.043180305
  0
VERTEX
  5
244
  8
Layer_0
  10
177.132
  20
331.1586
  42
-0.13932029
  0
VERTEX
  5
245
  8
Layer_0
  10
176.91045
  20
330.68701
  42
-0.096046555
  0
VERTEX
  5
246
  8
Layer_0
  10
176.73613
  20
330.53204
  42
0.028146046
  0
VERTEX
  5
247
  8
Layer_0
  10
176.70731
  20
330.51566
  42
-0.027943044
  0
VERTEX
  5
248
  8
Layer_0
  10
176.57437
  20
330.44455
  42
-0.05147968
  0
VERTEX
  5
249
  8
Layer_0
  10
176.38562
  20
330.37299
  42
0.00011300104
  0
VERTEX
  5
24a
  8
Layer_0
  10
176.34042
  20
330.36108
  42
-0.02158816
  0
VERTEX
  5
24b
  8
Layer_0
  10
176.1942
  20
330.33008
  42
-0.086164817
  0
VERTEX
  5
24c
  8
Layer_0
  10
175.86984
  20
330.33032
  42
-0.11720377
  0
VERTEX
  5
24d
  8
Layer_0
  10
175.20784
  20
330.61591
  42
-0.07317072
  0
VERTEX
  5
24e
  8
Layer_0
  10
174.82932
  20
330.98529
  0
VERTEX
  5
24f
  8
Layer_0
  10
174.7596
  20
331.08422
  0
VERTEX
  5
250
  8
Layer_0
  10
174.71866
  20
331.14825
  42
0.14284702
  0
VERTEX
  5
251
  8
Layer_0
  10
174.70439
  20
331.17325
  42
-0.028198784
  0
VERTEX
  5
252
  8
Layer_0
  10
174.62105
  20
331.32782
  42
-0.022923841
  0
VERTEX
  5
253
  8
Layer_0
  10
174.54404
  20
331.50238
  42
-0.021662267
  0
VERTEX
  5
254
  8
Layer_0
  10
174.47426
  20
331.70599
  42
0.0081137417
  0
VERTEX
  5
255
  8
Layer_0
  10
174.46329
  20
331.74301
  42
-0.015467809
  0
VERTEX
  5
256
  8
Layer_0
  10
174.44507
  20
331.81177
  42
0.014101237
  0
VERTEX
  5
257
  8
Layer_0
  10
174.42598
  20
331.88354
  42
-0.076015898
  0
VERTEX
  5
258
  8
Layer_0
  10
174.4209
  20
331.90964
  42
0.077245312
  0
VERTEX
  5
259
  8
Layer_0
  10
174.41571
  20
331.9357
  42
-0.033921488
  0
VERTEX
  5
25a
  8
Layer_0
  10
174.37851
  20
332.12912
  42
-0.0080728821
  0
VERTEX
  5
25b
  8
Layer_0
  10
174.35756
  20
332.26398
  42
0.0045649731
  0
VERTEX
  5
25c
  8
Layer_0
  10
174.34673
  20
332.336
  42
-0.03969188
  0
VERTEX
  5
25d
  8
Layer_0
  10
174.34113
  20
332.3902
  0
VERTEX
  5
25e
  8
Layer_0
  10
174.34113
  20
332.40942
  0
VERTEX
  5
25f
  8
Layer_0
  10
174.36639
  20
332.40948
  42
0.062557154
  0
VERTEX
  5
260
  8
Layer_0
  10
174.71068
  20
332.45682
  42
0.040741328
  0
VERTEX
  5
261
  8
Layer_0
  10
175.00734
  20
332.55713
  42
-0.010508601
  0
VERTEX
  5
262
  8
Layer_0
  10
175.05521
  20
332.57712
  42
0.049543055
  0
VERTEX
  5
263
  8
Layer_0
  10
175.26782
  20
332.68774
  42
-0.14379735
  0
VERTEX
  5
264
  8
Layer_0
  10
175.30679
  20
332.71091
  0
VERTEX
  5
265
  8
Layer_0
  10
175.38425
  20
332.76274
  0
VERTEX
  5
266
  8
Layer_0
  10
175.48966
  20
332.83942
  42
0.033389317
  0
VERTEX
  5
267
  8
Layer_0
  10
175.67204
  20
333.00415
  0
VERTEX
  5
268
  8
Layer_0
  10
175.78884
  20
333.13622
  0
VERTEX
  5
269
  8
Layer_0
  10
175.85123
  20
333.22289
  42
-0.29691359
  0
VERTEX
  5
26a
  8
Layer_0
  10
175.85522
  20
333.2301
  42
0.18738493
  0
VERTEX
  5
26b
  8
Layer_0
  10
175.89413
  20
333.29138
  42
-0.29763276
  0
VERTEX
  5
26c
  8
Layer_0
  10
175.9057
  20
333.30856
  0
VERTEX
  5
26d
  8
Layer_0
  10
175.90854
  20
333.29521
  0
VERTEX
  5
26e
  8
Layer_0
  10
175.90972
  20
333.26311
  0
SEQEND
  0
ENDSEC
  0
EOF
